<?xml version="1.0" encoding="UTF-8"?>
<!DOCTYPE svg PUBLIC "-//W3C//DTD SVG 1.1//EN" "http://www.w3.org/Graphics/SVG/1.1/DTD/svg11.dtd">
<svg version="1.1" xmlns="http://www.w3.org/2000/svg" xmlns:xlink="http://www.w3.org/1999/xlink" x="0" y="0" width="84.98" height="36.595" viewBox="0, 0, 84.98, 36.595">
  <g id="Layer_1" transform="translate(-3.648, -307.965)">
    <path d="M24.123,329.755 C24.123,329.318 23.999,328.966 23.845,328.966 C23.69,328.966 23.566,329.318 23.566,329.755 C23.566,330.19 23.69,330.544 23.845,330.544 C23.999,330.544 24.123,330.19 24.123,329.755 z M25.701,329.894 C25.701,329.458 25.576,329.104 25.422,329.104 C25.268,329.104 25.144,329.458 25.144,329.894 C25.144,330.33 25.268,330.683 25.422,330.683 C25.576,330.683 25.701,330.33 25.701,329.894 z M27.186,329.801 C27.186,329.365 27.061,329.012 26.907,329.012 C26.753,329.012 26.629,329.365 26.629,329.801 C26.629,330.237 26.753,330.591 26.907,330.591 C27.061,330.591 27.186,330.237 27.186,329.801 z M28.671,329.894 C28.671,329.458 28.547,329.104 28.392,329.104 C28.239,329.104 28.114,329.458 28.114,329.894 C28.114,330.33 28.239,330.683 28.392,330.683 C28.547,330.683 28.671,330.33 28.671,329.894 z M30.156,329.708 C30.156,329.271 30.032,328.919 29.877,328.919 C29.723,328.919 29.599,329.271 29.599,329.708 C29.599,330.144 29.723,330.497 29.877,330.497 C30.032,330.497 30.156,330.144 30.156,329.708 z M31.548,329.801 C31.548,329.365 31.423,329.012 31.27,329.012 C31.115,329.012 30.991,329.365 30.991,329.801 C30.991,330.237 31.115,330.591 31.27,330.591 C31.423,330.591 31.548,330.237 31.548,329.801 z M33.033,329.801 C33.033,329.365 32.909,329.012 32.754,329.012 C32.601,329.012 32.477,329.365 32.477,329.801 C32.477,330.237 32.601,330.591 32.754,330.591 C32.909,330.591 33.033,330.237 33.033,329.801 z M34.425,329.616 C34.425,329.179 34.301,328.826 34.147,328.826 C33.993,328.826 33.869,329.179 33.869,329.616 C33.869,330.052 33.993,330.404 34.147,330.404 C34.301,330.404 34.425,330.052 34.425,329.616 z M35.817,329.616 C35.817,329.179 35.693,328.826 35.539,328.826 C35.385,328.826 35.26,329.179 35.26,329.616 C35.26,330.052 35.385,330.404 35.539,330.404 C35.693,330.404 35.817,330.052 35.817,329.616 z M37.21,329.616 C37.21,329.179 37.085,328.826 36.931,328.826 C36.777,328.826 36.653,329.179 36.653,329.616 C36.653,330.052 36.777,330.404 36.931,330.404 C37.085,330.404 37.21,330.052 37.21,329.616 z M38.602,329.522 C38.602,329.087 38.477,328.734 38.323,328.734 C38.169,328.734 38.045,329.087 38.045,329.522 C38.045,329.958 38.169,330.311 38.323,330.311 C38.477,330.311 38.602,329.958 38.602,329.522 z M39.994,329.522 C39.994,329.087 39.87,328.734 39.716,328.734 C39.561,328.734 39.437,329.087 39.437,329.522 C39.437,329.958 39.561,330.311 39.716,330.311 C39.87,330.311 39.994,329.958 39.994,329.522 z M41.386,329.43 C41.386,328.994 41.262,328.641 41.108,328.641 C40.954,328.641 40.829,328.994 40.829,329.43 C40.829,329.866 40.954,330.219 41.108,330.219 C41.262,330.219 41.386,329.866 41.386,329.43 z M42.686,329.43 C42.686,328.994 42.561,328.641 42.408,328.641 C42.253,328.641 42.129,328.994 42.129,329.43 C42.129,329.866 42.253,330.219 42.408,330.219 C42.561,330.219 42.686,329.866 42.686,329.43 z M43.985,329.43 C43.985,328.994 43.861,328.641 43.706,328.641 C43.553,328.641 43.428,328.994 43.428,329.43 C43.428,329.866 43.553,330.219 43.706,330.219 C43.861,330.219 43.985,329.866 43.985,329.43 z M45.377,329.336 C45.377,328.9 45.253,328.548 45.099,328.548 C44.945,328.548 44.82,328.9 44.82,329.336 C44.82,329.774 44.945,330.127 45.099,330.127 C45.253,330.127 45.377,329.774 45.377,329.336 z M46.584,329.244 C46.584,328.808 46.46,328.455 46.306,328.455 C46.151,328.455 46.027,328.808 46.027,329.244 C46.027,329.68 46.151,330.032 46.306,330.032 C46.46,330.032 46.584,329.68 46.584,329.244 z M47.884,329.244 C47.884,328.808 47.759,328.455 47.605,328.455 C47.451,328.455 47.327,328.808 47.327,329.244 C47.327,329.68 47.451,330.032 47.605,330.032 C47.759,330.032 47.884,329.68 47.884,329.244 z M49.275,329.151 C49.275,328.715 49.151,328.362 48.998,328.362 C48.843,328.362 48.718,328.715 48.718,329.151 C48.718,329.588 48.843,329.94 48.998,329.94 C49.151,329.94 49.275,329.588 49.275,329.151 z M50.575,329.151 C50.575,328.715 50.45,328.362 50.296,328.362 C50.142,328.362 50.018,328.715 50.018,329.151 C50.018,329.588 50.142,329.94 50.296,329.94 C50.45,329.94 50.575,329.588 50.575,329.151 z M51.874,329.058 C51.874,328.622 51.75,328.269 51.596,328.269 C51.442,328.269 51.317,328.622 51.317,329.058 C51.317,329.494 51.442,329.848 51.596,329.848 C51.75,329.848 51.874,329.494 51.874,329.058 z M53.081,329.058 C53.081,328.622 52.956,328.269 52.803,328.269 C52.648,328.269 52.523,328.622 52.523,329.058 C52.523,329.494 52.648,329.848 52.803,329.848 C52.956,329.848 53.081,329.494 53.081,329.058 z M54.287,329.058 C54.287,328.622 54.163,328.269 54.009,328.269 C53.854,328.269 53.73,328.622 53.73,329.058 C53.73,329.494 53.854,329.848 54.009,329.848 C54.163,329.848 54.287,329.494 54.287,329.058 z M55.587,328.872 C55.587,328.436 55.462,328.084 55.308,328.084 C55.154,328.084 55.03,328.436 55.03,328.872 C55.03,329.31 55.154,329.662 55.308,329.662 C55.462,329.662 55.587,329.31 55.587,328.872 z M56.701,328.872 C56.701,328.436 56.576,328.084 56.422,328.084 C56.268,328.084 56.144,328.436 56.144,328.872 C56.144,329.31 56.268,329.662 56.422,329.662 C56.576,329.662 56.701,329.31 56.701,328.872 z M57.907,328.872 C57.907,328.436 57.783,328.084 57.628,328.084 C57.475,328.084 57.35,328.436 57.35,328.872 C57.35,329.31 57.475,329.662 57.628,329.662 C57.783,329.662 57.907,329.31 57.907,328.872 z M59.207,328.872 C59.207,328.436 59.082,328.084 58.929,328.084 C58.774,328.084 58.649,328.436 58.649,328.872 C58.649,329.31 58.774,329.662 58.929,329.662 C59.082,329.662 59.207,329.31 59.207,328.872 z M13.078,327.944 L12.243,329.986 L15.027,329.894 L13.635,327.944 L13.078,327.944 z M11.872,329.801 L12.521,327.852 L11.036,327.76 L9.922,329.43 L11.872,329.801 z M9.458,329.336 L10.665,327.76 L8.623,329.336 L9.458,329.336 z M7.417,329.244 L9.365,327.666 L9.18,327.295 L6.956,328.962 C7.112,328.804 12.254,323.679 18.925,323.86 L34.889,323.582 L35.91,319.963 C35.91,319.963 38.045,319.034 38.509,319.312 L39.901,323.211 L66.074,323.211 L79.997,308.732 C79.997,308.732 82.317,307.804 83.617,307.989 L74.707,324.139 C74.707,324.139 81.296,324.882 78.419,326.553 L88.628,328.594 L86.586,329.058 L76.285,327.48 C76.285,327.48 62.919,334.164 53.823,333.514 L51.225,334.164 L84.916,344.002 C84.916,344.002 86.401,344.002 85.38,344.56 L79.997,344.466 L51.039,337.134 C51.039,337.134 50.668,338.061 47.976,338.061 C47.976,338.061 48.998,339.731 47.884,340.661 C47.884,340.661 39.994,343.816 35.91,342.145 C35.91,342.145 33.775,340.011 35.632,337.691 C35.632,337.691 36.467,336.762 38.416,336.854 L38.23,335.648 C38.23,335.648 31.27,335.927 29.877,334.721 C29.877,334.721 11.779,335.741 8.716,335.185 C8.716,335.185 -1.401,334.534 6.952,328.966 L7.417,329.244 z M63.012,328.688 C63.012,329.124 63.137,329.477 63.29,329.477 C63.444,329.477 63.569,329.124 63.569,328.688 C63.569,328.251 63.444,327.897 63.29,327.897 C63.137,327.897 63.012,328.251 63.012,328.688 z M62.641,328.688 C62.641,328.251 62.517,327.897 62.362,327.897 C62.208,327.897 62.083,328.251 62.083,328.688 C62.083,329.124 62.208,329.477 62.362,329.477 C62.517,329.477 62.641,329.124 62.641,328.688 z M60.784,328.688 C60.784,329.124 60.909,329.477 61.062,329.477 C61.217,329.477 61.341,329.124 61.341,328.688 C61.341,328.251 61.217,327.897 61.062,327.897 C60.909,327.897 60.784,328.251 60.784,328.688 z M60.32,328.872 C60.32,328.436 60.196,328.084 60.042,328.084 C59.887,328.084 59.763,328.436 59.763,328.872 C59.763,329.31 59.887,329.662 60.042,329.662 C60.196,329.662 60.32,329.31 60.32,328.872" fill="#000000"/>
  </g>
</svg>
