<?xml version="1.0" encoding="UTF-8"?>
<!DOCTYPE svg PUBLIC "-//W3C//DTD SVG 1.1//EN" "http://www.w3.org/Graphics/SVG/1.1/DTD/svg11.dtd">
<svg version="1.1" xmlns="http://www.w3.org/2000/svg" xmlns:xlink="http://www.w3.org/1999/xlink" x="0" y="0" width="31.301" height="29.609" viewBox="0, 0, 31.301, 29.609">
  <g id="Layer_1" transform="translate(-419.973, -111.938)">
    <g id="ArmChair">
      <path d="M450.303,119.412 C451.529,119.82 451.246,120.668 451.246,120.668 L450.617,129.24 C450.617,130.119 450.208,130.463 450.208,130.463 L448.932,130.871 C449.116,129.943 448.859,127.763 448.859,127.763 C449.362,127.261 448.954,124.843 448.954,124.843 C449.219,123.431 449.393,121.202 449.393,121.202 C449.613,120.071 448.764,119.882 448.764,119.882 L438.656,117.151 L438.498,116.398 L450.303,119.412" fill="#000000"/>
      <path d="M450.208,130.463 L449.8,134.985 L449.329,135.079 L448.985,134.829 L449.298,131.374 L432.626,136.743 L432.659,141.327 L432.092,141.547 L431.716,141.233 L431.622,136.681 L421.669,129.616 L421.843,132.801 L421.347,132.92 L421.113,132.731 L420.805,128.447 L431.685,136.115 C431.685,136.115 431.875,136.304 432.5,136.115 L434.222,135.566 L448.932,130.871 L450.208,130.463" fill="#000000"/>
      <path d="M448.764,119.882 C448.764,119.882 449.613,120.071 449.393,121.202 C449.393,121.202 449.219,123.431 448.954,124.843 C448.954,124.843 445.421,123.493 438.53,122.144 C438.53,122.144 439.755,122.144 439.566,121.013 L438.656,117.151 L448.764,119.882" fill="#000000"/>
      <path d="M448.954,124.843 C448.954,124.843 449.362,127.261 448.859,127.763 L434.024,132.064 L434.024,128.611 L448.954,124.843" fill="#000000"/>
      <path d="M448.954,124.843 L434.024,128.611 L434.024,123.917 C434.024,123.628 433.894,123.384 433.71,123.182 L438.53,122.144 C445.421,123.493 448.954,124.843 448.954,124.843" fill="#000000"/>
      <path d="M448.859,127.763 C448.859,127.763 449.116,129.943 448.932,130.871 L434.222,135.566 C434.088,134.946 434.024,132.064 434.024,132.064 L448.859,127.763" fill="#000000"/>
      <path d="M439.566,121.013 C439.755,122.144 438.53,122.144 438.53,122.144 L433.71,123.182 C433.292,122.718 432.596,122.489 432.596,122.489 L424.723,119.174 C424.723,119.174 423.178,113.605 423.178,113.35 L423.178,113.349 C423.506,113.263 423.75,113.235 423.75,113.235 C424.668,113.093 437.265,111.938 437.265,111.938 C437.596,111.962 437.713,112.474 437.713,112.474 L438.498,116.398 L438.656,117.151 L439.566,121.013" fill="#000000"/>
      <path d="M434.222,135.566 L432.5,136.115 C431.875,136.304 431.685,136.115 431.685,136.115 L431.622,124.436 C431.622,123.651 430.837,123.306 430.837,123.306 L420.037,118.631 C420.11,118.323 420.429,118.227 420.429,118.227 L422.164,117.917 L423.051,118.47 L432.596,122.489 C432.596,122.489 433.292,122.718 433.71,123.182 C433.894,123.384 434.024,123.628 434.024,123.917 L434.024,132.064 C434.024,132.064 434.088,134.946 434.222,135.566" fill="#000000"/>
      <path d="M431.622,124.436 L431.685,136.115 L420.805,128.447 C420.523,128.07 420.029,118.862 420.029,118.862 L420.037,118.631 L430.837,123.306 C430.837,123.306 431.622,123.651 431.622,124.436" fill="#000000"/>
      <path d="M424.723,119.174 L423.051,118.47 L422.808,117.803 C422.713,117.591 422.007,114.601 422.007,114.601 C421.796,114.082 422.031,113.846 422.031,113.846 C422.392,113.594 422.832,113.439 423.178,113.349 L423.178,113.35 C423.178,113.605 424.723,119.174 424.723,119.174" fill="#0B0B0A"/>
      <path d="M422.808,117.803 L423.051,118.47 L422.164,117.917 L422.808,117.803" fill="#0B0B0A"/>
      <path d="M420.733,128.549 L431.613,136.217 L431.685,136.115 L431.597,136.204 C431.617,136.226 431.74,136.325 432.011,136.324 C432.146,136.324 432.318,136.301 432.536,136.235 L434.26,135.685 L448.97,130.99 L450.247,130.582 L450.17,130.344 L448.894,130.752 L434.184,135.447 L432.462,135.996 C432.265,136.055 432.117,136.074 432.011,136.074 C431.904,136.074 431.84,136.056 431.805,136.041 L431.772,136.025 L431.769,136.022 L431.727,136.074 L431.773,136.027 L431.769,136.022 L431.727,136.074 L431.773,136.027 L431.766,136.019 L420.877,128.345 L420.733,128.549" fill="#FFFFFE"/>
      <path d="M419.973,118.739 L419.981,118.743 L419.984,118.744 L430.788,123.421 L430.895,123.479 C431.102,123.605 431.499,123.917 431.497,124.436 L431.56,136.116 L431.81,136.115 L431.747,124.435 C431.747,123.999 431.527,123.683 431.315,123.486 C431.103,123.286 430.896,123.195 430.888,123.192 L420.089,118.517 L420.085,118.515 L419.973,118.739" fill="#FFFFFE"/>
      <path d="M422.097,118.023 L423.293,118.768 L422.926,117.76 L422.691,117.846 L422.81,118.172 L422.23,117.811 L422.098,118.023" fill="#FFFFFE"/>
      <path d="M433.803,123.098 C433.351,122.602 432.644,122.375 432.635,122.37 L432.596,122.489 L432.645,122.374 L423.1,118.355 L423.003,118.585 L432.552,122.606 L432.557,122.608 C432.557,122.608 432.721,122.662 432.939,122.773 C433.158,122.884 433.425,123.052 433.618,123.266 L433.803,123.098" fill="#FFFFFE"/>
      <path d="M449.055,130.895 C449.106,130.636 449.123,130.3 449.123,129.94 C449.123,128.935 448.983,127.751 448.983,127.749 L448.966,127.602 L434.149,131.898 L434.149,123.917 C434.149,123.589 434,123.314 433.803,123.098 L433.618,123.266 C433.788,123.454 433.899,123.667 433.899,123.917 L433.899,132.23 L448.894,127.883 L448.859,127.763 L448.735,127.778 C448.735,127.78 448.873,128.957 448.873,129.94 C448.873,130.291 448.855,130.617 448.809,130.847 L449.055,130.895" fill="#FFFFFE"/>
      <path d="M434.055,128.732 L448.984,124.964 L448.954,124.843 L448.83,124.864 C448.831,124.865 448.985,125.784 448.985,126.594 C448.991,127.091 448.91,127.551 448.771,127.675 L448.947,127.852 C449.191,127.593 449.229,127.113 449.235,126.594 C449.235,125.754 449.077,124.826 449.077,124.822 L449.054,124.688 L433.993,128.49 L434.055,128.732" fill="#FFFFFE"/>
      <path d="M433.737,123.304 L438.556,122.266 L438.53,122.144 L438.53,122.269 C438.539,122.268 438.815,122.269 439.107,122.145 C439.397,122.027 439.715,121.746 439.711,121.239 L439.689,120.993 L439.689,120.989 L438.778,117.124 L438.62,116.372 L438.375,116.424 L438.533,117.177 L439.444,121.042 L439.566,121.013 L439.443,121.034 L439.461,121.239 C439.457,121.637 439.246,121.808 439.009,121.916 C438.89,121.966 438.768,121.993 438.677,122.006 C438.586,122.019 438.53,122.018 438.53,122.019 L438.516,122.019 L433.684,123.06 L433.737,123.304" fill="#FFFFFE"/>
      <path d="M438.623,117.272 L448.734,120.004 L448.737,120.004 L448.756,120.01 C448.863,120.049 449.302,120.203 449.304,120.849 C449.304,120.946 449.294,121.056 449.27,121.178 L449.269,121.185 L449.268,121.192 C449.268,121.196 449.094,123.419 448.831,124.82 L448.954,124.843 L448.998,124.726 C448.992,124.724 445.453,123.372 438.554,122.021 L438.506,122.266 C441.948,122.94 444.55,123.614 446.291,124.119 C447.162,124.372 447.817,124.582 448.254,124.729 C448.691,124.876 448.908,124.959 448.909,124.959 L449.049,125.013 L449.076,124.866 C449.344,123.442 449.517,121.214 449.518,121.212 L449.393,121.202 L449.516,121.226 C449.542,121.089 449.554,120.964 449.554,120.849 C449.556,120.405 449.367,120.12 449.177,119.963 C448.987,119.804 448.803,119.763 448.791,119.76 L448.764,119.882 L448.797,119.762 L438.688,117.031 L438.623,117.272" fill="#FFFFFE"/>
      <path d="M424.844,119.141 C424.843,119.138 424.457,117.749 424.071,116.325 C423.878,115.613 423.685,114.893 423.541,114.336 C423.468,114.058 423.408,113.82 423.366,113.644 L423.318,113.432 L423.306,113.369 L423.304,113.351 L423.303,113.35 L423.053,113.35 C423.056,113.42 423.08,113.519 423.123,113.702 C423.42,114.946 424.602,119.207 424.603,119.208 L424.844,119.141" fill="#FFFFFE"/>
    </g>
  </g>
</svg>
