<?xml version="1.0" encoding="UTF-8"?>
<!DOCTYPE svg PUBLIC "-//W3C//DTD SVG 1.1//EN" "http://www.w3.org/Graphics/SVG/1.1/DTD/svg11.dtd">
<svg version="1.1" xmlns="http://www.w3.org/2000/svg" xmlns:xlink="http://www.w3.org/1999/xlink" x="0" y="0" width="17.814" height="8.657" viewBox="0, 0, 17.814, 8.657">
  <g id="Layer_1" transform="translate(-55.436, -185.684)">
    <path d="M59.236,189.194 C59.236,189.194 60.736,189.463 62.684,190.002 C62.684,190.002 65.397,190.632 67.856,189.344 C67.856,189.344 69.07,188.804 70.506,186.887 C70.506,186.887 71.879,185.598 72.134,185.688 C72.134,185.688 72.326,185.748 72.485,185.748 C72.485,185.748 72.709,185.658 72.709,185.928 C72.709,185.928 72.869,185.838 72.933,186.197 C72.933,186.197 73.028,186.586 73.188,187.127 C73.188,187.127 73.347,188.384 73.156,188.745 C73.156,188.745 72.422,190.842 70.985,191.89 C70.985,191.89 68.751,193.778 66.579,194.108 C66.579,194.108 63.099,194.767 60.928,193.868 C60.928,193.868 59.395,193.568 58.246,191.71 C58.246,191.71 57.831,190.542 58.023,189.913 C58.023,189.913 57.384,188.655 56.618,188.534 C56.618,188.534 55.532,187.815 55.532,187.366 C55.532,187.366 55.117,185.988 56.011,186.826 C56.011,186.826 56.841,187.486 57.384,187.127 C57.384,187.127 57.671,187.395 57.671,187.546 C57.671,187.546 58.374,188.954 59.236,189.194" fill="#000000"/>
  </g>
</svg>
