<?xml version="1.0" encoding="UTF-8"?>
<!DOCTYPE svg PUBLIC "-//W3C//DTD SVG 1.1//EN" "http://www.w3.org/Graphics/SVG/1.1/DTD/svg11.dtd">
<svg version="1.1" xmlns="http://www.w3.org/2000/svg" xmlns:xlink="http://www.w3.org/1999/xlink" x="0" y="0" width="56.965" height="33.495" viewBox="0, 0, 56.965, 33.495">
  <g id="Layer_1" transform="translate(3.961, -257.913)">
    <g>
      <path d="M23.728,271.153 L24.066,269.507 L8.872,266.749 L8.678,268.201 L23.728,271.153 z M24.696,266.894 L24.89,266.12 L9.403,263.748 L9.307,264.328 L24.696,266.894 z M24.89,263.506 L24.938,262.829 L9.936,260.844 L9.84,261.424 L24.89,263.506 z M46.278,275.507 L46.618,273.669 L26.438,269.991 L26.245,271.539 L46.278,275.507 z M47.054,270.475 L47.15,269.748 L26.728,266.458 L26.583,267.233 L47.054,270.475 z M47.439,266.652 L47.537,265.733 L27.309,263.119 L27.261,263.797 L47.439,266.652 z M52.908,263.458 L52.715,266.458 L50.391,266.216 L50.344,267.112 L52.304,267.377 C52.304,267.377 52.764,268.007 52.085,270.354 C52.085,270.354 51.844,270.644 50.174,270.208 L50.054,271.08 L51.869,271.419 C51.869,271.419 51.966,273.669 51.481,274.418 C51.481,274.418 49.739,274.226 49.642,274.128 L49.425,276.161 L50.73,276.404 L50.779,277.565 L49.716,278.12 L49.255,278.073 L49.194,277.116 L3.233,267.813 L4.589,267.476 L6.67,267.862 L7.032,266.337 C7.032,266.337 5.314,266.193 5.291,265.998 L5.582,263.869 L7.202,264.064 L7.275,263.361 L5.678,263.119 L5.751,261.063 L7.541,261.087 L7.564,260.434 L5.992,260.191 L6.185,258.014 L52.908,263.458" fill="#000000"/>
      <path d="M6.791,275.605 L6.645,272.072 L1.951,271.007 L2.049,271.443 C2.049,271.443 4.565,273.089 4.516,276.476 L6.791,275.605 z M23.631,280.106 L23.68,275.992 L19.711,275.12 L19.711,275.556 C19.711,275.556 22.422,277.879 22.18,280.831 L23.631,280.106 z M45.65,285.331 L45.965,279.863 L44.586,280.686 L43.665,280.638 L43.665,281.169 C44.973,282.62 45.65,285.331 45.65,285.331 z M50.515,286.54 L50.537,286.831 L45.723,291.308 L40.594,289.807 L40.569,289.59 L42.649,287.872 C42.649,287.872 43.012,285.089 42.19,283.879 C42.19,283.879 41.246,282.235 40.666,281.629 C40.666,281.629 39.576,280.516 39.771,280.201 C39.771,280.201 38.366,280.033 38.415,279.379 L25.93,276.524 L25.93,280.311 L27.78,280.71 L27.817,280.964 L21.683,284.267 L17.981,283.178 L17.981,282.96 L19.869,282.052 L19.651,279.114 C19.651,279.114 16.457,275.339 15.55,274.575 C15.55,274.575 14.207,274.431 14.243,273.85 L8.69,272.579 L8.69,275.81 L10.395,276.246 L10.395,276.5 L3.754,279.004 L0.996,278.205 L0.977,277.969 L2.664,277.262 L2.52,275.266 C2.52,275.266 -0.42,271.819 -2.344,270.366 C-2.344,270.366 -3.577,270.221 -3.577,269.676 L-3.832,269.569 L-3.868,268.66 L-2.234,268.37 L-1.484,268.588 L45.965,278.824 L45.965,279.729 L46.509,279.948 L47.67,279.186 L47.635,277.951 L0.935,268.248 L1.008,268.007 L2.992,267.813 L3.233,267.813 L49.194,277.116 L49.255,278.073 L49.23,278.435 L49.109,278.605 L48.601,286.057 L50.515,286.54" fill="#000000"/>
      <path d="M47.635,277.951 L47.67,279.186 L46.509,279.948 L45.965,279.729 L45.965,278.824 L-1.484,268.588 L-1.387,268.345 L0.475,268.128 L0.935,268.248 L47.635,277.951" fill="#000000"/>
      <path d="M49.245,278.162 L49.255,278.073 L49.245,278.162 z M42.819,286.487 C42.819,287.266 42.739,287.88 42.739,287.884 L42.734,287.919 L40.662,289.627 L40.675,289.739 L45.699,291.206 L50.443,286.794 L50.43,286.612 L48.506,286.125 L49.021,278.573 L49.142,278.404 L49.165,278.067 L49.171,277.974 L49.697,278.029 L50.686,277.512 L50.644,276.478 L49.326,276.234 L49.573,273.931 L49.7,274.059 L49.71,274.064 L49.771,274.081 L49.986,274.125 C50.161,274.158 50.387,274.191 50.609,274.221 C50.959,274.268 51.301,274.308 51.433,274.323 C51.731,273.801 51.79,272.556 51.785,271.884 C51.785,271.708 51.783,271.572 51.78,271.493 L49.951,271.152 L50.099,270.096 L50.197,270.121 C50.906,270.307 51.353,270.359 51.627,270.359 C51.869,270.359 51.974,270.317 52.007,270.3 C52.286,269.325 52.366,268.657 52.365,268.211 C52.365,267.755 52.283,267.534 52.248,267.46 L50.249,267.19 L50.308,266.116 L52.631,266.359 L52.813,263.537 L6.267,258.114 L6.089,260.116 L7.658,260.357 L7.628,261.177 L5.838,261.154 L5.77,263.042 L7.373,263.285 L7.282,264.163 L5.658,263.969 L5.386,265.973 L5.41,265.987 L5.595,266.046 C5.754,266.085 5.969,266.12 6.183,266.153 C6.612,266.212 7.039,266.247 7.041,266.247 L7.144,266.257 L6.737,267.966 L4.592,267.566 L3.244,267.903 L3,267.903 L1.076,268.09 L0.997,268.358 L0.47,268.219 L-1.324,268.429 L-1.431,268.698 L-2.239,268.461 L-3.775,268.736 L-3.744,269.507 L-3.487,269.616 L-3.487,269.676 C-3.498,269.869 -3.236,270.04 -2.932,270.14 C-2.634,270.241 -2.334,270.277 -2.334,270.277 L-2.309,270.28 L-2.289,270.294 C-0.352,271.759 2.586,275.205 2.589,275.208 L2.607,275.229 L2.76,277.321 L1.072,278.028 L1.081,278.137 L3.75,278.909 L10.306,276.438 L10.306,276.315 L8.6,275.879 L8.6,272.467 L14.34,273.78 L14.333,273.859 L14.333,273.874 C14.32,274.072 14.6,274.248 14.924,274.35 C15.239,274.451 15.559,274.487 15.559,274.487 L15.586,274.49 L15.608,274.507 C16.531,275.284 19.716,279.051 19.721,279.055 L19.739,279.076 L19.963,282.108 L18.071,283.016 L18.071,283.111 L21.674,284.169 L27.719,280.914 L27.701,280.784 L25.84,280.383 L25.84,276.411 L38.513,279.309 L38.504,279.389 L38.503,279.412 C38.494,279.649 38.786,279.842 39.122,279.957 C39.45,280.072 39.78,280.113 39.781,280.113 L39.924,280.128 L39.846,280.25 L39.837,280.294 C39.829,280.433 40.048,280.779 40.276,281.054 C40.503,281.333 40.729,281.566 40.73,281.567 C41.326,282.19 42.265,283.831 42.265,283.829 C42.721,284.505 42.817,285.601 42.819,286.487 z M40.51,289.876 L40.474,289.551 L42.564,287.825 C42.58,287.686 42.639,287.148 42.639,286.487 C42.641,285.616 42.533,284.538 42.112,283.923 C42.111,283.923 41.877,283.515 41.569,283.03 C41.263,282.544 40.881,281.983 40.6,281.692 C40.6,281.692 40.368,281.454 40.136,281.167 C39.905,280.874 39.666,280.552 39.657,280.294 L39.657,280.276 C39.529,280.254 39.297,280.208 39.062,280.126 C38.73,280.007 38.359,279.815 38.326,279.451 L26.019,276.637 L26.019,280.239 L27.86,280.635 L27.915,281.012 L21.693,284.364 L17.891,283.245 L17.891,282.904 L19.774,281.998 L19.563,279.148 C19.438,279 18.703,278.134 17.873,277.191 C16.977,276.168 15.965,275.05 15.513,274.662 C15.426,274.651 15.15,274.612 14.868,274.521 C14.554,274.415 14.198,274.251 14.156,273.923 L8.781,272.693 L8.781,275.74 L10.485,276.176 L10.485,276.563 L3.758,279.098 L0.911,278.275 L0.884,277.911 L2.571,277.203 L2.433,275.302 C2.311,275.16 1.627,274.366 0.744,273.421 C-0.223,272.387 -1.429,271.172 -2.379,270.452 C-2.46,270.441 -2.722,270.401 -2.988,270.31 C-3.282,270.207 -3.614,270.048 -3.662,269.738 L-3.919,269.627 L-3.961,268.585 L-2.23,268.278 L-1.538,268.478 L-1.45,268.262 L0.481,268.037 L0.874,268.14 L0.939,267.923 L2.992,267.723 L3.222,267.723 L4.587,267.382 L6.602,267.757 L6.922,266.416 C6.604,266.388 5.654,266.291 5.335,266.151 C5.282,266.12 5.223,266.101 5.203,266.01 L5.2,265.996 L5.504,263.77 L7.122,263.962 L7.177,263.438 L5.585,263.196 L5.664,260.971 L7.454,260.996 L7.473,260.51 L5.895,260.267 L6.104,257.913 L53.004,263.378 L52.798,266.558 L50.476,266.316 L50.437,267.033 L52.352,267.293 L52.376,267.325 C52.39,267.342 52.546,267.572 52.545,268.211 C52.545,268.683 52.461,269.376 52.171,270.378 L52.166,270.396 L52.154,270.411 C52.13,270.44 52.019,270.538 51.627,270.538 C51.345,270.538 50.914,270.489 50.249,270.321 L50.154,271.007 L51.953,271.343 L51.958,271.414 C51.958,271.415 51.966,271.602 51.966,271.884 C51.963,272.591 51.924,273.885 51.556,274.467 L51.526,274.514 L51.471,274.507 C51.469,274.507 50.141,274.361 49.726,274.255 L49.719,274.253 L49.523,276.088 L50.817,276.326 L50.871,277.617 L49.732,278.211 L49.339,278.171 L49.318,278.466 L49.196,278.636 L48.695,285.989 L50.598,286.468 L50.631,286.866 L45.745,291.408 L40.51,289.876" fill="#FFFFFE"/>
      <path d="M27.297,263.208 L27.309,263.119 L27.297,263.208 z M27.355,263.72 L47.36,266.55 L47.438,265.811 L27.391,263.221 L27.355,263.72 z M27.164,263.873 L27.219,263.112 L27.226,263.019 L47.636,265.655 L47.52,266.753 L27.164,263.873" fill="#FFFFFE"/>
      <path d="M46.975,270.371 L47.049,269.825 L26.8,266.561 L26.688,267.158 L46.975,270.371 z M26.569,267.322 L26.583,267.233 L26.672,267.248 L26.583,267.233 L26.569,267.322 L26.477,267.307 L26.656,266.356 L47.25,269.674 L47.13,270.577 L26.569,267.322" fill="#FFFFFE"/>
      <path d="M49.108,277.191 L3.216,267.901 L3.252,267.725 L49.28,277.042 L49.344,278.067 L49.165,278.078 L49.108,277.191" fill="#FFFFFE"/>
      <path d="M45.875,279.79 L45.875,278.895 L-1.503,268.675 L-1.465,268.499 L46.053,278.75 L46.053,279.669 L46.498,279.847 L47.578,279.137 L47.547,278.026 L0.918,268.337 L0.954,268.16 L47.721,277.877 L47.761,279.233 L46.518,280.048 L45.875,279.79" fill="#FFFFFE"/>
    </g>
  </g>
</svg>
