<?xml version="1.0" encoding="UTF-8"?>
<!DOCTYPE svg PUBLIC "-//W3C//DTD SVG 1.1//EN" "http://www.w3.org/Graphics/SVG/1.1/DTD/svg11.dtd">
<svg version="1.1" xmlns="http://www.w3.org/2000/svg" xmlns:xlink="http://www.w3.org/1999/xlink" x="0" y="0" width="48.185" height="35.109" viewBox="0, 0, 48.185, 35.109">
  <g id="Layer_1" transform="translate(-171.916, -78.668)">
    <g>
      <path d="M180.603,88.831 L180.581,87.667 C180.264,87.688 174.78,89.848 174.78,89.848 L174.949,91.457 C176.093,90.991 180.603,88.831 180.603,88.831 z M180.866,96.274 L180.804,96.051 L175.309,94.908 L175.721,99.323 L180.866,96.274 z M182.402,89.042 L182.339,81.018 L181.81,80.933 L181.831,88.937 L182.402,89.042 z M184.139,89.403 L184.118,81.272 L183.44,81.209 L183.312,89.254 L184.139,89.403 z M185.896,89.741 L185.896,81.441 L185.177,81.399 L185.027,89.615 L185.896,89.741 z M187.654,90.08 L187.76,81.674 L186.997,81.61 L186.849,89.911 L187.654,90.08 z M189.474,90.44 L189.687,81.907 L188.925,81.864 C188.733,81.949 188.712,90.313 188.712,90.313 L189.474,90.44 z M191.359,90.842 L191.613,82.183 L190.767,82.099 L190.513,90.61 L191.359,90.842 z M193.329,91.097 L193.625,82.373 L192.757,82.31 L192.312,90.949 L193.329,91.097 z M195.298,91.477 L195.636,82.584 L194.726,82.542 L194.324,91.287 L195.298,91.477 z M197.268,91.837 L197.712,82.881 L196.801,82.817 L196.334,91.626 L197.268,91.837 z M199.363,92.156 L199.851,83.178 L198.854,83.135 L198.347,91.944 L199.363,92.156 z M201.459,92.515 L202.052,83.453 L200.994,83.432 L200.486,92.367 L201.459,92.515 z M203.64,92.896 L204.254,83.728 L203.154,83.601 L202.519,92.706 L203.64,92.896 z M205.8,93.256 L206.457,84.067 L205.419,83.897 L204.7,93.087 L205.8,93.256 z M208.023,93.786 L208.786,84.342 L207.664,84.215 L206.901,93.532 L208.023,93.786 z M210.311,94.104 L211.285,84.66 L210.078,84.511 L209.125,93.934 L210.311,94.104 z M212.704,94.485 L213.636,84.914 L212.449,84.808 L211.476,94.272 L212.704,94.485 z M216.503,104.087 L216.853,100.403 L214.948,103.293 L214.471,107.613 L216.503,104.087 z M218.504,85.57 L217.404,85.485 L216.408,93.828 C216.748,93.51 217.87,91.753 217.87,91.753 C218.103,91.224 218.504,85.57 218.504,85.57 z M213.892,100.523 C213.902,100.391 213.94,99.534 213.041,99.651 L174.78,92.156 C174.78,92.156 174.546,93.066 175.077,93.68 L213,101.43 L213.89,100.54 L213.892,100.523 z M218.127,97.948 L218.124,97.957 C218.293,98.466 217.129,106.724 217.129,106.724 L216.218,106.703 L214.217,110.154 L214.026,112.758 L213.486,113.679 L212.629,113.425 L213.582,103.103 L182.154,96.385 L182.264,98.18 L181.852,98.815 L181.232,98.815 L181.169,97.48 L175.776,100.457 L176.051,102.34 L175.795,103.103 L174.907,103.166 C174.546,102.721 173.488,90.334 173.488,90.334 C173.234,90.567 172.408,90.313 172.408,90.313 C171.201,88.725 174.864,88.196 174.864,88.196 C177.766,87.772 180.561,85.846 180.561,85.846 L180.561,79.09 C181.852,78.159 181.788,79.535 181.788,79.535 L218.87,83.712 C218.917,83.172 219.108,83.029 219.108,83.029 L219.935,83.14 C220.156,83.14 220.093,83.601 220.093,83.601 L218.6,95.638 L218.42,93.637 C218.42,93.85 217.424,94.781 217.424,94.781 C217.076,95.13 215.408,97.237 215.408,97.237 L215.408,99.148 C215.408,99.148 217.806,97.046 218.6,95.638 L218.6,96.845 L218.127,97.948 z M215.096,95.014 L216.091,85.316 L214.926,85.125 L213.804,94.718 L215.096,95.014" fill="#000000"/>
      <path d="M218.42,93.637 L218.6,95.638 C217.806,97.046 215.408,99.148 215.408,99.148 L215.408,97.237 C215.408,97.237 217.076,95.13 217.424,94.781 L217.086,95.331 L217.447,95.352 L217.424,94.781 C217.424,94.781 218.42,93.85 218.42,93.637" fill="#000000"/>
      <path d="M213.041,99.651 C213.94,99.534 213.902,100.391 213.892,100.523 L213.89,100.54 L213,101.43 L175.077,93.68 C174.546,93.066 174.78,92.156 174.78,92.156 L213.041,99.651" fill="#000000"/>
      <path d="M213.52,103.022 L212.567,113.35 L213.286,113.564 L213.78,112.721 L213.971,110.117 L216.009,106.602 L216.893,106.623 C216.944,106.256 217.166,104.667 217.387,102.942 C217.64,100.977 217.893,98.832 217.893,98.154 C217.893,98.057 217.885,97.987 217.881,97.976 L217.87,97.943 L217.883,97.912 L217.887,97.904 L218.352,96.818 L218.352,95.629 L218.442,95.629 L218.352,95.618 L219.845,83.579 L219.853,83.453 L219.828,83.273 L219.776,83.22 L219.769,83.22 L218.984,83.115 L218.928,83.2 C218.881,83.292 218.824,83.45 218.801,83.711 L218.793,83.803 L181.537,79.605 L181.54,79.523 L181.541,79.496 C181.541,79.43 181.533,79.253 181.475,79.105 C181.413,78.955 181.329,78.849 181.145,78.848 C181.005,78.846 180.79,78.917 180.492,79.128 L180.492,85.884 L180.453,85.911 C180.447,85.914 177.648,87.845 174.719,88.276 C174.718,88.277 174.05,88.373 173.386,88.606 C172.714,88.837 172.083,89.218 172.096,89.692 C172.096,89.845 172.155,90.022 172.303,90.226 C172.342,90.236 172.415,90.256 172.506,90.276 C172.639,90.304 172.812,90.334 172.965,90.334 C173.104,90.335 173.222,90.305 173.27,90.258 L173.405,90.136 L173.42,90.318 C173.421,90.323 173.622,92.688 173.881,95.392 C174.138,98.095 174.452,101.135 174.673,102.463 C174.718,102.755 174.772,102.978 174.801,103.063 L175.571,103.008 L175.8,102.323 L175.519,100.399 L181.092,97.323 L181.1,97.468 C181.1,97.468 181.148,98.412 181.161,98.716 L181.645,98.716 L182.015,98.146 L181.899,96.263 L213.52,103.022 z M212.374,113.48 L213.326,103.165 L182.092,96.488 L182.198,98.194 L181.742,98.895 L180.984,98.895 L180.984,98.805 C180.985,98.762 180.945,97.955 180.928,97.619 L175.715,100.496 L175.985,102.339 L175.704,103.179 L174.707,103.25 L174.678,103.213 C174.604,103.107 174.565,102.883 174.495,102.492 C174.431,102.11 174.361,101.588 174.286,100.975 C174.136,99.75 173.97,98.159 173.815,96.583 C173.544,93.824 173.307,91.107 173.253,90.472 C173.164,90.504 173.065,90.513 172.965,90.513 C172.617,90.513 172.228,90.391 172.224,90.39 L172.196,90.382 L172.178,90.359 C171.999,90.123 171.916,89.901 171.916,89.692 C171.929,89.051 172.648,88.679 173.326,88.436 C174.011,88.196 174.69,88.099 174.693,88.098 C176.128,87.888 177.546,87.304 178.601,86.773 C179.512,86.314 180.152,85.896 180.312,85.789 L180.312,79.035 L180.349,79.008 C180.684,78.767 180.937,78.669 181.145,78.668 C181.419,78.666 181.577,78.858 181.643,79.041 C181.701,79.194 181.716,79.351 181.719,79.446 L218.632,83.603 C218.693,83.117 218.876,82.962 218.896,82.949 L218.925,82.926 L219.785,83.041 C219.896,83.044 219.971,83.132 219.996,83.209 L220.033,83.453 L220.024,83.602 L218.532,95.637 L218.532,96.854 L218.06,97.956 L218.071,98.154 C218.071,99.558 217.06,106.723 217.06,106.727 L217.049,106.806 L216.111,106.784 L214.147,110.171 L213.956,112.776 L213.37,113.777 L212.374,113.48" fill="#000000"/>
      <path d="M214.607,107.197 L216.416,104.059 L216.729,100.753 L215.034,103.324 L214.607,107.197 z M214.381,107.603 L214.858,103.283 L214.86,103.261 L216.778,100.353 L216.942,100.411 L216.591,104.115 L214.549,107.658 L214.381,107.603" fill="#000000"/>
      <path d="M175.797,99.173 L180.762,96.232 L180.732,96.128 L175.409,95.021 L175.797,99.173 z M175.22,94.915 L175.309,94.908 L175.22,94.915 L175.208,94.794 L180.875,95.975 L180.972,96.315 L175.645,99.473 L175.22,94.915" fill="#000000"/>
      <path d="M175.025,91.328 C176.234,90.819 180.023,89.008 180.512,88.774 L180.494,87.778 C180.333,87.827 179.989,87.945 179.572,88.101 C179.013,88.306 178.298,88.577 177.594,88.849 C176.362,89.323 175.162,89.794 174.876,89.906 L175.025,91.328 z M174.691,89.857 L174.78,89.847 L174.813,89.931 L174.78,89.847 L174.691,89.857 L174.683,89.789 L174.747,89.764 C174.747,89.764 177.831,88.55 179.51,87.931 C180.075,87.725 180.458,87.589 180.576,87.576 L180.669,87.57 L180.694,88.887 L180.642,88.912 C180.641,88.913 176.133,91.071 174.983,91.539 L174.872,91.585 L174.691,89.857" fill="#000000"/>
      <path d="M181.92,88.861 L182.312,88.935 L182.25,81.094 L181.899,81.038 L181.92,88.861 z M181.74,89.011 L181.72,80.933 L181.81,80.933 L181.72,80.933 L181.72,80.827 L182.427,80.941 L182.493,89.151 L181.74,89.011" fill="#000000"/>
      <path d="M183.404,89.179 L184.048,89.295 L184.028,81.353 L183.528,81.307 L183.404,89.179 z M183.222,89.329 L183.35,81.206 L183.352,81.11 L184.207,81.19 L184.229,89.511 L183.222,89.329" fill="#000000"/>
      <path d="M185.12,89.537 L185.807,89.637 L185.807,81.526 L185.265,81.494 L185.12,89.537 z M184.937,89.692 L185.086,81.397 L185.089,81.303 L185.986,81.356 L185.986,89.845 L184.937,89.692" fill="#000000"/>
      <path d="M186.94,89.838 L187.565,89.969 L187.669,81.756 L187.085,81.708 L186.94,89.838 z M186.757,89.983 L186.907,81.608 L186.909,81.513 L187.85,81.591 L187.743,90.19 L186.757,89.983" fill="#000000"/>
      <path d="M189.387,90.334 L189.595,81.992 L188.984,81.958 L188.979,81.988 C188.969,82.049 188.959,82.142 188.95,82.259 C188.931,82.493 188.915,82.826 188.9,83.224 C188.871,84.018 188.851,85.071 188.836,86.122 C188.811,87.988 188.804,89.844 188.802,90.237 L189.387,90.334 z M188.622,90.389 L188.623,90.313 C188.623,90.313 188.627,88.351 188.654,86.316 C188.683,84.274 188.726,82.196 188.822,81.87 L188.887,81.782 L188.908,81.774 L189.779,81.822 L189.561,90.546 L188.622,90.389" fill="#000000"/>
      <path d="M190.604,90.542 L191.273,90.725 L191.521,82.263 L190.854,82.196 L190.604,90.542 z M190.42,90.678 L190.677,82.096 L190.68,81.999 L191.706,82.101 L191.445,90.959 L190.42,90.678" fill="#000000"/>
      <path d="M192.406,90.871 L193.242,90.993 L193.532,82.456 L192.842,82.406 L192.406,90.871 z M192.217,91.025 L192.667,82.305 L192.672,82.213 L193.718,82.289 L193.415,91.199 L192.217,91.025" fill="#000000"/>
      <path d="M194.417,91.214 L195.212,91.369 L195.543,82.67 L194.812,82.636 L194.417,91.214 z M194.231,91.36 L194.636,82.538 L194.641,82.448 L195.729,82.499 L195.383,91.586 L194.231,91.36" fill="#000000"/>
      <path d="M196.428,91.555 L197.183,91.727 L197.618,82.964 L196.886,82.913 L196.428,91.555 z M196.241,91.697 L196.711,82.813 L196.716,82.721 L197.805,82.797 L197.351,91.949 L196.241,91.697" fill="#000000"/>
      <path d="M198.44,91.871 L199.279,92.046 L199.755,83.264 L198.939,83.228 L198.44,91.871 z M198.252,92.016 L198.765,83.129 L198.771,83.041 L199.945,83.092 L199.447,92.265 L198.252,92.016" fill="#000000"/>
      <path d="M200.58,92.29 L201.376,92.412 L201.956,83.54 L201.079,83.523 L200.58,92.29 z M200.392,92.443 L200.904,83.427 L200.909,83.34 L202.148,83.364 L201.542,92.619 L200.392,92.443" fill="#000000"/>
      <path d="M202.614,92.631 L203.556,92.791 L204.159,83.807 L203.237,83.701 L202.614,92.631 z M202.423,92.781 L203.064,83.595 L203.071,83.501 L204.349,83.648 L203.722,93.002 L202.423,92.781" fill="#000000"/>
      <path d="M204.794,93.01 L205.717,93.152 L206.361,84.142 L205.501,84.001 L204.794,93.01 z M204.603,93.163 L205.33,83.89 L205.337,83.793 L206.552,83.991 L205.882,93.359 L204.603,93.163" fill="#000000"/>
      <path d="M206.998,93.461 L207.941,93.675 L208.689,84.421 L207.746,84.315 L206.998,93.461 z M206.805,93.603 L207.575,84.208 L207.581,84.115 L208.882,84.262 L208.104,93.896 L206.805,93.603" fill="#000000"/>
      <path d="M209.223,93.857 L210.23,94.001 L211.186,84.738 L210.158,84.612 L209.223,93.857 z M209.027,94.011 L209.988,84.502 L209.997,84.411 L211.383,84.581 L210.39,94.206 L209.027,94.011" fill="#000000"/>
      <path d="M211.573,94.199 L212.623,94.38 L213.537,84.995 L212.529,84.905 L211.573,94.199 z M211.377,94.346 L212.359,84.798 L212.368,84.71 L213.733,84.832 L212.783,94.59 L211.377,94.346" fill="#000000"/>
      <path d="M213.902,94.647 L215.017,94.903 L215.993,85.391 L215.004,85.229 L213.902,94.647 z M213.705,94.786 L214.837,85.115 L214.848,85.021 L216.188,85.24 L215.175,95.124 L213.705,94.786" fill="#000000"/>
      <path d="M216.532,93.55 C216.715,93.317 216.966,92.958 217.191,92.621 C217.493,92.175 217.757,91.763 217.79,91.711 C217.894,91.466 218.059,89.913 218.185,88.455 C218.295,87.194 218.385,85.984 218.409,85.652 L217.482,85.582 L216.532,93.55 z M217.315,85.475 L217.324,85.389 L218.6,85.486 L218.595,85.577 C218.595,85.577 218.494,86.99 218.363,88.471 C218.231,89.959 218.082,91.481 217.951,91.79 L217.949,91.796 L217.945,91.801 C217.941,91.807 216.831,93.551 216.47,93.893 L216.29,94.062 L217.315,85.475" fill="#FFFFFE"/>
      <path d="M212.97,101.332 L213.803,100.499 L213.805,100.43 C213.796,100.194 213.752,99.73 213.202,99.729 L213.054,99.741 L213.039,99.742 L174.85,92.261 C174.836,92.34 174.818,92.472 174.818,92.63 C174.818,92.923 174.879,93.3 175.125,93.598 L212.97,101.332 z M175.028,93.761 L175.009,93.739 C174.706,93.387 174.638,92.955 174.638,92.63 C174.638,92.343 174.691,92.138 174.693,92.133 L174.713,92.051 L213.044,99.56 L213.202,99.55 C213.542,99.547 213.755,99.708 213.86,99.9 C213.969,100.09 213.984,100.301 213.985,100.43 L213.98,100.53 L213.872,100.522 L213.953,100.603 L213.029,101.527 L175.028,93.761" fill="#FFFFFE"/>
      <path d="M213.8,100.529 L213.802,100.514 L214.089,97.969 C213.757,97.737 213.617,97.434 213.62,97.124 C213.633,96.081 215.038,94.956 215.039,94.944 L215.153,95.083 C215.153,95.084 214.813,95.365 214.471,95.765 C214.129,96.165 213.796,96.684 213.8,97.124 C213.802,97.393 213.911,97.637 214.234,97.85 L214.28,97.88 L213.98,100.534 L213.979,100.551 L213.8,100.529" fill="#FFFFFE"/>
      <path d="M215.205,101.196 L217.902,98.086 L218.058,97.892 L218.198,98.003 L218.042,98.201 L215.341,101.313 L215.341,101.314 L215.205,101.196" fill="#FFFFFE"/>
      <path d="M215.318,97.206 L215.337,97.182 C215.339,97.179 217.001,95.079 217.363,94.715 C217.364,94.715 217.552,94.539 217.766,94.321 C217.978,94.106 218.216,93.845 218.301,93.702 L218.331,93.637 L218.51,93.637 C218.502,93.75 218.43,93.835 218.335,93.961 C218.239,94.083 218.113,94.22 217.987,94.351 C217.737,94.611 217.488,94.844 217.488,94.844 C217.171,95.161 215.685,97.033 215.498,97.269 L215.498,98.947 C215.716,98.75 216.155,98.347 216.643,97.858 C217.338,97.159 218.134,96.283 218.521,95.595 L218.522,95.595 L218.678,95.683 C217.867,97.117 215.47,99.211 215.467,99.216 L215.318,99.346 L215.318,97.206" fill="#FFFFFE"/>
    </g>
  </g>
</svg>
