<?xml version="1.0" encoding="UTF-8"?>
<!DOCTYPE svg PUBLIC "-//W3C//DTD SVG 1.1//EN" "http://www.w3.org/Graphics/SVG/1.1/DTD/svg11.dtd">
<svg version="1.1" xmlns="http://www.w3.org/2000/svg" xmlns:xlink="http://www.w3.org/1999/xlink" x="0" y="0" width="25.381" height="14.967" viewBox="0, 0, 25.381, 14.967">
  <g id="Layer_1" transform="translate(-321.132, -332.998)">
    <g>
      <path d="M330.305,345.366 L330.411,345.34 L330.5,345.322 L330.567,345.298 L330.658,345.287 L330.743,345.269 L330.859,345.266 L330.919,345.237 L331.05,345.224 L331.121,345.197 L331.22,345.186 L331.299,345.16 L331.393,345.15 L331.422,345.158 L331.423,345.19 L331.351,345.249 L331.264,345.241 L331.196,345.267 L331.099,345.281 L330.998,345.303 L330.909,345.328 L330.826,345.353 L330.737,345.353 L330.635,345.385 L330.539,345.393 L330.442,345.424 L330.326,345.41 L330.226,345.486 L330.165,345.48 L330.236,345.347 L330.305,345.366" fill="#000000"/>
      <path d="M329.01,345.561 L328.911,345.684 L328.846,345.716 L328.691,345.716 C328.691,345.716 328.633,345.671 328.593,345.762 L328.484,345.748 L328.413,345.772 L328.334,345.78 L328.224,345.799 L328.121,345.818 L328.024,345.831 L327.947,345.825 L327.875,345.871 L327.752,345.863 L327.662,345.895 L327.557,345.884 L327.518,345.874 L327.522,345.827 L327.592,345.805 L327.72,345.799 L327.789,345.771 L327.909,345.776 L327.97,345.746 L328.076,345.745 L328.143,345.719 L328.244,345.711 L328.342,345.671 L328.481,345.66 C328.481,345.66 328.631,345.558 328.663,345.656 L328.76,345.626 C328.76,345.626 328.771,345.603 328.913,345.61 L329.01,345.561" fill="#000000"/>
      <path d="M328.911,345.684 L329.01,345.561 L329.097,345.577 L329.199,345.56 L329.266,345.527 L329.35,345.531 L329.432,345.501 C329.432,345.501 329.5,345.411 329.533,345.502 L329.625,345.469 L329.722,345.456 L329.809,345.437 L329.92,345.456 L329.99,345.397 L330.095,345.395 L330.186,345.357 L330.236,345.347 L330.165,345.48 L330.077,345.514 L329.979,345.509 L329.888,345.534 L329.786,345.54 L329.714,345.586 L329.618,345.572 L329.526,345.604 L329.442,345.604 L329.333,345.657 L329.131,345.677 L328.983,345.695 L328.911,345.684" fill="#000000"/>
      <path d="M330.107,342.59 C330.107,342.59 330.222,342.481 330.287,342.575 L330.481,342.555 L330.631,342.547 L330.716,342.514 L330.736,342.662 L330.646,342.632 L330.481,342.646 C330.358,342.698 330.294,342.662 330.294,342.662 L330.121,342.654 C330.02,342.777 329.899,342.662 329.899,342.662 L329.819,342.741 L329.796,342.572 L329.899,342.59 C329.899,342.59 330.014,342.511 330.107,342.59" fill="#000000"/>
      <path d="M328.778,342.676 L328.921,342.669 L328.944,342.713 C328.885,342.841 328.786,342.747 328.786,342.747 C328.763,342.892 328.583,342.755 328.583,342.755 C328.498,342.856 328.382,342.769 328.382,342.769 C328.311,342.863 328.174,342.762 328.174,342.762 L328.188,342.719 L328.404,342.705 C328.404,342.705 328.504,342.646 328.597,342.683 L328.778,342.676" fill="#000000"/>
      <path d="M329.137,342.726 C329.057,342.841 328.944,342.713 328.944,342.713 L328.921,342.669 L329.137,342.662 C329.137,342.662 329.251,342.561 329.367,342.662 L329.525,342.626 L329.711,342.632 L329.796,342.572 L329.819,342.741 L329.704,342.69 C329.69,342.841 329.525,342.698 329.525,342.698 C329.482,342.841 329.367,342.713 329.367,342.713 C329.331,342.849 329.137,342.726 329.137,342.726" fill="#000000"/>
      <path d="M329.01,345.561 C329.414,345.051 329.689,344.438 329.794,343.767 L330.718,343.805 C330.645,344.353 330.479,344.873 330.236,345.347 L330.186,345.357 L330.095,345.395 L329.99,345.397 L329.92,345.456 L329.809,345.437 L329.722,345.456 L329.625,345.469 L329.533,345.502 C329.5,345.411 329.432,345.501 329.432,345.501 L329.35,345.531 L329.266,345.527 L329.199,345.56 L329.097,345.577 L329.01,345.561" fill="#000000"/>
      <path d="M330.761,343.165 L330.758,343.345 L329.837,343.341 L329.841,343.165 C329.841,343.021 329.833,342.879 329.819,342.741 L329.899,342.662 C329.899,342.662 330.02,342.777 330.121,342.654 L330.294,342.662 C330.294,342.662 330.358,342.698 330.481,342.646 L330.646,342.632 L330.736,342.662 C330.752,342.828 330.761,342.995 330.761,343.165" fill="#000000"/>
      <path d="M329.837,343.341 L330.758,343.345 C330.752,343.5 330.739,343.653 330.718,343.805 L329.794,343.767 C329.817,343.627 329.831,343.485 329.837,343.341" fill="#000000"/>
      <path d="M324.455,344.123 C324.527,344.723 325.155,344.706 325.155,344.706 C325.252,344.589 325.395,344.65 325.395,344.65 C325.497,344.583 325.355,344.384 325.355,344.384 L325.339,344.099 L325.287,344.072 C325.324,343.955 325.134,343.935 325.134,343.935 L325.033,343.817 C325.119,343.71 324.951,343.639 324.951,343.639 C325.023,343.526 324.879,343.465 324.879,343.465 C325.002,343.394 324.848,343.297 324.848,343.297 C324.352,343.689 324.455,344.123 324.455,344.123 z M324.399,344.133 C324.399,344.133 324.212,343.39 325.492,342.877 L325.937,342.681 L328.085,339.919 C328.2,339.994 328.311,340.075 328.417,340.162 L326.889,342.211 C326.889,342.211 327.19,342.551 327.231,342.711 L327.341,342.711 L327.481,342.731 L327.642,342.722 C327.642,342.722 327.752,342.611 327.833,342.722 L328.008,342.719 L328.188,342.719 L328.174,342.762 C328.081,342.863 328.001,342.769 328.001,342.769 L327.822,342.777 L327.621,342.777 C327.578,342.871 327.462,342.82 327.462,342.82 L327.254,342.82 C327.304,343.049 327.276,343.33 327.276,343.33 L329.837,343.341 C329.831,343.485 329.817,343.627 329.794,343.767 L327.951,343.689 L327.125,343.639 C327.125,343.639 326.958,343.943 326.739,344.031 C326.739,344.031 327.158,344.308 326.908,344.496 L326.917,345.335 L327.031,345.381 L327.082,345.442 L327.153,345.503 L327.147,345.58 L327.184,345.661 L327.168,345.719 L327.153,345.789 L327.189,345.846 L327.275,345.841 L327.336,345.851 L327.408,345.831 L327.521,345.825 L327.522,345.827 L327.518,345.874 L327.46,345.916 L327.37,345.928 L327.279,345.948 C327.279,345.948 327.234,345.93 327.124,345.942 C327.124,345.942 326.922,346.149 326.599,345.922 L326.405,345.922 C326.405,345.922 326.301,345.851 326.462,345.754 L326.547,345.74 L326.535,345.631 L326.535,345.521 L326.541,345.436 L326.567,345.334 L326.567,345.235 L326.599,345.14 L326.58,345.049 L326.619,344.977 L326.625,344.873 L326.644,344.782 C326.644,344.782 326.676,344.736 326.67,344.633 L326.631,344.485 L326.521,344.498 L326.451,344.544 L326.353,344.491 L326.268,344.491 C326.268,344.491 326.23,344.349 326.061,344.407 L326.028,344.573 L325.966,344.568 L325.875,344.583 L325.822,344.52 L325.822,344.468 L325.687,344.516 L325.625,344.583 L325.629,344.688 L325.385,344.741 L325.352,344.798 L325.228,344.817 L325.185,344.76 C325.185,344.76 324.523,344.794 324.399,344.133 z M326.678,345.059 L326.682,345.202 L326.636,345.273 L326.657,345.354 L326.621,345.456 L326.657,345.477 L326.759,345.375 L326.764,345.228 L326.733,344.962 L326.678,345.059" fill="#000000"/>
      <path d="M328.966,339.426 L328.417,340.162 C328.311,340.075 328.2,339.994 328.085,339.919 L328.65,339.191 C328.759,339.267 328.865,339.344 328.966,339.426" fill="#000000"/>
      <path d="M330.165,345.48 C329.345,346.961 327.763,347.965 325.946,347.965 C323.288,347.965 321.132,345.815 321.132,343.165 C321.132,340.513 323.288,338.364 325.946,338.364 C326.949,338.364 327.879,338.669 328.65,339.191 L328.085,339.919 C327.471,339.515 326.737,339.28 325.946,339.28 C323.795,339.28 322.051,341.02 322.051,343.165 C322.051,345.309 323.795,347.048 325.946,347.048 C327.132,347.048 328.196,346.518 328.911,345.684 L328.983,345.695 L329.131,345.677 L329.333,345.657 L329.442,345.604 L329.526,345.604 L329.618,345.572 L329.714,345.586 L329.786,345.54 L329.888,345.534 L329.979,345.509 L330.077,345.514 L330.165,345.48" fill="#000000"/>
      <path d="M330.716,342.514 L330.631,342.547 L330.481,342.555 L330.287,342.575 C330.222,342.481 330.107,342.59 330.107,342.59 C330.014,342.511 329.899,342.59 329.899,342.59 L329.796,342.572 C329.648,341.606 329.142,340.756 328.417,340.162 L328.966,339.426 C329.901,340.178 330.547,341.269 330.716,342.514" fill="#000000"/>
      <path d="M341.641,338.162 C344.332,338.162 346.513,340.337 346.513,343.021 C346.513,345.704 344.332,347.879 341.641,347.879 C338.95,347.879 336.768,345.704 336.768,343.021 C336.768,341.137 337.844,339.503 339.417,338.698 L339.428,338.724 C339.628,338.651 339.614,338.895 339.614,338.895 C339.485,339.083 339.787,339.327 339.787,339.327 L339.853,339.518 C339.494,339.7 339.166,339.936 338.881,340.216 L338.867,340.229 C338.146,340.942 337.7,341.93 337.7,343.021 C337.7,345.19 339.464,346.951 341.641,346.951 C343.818,346.951 345.582,345.19 345.582,343.021 C345.582,340.851 343.818,339.092 341.641,339.092 C341.249,339.092 340.869,339.149 340.51,339.256 L340.515,339.169 L340.242,338.422 L340.229,338.371 C340.674,338.235 341.149,338.162 341.641,338.162" fill="#000000"/>
      <path d="M341.842,342.705 C341.842,342.705 342.532,342.992 341.943,343.567 C341.943,343.567 341.368,343.84 341.11,343.12 L339.853,339.518 C340.062,339.411 340.282,339.323 340.51,339.256 L340.504,339.361 C340.504,339.361 340.899,339.15 340.908,339.38 C340.908,339.38 341.282,339.323 341.061,339.494 L340.764,339.647 L340.515,339.753 L341.31,341.842 C341.31,341.842 341.368,342.59 341.842,342.705" fill="#000000"/>
      <path d="M339.614,338.895 C339.614,338.895 339.628,338.651 339.428,338.724 L339.417,338.698 C339.674,338.565 339.946,338.455 340.229,338.371 L340.242,338.422 L340.515,339.169 L340.51,339.256 C340.282,339.323 340.062,339.411 339.853,339.518 L339.787,339.327 C339.787,339.327 339.485,339.083 339.614,338.895" fill="#000000"/>
      <path d="M337.89,335.978 C337.89,335.978 338.255,335.569 337.689,335.69 C337.689,335.69 330.948,337.24 330.445,337.654 L331.408,340.569 L331.566,340.585 L331.472,340.679 C331.472,340.679 331.444,340.713 331.495,340.837 L331.724,341.434 L331.875,341.461 C331.875,341.461 331.917,341.54 331.76,341.599 L332.047,342.402 C332.047,342.402 332.623,342.394 332.75,342.547 L333.8,341.195 L333.744,341.009 C333.744,341.009 333.772,340.958 333.902,341.06 L334.397,340.464 L334.326,340.283 L334.491,340.298 L337.89,335.978 z M331.59,345.111 L331.667,345.098 L331.708,345.061 C331.708,345.061 331.284,344.899 331.024,344.496 C331.024,344.496 330.811,344.178 330.8,343.811 L330.751,343.806 L330.718,343.805 C330.739,343.653 330.752,343.5 330.758,343.345 L330.79,343.345 C330.804,342.956 331.178,342.611 331.178,342.611 L331.056,342.59 L330.848,342.626 L330.736,342.662 L330.716,342.514 L330.833,342.532 L331.056,342.519 L331.22,342.488 L331.25,342.353 L331.358,342.394 L331.385,342.145 C331.385,342.145 331.444,342.108 331.436,342.202 C331.436,342.202 331.543,342.259 331.422,341.957 L330.532,339.399 C330.532,339.399 330.316,339.441 330.358,339.256 L330.488,339.227 L330.042,338.019 L329.167,339.155 C329.167,339.155 329.238,339.313 329.05,339.313 L328.966,339.426 C328.865,339.344 328.759,339.267 328.65,339.191 L329.889,337.598 L329.611,336.679 C329.611,336.679 329.401,336.764 329.401,336.649 C329.401,336.649 329.372,336.515 329.487,336.495 L329.583,336.487 L328.97,334.686 L328.834,334.655 L328.816,334.694 L328.702,334.704 L328.682,334.637 C328.682,334.637 328.605,334.655 328.51,334.465 C328.51,334.465 328.107,334.493 327.917,334.254 C327.917,334.254 327.724,334.291 327.609,334.216 C327.609,334.216 326.842,333.967 327.025,333.612 C327.025,333.612 327.025,333.219 327.992,333.219 C327.992,333.219 329.008,333.362 329.793,333.219 C329.793,333.219 330.78,332.98 331.087,333.526 C331.087,333.526 331.317,333.88 330.991,333.861 C330.991,333.861 330.215,333.785 330.062,333.843 L329.545,334.216 C329.545,334.216 329.295,334.407 329.151,334.369 C329.151,334.369 329.19,334.493 329.324,334.57 L329.957,336.353 L330.033,336.363 L330.081,336.533 L330.023,336.563 L330.206,337.042 C330.206,337.042 330.139,337.263 330.521,337.167 L337.574,335.126 C337.574,335.126 337.841,335.202 337.747,334.877 C337.747,334.877 337.536,334.857 337.689,334.666 C337.689,334.666 337.765,334.531 337.554,334.59 C337.554,334.59 337.382,334.55 337.536,334.378 C337.536,334.378 337.689,334.264 337.42,334.226 C337.42,334.226 337.19,334.054 337.516,333.956 C337.516,333.956 337.901,333.929 337.998,333.699 C337.998,333.699 338.199,333.497 338.563,333.468 C338.563,333.468 338.621,333.143 339.016,333.143 C339.129,333.143 339.124,333.051 339.206,332.998 L339.529,333.037 C339.529,333.037 339.662,333.151 339.529,333.383 C339.529,333.383 339.679,333.484 339.793,333.614 C339.793,333.614 340.268,333.93 340.512,334.046 C340.512,334.046 340.484,334.297 340.319,334.103 C340.319,334.103 340.29,334.038 340.11,333.988 C340.11,333.988 340.088,334.226 339.765,333.959 L339.7,334.08 C339.7,334.08 340.504,334.801 340.103,335.777 C340.103,335.777 339.757,336.511 339.053,336.424 C339.053,336.424 339.001,336.495 339.073,336.673 L339.135,336.793 L339.183,336.917 L339.297,336.936 L339.336,336.999 L339.461,337.052 C339.461,337.052 339.576,337.004 339.647,337.359 L339.662,337.607 L339.772,337.905 C339.772,337.905 340.045,337.73 340.229,338.371 C339.946,338.455 339.674,338.565 339.417,338.698 L339.011,337.688 C339.011,337.688 338.954,337.804 338.809,337.33 L338.68,337.387 C338.68,337.387 338.436,337.359 338.479,336.984 C338.479,336.984 338.349,336.927 338.421,336.755 L338.278,336.755 C338.278,336.755 338.033,337.042 337.905,337.115 L333.19,342.849 C333.19,342.849 333.449,343.12 333.492,343.337 L333.449,343.452 C333.449,343.452 334.196,343.467 334.484,343.424 C334.484,343.424 334.915,343.337 334.958,343.582 L335.217,343.595 L335.217,343.711 L335.346,343.711 L335.332,344.027 L335.202,344.027 L335.188,344.214 L335.102,344.301 L335.073,344.2 L334.944,344.2 L334.858,344.271 L334.814,344.186 L334.7,344.186 L334.627,344.242 L334.613,344.17 L334.484,344.128 L334.397,344.17 L334.354,344.084 L334.296,344.099 L334.239,344.128 L334.225,343.926 L333.478,343.955 L333.535,344.056 C333.535,344.056 333.19,345.234 331.912,345.091 C331.912,345.091 331.939,345.162 331.825,345.134 C331.825,345.134 331.709,345.234 331.609,345.19 C331.609,345.19 331.495,345.306 331.451,345.19 L331.423,345.19 L331.422,345.158 L331.451,345.136 L331.59,345.111 z M340.178,335.145 C340.208,334.629 339.69,334.139 339.69,334.139 L339.619,334.238 C340.107,334.581 340.178,335.145 340.178,335.145 z M339.851,336.007 C340.57,334.951 339.575,334.246 339.575,334.246 L339.493,334.254 C339.643,335.087 339.104,336.367 339.104,336.367 C339.608,336.389 339.851,336.007 339.851,336.007 z M339.051,336.367 C339.564,335.106 339.44,334.249 339.44,334.249 C339.319,334.465 339.234,334.321 339.234,334.321 C339.124,334.58 338.525,335.366 338.525,335.366 L338.894,336.376 L339.051,336.367 z M339.071,334.498 L339.051,334.422 C339.051,334.422 338.865,334.498 338.692,334.34 C338.692,334.34 338.559,334.216 338.396,334.254 L338.19,334.301 L338.195,334.508 C338.195,334.508 338.329,334.523 338.291,334.686 L338.51,335.288 C338.51,335.288 338.917,334.833 339.071,334.498" fill="#000000"/>
      <path d="M337.558,343.241 C337.562,345.525 339.406,347.371 341.691,347.374 C343.977,347.374 345.821,345.525 345.825,343.241 C345.825,340.956 343.977,339.11 341.691,339.106 C339.406,339.11 337.562,340.956 337.558,343.241 z M337.494,343.241 C337.498,340.92 339.372,339.044 341.691,339.044 C344.011,339.044 345.889,340.92 345.889,343.241 C345.889,345.561 344.011,347.438 341.691,347.438 C339.372,347.438 337.494,345.561 337.494,343.241" fill="#000000"/>
      <path d="M341.66,343.241 L341.723,343.241 L341.723,347.406 L341.66,347.406 z" fill="#000000"/>
      <path d="M341.661,343.248 L341.722,343.233 L342.757,347.269 L342.696,347.284 L341.661,343.248" fill="#000000"/>
      <path d="M341.664,343.256 L341.72,343.226 L343.728,346.875 L343.67,346.905 L341.664,343.256" fill="#000000"/>
      <path d="M341.668,343.263 L341.714,343.219 L344.566,346.254 L344.52,346.299 L341.668,343.263" fill="#000000"/>
      <path d="M341.674,343.269 L341.708,343.215 L345.226,345.448 L345.191,345.501 L341.674,343.269" fill="#000000"/>
      <path d="M341.681,343.271 L341.702,343.21 L345.665,344.495 L345.644,344.557 L341.681,343.271" fill="#000000"/>
      <path d="M341.689,343.273 L341.694,343.209 L345.851,343.469 L345.847,343.533 L341.689,343.273" fill="#000000"/>
      <path d="M341.685,343.209 L345.778,342.429 L345.791,342.492 L341.698,343.273 L341.685,343.209" fill="#000000"/>
      <path d="M341.677,343.212 L345.448,341.438 L345.474,341.497 L341.706,343.27 L341.677,343.212" fill="#000000"/>
      <path d="M341.671,343.216 L344.88,340.56 L344.922,340.609 L341.712,343.266 L341.671,343.216" fill="#000000"/>
      <path d="M341.666,343.222 L344.116,339.853 L344.167,339.891 L341.717,343.26 L341.666,343.222" fill="#000000"/>
      <path d="M341.662,343.229 L343.195,339.356 L343.255,339.38 L341.721,343.252 L341.662,343.229" fill="#000000"/>
      <path d="M341.66,343.236 L342.182,339.103 L342.246,339.11 L341.723,343.245 L341.66,343.236" fill="#000000"/>
      <path d="M341.137,339.11 L341.201,339.103 L341.723,343.236 L341.66,343.245 L341.137,339.11" fill="#000000"/>
      <path d="M340.127,339.38 L340.188,339.355 L341.721,343.229 L341.662,343.252 L340.127,339.38" fill="#000000"/>
      <path d="M339.216,339.891 L339.268,339.853 L341.717,343.222 L341.666,343.26 L339.216,339.891" fill="#000000"/>
      <path d="M338.461,340.609 L338.501,340.56 L341.712,343.216 L341.671,343.266 L338.461,340.609" fill="#000000"/>
      <path d="M337.909,341.497 L337.936,341.438 L341.706,343.212 L341.677,343.27 L337.909,341.497" fill="#000000"/>
      <path d="M337.592,342.492 L337.605,342.429 L341.698,343.209 L341.685,343.271 L337.592,342.492" fill="#000000"/>
      <path d="M337.532,343.469 L341.689,343.209 L341.694,343.273 L337.536,343.533 L337.532,343.469" fill="#000000"/>
      <path d="M337.718,344.495 L341.681,343.21 L341.702,343.271 L337.739,344.557 L337.718,344.495" fill="#000000"/>
      <path d="M338.158,345.448 L341.674,343.215 L341.708,343.269 L338.191,345.502 L338.158,345.448" fill="#000000"/>
      <path d="M338.816,346.254 L341.668,343.219 L341.715,343.263 L338.863,346.299 L338.816,346.254" fill="#000000"/>
      <path d="M339.656,346.875 L341.663,343.226 L341.72,343.258 L339.712,346.905 L339.656,346.875" fill="#000000"/>
      <path d="M340.625,347.269 L341.661,343.233 L341.722,343.248 L340.687,347.284 L340.625,347.269" fill="#000000"/>
      <path d="M321.832,343.288 C321.835,345.572 323.68,347.417 325.965,347.421 C328.25,347.421 330.095,345.572 330.099,343.288 C330.099,341.001 328.25,339.157 325.965,339.153 C323.68,339.157 321.835,341.001 321.832,343.288 z M321.767,343.288 C321.772,340.967 323.645,339.089 325.965,339.089 C328.286,339.089 330.163,340.967 330.163,343.288 C330.163,345.607 328.286,347.485 325.965,347.485 C323.645,347.485 321.767,345.607 321.767,343.288" fill="#000000"/>
      <path d="M325.933,343.288 L325.998,343.288 L325.998,347.453 L325.933,347.453 z" fill="#000000"/>
      <path d="M325.934,343.295 L325.996,343.278 L327.032,347.315 L326.969,347.332 L325.934,343.295" fill="#000000"/>
      <path d="M325.937,343.303 L325.993,343.271 L328.001,346.921 L327.945,346.952 L325.937,343.303" fill="#000000"/>
      <path d="M325.941,343.311 L325.988,343.266 L328.84,346.3 L328.793,346.344 L325.941,343.311" fill="#000000"/>
      <path d="M325.947,343.314 L325.983,343.26 L329.5,345.493 L329.465,345.548 L325.947,343.314" fill="#000000"/>
      <path d="M325.956,343.316 L325.975,343.258 L329.938,344.542 L329.918,344.603 L325.956,343.316" fill="#000000"/>
      <path d="M325.963,343.318 L325.966,343.256 L330.125,343.516 L330.121,343.579 L325.963,343.318" fill="#000000"/>
      <path d="M325.959,343.256 L330.051,342.474 L330.064,342.537 L325.971,343.318 L325.959,343.256" fill="#000000"/>
      <path d="M325.952,343.258 L329.72,341.485 L329.749,341.542 L325.979,343.315 L325.952,343.258" fill="#000000"/>
      <path d="M325.945,343.263 L329.154,340.606 L329.196,340.654 L325.986,343.312 L325.945,343.263" fill="#000000"/>
      <path d="M325.94,343.269 L328.388,339.899 L328.44,339.937 L325.992,343.307 L325.94,343.269" fill="#000000"/>
      <path d="M325.935,343.276 L327.469,339.402 L327.529,339.426 L325.995,343.3 L325.935,343.276" fill="#000000"/>
      <path d="M325.934,343.284 L326.457,339.15 L326.52,339.157 L325.998,343.291 L325.934,343.284" fill="#000000"/>
      <path d="M325.411,339.157 L325.474,339.15 L325.998,343.284 L325.934,343.291 L325.411,339.157" fill="#000000"/>
      <path d="M324.402,339.426 L324.461,339.402 L325.995,343.276 L325.935,343.3 L324.402,339.426" fill="#000000"/>
      <path d="M323.49,339.937 L323.542,339.899 L325.992,343.269 L325.94,343.307 L323.49,339.937" fill="#000000"/>
      <path d="M322.735,340.654 L322.776,340.606 L325.986,343.263 L325.945,343.312 L322.735,340.654" fill="#000000"/>
      <path d="M322.182,341.542 L322.209,341.485 L325.979,343.258 L325.952,343.315 L322.182,341.542" fill="#000000"/>
      <path d="M321.866,342.537 L321.878,342.474 L325.971,343.256 L325.959,343.318 L321.866,342.537" fill="#000000"/>
      <path d="M321.806,343.516 L325.963,343.256 L325.966,343.318 L321.809,343.579 L321.806,343.516" fill="#000000"/>
      <path d="M321.993,344.542 L325.956,343.258 L325.975,343.316 L322.012,344.603 L321.993,344.542" fill="#000000"/>
      <path d="M322.43,345.493 L325.947,343.26 L325.983,343.314 L322.466,345.548 L322.43,345.493" fill="#000000"/>
      <path d="M323.089,346.3 L325.941,343.266 L325.988,343.311 L323.136,346.344 L323.089,346.3" fill="#000000"/>
      <path d="M323.929,346.921 L325.937,343.271 L325.993,343.303 L323.985,346.952 L323.929,346.921" fill="#000000"/>
      <path d="M324.899,347.315 L325.934,343.278 L325.996,343.295 L324.96,347.332 L324.899,347.315" fill="#000000"/>
    </g>
  </g>
</svg>
