<?xml version="1.0" encoding="UTF-8"?>
<!DOCTYPE svg PUBLIC "-//W3C//DTD SVG 1.1//EN" "http://www.w3.org/Graphics/SVG/1.1/DTD/svg11.dtd">
<svg version="1.1" xmlns="http://www.w3.org/2000/svg" xmlns:xlink="http://www.w3.org/1999/xlink" x="0" y="0" width="30.893" height="27.276" viewBox="0, 0, 30.893, 27.276">
  <g id="Layer_1" transform="translate(-3.999, -257.192)">
    <path d="M14.482,262.761 L14.558,262.858 C13.204,263.921 10.051,266.977 9.365,272.813 L9.221,272.798 C9.221,272.798 9.401,266.723 14.482,262.761" fill="#000000"/>
    <path d="M6.721,277.7 L6.53,271.196 L6.017,270.747 L6.337,277.252 L6.721,277.7 z M7.458,278.501 L7.266,271.838 L6.818,271.389 L7.074,278.021 L7.458,278.501 z M8.035,279.207 L7.874,272.35 L7.458,271.965 L7.618,278.66 L8.035,279.207 z M10.118,281.321 L9.958,273.984 L9.349,273.504 L9.573,281.321 L10.118,281.321 z M10.886,260.24 L10.341,260.047 C4.928,263.091 5.344,269.658 5.344,269.658 L5.697,269.883 C5.856,263.443 10.886,260.24 10.886,260.24 z M11.271,277.348 L11.047,268.858 C11.047,268.858 9.989,271.869 10.246,277.477 L11.271,277.348 z M11.432,281.258 L11.399,280.584 L10.341,280.743 L10.374,281.321 L11.432,281.258 z M11.432,280.296 L11.303,278.085 L10.277,278.148 L10.341,280.425 L11.432,280.296 z M11.624,260.721 L11.079,260.399 C5.921,263.636 5.889,269.978 5.889,269.978 L6.305,270.429 C6.24,263.956 11.624,260.721 11.624,260.721 z M12.36,261.103 L11.879,260.848 C5.697,265.365 6.561,270.62 6.561,270.62 L6.978,270.908 C6.818,265.334 12.36,261.103 12.36,261.103 z M12.521,277.221 L12.232,266.423 C12.232,266.423 11.207,268.376 11.207,268.57 L11.56,277.283 L12.521,277.221 z M12.648,280.136 L12.553,277.989 L11.527,278.085 L11.592,280.263 L12.648,280.136 z M13.194,261.52 L12.585,261.232 C12.585,261.232 7.01,265.557 7.17,271.132 L7.65,271.582 C7.65,271.582 7.908,265.238 13.194,261.52 z M13.931,279.976 L13.835,277.796 L12.841,277.893 L12.873,280.103 L13.931,279.976 z M14.09,261.906 L13.45,261.618 C7.908,265.494 7.908,271.741 7.908,271.741 L8.452,272.189 C7.971,266.552 14.09,261.906 14.09,261.906 z M15.147,279.815 L15.115,277.637 L14.09,277.732 L14.123,279.943 L15.147,279.815 z M15.533,262.609 L15.18,262.418 C15.18,262.418 14.94,262.559 14.558,262.858 L14.482,262.761 C14.646,262.633 14.813,262.509 14.988,262.386 L14.315,262.033 C14.315,262.033 8.259,266.583 8.708,272.35 L9.221,272.798 L9.365,272.813 L9.349,272.959 L9.893,273.439 C9.893,273.439 9.669,266.711 15.533,262.609 z M16.429,279.655 L16.397,277.477 L15.308,277.637 L15.34,279.751 L16.429,279.655 z M16.461,280.616 L16.461,279.91 L11.592,280.552 L11.655,281.192 L16.461,280.616 z M17.646,276.58 L17.262,261.873 L16.205,262.45 L16.558,276.675 L17.646,276.58 z M17.743,280.488 L17.711,279.751 L16.622,279.88 L16.685,280.616 L17.743,280.488 z M18.961,276.419 L18.48,261.52 L17.455,261.841 L17.967,276.515 L18.961,276.419 z M20.178,276.26 L19.729,261.136 L18.704,261.392 L19.217,276.354 L20.178,276.26 z M20.21,280.072 L20.145,276.995 L19.185,277.092 L19.217,280.198 L20.21,280.072 z M21.364,279.88 L21.299,276.836 L20.402,276.9 L20.402,280.04 L21.364,279.88 z M21.46,276.003 L21.01,260.88 L19.921,260.977 L20.434,276.162 L21.46,276.003 z M22.612,279.719 L22.549,276.643 L21.555,276.739 L21.619,279.848 L22.612,279.719 z M22.709,275.874 L22.292,260.721 L21.203,260.816 L21.651,275.939 L22.709,275.874 z M23.831,279.495 L23.766,276.515 L22.837,276.643 L22.837,279.687 L23.831,279.495 z M23.862,275.715 L23.414,260.624 L22.484,260.688 L22.934,275.777 L23.862,275.715 z M27.418,279.046 L27.387,278.63 L26.394,278.693 L26.426,279.207 L27.418,279.046 z M27.418,278.277 L27.387,276.035 L26.394,276.13 L26.426,278.373 L27.418,278.277 z M28.604,278.148 L28.54,275.939 L27.611,276.035 L27.675,278.213 L28.604,278.148 z M29.789,277.925 L29.789,275.81 L28.732,275.939 L28.796,278.085 L29.789,277.925 z M30.91,275.042 L30.879,264.307 L29.853,263.283 L29.949,275.074 L30.91,275.042 z M30.943,277.796 L30.975,275.683 L29.981,275.777 L29.981,277.893 L30.943,277.796 z M32.064,277.732 L32.097,275.521 L31.135,275.65 L31.135,277.765 L32.064,277.732 z M32.192,274.882 L32.032,266.294 L31.103,264.597 L31.135,274.944 L32.192,274.882 z M33.154,277.54 L33.122,275.427 L32.289,275.489 L32.321,277.637 L33.154,277.54 z M33.218,278.31 L33.122,277.828 L27.675,278.533 L27.643,279.046 L33.218,278.31 z M33.249,274.753 C33.249,274.753 33.698,268.089 32.257,266.679 L32.417,274.785 L33.249,274.753 z M13.546,261.361 C13.546,261.361 18.287,259.118 23.029,259.855 C23.029,259.855 19.761,258.541 13.066,261.136 L13.546,261.361 z M14.763,263.571 L13.674,264.597 L14.09,276.995 L15.147,276.9 L14.763,263.571 z M23.795,260.079 C23.654,260.05 18.667,259.058 13.866,261.553 L14.507,261.809 C14.507,261.809 19.535,259.407 23.795,260.079 z M13.546,264.757 L12.425,266.167 L12.776,277.124 L13.898,277.027 L13.546,264.757 z M21.203,259.214 C21.203,259.214 14.827,258.061 11.271,260.176 L11.847,260.528 C11.847,260.528 14.443,258.734 21.203,259.214 z M19.761,258.798 C13.225,257.548 10.567,259.886 10.567,259.886 L11.047,260.047 C13.933,257.891 20.212,258.969 20.335,258.988 L19.761,258.798 z M8.739,273.023 L8.836,280.457 L9.285,280.969 L9.093,273.374 L8.739,273.023 z M8.644,280.103 L8.612,272.862 L8.067,272.478 L8.227,279.495 L8.644,280.103 z M5.312,270.108 L5.632,276.675 L6.113,277.027 L5.824,270.588 L5.312,270.108 z M5.536,275.618 C5.536,275.618 3.935,267.192 6.689,263.315 C6.689,263.315 8.964,258.958 14.763,258.221 C14.763,258.221 16.653,257.965 17.551,258.188 C17.551,258.188 17.326,257.132 17.871,257.195 C17.871,257.195 19.152,257.484 19.217,257.933 L19.152,258.509 C19.152,258.509 25.657,260.079 27.707,261.265 C27.707,261.265 34.339,264.917 33.666,271.389 L33.474,277.315 C33.474,277.315 35.172,278.148 34.852,278.471 L34.147,278.63 C34.147,278.63 34.019,280.84 33.698,280.936 C33.698,280.936 33.154,280.969 33.186,281.065 C33.186,281.065 32.961,281.258 32.609,281.258 C32.609,281.258 32.641,281.48 32.129,281.48 C32.129,281.48 30.943,281.833 30.75,281.546 L12.648,283.98 C12.648,283.98 12.553,284.269 12.425,284.301 C12.425,284.301 10.63,284.717 10.534,284.236 C10.534,284.236 10.214,284.301 10.118,284.173 C10.118,284.173 9.733,284.141 9.509,283.852 L4.896,278.405 L4.703,276.58 C4.703,276.58 3.485,275.939 4.254,275.65 L5.536,275.618 z M28.508,262.161 L28.861,275.201 L29.789,275.074 L29.661,263.059 L28.508,262.161 z M28.604,275.233 L28.38,262.065 L27.387,261.52 L27.675,275.362 L28.604,275.233 z M26.104,261.041 L26.426,275.489 L27.451,275.394 L27.194,261.456 L26.104,261.041 z M26.202,275.489 L25.977,261.009 L24.855,260.753 L25.272,275.618 L26.202,275.489 z M25.176,276.26 L25.304,279.334 L26.233,279.239 L26.233,278.693 L25.464,278.758 L25.464,278.501 L26.233,278.405 L26.137,276.162 L25.176,276.26 z M25.047,275.586 L24.728,260.721 L23.606,260.624 L24.118,275.683 L25.047,275.586 z M25.047,276.322 L24.054,276.419 L24.022,279.495 L25.08,279.431 L25.047,276.322 z M12.841,261.009 C12.841,261.009 16.94,258.926 21.872,259.501 C21.725,259.475 16.714,258.603 12.167,260.624 L12.841,261.009 z M24.76,260.399 C24.76,260.399 23.318,259.374 14.859,261.938 L15.564,262.321 C15.564,262.321 19.858,259.886 24.76,260.399 z M17.808,277.221 L17.903,279.431 L18.448,279.366 L18.48,279.655 L17.871,279.719 L17.903,280.425 L18.993,280.263 L18.928,277.155 L17.808,277.221 z M17.775,279.431 L17.615,277.315 L16.589,277.412 L16.622,279.59 L17.775,279.431 z M14.859,263.443 L15.372,276.836 L16.333,276.739 L15.949,262.547 L14.859,263.443" fill="#000000"/>
  </g>
</svg>
