<?xml version="1.0" encoding="UTF-8"?>
<!DOCTYPE svg PUBLIC "-//W3C//DTD SVG 1.1//EN" "http://www.w3.org/Graphics/SVG/1.1/DTD/svg11.dtd">
<svg version="1.1" xmlns="http://www.w3.org/2000/svg" xmlns:xlink="http://www.w3.org/1999/xlink" x="0" y="0" width="27.18" height="22.486" viewBox="0, 0, 27.18, 22.486">
  <g id="Layer_1" transform="translate(-150.609, -196.58)">
    <path d="M150.632,206.359 C150.632,206.359 155.679,201.313 157.24,200.689 C157.24,200.689 160.933,199.441 163.69,198.867 L163.846,196.58 L164.21,196.58 L164.21,198.885 C164.21,198.885 170.609,199.96 171.494,200.637 C171.494,200.637 175.292,203.237 177.788,205.995 C177.788,205.995 177.841,206.463 177.269,205.891 C177.269,205.891 172.846,205.579 170.661,206.62 C170.661,206.62 170.869,207.399 170.245,206.62 C170.245,206.62 164.939,206.151 164.263,206.412 L164.522,217.181 C164.522,217.181 164.783,217.492 164.419,217.7 C164.419,217.7 164.679,219.73 166.135,218.013 C166.135,218.013 166.239,217.752 165.927,217.388 L166.656,217.231 C166.656,217.231 166.812,217.545 166.656,217.596 C166.656,217.596 166.656,219.052 165.303,219.052 C165.303,219.052 163.899,219.312 163.951,217.596 C163.951,217.596 163.743,217.284 163.951,217.231 C163.951,217.231 164.003,206.88 163.846,206.412 C163.846,206.412 158.956,206.724 158.332,206.828 C158.332,206.828 157.708,207.921 157.968,206.724 C157.968,206.724 153.91,205.475 151.153,206.204 C151.153,206.204 150.477,206.931 150.632,206.359" fill="#000000"/>
  </g>
</svg>
