<?xml version="1.0" encoding="UTF-8"?>
<!DOCTYPE svg PUBLIC "-//W3C//DTD SVG 1.1//EN" "http://www.w3.org/Graphics/SVG/1.1/DTD/svg11.dtd">
<svg version="1.1" xmlns="http://www.w3.org/2000/svg" xmlns:xlink="http://www.w3.org/1999/xlink" x="0" y="0" width="17.766" height="17.288" viewBox="0, 0, 17.766, 17.288">
  <g id="Layer_1" transform="translate(-448.822, -352.703)">
    <g>
      <path d="M466.233,358.331 C466.233,358.331 466.618,363.375 466.393,364.307 C466.147,365.328 465.498,366.309 464.423,366.563 C463.537,366.774 462.488,366.551 461.583,366.548 C461.3,366.547 461.017,366.553 460.738,366.524 C463.052,363.087 460.834,360.066 460.834,360.066 C458.779,357.271 455.405,357.785 455.405,357.785 C454.601,357.945 452.467,359.335 452.467,359.335 C451.453,359.83 449.749,361.02 449.524,363.504 C449.524,363.504 449.234,365.333 449.77,366.235 C449.504,366.162 448.928,365.813 448.979,364.18 L448.947,358.588 C448.947,358.588 449.428,355.857 451.645,355.922 L451.95,355.889 L452.03,355.311 C452.03,355.311 452.159,355.15 452.545,355.215 C452.545,355.215 453.894,354.507 455.5,354.893 C455.5,354.893 456.464,353.641 458.007,353.641 L458.104,353.287 L458.779,352.837 L459.068,352.901 L458.811,353.157 L459.517,353.287 L459.645,353.56 L460.256,353.479 L460.706,352.967 L461.219,353.029 L461.028,353.56 C461.028,353.56 462.442,354.026 462.73,355.086 C462.73,355.086 463.019,356.051 464.562,356.307 C464.562,356.307 466.168,356.371 466.233,358.331" fill="#000000"/>
      <path d="M466.233,358.331 L466.108,358.341 C466.108,358.342 466.166,359.095 466.223,360.074 C466.281,361.053 466.338,362.257 466.338,363.151 C466.339,363.671 466.317,364.092 466.272,364.277 C466.032,365.272 465.405,366.204 464.394,366.442 C464.124,366.506 463.833,366.529 463.533,366.529 C462.893,366.529 462.212,366.425 461.583,366.423 L461.388,366.423 C461.171,366.423 460.958,366.421 460.75,366.4 L460.738,366.524 L460.841,366.594 C461.649,365.395 461.917,364.238 461.917,363.24 C461.916,361.327 460.943,360.004 460.935,359.992 C459.397,357.902 457.141,357.622 456.045,357.623 C455.641,357.623 455.391,357.661 455.386,357.662 L455.383,357.662 L455.38,357.663 C454.94,357.753 454.212,358.142 453.572,358.512 C452.935,358.881 452.4,359.229 452.399,359.23 L452.467,359.335 L452.412,359.223 C451.379,359.725 449.629,360.95 449.399,363.493 L449.524,363.504 L449.4,363.484 C449.4,363.488 449.321,363.987 449.321,364.599 C449.322,365.165 449.384,365.826 449.663,366.299 L449.77,366.235 L449.803,366.115 C449.61,366.056 449.109,365.817 449.101,364.378 L449.104,364.184 L449.104,364.181 L449.072,358.587 L448.947,358.588 L449.07,358.61 C449.07,358.609 449.098,358.452 449.173,358.208 C449.286,357.843 449.507,357.294 449.889,356.845 C450.272,356.396 450.802,356.047 451.568,356.046 L451.641,356.047 L451.65,356.047 L451.963,356.013 L452.06,356.002 L452.154,355.328 L452.03,355.311 L452.127,355.389 L452.128,355.389 C452.146,355.375 452.21,355.325 452.372,355.324 L452.525,355.338 L452.566,355.345 L452.603,355.325 C452.604,355.325 452.65,355.301 452.742,355.261 C453.02,355.143 453.687,354.902 454.515,354.902 C454.816,354.902 455.138,354.934 455.471,355.014 L455.55,355.033 L455.6,354.969 C455.6,354.969 455.654,354.897 455.765,354.784 C456.097,354.443 456.904,353.764 458.007,353.766 L458.103,353.766 L458.212,353.365 L458.804,352.97 L458.818,352.974 L458.723,353.069 L458.554,353.237 L459.431,353.398 L459.532,353.613 L459.571,353.695 L460.273,353.603 L460.319,353.597 L460.756,353.099 L461.048,353.134 L460.91,353.517 L460.867,353.638 L460.989,353.678 C460.989,353.678 461.07,353.705 461.203,353.763 C461.604,353.937 462.419,354.394 462.609,355.119 L462.61,355.12 L462.61,355.122 C462.613,355.148 462.945,356.168 464.542,356.43 L464.549,356.431 L464.557,356.431 L464.615,356.437 C464.756,356.455 465.12,356.527 465.448,356.791 C465.775,357.056 466.079,357.507 466.108,358.335 L466.108,358.341 L466.233,358.331 L466.358,358.327 C466.327,357.313 465.881,356.756 465.44,356.478 C465.001,356.199 464.579,356.183 464.567,356.182 L464.562,356.307 L464.582,356.183 C463.835,356.059 463.405,355.768 463.157,355.513 C463.033,355.386 462.956,355.267 462.909,355.181 L462.861,355.081 L462.85,355.05 L462.73,355.086 L462.851,355.053 C462.524,353.903 461.075,353.45 461.067,353.441 L461.028,353.56 L461.145,353.602 L461.337,353.072 L461.39,352.924 L460.721,352.843 L460.655,352.835 L460.193,353.362 L459.719,353.424 L459.63,353.234 L459.603,353.176 L459.068,353.077 L459.156,352.99 L459.318,352.829 L458.806,352.715 L458.754,352.703 L458.035,353.183 L457.996,353.209 L457.887,353.608 L458.007,353.641 L458.007,353.516 C456.392,353.521 455.411,354.807 455.401,354.816 L455.5,354.893 L455.53,354.771 C455.175,354.686 454.833,354.652 454.515,354.652 C453.346,354.653 452.498,355.099 452.487,355.104 L452.545,355.215 L452.566,355.092 L452.372,355.074 C452.081,355.073 451.948,355.209 451.932,355.232 L451.911,355.259 L451.839,355.775 L451.631,355.798 L451.645,355.922 L451.649,355.797 L451.568,355.796 C450.435,355.795 449.738,356.505 449.343,357.192 C448.944,357.88 448.826,358.558 448.824,358.566 L448.822,358.577 L448.854,364.18 L448.979,364.18 L448.854,364.176 L448.851,364.378 C448.843,365.867 449.421,366.275 449.737,366.356 L450.036,366.438 L449.877,366.171 C449.641,365.777 449.569,365.144 449.571,364.599 C449.57,364.009 449.648,363.525 449.647,363.523 L449.648,363.519 L449.648,363.515 C449.868,361.091 451.526,359.935 452.522,359.447 L452.529,359.444 L452.535,359.44 C452.537,359.439 453.067,359.094 453.697,358.728 C454.325,358.363 455.066,357.978 455.429,357.908 L455.405,357.785 L455.424,357.909 C455.424,357.909 455.479,357.9 455.587,357.891 C455.694,357.882 455.851,357.873 456.045,357.873 C457.105,357.874 459.266,358.143 460.734,360.14 C460.734,360.141 460.789,360.216 460.877,360.363 C461.139,360.806 461.668,361.871 461.667,363.24 C461.667,364.194 461.414,365.296 460.634,366.455 L460.517,366.628 L460.725,366.649 C460.948,366.671 461.17,366.673 461.388,366.673 L461.582,366.673 C462.185,366.674 462.868,366.778 463.533,366.779 C463.846,366.779 464.155,366.756 464.452,366.685 C465.59,366.413 466.262,365.385 466.515,364.336 C466.57,364.1 466.588,363.681 466.588,363.151 C466.588,361.344 466.358,358.323 466.358,358.321 L466.233,358.331 L466.358,358.327 L466.233,358.331" fill="#FFFFFE"/>
      <path d="M460.834,360.066 C460.834,360.066 463.052,363.087 460.738,366.524 C460.266,367.176 459.716,367.839 459.091,368.347 C458.936,368.472 458.769,368.576 458.594,368.664 C458.594,368.664 461.958,365.85 459.42,361.385 C459.42,361.385 457.171,358.138 453.219,359.038 C453.219,359.038 452.91,359.12 452.467,359.335 C452.467,359.335 454.601,357.945 455.405,357.785 C455.405,357.785 458.779,357.271 460.834,360.066" fill="#000000"/>
      <path d="M460.834,360.066 L460.734,360.14 C460.734,360.141 460.789,360.216 460.877,360.363 C461.139,360.806 461.668,361.871 461.667,363.24 C461.667,364.194 461.414,365.296 460.634,366.455 L460.738,366.524 L460.637,366.451 C460.168,367.098 459.624,367.753 459.012,368.25 C458.865,368.368 458.706,368.468 458.538,368.552 L458.594,368.664 L458.674,368.76 C458.685,368.75 460.49,367.243 460.493,364.658 C460.493,363.684 460.234,362.562 459.529,361.323 L459.526,361.318 L459.523,361.314 C459.514,361.303 457.759,358.76 454.586,358.755 C454.147,358.755 453.682,358.804 453.191,358.916 L453.189,358.917 L453.187,358.917 C453.181,358.919 452.864,359.003 452.413,359.222 L452.467,359.335 L452.535,359.44 C452.537,359.439 453.067,359.094 453.697,358.728 C454.325,358.363 455.066,357.978 455.429,357.908 L455.405,357.785 L455.424,357.909 C455.424,357.909 455.479,357.9 455.587,357.891 C455.694,357.882 455.851,357.873 456.045,357.873 C457.105,357.874 459.266,358.143 460.734,360.14 L460.834,360.066 L460.935,359.992 C459.397,357.902 457.141,357.622 456.045,357.623 C455.641,357.623 455.391,357.661 455.386,357.662 L455.383,357.662 L455.38,357.663 C454.94,357.753 454.212,358.142 453.572,358.512 C452.935,358.881 452.4,359.229 452.399,359.23 L452.522,359.447 C452.738,359.342 452.922,359.27 453.051,359.224 C453.18,359.178 453.251,359.159 453.251,359.159 L453.219,359.038 L453.247,359.16 C453.719,359.052 454.166,359.005 454.586,359.005 C456.101,359.005 457.283,359.617 458.09,360.232 C458.493,360.539 458.801,360.847 459.008,361.077 C459.111,361.192 459.189,361.288 459.241,361.354 L459.318,361.456 L459.42,361.385 L459.312,361.446 C459.997,362.653 460.243,363.729 460.243,364.658 C460.243,365.889 459.81,366.867 459.376,367.539 C459.159,367.875 458.942,368.134 458.78,368.308 L458.585,368.504 L458.514,368.568 L458.65,368.776 C458.832,368.684 459.007,368.575 459.17,368.444 C459.808,367.925 460.364,367.254 460.839,366.598 L460.841,366.594 C461.649,365.395 461.917,364.238 461.917,363.24 C461.916,361.327 460.943,360.004 460.935,359.992 L460.834,360.066" fill="#FFFFFE"/>
      <path d="M459.42,361.385 C461.958,365.85 458.594,368.664 458.594,368.664 C458.152,368.886 457.66,369.001 457.172,369.103 C458.505,368.245 459.388,366.75 459.388,365.047 C459.388,362.386 457.231,360.227 454.569,360.227 C451.907,360.227 449.75,362.386 449.75,365.047 C449.75,365.465 449.802,365.868 449.903,366.255 L449.77,366.235 C449.234,365.333 449.524,363.504 449.524,363.504 C449.749,361.02 451.453,359.83 452.467,359.335 C452.91,359.12 453.219,359.038 453.219,359.038 C457.171,358.138 459.42,361.385 459.42,361.385" fill="#000000"/>
      <path d="M459.42,361.385 L459.312,361.446 C459.997,362.653 460.243,363.729 460.243,364.658 C460.243,365.889 459.81,366.867 459.376,367.539 C459.159,367.875 458.942,368.134 458.78,368.308 L458.585,368.504 L458.514,368.568 L458.594,368.664 L458.538,368.552 C458.114,368.765 457.632,368.879 457.147,368.98 L457.172,369.103 L457.24,369.208 C458.607,368.328 459.513,366.794 459.513,365.047 C459.513,362.317 457.3,360.102 454.569,360.102 C451.838,360.102 449.625,362.317 449.625,365.047 C449.624,365.475 449.679,365.889 449.782,366.286 L449.903,366.255 L449.921,366.131 L449.788,366.112 L449.77,366.235 L449.877,366.171 C449.641,365.777 449.569,365.144 449.571,364.599 C449.57,364.008 449.648,363.525 449.647,363.523 L449.648,363.519 L449.648,363.515 C449.868,361.091 451.526,359.935 452.522,359.447 C452.738,359.342 452.922,359.27 453.051,359.224 C453.18,359.178 453.251,359.159 453.251,359.159 L453.219,359.038 L453.247,359.16 C453.719,359.052 454.166,359.005 454.586,359.005 C456.101,359.005 457.283,359.617 458.09,360.232 C458.493,360.539 458.801,360.847 459.008,361.077 C459.111,361.192 459.189,361.288 459.241,361.354 L459.318,361.456 L459.42,361.385 L459.312,361.446 L459.42,361.385 L459.523,361.314 C459.514,361.303 457.759,358.76 454.586,358.755 C454.147,358.755 453.682,358.804 453.191,358.916 L453.189,358.917 L453.187,358.917 C453.181,358.919 452.864,359.003 452.413,359.222 C451.379,359.725 449.629,360.95 449.399,363.493 L449.524,363.504 L449.4,363.484 C449.4,363.488 449.321,363.987 449.321,364.599 C449.322,365.165 449.384,365.827 449.663,366.299 L449.693,366.35 L449.885,366.379 L450.071,366.406 L450.024,366.223 C449.926,365.847 449.875,365.454 449.874,365.047 C449.875,363.75 450.4,362.577 451.249,361.727 C452.099,360.877 453.272,360.352 454.569,360.351 C455.866,360.352 457.039,360.877 457.888,361.727 C458.738,362.577 459.263,363.75 459.263,365.047 C459.263,366.706 458.403,368.162 457.105,368.997 L457.198,369.225 C457.687,369.123 458.19,369.006 458.65,368.776 L458.663,368.769 L458.674,368.76 C458.685,368.75 460.49,367.243 460.493,364.658 C460.493,363.684 460.234,362.562 459.529,361.323 L459.526,361.318 L459.523,361.314 L459.42,361.385" fill="#FFFFFE"/>
      <path d="M458.104,364.639 C458.104,362.67 456.507,361.074 454.537,361.074 C452.567,361.074 450.97,362.67 450.97,364.639 C450.97,366.608 452.567,368.206 454.537,368.206 C456.507,368.206 458.104,366.608 458.104,364.639 z M454.569,360.227 C457.231,360.227 459.388,362.386 459.388,365.047 C459.388,366.75 458.505,368.245 457.172,369.103 C456.422,369.586 455.528,369.866 454.569,369.866 C452.324,369.866 450.438,368.332 449.903,366.255 C449.802,365.868 449.75,365.465 449.75,365.047 C449.75,362.386 451.907,360.227 454.569,360.227" fill="#000000"/>
      <path d="M458.104,364.639 L458.229,364.639 C458.229,362.601 456.576,360.949 454.537,360.949 C452.498,360.949 450.845,362.601 450.845,364.639 C450.845,366.677 452.498,368.331 454.537,368.331 C456.576,368.331 458.229,366.677 458.229,364.639 L457.979,364.639 C457.976,366.539 456.438,368.078 454.537,368.081 C452.636,368.078 451.099,366.539 451.095,364.639 C451.099,362.739 452.636,361.203 454.537,361.199 C456.438,361.203 457.976,362.739 457.979,364.639 L458.104,364.639 z M454.569,360.227 L454.569,360.351 C455.866,360.352 457.039,360.877 457.888,361.727 C458.738,362.577 459.263,363.75 459.263,365.047 C459.263,366.706 458.403,368.162 457.105,368.997 C456.374,369.468 455.503,369.741 454.569,369.741 C452.382,369.741 450.545,368.247 450.024,366.224 C449.926,365.847 449.875,365.454 449.874,365.047 C449.875,363.75 450.4,362.577 451.249,361.727 C452.099,360.877 453.272,360.352 454.569,360.351 L454.569,360.102 C451.838,360.102 449.625,362.317 449.625,365.047 C449.624,365.475 449.679,365.889 449.782,366.286 C450.331,368.417 452.266,369.991 454.569,369.991 C455.552,369.991 456.471,369.704 457.24,369.208 C458.607,368.328 459.513,366.794 459.513,365.047 C459.513,362.317 457.3,360.102 454.569,360.102 L454.569,360.227" fill="#FFFFFE"/>
      <path d="M456.978,364.479 C456.978,363.326 456.043,362.391 454.889,362.391 C453.736,362.391 452.801,363.326 452.801,364.479 C452.801,365.633 453.736,366.567 454.889,366.567 C456.043,366.567 456.978,365.633 456.978,364.479 z M454.537,361.074 C456.507,361.074 458.104,362.67 458.104,364.639 C458.104,366.608 456.507,368.206 454.537,368.206 C452.567,368.206 450.97,366.608 450.97,364.639 C450.97,362.67 452.567,361.074 454.537,361.074" fill="#000000"/>
      <path d="M456.978,364.479 L457.103,364.479 C457.103,363.257 456.113,362.266 454.889,362.266 C453.667,362.266 452.676,363.257 452.676,364.479 C452.676,365.702 453.667,366.692 454.889,366.692 C456.112,366.692 457.103,365.702 457.103,364.479 L456.853,364.479 C456.851,365.564 455.974,366.44 454.889,366.442 C453.805,366.44 452.928,365.564 452.926,364.479 C452.928,363.395 453.805,362.518 454.889,362.516 C455.974,362.518 456.851,363.395 456.853,364.479 L456.978,364.479 z M454.537,361.074 L454.537,361.199 C456.438,361.203 457.976,362.739 457.979,364.639 C457.976,366.539 456.438,368.078 454.537,368.081 C452.636,368.078 451.099,366.539 451.095,364.639 C451.099,362.739 452.636,361.203 454.537,361.199 L454.537,360.949 C452.498,360.949 450.845,362.601 450.845,364.639 C450.845,366.677 452.498,368.331 454.537,368.331 C456.576,368.331 458.229,366.677 458.229,364.639 C458.229,362.601 456.576,360.949 454.537,360.949 L454.537,361.074" fill="#FFFFFE"/>
    </g>
  </g>
</svg>
