<?xml version="1.0" encoding="UTF-8"?>
<!DOCTYPE svg PUBLIC "-//W3C//DTD SVG 1.1//EN" "http://www.w3.org/Graphics/SVG/1.1/DTD/svg11.dtd">
<svg version="1.1" xmlns="http://www.w3.org/2000/svg" xmlns:xlink="http://www.w3.org/1999/xlink" x="0" y="0" width="6.652" height="11.843" viewBox="0, 0, 6.652, 11.843">
  <g id="Layer_1" transform="translate(-120.411, -158.965)">
    <path d="M123.851,168.44 C123.984,168.617 123.961,169.46 123.961,169.46 C123.517,171.057 122.142,170.791 122.142,170.791 C121.676,170.724 121.082,170.214 121.082,170.214 C120.42,169.77 120.411,168.617 120.411,168.617 C120.611,167.33 121.942,167.374 121.942,167.374 L121.92,165.91 C121.742,164.889 122.031,162.293 122.031,162.293 L122.342,160.452 C122.475,160.03 122.352,159.765 122.352,159.765 C122.362,159.033 122.875,158.965 122.875,158.965 C123.318,159.054 123.25,159.692 123.25,159.692 C123.339,160.02 124.116,162.071 124.116,162.071 C124.316,162.626 125.137,165.266 125.159,165.244 L125.726,165.052 C126.359,165.017 126.779,165.665 126.779,165.665 C127.29,166.198 126.956,167.374 126.956,167.374 C126.89,168.261 125.847,168.75 125.847,168.75 C124.904,169.452 123.874,168.462 123.851,168.44 z M123.407,167.751 C123.399,167.731 123.076,166.834 123.34,166.153 C123.34,166.153 123.563,165.311 124.649,165.377 C124.649,165.377 124.382,163.646 124.116,163.07 C124.116,163.07 123.495,161.028 123.229,160.629 C123.229,160.629 122.985,160.186 122.852,159.941 C122.852,159.941 122.453,161.161 122.453,161.472 C122.453,161.472 122.142,163.469 122.142,164.157 C122.142,164.157 122.098,166.642 122.364,167.419 C122.364,167.419 123.007,167.308 123.407,167.751" fill="#000000"/>
  </g>
</svg>
