<?xml version="1.0" encoding="UTF-8"?>
<!DOCTYPE svg PUBLIC "-//W3C//DTD SVG 1.1//EN" "http://www.w3.org/Graphics/SVG/1.1/DTD/svg11.dtd">
<svg version="1.1" xmlns="http://www.w3.org/2000/svg" xmlns:xlink="http://www.w3.org/1999/xlink" x="0" y="0" width="9.699" height="8.701" viewBox="0, 0, 9.699, 8.701">
  <g id="Layer_1" transform="translate(-531.138, -91.553)">
    <path d="M531.341,100.015 C531.341,100.015 530.809,99.364 531.469,98.608 C531.469,98.608 533.297,97.182 533.809,96.71 C533.809,96.71 535.234,95.306 535.421,95.06 L538.606,91.895 C538.606,91.895 539.136,91.264 539.816,91.716 C539.816,91.716 540.956,92.906 540.827,93.104 C540.827,93.104 540.602,93.044 539.805,92.17 C539.805,92.17 539.638,92.001 539.539,92.12 C539.539,92.12 539.717,92.416 540.533,93.279 L540.532,93.37 C540.532,93.37 540.503,93.405 540.394,93.323 L539.377,92.401 C539.377,92.401 539.333,92.337 539.23,92.416 C539.23,92.416 539.161,92.459 539.299,92.602 L540.256,93.608 L540.256,93.704 C540.256,93.704 540.256,93.767 540.119,93.673 L539.087,92.681 L538.935,92.67 C538.935,92.67 538.861,92.758 539.013,92.906 L539.981,93.909 L539.962,94.008 C539.962,94.008 539.942,94.052 539.816,93.929 L538.822,93.004 C538.822,93.004 538.728,92.887 538.646,92.985 C538.646,92.985 538.615,93.093 538.774,93.222 L539.642,94.164 L539.659,94.313 C539.659,94.313 539.608,94.381 539.47,94.229 L538.532,93.319 C538.532,93.319 538.483,93.222 538.389,93.285 C538.389,93.285 538.306,93.354 538.444,93.487 L539.374,94.479 L539.367,94.611 C539.367,94.611 539.353,94.65 539.191,94.504 L538.213,93.579 L538.075,93.579 C538.075,93.579 538.006,93.643 538.139,93.781 L539.063,94.769 L539.048,94.921 C539.048,94.921 539.013,94.965 538.881,94.838 L537.922,93.86 L537.785,93.86 C537.785,93.86 537.663,93.894 537.927,94.154 L538.796,95.094 L538.774,95.197 C538.774,95.197 538.768,95.256 538.615,95.118 L537.614,94.15 L537.5,94.175 L537.525,94.313 L538.483,95.344 L538.483,95.478 C538.483,95.478 538.395,95.507 538.158,95.275 L537.382,94.49 C537.382,94.49 537.308,94.356 537.205,94.465 C537.205,94.465 537.122,94.525 537.333,94.696 L538.183,95.63 L538.213,95.753 C538.213,95.753 538.183,95.855 538.032,95.703 L537.068,94.779 L536.915,94.769 C536.915,94.769 536.833,94.867 536.94,94.976 L537.908,95.953 L537.903,96.067 C537.903,96.067 537.833,96.111 537.725,95.993 L536.75,95.056 L536.624,95.044 C536.624,95.044 536.504,95.105 536.757,95.312 L537.632,96.237 L537.614,96.382 C537.614,96.382 537.567,96.443 537.377,96.244 L536.462,95.335 C536.462,95.335 536.394,95.227 536.303,95.325 C536.303,95.325 536.245,95.387 536.329,95.488 L537.293,96.524 L537.292,96.687 C537.292,96.687 537.242,96.755 536.966,96.463 L536.15,95.642 L536.018,95.651 C536.018,95.651 535.951,95.727 536.047,95.831 L537.008,96.826 L537.016,96.958 L536.935,96.95 L535.879,95.953 L535.743,95.943 C535.743,95.943 535.683,96.015 535.805,96.129 L536.708,97.08 L536.729,97.23 C536.729,97.23 536.684,97.295 536.438,97.07 C536.438,97.07 536.099,96.729 535.592,96.77 C535.592,96.77 535.041,96.811 534.362,97.685 C533.982,98.118 533.606,98.557 533.226,98.99 C533,99.249 532.798,99.53 532.573,99.786 C532.389,99.995 532.115,100.241 531.821,100.254 C531.644,100.261 531.453,100.149 531.341,100.015" fill="#000000"/>
  </g>
</svg>
