<?xml version="1.0" encoding="UTF-8"?>
<!DOCTYPE svg PUBLIC "-//W3C//DTD SVG 1.1//EN" "http://www.w3.org/Graphics/SVG/1.1/DTD/svg11.dtd">
<svg version="1.1" xmlns="http://www.w3.org/2000/svg" xmlns:xlink="http://www.w3.org/1999/xlink" x="0" y="0" width="23.801" height="21.458" viewBox="0, 0, 23.801, 21.458">
  <g id="Layer_1" transform="translate(-505.417, -241.103)">
    <g>
      <path d="M520.302,246.832 C520.615,246.832 520.868,247.084 520.868,247.395 C520.868,247.71 520.615,247.963 520.302,247.963 C519.989,247.963 519.735,247.71 519.735,247.395 C519.735,247.084 519.989,246.832 520.302,246.832" fill="#000000"/>
      <path d="M514.172,246.052 C514.483,246.052 514.736,246.307 514.736,246.618 C514.736,246.932 514.483,247.186 514.172,247.186 C513.858,247.186 513.604,246.932 513.604,246.618 C513.604,246.307 513.858,246.052 514.172,246.052" fill="#000000"/>
      <path d="M511.313,245.622 C511.626,245.622 511.881,245.876 511.881,246.188 C511.881,246.5 511.626,246.754 511.313,246.754 C511.001,246.754 510.748,246.5 510.748,246.188 C510.748,245.876 511.001,245.622 511.313,245.622" fill="#000000"/>
      <path d="M517.079,246.486 C517.391,246.486 517.645,246.739 517.645,247.053 C517.645,247.364 517.391,247.617 517.079,247.617 C516.766,247.617 516.512,247.364 516.512,247.053 C516.512,246.739 516.766,246.486 517.079,246.486" fill="#000000"/>
      <path d="M520.28,253.227 L520.28,253.743 L510.6,251.556 L510.647,251.013 L520.28,253.227" fill="#000000"/>
      <path d="M522.363,241.672 L519.899,242.726 L515.481,242.272 L518.109,241.323 L518.111,241.323 L522.363,241.672" fill="#000000"/>
      <path d="M527.262,242.076 L525.167,243.269 L519.899,242.726 L522.363,241.672 L527.262,242.076" fill="#000000"/>
      <path d="M528.392,243.223 L528.392,255.478 L527.505,255.478 L527.505,254.556 L523.483,259.761 L523.62,246.327 L528.392,243.223" fill="#000000"/>
      <path d="M529.093,242.228 L529.093,242.854 L528.392,243.223 L523.002,246.729 L522.191,246.624 L509.05,244.922 L508.276,244.811 C508.276,244.478 508.607,244.072 508.607,244.072 L516.987,241.229 L518.109,241.323 L515.481,242.272 L511.584,243.678 L516.46,244.199 L522.413,244.835 L525.167,243.269 L527.262,242.076 L529.093,242.228" fill="#000000"/>
      <path d="M519.899,242.726 L516.46,244.199 L511.584,243.678 L515.481,242.272 L519.899,242.726" fill="#000000"/>
      <path d="M525.167,243.269 L522.413,244.835 L516.46,244.199 L519.899,242.726 L525.167,243.269" fill="#000000"/>
      <path d="M520.28,253.743 L520.28,253.227 L510.647,251.013 L510.6,251.556 L520.28,253.743 z M520.567,251.308 L520.567,256.733 L510.12,253.892 L509.751,254.133 L509.751,249.167 L520.567,251.308" fill="#000000"/>
      <path d="M511.881,246.188 C511.881,245.876 511.626,245.622 511.313,245.622 C511.001,245.622 510.748,245.876 510.748,246.188 C510.748,246.5 511.001,246.754 511.313,246.754 C511.626,246.754 511.881,246.5 511.881,246.188 z M514.736,246.618 C514.736,246.307 514.483,246.052 514.172,246.052 C513.858,246.052 513.604,246.307 513.604,246.618 C513.604,246.932 513.858,247.186 514.172,247.186 C514.483,247.186 514.736,246.932 514.736,246.618 z M517.645,247.053 C517.645,246.739 517.391,246.486 517.079,246.486 C516.766,246.486 516.512,246.739 516.512,247.053 C516.512,247.364 516.766,247.617 517.079,247.617 C517.391,247.617 517.645,247.364 517.645,247.053 z M520.868,247.395 C520.868,247.084 520.615,246.832 520.302,246.832 C519.989,246.832 519.735,247.084 519.735,247.395 C519.735,247.71 519.989,247.963 520.302,247.963 C520.615,247.963 520.868,247.71 520.868,247.395 z M522.191,246.624 L522.191,260.131 L518.849,259.077 L520.567,257.545 L520.567,251.308 L509.751,249.167 L509.751,254.133 L509.271,254.445 L509.05,244.922 L522.191,246.624" fill="#000000"/>
      <path d="M523.002,246.729 L523.62,246.327 L523.483,259.761 L523.483,261.938 L523.002,262.419 L522.191,262.16 L522.191,246.624 L523.002,246.729" fill="#000000"/>
      <path d="M520.567,256.733 L520.567,257.545 L518.849,259.077 L516.691,261.237 L505.542,257.509 L505.542,256.77 L509.271,254.445 L509.751,254.133 L510.12,253.892 L520.567,256.733" fill="#000000"/>
      <path d="M518.119,241.199 L516.997,241.105 L516.971,241.103 L508.533,243.965 L508.51,243.993 C508.507,244.005 508.16,244.402 508.151,244.811 L508.151,244.919 L508.928,245.03 L509.144,254.377 L505.417,256.701 L505.417,257.599 L516.725,261.38 L518.884,259.219 L522.066,260.222 L522.066,262.251 L522.964,262.538 L523.037,262.561 L523.571,262.027 L523.608,261.99 L523.608,259.803 L527.38,254.922 L527.38,255.603 L528.517,255.603 L528.517,243.298 L529.151,242.965 L529.218,242.93 L529.218,242.112 L527.272,241.952 L522.373,241.547 L518.121,241.199 L518.101,241.448 L522.353,241.796 L527.252,242.201 L528.968,242.343 L528.968,242.779 L528.334,243.112 L528.267,243.147 L528.267,255.353 L527.63,255.353 L527.63,254.189 L523.358,259.718 L523.358,261.887 L522.968,262.277 L522.316,262.069 L522.316,260.039 L518.814,258.935 L516.657,261.094 L505.667,257.419 L505.667,256.84 L509.398,254.514 L509.173,244.813 L508.294,244.687 L508.276,244.811 L508.401,244.811 C508.399,244.685 508.471,244.512 508.55,244.379 C508.627,244.245 508.704,244.152 508.704,244.151 L508.607,244.072 L508.647,244.191 L517.002,241.356 L518.098,241.448 L518.119,241.199" fill="#FFFFFE"/>
      <path d="M509.034,245.046 L522.175,246.748 L522.986,246.853 L523.032,246.859 L523.688,246.432 L528.46,243.327 L528.324,243.118 L523.551,246.222 L522.973,246.6 L522.207,246.5 L509.066,244.798 L509.034,245.046" fill="#FFFFFE"/>
      <path d="M523.495,246.326 L523.358,259.759 L523.608,259.762 L523.745,246.328" fill="#FFFFFE"/>
      <path d="M522.066,246.624 L522.316,246.624 L522.316,260.131 L522.066,260.131 z" fill="#FFFFFE"/>
      <path d="M509.339,254.55 L509.82,254.238 L510.141,254.027 L520.442,256.829 L520.442,257.489 L518.766,258.984 L518.932,259.17 L520.692,257.601 L520.692,256.638 L510.098,253.756 L509.683,254.028 L509.203,254.34 L509.339,254.55" fill="#FFFFFE"/>
      <path d="M520.692,256.733 L520.692,251.205 L509.626,249.015 L509.626,254.133 L509.876,254.133 L509.876,249.319 L520.442,251.41 L520.442,256.733 L520.692,256.733" fill="#FFFFFE"/>
      <path d="M510.647,251.013 L510.522,251.002 L510.476,251.545 L510.466,251.653 L520.405,253.9 L520.405,253.127 L510.535,250.859 L510.522,251.002 L510.647,251.013 L510.619,251.134 L520.155,253.326 L520.155,253.587 L510.734,251.458 L510.771,251.023 L510.647,251.013 L510.619,251.134 L510.647,251.013" fill="#FFFFFE"/>
      <path d="M510.748,246.188 L510.873,246.188 C510.873,245.945 511.071,245.747 511.313,245.747 C511.558,245.747 511.756,245.946 511.756,246.188 C511.756,246.43 511.558,246.628 511.313,246.629 C511.071,246.628 510.873,246.431 510.873,246.188 L510.623,246.188 C510.623,246.569 510.932,246.879 511.313,246.879 C511.695,246.879 512.006,246.57 512.006,246.188 C512.006,245.806 511.695,245.497 511.313,245.497 C510.932,245.497 510.623,245.807 510.623,246.188 L510.748,246.188" fill="#FFFFFE"/>
      <path d="M513.604,246.618 L513.729,246.618 C513.729,246.376 513.927,246.177 514.172,246.177 C514.413,246.177 514.61,246.375 514.611,246.618 C514.61,246.863 514.413,247.06 514.172,247.061 C513.927,247.06 513.729,246.863 513.729,246.618 L513.479,246.618 C513.48,247.001 513.789,247.31 514.172,247.31 C514.553,247.31 514.861,247 514.861,246.618 C514.861,246.238 514.553,245.927 514.172,245.927 C513.789,245.927 513.479,246.237 513.479,246.618 L513.604,246.618" fill="#FFFFFE"/>
      <path d="M516.512,247.053 L516.637,247.053 C516.638,246.808 516.835,246.612 517.079,246.611 C517.322,246.612 517.52,246.808 517.52,247.053 C517.52,247.295 517.322,247.492 517.079,247.492 C516.835,247.492 516.638,247.295 516.637,247.053 L516.387,247.053 C516.387,247.434 516.697,247.742 517.079,247.742 C517.46,247.742 517.77,247.434 517.77,247.053 C517.77,246.67 517.46,246.361 517.079,246.361 C516.697,246.361 516.387,246.67 516.387,247.053 L516.512,247.053" fill="#FFFFFE"/>
      <path d="M519.735,247.395 L519.86,247.395 C519.86,247.154 520.057,246.957 520.302,246.957 C520.546,246.957 520.742,247.153 520.743,247.395 C520.742,247.641 520.546,247.838 520.302,247.838 C520.057,247.838 519.86,247.641 519.86,247.395 L519.61,247.395 C519.611,247.779 519.92,248.087 520.302,248.088 C520.684,248.087 520.992,247.778 520.993,247.395 C520.993,247.015 520.683,246.708 520.302,246.707 C519.92,246.708 519.61,247.014 519.61,247.395 L519.735,247.395" fill="#FFFFFE"/>
      <path d="M527.2,241.967 L525.105,243.16 L522.386,244.706 L516.474,244.075 L512.137,243.611 L515.523,242.39 L518.151,241.441 L518.109,241.323 L518.109,241.448 L518.111,241.448 L518.111,241.198 L518.087,241.198 L515.438,242.155 L511.542,243.56 L511.571,243.802 L516.447,244.323 L522.439,244.963 L527.324,242.185 L527.2,241.967" fill="#FFFFFE"/>
      <path d="M516.51,244.314 L519.948,242.84 L522.412,241.787 L522.314,241.557 L519.85,242.611 L516.411,244.084 L516.51,244.314" fill="#FFFFFE"/>
      <path d="M515.468,242.397 L519.886,242.85 L525.154,243.393 L525.179,243.144 L519.912,242.601 L515.494,242.148 L515.468,242.397" fill="#FFFFFE"/>
    </g>
  </g>
</svg>
