<?xml version="1.0" encoding="UTF-8"?>
<!DOCTYPE svg PUBLIC "-//W3C//DTD SVG 1.1//EN" "http://www.w3.org/Graphics/SVG/1.1/DTD/svg11.dtd">
<svg version="1.1" xmlns="http://www.w3.org/2000/svg" xmlns:xlink="http://www.w3.org/1999/xlink" x="0" y="0" width="14.37" height="26.869" viewBox="0, 0, 14.37, 26.869">
  <g id="Layer_1" transform="translate(-349.208, -394.47)">
    <path d="M349.343,419.668 C349.613,418.817 349.387,411.536 349.387,411.536 L349.208,407.659 C349.252,407.279 354.057,406.855 354.057,406.855 C354.327,405.907 353.609,396.075 353.609,396.075 C353.117,396.029 353.385,394.846 353.385,394.846 C358.727,395.224 363.261,394.514 363.261,394.514 C363.487,394.376 363.578,394.607 363.578,394.607 L363.261,395.791 L362.949,395.84 C362.364,397.068 361.647,407.47 361.647,407.47 C361.51,409.079 363.441,417.873 363.441,417.873 C363.441,418.108 362.768,418.015 362.768,418.015 C362.409,418.015 361.198,411.962 361.198,411.962 L358.143,413.57 L358.233,421.183 C357.874,421.561 357.425,421.133 357.425,421.133 L357.2,412.624 L354.731,412.387 L354.462,416.644 C354.237,416.928 353.745,416.644 353.745,416.644 L353.968,412.338 L351.5,412.057 L350.466,412.67 C350.599,413.238 350.061,419.762 350.061,419.762 L349.343,419.668 z M350.511,411.489 L351.543,411.582 L354.012,410.591 L354.101,409.173 L350.376,408.936 L350.511,411.489 z M354.012,411.063 L352.439,411.679 L353.968,411.773 L354.012,411.063 z M354.834,396.181 L354.359,396.135 L354.834,402.216 L355.136,402.216 L354.834,396.181 z M355.264,396.589 C355.047,396.498 355.696,401.989 355.696,401.989 L355.913,401.989 L356.817,399.811 L355.264,396.589 z M360.882,403.216 C360.029,403.309 354.867,403.025 354.867,403.025 C354.958,403.924 354.91,406.76 354.91,406.76 C355.763,406.665 360.747,407.186 360.747,407.186 C360.614,406.665 360.882,403.216 360.882,403.216 z M354.91,409.597 L357.112,409.881 L357.112,409.265 L354.91,409.173 L354.91,409.597 z M357.157,410.307 L354.867,410.166 L354.777,411.823 L357.2,412.199 L357.157,410.307 z M357.075,400.719 C356.86,400.81 356.47,401.942 356.47,401.942 L357.678,401.942 L357.075,400.719 z M357.937,396.541 L355.956,396.541 L356.989,398.856 L357.937,396.541 z M360.882,408.697 C360.882,408.697 358.546,409.314 358.052,409.314 L358.052,409.93 L361.062,410.26 C361.062,410.26 360.747,409.079 360.882,408.697 z M361.062,410.638 L358.052,410.449 L358.189,412.954 L361.151,411.394 L361.062,410.638 z M358.541,396.452 L357.291,399.811 L358.281,402.079 L359.489,399.676 L358.541,396.452 z M359.791,398.856 L360.911,396.359 L359.101,396.451 L359.791,398.856 z M360.049,402.079 L359.662,400.581 L359.017,402.079 L360.049,402.079 z M360.609,402.078 C360.741,401.438 361.514,396.359 361.514,396.359 L360.006,399.854 L360.609,402.078" fill="#000000"/>
  </g>
</svg>
