<?xml version="1.0" encoding="UTF-8"?>
<!DOCTYPE svg PUBLIC "-//W3C//DTD SVG 1.1//EN" "http://www.w3.org/Graphics/SVG/1.1/DTD/svg11.dtd">
<svg version="1.1" xmlns="http://www.w3.org/2000/svg" xmlns:xlink="http://www.w3.org/1999/xlink" x="0" y="0" width="212.023" height="165.515" viewBox="0, 0, 530.057, 413.787">
  <g id="Layer_1" transform="translate(0, -0.001)">
    <path d="M327.674,184.506 C327.803,200.189 330.832,209.844 322.681,221.647 C320.04,225.47 316.986,229.125 315.043,233.287 C312.055,239.681 314.086,242.635 320.936,242.023 C324.633,241.691 328.72,240.785 331.758,238.802 C358.098,221.617 378.254,201 387.572,169.578 C388.914,165.054 389.975,159.779 389.239,155.245 C386.667,139.384 395.205,127.467 406.981,118.089 C437.729,93.598 468.744,69.441 499.746,45.27 C503.269,42.524 507.448,40.637 511.2,38.166 C514.946,35.698 522.078,25.763 524.311,21.91 C527.787,15.912 523.69,22.818 528.572,11.912 C533.906,0 523.906,1.245 513.906,3.578 C512.771,3.843 500.802,9.841 499.778,10.375 C493.493,13.657 488.295,12.997 481.981,8.844 C466.227,-1.517 448.326,-1.704 430.85,2.819 C391.194,13.081 351.567,23.714 316.553,46.314 C314.462,47.663 312.242,48.914 309.923,49.789 C287.979,58.071 268.091,70.296 248.085,82.233 C240.826,86.564 234.106,91.845 227.391,97.021 C223.395,100.101 219.344,101.932 214.16,101.775 C199.705,101.338 185.242,101.154 170.781,100.999 C160.028,100.883 150,103.604 140.938,109.464 C135.812,112.78 135.863,114.315 140.987,117.349 C146.287,120.486 151.776,123.326 156.934,126.677 C164.945,131.881 168.634,138.915 166.256,148.822 C163.923,158.539 160.205,167.164 153.588,174.98 C147.73,181.9 143.297,190.093 138.678,197.983 C121.342,227.586 103.928,257.147 87.053,287.011 C75.375,307.677 67.646,329.716 67.231,353.855 C67.207,355.265 65.821,357.259 64.522,357.949 C49.689,365.828 34.801,373.605 19.816,381.191 C12.945,384.668 5.944,387.832 1.544,394.599 C-1.595,399.427 0.145,403.269 5.911,403.941 C8.203,404.209 10.569,403.773 12.891,403.871 C17.513,404.064 22.131,404.357 26.744,404.699 C31.539,405.052 36.32,405.576 41.116,405.906 C45.926,406.238 50.744,406.496 55.563,406.65 C63.52,406.906 71.483,407.314 79.437,407.187 C93.178,406.97 106.786,407.336 119.595,413.138 C122.906,414.638 124.67,413.482 125.487,410.246 C125.729,409.291 126.039,408.216 125.835,407.304 C121.692,388.841 115.528,371.912 94.977,365.437 C88.178,363.297 88.126,362.939 90.904,356.418 C99.994,335.076 114.603,317.539 130.076,300.703 C135.465,294.839 141.819,289.869 147.644,284.398 C163.112,269.869 182.037,261.992 201.868,255.634 C208.791,253.414 215.694,250.681 222.024,247.144 C246.866,233.257 271.575,219.124 296.129,204.732 C306.897,198.421 317.167,191.263 327.674,184.506 C329.148,183.559 324.795,186.223 327.674,184.506" fill="#000000"/>
  </g>
</svg>
