<?xml version="1.0" encoding="UTF-8"?>
<!DOCTYPE svg PUBLIC "-//W3C//DTD SVG 1.1//EN" "http://www.w3.org/Graphics/SVG/1.1/DTD/svg11.dtd">
<svg version="1.1" xmlns="http://www.w3.org/2000/svg" xmlns:xlink="http://www.w3.org/1999/xlink" x="0" y="0" width="401.281" height="332.315" viewBox="0, 0, 401.281, 332.315">
  <g id="Layer_1" transform="translate(-22.456, -9.985)">
    <path d="M105.113,267.553 C122.125,270.92 135.74,280.059 147.359,292.542 C148.323,293.579 150.084,294.769 149.344,296.255 C148.478,297.995 146.636,296.684 145.299,296.414 C134.424,294.22 123.646,295.435 113.11,298.037 C105.96,299.803 98.949,300.021 91.838,298.926 C88.823,298.462 86.695,299.181 84.837,301.474 C77.821,310.129 68.606,314.936 57.837,317.382 C48.048,319.605 40.681,325.971 33.717,332.776 C31.217,335.219 28.921,337.869 26.502,340.396 C25.733,341.199 25.137,342.64 23.804,342.227 C22.165,341.72 22.603,340.001 22.526,338.768 C21.947,329.473 25.048,321.016 28.9,312.841 C33.533,303.006 38.976,293.544 46.9,285.998 C58.267,275.175 63.105,261.996 63.127,246.568 C63.156,226.376 65.13,206.31 68.816,186.484 C75.067,152.867 86.717,121.658 111.064,96.476 C129.519,77.387 151.105,62.98 175.831,53.319 C180.321,51.565 184.954,50.175 189.518,48.605 C198.522,45.506 199.509,41.496 193.125,34.557 C186.92,27.812 179.008,23.511 171.293,18.892 C169.064,17.558 164.936,16.809 165.229,14.445 C165.595,11.494 169.786,11.876 172.383,11.369 C186.628,8.588 200.627,10.105 214.186,14.951 C223.282,18.202 232.041,22.331 240.248,27.506 C261.62,40.984 284.408,51.513 308.129,60.079 C330.617,68.2 349.595,81.891 367.392,97.406 C376.293,105.166 385.45,112.766 391.527,123.188 C396.788,132.211 398.222,141.645 393.626,151.328 C392.154,154.43 393.239,155.679 395.673,157.27 C404.35,162.945 412.227,169.64 419.26,177.243 C421.663,179.841 425.015,182.885 423.237,186.814 C421.349,190.986 416.952,190.33 413.074,190.137 C402.882,189.632 393.239,186.559 384.492,181.842 C364.65,171.138 343.734,167.365 321.381,168.398 C301.28,169.327 281.544,166.191 262.443,159.61 C255.306,157.151 255.42,157.193 251.313,163.485 C234.885,188.655 211.265,203.314 182.469,210.327 C181.381,210.591 179.995,211.208 179.275,209.95 C178.494,208.584 179.969,207.949 180.743,207.179 C192.526,195.464 197.209,180.484 200.197,164.75 C200.911,160.993 201.19,157.152 201.886,153.391 C202.438,150.414 201.658,149.094 198.408,149.092 C169.633,149.07 143.727,156.343 123.492,178.237 C107.557,195.478 97.978,216.265 90.193,238.04 C89.581,239.751 89.337,241.602 88.992,243.4 C86.086,258.594 90.034,264.514 105.113,267.553 z" fill="#000000"/>
  </g>
</svg>
