<?xml version="1.0" encoding="UTF-8"?>
<!DOCTYPE svg PUBLIC "-//W3C//DTD SVG 1.1//EN" "http://www.w3.org/Graphics/SVG/1.1/DTD/svg11.dtd">
<svg version="1.1" xmlns="http://www.w3.org/2000/svg" xmlns:xlink="http://www.w3.org/1999/xlink" x="0" y="0" width="16.873" height="30.951" viewBox="0, 0, 16.873, 30.951">
  <g id="Layer_1" transform="translate(-330.605, -140.451)">
    <path d="M335.985,144.281 L341.823,144.372 L342.643,140.541 L343.008,140.451 L342.46,144.281 L343.556,144.555 L343.1,152.398 C343.1,152.398 347.294,162.522 347.478,167.54 C347.478,167.54 347.02,167.995 346.292,167.995 L346.566,169.728 C346.566,169.728 345.561,170.549 344.923,170.093 C344.923,170.093 344.65,172.374 343.372,170.915 C343.372,170.915 341.458,170.731 341.548,171.187 C341.548,171.187 340.911,171.644 339.086,171.097 C339.086,171.097 337.081,170.731 336.898,171.187 C336.898,171.187 335.894,171.461 335.439,170.731 C335.439,170.731 332.52,169.819 331.424,168.725 L331.333,167.721 L330.605,167.54 C330.605,167.54 333.705,155.135 335.255,152.582 L334.8,144.464 L335.255,144.1 C335.255,144.1 335.255,141.18 334.891,140.815 L335.347,140.633 L335.985,144.281" fill="#000000"/>
  </g>
</svg>
