<?xml version="1.0" encoding="UTF-8"?>
<!DOCTYPE svg PUBLIC "-//W3C//DTD SVG 1.1//EN" "http://www.w3.org/Graphics/SVG/1.1/DTD/svg11.dtd">
<svg version="1.1" xmlns="http://www.w3.org/2000/svg" xmlns:xlink="http://www.w3.org/1999/xlink" x="0" y="0" width="49.953" height="41.205" viewBox="0, 0, 49.953, 41.205">
  <g id="Layer_1" transform="translate(-504.705, -26.588)">
    <path d="M508.734,63.652 L509.432,62.171 L509.024,62.529 C508.65,62.767 508.717,62.989 508.717,62.989 C508.887,63.21 508.734,63.652 508.734,63.652 z M510.079,57.354 L510.42,56.485 C510.42,56.485 510.369,56.109 510.114,56.417 L509.824,56.706 L509.364,56.944 L510.096,57.933 L510.182,57.846 L510.079,57.354 z M510.982,57.319 L510.982,56.28 C510.982,56.28 510.863,56.059 510.692,56.639 C510.692,56.639 509.994,57.609 510.437,57.813 C510.437,57.813 510.863,57.354 510.982,57.319 z M511.067,58.714 L511.185,58.58 C511.185,58.58 511.067,58 511.084,57.744 L510.674,58.136 L511.067,58.714 z M513.612,45.964 L513.629,44.729 C513.247,44.856 513.297,44.312 513.297,44.312 C513.05,44.227 513.255,43.707 513.255,43.707 C513.579,43.683 513.467,43.205 513.467,43.205 C513.579,42.737 513.374,42.643 513.374,42.643 C513.204,42.634 513.212,42.422 513.212,42.422 C513.119,42.286 512.915,42.601 512.915,42.601 C512.872,43.137 512.659,42.771 512.659,42.771 C512.54,42.583 512.54,42.072 512.54,42.072 L512.537,41.924 C512.556,41.547 512.83,42.064 512.83,42.064 C512.906,42.302 513.212,42.123 513.212,42.123 C513.229,41.827 513.595,41.911 513.595,41.911 L513.544,39.297 C513.34,38.983 513.399,38.992 513.399,38.992 C513.34,38.488 513.195,38.566 513.195,38.566 C513.247,39.008 512.956,38.864 512.956,38.864 C512.795,38.77 512.702,38.243 512.702,38.243 C512.429,37.56 512.787,37.451 512.787,37.451 C512.922,37.366 512.991,37.638 512.991,37.638 C513.126,37.638 513.271,37.766 513.271,37.766 C513.417,37.766 513.494,37.654 513.494,37.654 C513.152,37.484 513.51,37.196 513.51,37.196 L513.458,36.532 C513.22,36.284 513.204,35.867 513.204,35.867 C512.667,35.765 512.258,35.637 512.258,35.637 L512.309,40.388 L512.505,40.422 L512.429,41.919 L512.429,41.937 L512.36,41.937 L512.408,46.476 L512.42,47.691 L512.599,47.717 L512.608,49.036 L512.48,49.045 L512.523,49.752 L512.83,49.776 C512.948,46.883 513.382,47.12 513.382,47.12 L513.382,46.747 C513.22,46.788 513.178,46.542 513.178,46.542 L512.999,46.517 C512.965,46.763 512.718,46.935 512.718,46.935 C512.54,47.138 512.548,46.542 512.548,46.542 L512.545,46.475 C512.545,46.151 512.76,45.862 512.76,45.862 C512.922,45.648 512.948,46.065 512.948,46.065 C512.948,46.304 513.144,46.27 513.144,46.27 C513.162,45.929 513.612,45.964 513.612,45.964 z M536.162,60.571 L536.162,59.243 L535.515,60.027 L535.89,60.708 C535.89,60.708 536.009,60.418 536.162,60.571 z M536.282,57.233 L535.975,55.701 C535.975,55.701 535.499,54.851 536.043,54.851 C536.587,54.851 536.179,54.782 536.179,54.782 L536.111,53.76 L535.499,53.557 L535.192,52.774 L535.635,52.603 C535.635,52.603 535.464,52.296 535.055,52.296 L534.953,51.752 L535.259,51.752 L535.192,51.377 C535.192,51.377 534.749,51.684 534.749,51.207 L533.285,49.028 C533.285,49.028 530.323,48.482 530.119,48.074 C530.119,48.074 529.641,47.12 530.017,46.645 C530.017,46.645 529.063,46.372 529.948,46.031 C529.948,46.031 530.663,45.862 530.187,45.351 C530.187,45.351 529.709,44.84 530.083,44.396 C530.083,44.396 526.986,44.432 526.304,43.921 C526.304,43.921 526.033,43.783 526.203,44.227 C526.203,44.227 526.203,44.907 525.385,44.976 C525.385,44.976 524.806,44.566 524.737,45.385 C524.737,45.385 524.534,45.895 524.057,45.826 C524.057,45.826 524.125,47.258 523.955,47.461 C523.955,47.461 525.079,47.12 525.249,47.563 C525.249,47.563 532.092,46.236 533.455,55.566 C533.455,55.566 533.187,59.314 531.725,61.162 L531.583,61.167 L530.952,61.881 L531.6,62.137 L531.601,62.133 L532.263,61.252 L532.242,61.19 C533.4,59.522 535.771,56.315 536.282,57.233 z M538.052,57.881 L538.921,56.196 L537.814,57.335 L537.626,57.779 L538.052,57.881 z M538.411,58.852 L539.175,58.75 L538.189,58.426 C538.189,58.426 538.171,58.852 538.411,58.852 z M538.495,62.954 L539.397,61.593 C539.397,61.593 538.648,60.946 538.086,59.702 L537.592,60.674 C537.592,60.674 538.29,62.018 537.643,62.137 C537.643,62.137 536.962,62.325 536.877,61.917 C536.877,61.917 536.077,62.018 536.009,61.814 C536.009,61.814 535.992,61.609 536.145,61.218 L535.566,61.218 L535.533,60.946 L535.14,60.349 L532.807,63.125 L538.495,62.954 z M539.549,58.392 L539.584,55.6 L538.358,58.051 L539.549,58.392 z M539.449,51.991 C539.823,51.956 539.619,51.139 539.619,51.139 L538.631,51.139 L538.597,50.253 C538.052,50.39 537.167,50.118 537.167,50.118 L536.282,51.241 C535.975,51.445 535.907,51.786 535.907,51.786 L536.248,51.786 L536.35,52.194 C537.303,52.194 537.507,52.977 537.507,52.977 C537.439,53.455 536.929,53.795 536.929,53.795 L537.065,55.838 C538.529,54.017 539.482,54.135 539.482,54.135 L539.38,53.215 C539.074,52.569 539.449,51.991 539.449,51.991 z M540.777,59.312 L540.777,59.039 L540.453,59.073 C540.249,59.463 539.584,59.106 539.584,59.106 L538.7,59.191 L539.874,60.844 L540.777,59.312 z M540.81,58.493 L540.725,54.766 L540.402,54.766 L540.453,58.408 L540.81,58.493 z M540.827,62.222 L540.793,60.297 L540.095,61.404 L540.827,62.222 z M541.712,62.001 L542.07,61.354 C542.07,61.354 542.07,61.047 541.9,60.946 C541.9,60.946 541.797,60.656 541.678,60.281 L541.712,62.001 z M542.07,56.773 L541.951,55.071 L541.542,54.935 L541.644,57.456 L542.07,56.773 z M542.291,58.375 L542.206,57.677 L541.763,58.477 L542.291,58.375 z M544.607,58.154 L542.99,56.162 L542.359,57.335 L542.53,58.357 L544.607,58.154 z M546.053,52.211 C546.053,52.211 546.123,51.956 545.833,51.991 C545.833,51.991 544.896,52.501 544.419,53.488 L543.551,55.123 C543.551,55.123 544.214,55.566 544.214,55.888 C544.214,55.888 545.56,56.144 545.849,56.331 C545.849,56.331 546.138,55.225 545.816,54.884 L545.594,54.647 L545.594,54.135 L545.934,53.523 C545.934,53.523 545.749,52.211 546.053,52.211 z M546.275,51.241 L546.123,46.899 C545.611,45.623 546.172,44.753 546.172,44.753 L546.123,42.354 C545.764,42.302 545.712,41.435 545.712,41.435 C545.356,40.669 541.832,40.669 541.832,40.669 L541.883,41.792 L542.7,41.843 L542.801,42.763 L542.394,42.967 C541.832,43.171 541.678,44.294 541.678,44.294 C541.934,45.214 541.577,46.696 541.577,46.696 C541.116,46.747 541.626,47.461 541.626,47.461 C543.313,47.512 544.181,47.92 544.181,47.92 L544.283,49.964 C543.67,50.22 541.373,50.22 541.373,50.22 L541.474,52.569 L541.678,52.62 C541.729,53.08 541.577,53.539 541.577,53.539 L541.577,54.05 L542.137,54.101 L543.108,54.663 C545.202,51.241 546.275,51.241 546.275,51.241 z M547.451,56.144 C547.451,56.144 549.494,55.479 549.749,55.548 C549.749,55.548 548.829,54.322 548.71,53.795 C548.71,53.795 548.166,52.738 547.756,52.553 C547.756,52.553 547.024,51.429 547.109,52.211 C547.109,52.211 547.466,52.467 547.466,54.034 L547.466,55.531 L547.177,56.144 C547.177,56.144 547.024,56.45 547.451,56.144 z M554.311,62.222 C554.311,62.222 554.992,63.125 554.447,63.192 C554.447,63.192 553.936,63.601 553.222,63.005 C553.222,63.005 553.154,62.104 552.916,61.763 C552.916,61.763 552.864,61.558 553.033,61.558 L552.779,61.116 L551.025,58.069 C551.025,58.069 550.072,56.588 549.97,56.008 L547.722,56.671 C547.722,56.671 547.688,56.893 547.382,56.825 L547.518,57.013 L547.722,57.013 C547.722,57.013 547.858,56.758 547.943,57.677 C547.943,57.677 548.08,58.58 548.08,58.937 C548.08,58.937 549.272,59.958 548.999,60.315 C548.999,60.315 549.068,60.554 548.148,60.503 L548.182,61.133 C548.182,61.133 549.408,62.461 549.612,63.039 C549.612,63.039 549.799,63.516 550.123,63.839 C550.123,63.839 550.667,64.606 550.703,64.81 C550.703,64.81 551.23,65.338 551.672,66.581 C551.672,66.581 552.286,67.227 551.4,67.263 C551.4,67.263 550.429,67.363 550.259,66.904 C550.259,66.904 550.157,65.644 550.02,65.253 L550.14,65.066 C550.14,65.066 549.629,64.06 549.186,64.026 L547.807,63.891 L547.925,65.133 L546.888,65.185 L546.905,63.788 L543.057,63.465 L543.057,63.737 C543.057,63.737 542.053,63.976 542.053,63.721 L542.036,63.465 C542.036,63.465 541.662,63.228 541.662,63.942 C541.662,63.942 540.708,64.384 540.742,63.465 L532.127,63.703 L531.378,64.725 C531.378,64.725 531.514,64.845 531.412,65.236 C531.412,65.236 531.31,65.508 531.275,66.478 C531.275,66.478 530.442,67.312 529.641,66.614 C529.641,66.614 530.543,64.044 530.884,64.47 C530.884,64.47 531.208,63.772 531.651,63.295 C531.651,63.295 531.293,63.414 531.02,63.125 C531.02,63.125 530.783,62.869 530.272,63.329 C530.272,63.329 528.739,64.401 526.645,64.06 C526.645,64.06 526.883,64.316 526.236,64.249 L526.253,65.866 C526.253,65.866 526.441,65.985 526.407,66.786 C526.407,66.786 526.832,67.773 526.015,67.789 C526.015,67.789 525.487,67.892 525.556,67.092 C525.556,67.092 525.607,66.786 525.573,66.665 C525.573,66.665 525.47,66.359 525.743,66.342 L525.743,64.232 C525.743,64.232 525.419,64.283 525.487,63.942 C525.487,63.942 524.534,63.891 524.516,63.585 L521.946,63.993 C521.946,63.993 522.32,64.18 522.049,64.384 C522.049,64.384 521.912,64.453 521.963,64.725 C521.963,64.725 521.912,64.963 521.231,64.845 L520.753,64.895 L520.789,65.066 C520.789,65.066 519.834,65.559 519.563,65.322 C519.563,65.322 519.46,65.151 519.255,65.168 C519.255,65.168 519.034,65.168 518.984,64.895 C518.984,64.895 517.127,65.253 515.868,64.538 L515.409,64.828 C515.409,64.828 514.864,64.861 514.779,64.658 C514.779,64.658 514.864,64.435 514.675,64.316 C514.675,64.316 514.591,64.095 514.659,63.908 C514.659,63.908 512.922,62.648 512.328,61.371 C512.328,61.371 512.003,61.457 511.884,61.303 C511.884,61.303 511.748,61.083 511.798,61.779 C511.798,61.779 511.475,62.104 511.288,61.047 C511.288,61.047 511.084,59.822 511.612,60.52 C511.612,60.52 511.696,60.571 511.696,60.349 C511.696,60.349 511.543,59.822 511.424,59.345 L510.612,60.997 L510.726,61.125 C510.726,61.125 510.395,61.558 510.471,61.827 L510.242,62.452 L509.96,62.338 L509.066,64.176 C509.066,64.176 509.002,64.814 508.722,65.3 C508.722,65.3 508.466,65.874 508.122,65.632 C508.122,65.632 507.637,65.492 508.096,64.955 C508.096,64.955 507.969,64.892 507.522,64.892 C507.522,64.892 507.369,64.368 507.777,63.627 C507.777,63.627 508.019,63.104 508.096,62.887 C508.096,62.887 508.172,62.733 508.288,62.708 C508.288,62.708 508.39,62.529 508.199,62.095 C508.199,62.095 509.13,59.043 509.488,58.506 L509.925,58.17 L509.177,57.371 C509.177,57.371 507.712,59.124 507.237,59.396 C507.237,59.396 507.304,59.566 507.237,59.941 C507.237,59.941 507.083,60.656 507.117,60.877 L506.81,61.149 C506.81,61.149 506.231,61.236 506.113,61.167 C506.113,61.167 506.113,61.644 505.806,61.644 C505.806,61.644 504.863,61.867 504.705,61.278 C504.705,61.278 509.678,54.27 511.713,52.235 L511.713,48.843 C511.713,48.843 511.049,47.92 511.849,47.682 C511.849,47.682 511.731,42.166 511.765,41.929 C511.765,41.929 511.594,41.911 511.628,41.196 C511.628,41.196 511.1,41.008 511.442,40.446 L511.817,40.379 L511.748,35.595 C511.748,35.595 506.521,34.574 508.939,33.841 C508.939,33.841 510.284,33.706 510.829,33.706 C510.829,33.706 510.641,32.803 510.914,32.803 C510.914,32.803 511.169,32.956 511.185,33.245 C511.185,33.245 511.357,33.313 511.407,33.057 C511.407,33.057 511.475,32.87 511.646,32.82 C511.646,32.82 511.305,32.53 511.696,32.31 L511.731,31.593 C511.731,31.593 511.067,30.947 511.663,30.504 C511.663,30.504 512.105,30.249 512.616,30.692 L512.991,30.862 L513.041,30.76 C511.468,29.906 509.796,29.039 508.389,27.929 C508.021,27.641 507.643,27.308 507.348,26.946 C506.92,26.422 507.692,26.607 507.969,26.68 C508.71,26.876 509.424,27.196 510.121,27.515 C511.185,28.002 512.238,28.523 513.28,29.058 L513.826,29.142 L514.216,28.581 L514.438,28.734 C514.438,28.734 514.761,28.393 514.931,28.631 C514.931,28.631 515.186,28.801 514.88,29.058 L515.119,29.16 L514.761,29.722 L515.323,30.197 C515.895,30.552 516.462,30.914 517.028,31.28 C517.931,31.864 518.903,32.453 519.708,33.17 C519.812,33.262 520.268,33.777 520.127,33.934 C520.022,34.052 519.605,33.868 519.491,33.833 C518.504,33.528 517.559,33.122 516.634,32.669 C515.563,32.146 514.505,31.588 513.458,31.016 L513.204,31.397 C513.204,31.397 512.334,31.168 512.334,31.959 L512.309,32.803 C512.309,32.803 512.948,33.237 512.54,33.798 C512.54,33.798 514.199,33.926 514.608,33.952 L514.685,33.364 L515.017,33.39 C515.017,33.39 515.042,33.108 515.297,33.186 C515.297,33.186 515.502,33.057 515.604,33.186 L515.476,33.492 L515.808,33.619 L515.629,34.131 C515.629,34.131 525.743,36.199 519.537,36.404 C519.537,36.404 515.885,36.327 514.608,36.097 C514.608,36.097 514.123,36.327 514.123,36.71 L514.097,37.629 C514.097,37.629 514.889,38.243 513.995,38.651 L514.123,38.804 C514.123,38.804 514.174,39.289 514.047,39.57 L514.072,41.894 L514.25,41.894 L514.225,42.201 C514.225,42.201 514.889,41.996 516.371,42.329 C516.371,42.329 516.167,41.256 516.651,41.256 C516.651,41.256 516.958,40.923 517.084,41.256 L517.495,39.059 C517.495,39.059 517.034,39.11 517.06,38.778 C517.06,38.778 516.753,38.575 517.034,37.935 C517.034,37.935 517.239,37.808 517.239,37.553 C517.239,37.553 517.29,37.196 517.673,37.221 C517.673,37.221 517.468,36.786 518.005,36.786 C518.005,36.786 522.117,36.761 525.692,37.91 C525.692,37.91 526.151,38.038 526.151,37.654 C526.151,37.654 525.412,37.323 527.479,37.067 C527.479,37.067 533.25,36.659 533.992,37.961 C533.992,37.961 534.937,38.191 534.273,38.575 C534.273,38.575 534.094,38.651 534.4,38.932 L534.452,39.034 L534.414,39.532 C534.414,39.532 534.196,39.532 534.196,39.813 C534.196,39.813 534.12,40.132 533.724,39.953 L533.634,41.779 C533.634,41.779 534.081,41.588 534.132,42.085 C534.132,42.085 534.348,42.072 534.324,42.545 C534.324,42.545 534.056,42.929 534.362,42.929 L535.167,42.916 C535.167,42.916 535.358,42.71 535.179,42.545 C535.179,42.545 534.949,41.958 535.23,41.856 C535.23,41.856 535.14,41.41 535.702,41.537 L535.651,40.119 C535.651,40.119 535.14,40.247 535.116,39.749 C535.116,39.749 534.873,39.647 534.949,39.123 C534.949,39.123 535.344,38.983 534.988,38.728 C534.988,38.728 534.859,38.166 535.089,38.013 C535.089,38.013 535.344,37.986 535.37,37.783 C535.37,37.783 536.468,36.838 540.095,36.94 L540.145,36.173 L540.325,36.173 L540.325,33.952 C540.325,33.952 540.121,33.798 540.108,33.543 C540.108,33.543 540.07,32.867 539.839,32.662 C539.839,32.662 539.596,32.011 539.776,31.653 C539.776,31.653 539.903,31.321 539.507,31.321 C539.507,31.321 539.24,31.105 539.202,30.684 C539.202,30.684 532.433,31.321 532.025,30.057 C532.025,30.057 531.859,29.47 535.243,28.743 C535.243,28.743 537.502,28.308 538.422,28.219 L538.473,27.529 L538.881,27.389 C538.881,27.389 538.856,27.068 539.227,26.954 L539.264,27.363 L539.673,27.4 L539.763,28.04 C539.763,28.04 545.152,27.619 546.53,28.743 C546.53,28.743 546.863,29.202 545.484,29.559 C545.484,29.559 542.036,30.632 540.224,30.581 C540.224,30.581 540.044,30.938 540.453,30.938 C540.453,30.938 541.551,31.756 541.041,32.649 L543.416,37.196 C543.416,37.196 543.287,37.681 542.929,37.348 L540.937,33.237 L540.937,36.097 L541.167,36.173 L541.167,37.042 C541.167,37.042 541.958,37.196 541.958,38.447 C541.958,38.447 541.373,39.238 541.934,39.596 C541.934,39.596 543.466,39.137 545.024,39.137 C545.024,39.137 545.688,38.728 546.045,38.728 L546.071,38.447 C546.071,38.447 545.663,38.013 546.172,38.013 L546.19,33.108 C546.19,33.108 546.242,32.633 546.309,32.82 L546.48,36.583 L546.53,37.944 C546.53,37.944 546.802,38.319 546.734,38.659 C546.734,38.659 547.314,38.778 547.841,39.085 C547.841,39.085 550.888,39.05 551.809,39.374 C551.809,39.374 550.429,39.869 546.462,39.8 L546.462,40.038 C546.462,40.038 550.856,39.851 551.791,40.123 C551.791,40.123 549.238,40.939 547.858,40.805 L547.211,41.111 C547.211,41.111 547.382,41.64 547.109,41.706 C547.109,41.706 546.991,41.827 547.195,41.894 C547.195,41.894 547.281,41.979 547.262,42.302 L547.258,42.377 C547.19,42.397 546.968,42.454 546.94,42.354 C546.94,42.354 546.82,41.588 546.786,42.337 L546.837,44.942 L546.973,44.958 L546.956,45.164 L547.092,45.231 L547.092,45.469 L547.451,45.487 L547.466,46.099 L547.092,46.065 L547.024,46.935 L546.888,47.018 L546.956,51.309 C546.956,51.309 547.416,50.798 548.879,52.723 C548.879,52.723 550.123,54.884 550.243,55.208 C550.243,55.208 550.481,55.94 550.888,56.331 C550.888,56.331 551.144,56.758 551.23,56.944 L552.643,59.635 C552.643,59.635 552.847,60.213 553.085,60.451 C553.085,60.451 553.58,60.979 553.205,61.099 C553.205,61.099 553.358,61.439 553.715,61.473 C553.715,61.473 553.971,61.95 554.311,62.222 z M509.33,61.491 C509.227,61.574 509.109,61.337 509.109,61.337 C509.006,61.205 508.997,61.076 509.033,60.962 C509.116,60.694 509.45,60.503 509.45,60.503 C509.535,60.146 510.045,59.992 510.045,59.992 L510.437,58.903 L510.165,58.511 L509.568,58.97 C509.45,59.108 509.147,60.077 508.893,60.94 C508.677,61.679 508.496,62.341 508.496,62.341 C508.881,62.291 509.317,61.515 509.33,61.491 z M542.564,58.75 C542.683,59.158 542.75,60.893 542.75,60.893 C542.46,61.133 542.597,61.745 542.597,61.745 C542.87,61.796 542.971,63.022 542.971,63.022 L545.135,63.125 L545.117,62.512 C545.049,62.068 544.743,62.171 544.743,62.171 L544.743,61.695 C545.032,61.711 545.237,61.593 545.237,61.593 L545.22,58.903 L544.896,58.511 L542.564,58.75 z M542.597,60.554 L542.342,58.816 L541.729,58.885 L541.951,60.451 C542.24,60.571 542.206,60.741 542.206,60.741 C542.223,61.083 542.479,60.826 542.479,60.826 C542.46,60.434 542.597,60.554 542.597,60.554" fill="#000000"/>
  </g>
</svg>
