<?xml version="1.0" encoding="UTF-8"?>
<!DOCTYPE svg PUBLIC "-//W3C//DTD SVG 1.1//EN" "http://www.w3.org/Graphics/SVG/1.1/DTD/svg11.dtd">
<svg version="1.1" xmlns="http://www.w3.org/2000/svg" xmlns:xlink="http://www.w3.org/1999/xlink" x="0" y="0" width="6.513" height="18.709" viewBox="0, 0, 6.513, 18.709">
  <g id="Layer_1" transform="translate(-373.39, -210.781)">
    <path d="M373.796,211.395 C373.796,211.395 376.221,210.013 379.533,211.395 L377.525,222.659 C377.525,222.659 377.916,222.998 377.525,223.39 C377.525,223.39 377.121,223.585 377.525,223.988 C377.525,223.988 377.759,224.511 377.369,225.162 C377.369,225.162 377.108,226.101 377.108,226.935 C377.108,226.935 379.324,227.04 379.767,227.796 C379.767,227.796 380.863,229.49 376.821,229.49 C376.821,229.49 372.727,229.542 373.483,227.796 C373.483,227.796 374.579,226.935 376.117,226.935 C376.117,226.935 376.274,225.893 375.987,225.162 C375.987,225.162 375.726,224.328 375.857,223.988 C375.857,223.988 376.155,223.688 375.857,223.39 C375.857,223.39 375.4,223.011 375.751,222.659 L373.796,211.395" fill="#000000"/>
  </g>
</svg>
