<?xml version="1.0" encoding="UTF-8"?>
<!DOCTYPE svg PUBLIC "-//W3C//DTD SVG 1.1//EN" "http://www.w3.org/Graphics/SVG/1.1/DTD/svg11.dtd">
<svg version="1.1" xmlns="http://www.w3.org/2000/svg" xmlns:xlink="http://www.w3.org/1999/xlink" x="0" y="0" width="14.772" height="14.773" viewBox="0, 0, 14.772, 14.773">
  <g id="Layer_1" transform="translate(-175.649, -317.48)">
    <g>
      <path d="M180.449,331.654 C178.831,331.037 177.49,329.858 176.666,328.355 L178.473,329.954 C178.473,329.954 179.237,331.071 180.449,331.654" fill="#FFFFFE"/>
      <path d="M176.215,325.738 C176.215,325.738 176.202,327.349 176.487,328.008 C176.03,327.058 175.774,325.992 175.774,324.866 C175.774,324.209 175.861,323.572 176.025,322.967 L176.215,325.738" fill="#FFFFFE"/>
      <path d="M182.545,318.227 L181.34,319.922 L178.784,321.224 L177.458,320.925 L178.164,319.481 C179.026,318.7 180.078,318.124 181.24,317.829 L182.545,318.227" fill="#FFFFFE"/>
      <path d="M178.784,321.224 L178.939,323.768 L177.625,326 L176.215,325.738 L176.025,322.967 C176.245,322.4 176.604,321.89 176.907,321.52 C177.21,321.152 177.458,320.925 177.458,320.925 L178.784,321.224" fill="#FFFFFE"/>
      <path d="M181.542,324.055 L182.832,326.597 L181.519,328.843 L179.01,328.593 L177.625,326 L178.939,323.768 L181.542,324.055" fill="#FFFFFE"/>
      <path d="M182.88,326.515 L182.832,326.597 L181.542,324.055 L183.047,321.63 L185.771,321.845 L187.167,324.401 L185.65,326.741 L182.88,326.515" fill="#FFFFFE"/>
      <path d="M185.386,318.392 L187.049,320.256 L185.771,321.845 L183.047,321.63 L181.34,319.922 L182.545,318.227 L185.386,318.392" fill="#FFFFFE"/>
      <path d="M185.677,318.101 C187.339,318.75 188.704,319.994 189.508,321.571 L189.043,321.833 L187.049,320.256 L185.386,318.392 L185.677,318.101" fill="#FFFFFE"/>
      <path d="M190.296,324.866 C190.296,325.478 190.221,326.072 190.078,326.639 L189.616,326.741 L189.114,324.401 L189.043,321.833 L189.508,321.571 C190.012,322.56 190.296,323.681 190.296,324.866" fill="#FFFFFE"/>
      <path d="M189.114,324.401 L189.616,326.741 L188.075,329.153 L186.116,329.153 L185.65,326.741 L187.167,324.401 L189.114,324.401" fill="#FFFFFE"/>
      <path d="M183.5,330.455 L183.047,331.817 L180.449,331.654 C179.237,331.071 178.473,329.954 178.473,329.954 L179.01,328.593 L181.519,328.843 L183.5,330.455" fill="#FFFFFE"/>
      <path d="M188.075,329.153 L187.684,330.444 C186.761,331.214 185.645,331.76 184.419,331.996 L183.047,331.817 L183.5,330.455 L186.116,329.153 L188.075,329.153" fill="#FFFFFE"/>
      <path d="M189.616,326.741 L190.078,326.639 C189.888,327.394 189.58,328.104 189.175,328.746 C188.769,329.388 188.264,329.96 187.684,330.444 L188.075,329.153 L189.616,326.741" fill="#000000"/>
      <path d="M189.043,321.833 L189.114,324.401 L187.167,324.401 L185.771,321.845 L187.049,320.256 L189.043,321.833" fill="#000000"/>
      <path d="M185.65,326.741 L186.116,329.153 L183.5,330.455 L181.519,328.843 L182.832,326.599 L182.832,326.597 L182.88,326.515 L185.65,326.741" fill="#000000"/>
      <path d="M185.677,318.101 L185.386,318.392 L182.545,318.227 L181.24,317.829 C181.814,317.683 182.416,317.605 183.035,317.605 C183.967,317.605 184.858,317.78 185.677,318.101" fill="#000000"/>
      <path d="M183.047,331.817 L184.419,331.996 C183.971,332.083 183.509,332.128 183.035,332.128 C182.125,332.128 181.253,331.96 180.449,331.654 L183.047,331.817" fill="#000000"/>
      <path d="M181.34,319.922 L183.047,321.63 L181.542,324.055 L178.939,323.768 L178.784,321.224 L181.34,319.922" fill="#000000"/>
      <path d="M177.625,326 L179.01,328.593 L178.473,329.954 L176.666,328.355 L176.53,328.096 L176.487,328.008 C176.202,327.349 176.215,325.738 176.215,325.738 L177.625,326" fill="#000000"/>
      <path d="M176.025,322.967 C176.392,321.603 177.147,320.401 178.164,319.481 L177.458,320.925 C177.458,320.925 177.21,321.152 176.907,321.52 C176.604,321.89 176.245,322.4 176.025,322.967" fill="#000000"/>
      <path d="M189.396,321.628 C189.892,322.599 190.171,323.701 190.171,324.866 C190.171,325.467 190.097,326.052 189.957,326.608 C189.77,327.351 189.467,328.049 189.069,328.679 C188.67,329.31 188.174,329.872 187.604,330.348 C186.697,331.105 185.6,331.641 184.395,331.873 C183.955,331.959 183.501,332.003 183.035,332.003 C182.14,332.003 181.284,331.838 180.494,331.537 C178.903,330.931 177.585,329.772 176.776,328.295 L176.642,328.04 L176.6,327.953 C176.15,327.02 175.899,325.973 175.899,324.866 C175.899,324.22 175.984,323.594 176.146,322.999 L175.904,322.934 C175.737,323.55 175.649,324.198 175.649,324.866 C175.649,326.011 175.909,327.095 176.375,328.062 L176.417,328.15 L176.418,328.152 L176.555,328.413 C177.394,329.944 178.758,331.143 180.405,331.771 C181.222,332.082 182.11,332.253 183.035,332.253 C183.517,332.253 183.987,332.207 184.443,332.119 C185.69,331.878 186.826,331.323 187.764,330.54 C188.354,330.048 188.867,329.466 189.28,328.813 C189.693,328.16 190.006,327.438 190.199,326.669 C190.345,326.093 190.421,325.488 190.421,324.866 C190.421,323.661 190.132,322.52 189.619,321.514 L189.396,321.628" fill="#000000"/>
      <path d="M176.146,322.999 C176.506,321.66 177.248,320.478 178.248,319.574 C179.096,318.806 180.129,318.24 181.27,317.95 C181.835,317.806 182.426,317.73 183.035,317.73 C183.951,317.73 184.827,317.902 185.631,318.217 C187.265,318.855 188.606,320.078 189.396,321.628 L189.619,321.514 C188.801,319.91 187.414,318.645 185.722,317.984 C184.889,317.658 183.982,317.48 183.035,317.48 C182.406,317.48 181.793,317.559 181.209,317.708 C180.027,318.008 178.957,318.594 178.08,319.389 C177.046,320.324 176.278,321.547 175.904,322.934 L176.146,322.999" fill="#000000"/>
      <path d="M185.588,318.012 L185.337,318.263 L182.567,318.103 L181.276,317.709 L181.203,317.949 L182.523,318.35 L185.435,318.52 L185.765,318.189 L185.588,318.012" fill="#000000"/>
      <path d="M182.444,318.154 L181.256,319.824 L178.767,321.092 L177.64,320.838 L178.276,319.536 L178.052,319.427 L177.276,321.012 L178.8,321.355 L181.424,320.019 L182.647,318.299 L182.444,318.154" fill="#000000"/>
      <path d="M178.659,321.231 L178.812,323.737 L177.561,325.861 L176.333,325.633 L176.15,322.958 L176.025,322.967 L176.141,323.012 C176.354,322.465 176.706,321.962 177.004,321.6 C177.153,321.419 177.288,321.272 177.386,321.172 C177.484,321.071 177.543,321.017 177.543,321.017 L177.373,320.833 C177.37,320.836 177.119,321.067 176.811,321.441 C176.502,321.817 176.136,322.336 175.908,322.921 L175.898,322.947 L176.097,325.843 L177.688,326.139 L179.066,323.798 L178.908,321.216 L178.659,321.231" fill="#000000"/>
      <path d="M176.642,328.041 L176.6,327.953 L176.487,328.008 L176.602,327.958 C176.357,327.404 176.337,325.986 176.34,325.769 L176.34,325.74 L176.09,325.737 L176.09,325.769 C176.092,326.004 176.094,327.401 176.373,328.057 L176.374,328.06 L176.417,328.15 L176.642,328.041" fill="#000000"/>
      <path d="M177.514,326.059 L178.873,328.601 L178.422,329.742 L176.749,328.262 L176.583,328.449 L178.523,330.166 L179.148,328.585 L177.735,325.941 L177.514,326.059" fill="#000000"/>
      <path d="M178.998,328.717 L181.586,328.975 L182.957,326.632 L182.957,326.567 L181.623,323.938 L178.953,323.643 L178.925,323.892 L181.462,324.171 L182.721,326.653 L182.832,326.597 L182.707,326.597 L182.707,326.599 L182.832,326.599 L182.724,326.535 L181.452,328.71 L179.023,328.468 L178.998,328.717" fill="#000000"/>
      <path d="M183.556,330.567 L186.146,329.278 L187.906,329.278 L187.564,330.408 L187.804,330.481 L188.243,329.028 L186.087,329.028 L183.445,330.343 L183.556,330.567" fill="#000000"/>
      <path d="M183.031,331.941 L184.403,332.12 L184.435,331.872 L183.063,331.693" fill="#000000"/>
      <path d="M188.18,329.221 L189.693,326.852 L190.105,326.761 L190.051,326.517 L189.589,326.619 L189.538,326.63 L187.969,329.086 L188.18,329.221" fill="#000000"/>
      <path d="M189.738,326.715 L189.215,324.276 L187.1,324.276 L185.518,326.715 L185.993,329.177 L186.239,329.13 L185.783,326.767 L187.235,324.526 L189.013,324.526 L189.493,326.767 L189.738,326.715" fill="#000000"/>
      <path d="M185.661,326.617 L182.812,326.384 L182.724,326.534 L181.357,328.872 L183.355,330.497 L182.959,331.687 L180.457,331.53 L180.449,331.654 L180.503,331.542 C179.916,331.259 179.432,330.844 179.096,330.498 C178.928,330.326 178.797,330.171 178.709,330.06 C178.62,329.949 178.576,329.884 178.576,329.883 L178.37,330.025 C178.376,330.033 179.147,331.164 180.395,331.767 L180.417,331.777 L183.135,331.948 L183.646,330.413 L181.681,328.813 L182.94,326.66 L182.948,326.646 L185.64,326.866 L185.661,326.617" fill="#000000"/>
      <path d="M187.277,324.341 L185.848,321.725 L182.981,321.499 L181.436,323.989 L181.649,324.121 L183.113,321.76 L185.693,321.964 L187.058,324.461 L187.277,324.341" fill="#000000"/>
      <path d="M189.239,324.398 L189.17,321.905 L189.569,321.68 L189.446,321.462 L188.982,321.724 L188.916,321.761 L188.989,324.405 L189.239,324.398" fill="#000000"/>
      <path d="M189.12,321.735 L187.029,320.081 L185.673,321.766 L185.868,321.923 L187.068,320.431 L188.965,321.931 L189.121,321.735" fill="#000000"/>
      <path d="M187.142,320.173 L185.48,318.308 L185.293,318.475 L186.956,320.339" fill="#000000"/>
      <path d="M183.135,321.541 L181.428,319.833 L181.251,320.01 L182.958,321.718" fill="#000000"/>
    </g>
  </g>
</svg>
