<?xml version="1.0" encoding="UTF-8"?>
<!DOCTYPE svg PUBLIC "-//W3C//DTD SVG 1.1//EN" "http://www.w3.org/Graphics/SVG/1.1/DTD/svg11.dtd">
<svg version="1.1" xmlns="http://www.w3.org/2000/svg" xmlns:xlink="http://www.w3.org/1999/xlink" x="0" y="0" width="16.43" height="18.834" viewBox="0, 0, 16.43, 18.834">
  <g id="Layer_1" transform="translate(-512.391, -211.566)">
    <path d="M517.577,220.437 L523.417,220.437 C523.417,220.437 523.303,212.191 520.21,212.534 C520.21,212.534 517.233,213.681 517.577,220.437 z M528.686,227.539 C528.686,227.539 529.372,229.37 527.655,230.4 L513.456,230.286 C513.456,230.286 511.623,229.256 512.767,226.622 L513.682,220.437 L515.629,219.865 C515.629,219.865 517.005,212.079 520.21,211.618 C520.21,211.618 522.729,210.36 525.25,220.208 L527.083,220.322 C527.083,220.322 528.342,225.362 528.686,227.539" fill="#000000"/>
  </g>
</svg>
