<?xml version="1.0" encoding="UTF-8"?>
<!DOCTYPE svg PUBLIC "-//W3C//DTD SVG 1.1//EN" "http://www.w3.org/Graphics/SVG/1.1/DTD/svg11.dtd">
<svg version="1.1" xmlns="http://www.w3.org/2000/svg" xmlns:xlink="http://www.w3.org/1999/xlink" x="0" y="0" width="17.259" height="35.947" viewBox="0, 0, 17.259, 35.947">
  <g id="Layer_1" transform="translate(-37.82, -252.435)">
    <g>
      <path d="M55.079,260.473 L54.333,284.12 C54.333,284.12 55.138,284.629 53.786,285.769 L51.227,288.382 L44.565,284.83 C44.565,284.83 44.228,284.129 44.746,284.123 L45.156,282.803 C42.588,278.211 40.543,273.095 39.314,267.985 C39.114,267.152 38.525,264.675 38.149,261.941 C37.559,257.642 37.493,252.702 40.288,252.493 C40.288,252.493 41.078,251.64 46.251,256.474 C46.251,256.474 47.581,257.917 48.882,256.494 C48.882,256.494 51.024,254.545 52.591,256.174 C52.591,256.174 53.211,257.107 53.218,257.719 C53.218,257.719 53.458,258.233 54.262,258.695 C54.262,258.695 55.017,258.969 54.608,260.336 L55.079,260.473 z M50.839,259.142 C50.917,258.982 51.057,258.844 51.293,258.763 L50.912,258.202 C50.912,258.202 50.831,258.295 50.669,258.431 C50.545,258.537 50.373,258.671 50.155,258.808 C49.948,258.938 49.701,259.073 49.411,259.192 C49.271,259.251 49.12,259.308 48.96,259.356 C48.803,259.407 48.636,259.451 48.459,259.485 C48.288,259.522 48.106,259.551 47.917,259.569 C47.747,259.587 47.57,259.597 47.385,259.599 C47.224,259.6 47.057,259.594 46.886,259.583 C46.686,259.567 46.478,259.541 46.264,259.505 C46.004,259.461 45.734,259.399 45.454,259.317 C45.254,259.261 45.047,259.191 44.835,259.113 C44.551,259.006 44.256,258.878 43.951,258.728 C43.734,258.621 43.512,258.503 43.285,258.372 C43.058,258.24 42.824,258.097 42.586,257.938 C42.309,257.756 42.024,257.554 41.733,257.333 C41.625,257.249 41.515,257.164 41.405,257.077 C41.405,257.077 41.353,257.817 41.348,259.087 C41.328,263.106 41.768,272.431 45.778,280.251 L46.293,277.852 L46.54,276.699 L47.055,274.307 L49.327,263.717 L49.604,262.43 L49.869,261.189 L50.085,260.186 L50.468,260.134 L50.837,260.083 C50.837,260.083 50.636,259.549 50.839,259.142" fill="#000000"/>
      <path d="M47.995,283.817 L40.513,255.434 L40.272,255.498 L47.753,283.88 L47.995,283.817" fill="#0B0B0A"/>
      <path d="M48.123,282.555 L41.326,255.177 L41.083,255.237 L41.612,257.363 L47.88,282.615 L48.123,282.555" fill="#0B0B0A"/>
      <path d="M48.296,281.174 L42.079,255.295 L41.836,255.353 L48.053,281.232 L48.296,281.174" fill="#0B0B0A"/>
      <path d="M48.731,280.856 L42.773,255.664 L42.53,255.721 L48.488,280.913 L48.731,280.856" fill="#0B0B0A"/>
      <path d="M48.968,279.444 L43.532,256.408 L43.288,256.465 L48.725,279.501 L48.968,279.444" fill="#0B0B0A"/>
      <path d="M49.083,278.349 L44.477,256.84 L44.233,256.892 L48.838,278.401 L49.083,278.349" fill="#0B0B0A"/>
      <path d="M44.927,257.385 L48.883,276.52 L49.127,276.47 L45.172,257.334 L44.927,257.385" fill="#0B0B0A"/>
      <path d="M49.423,274.776 L46.12,258.14 L45.875,258.188 L49.178,274.825 L49.423,274.776" fill="#0B0B0A"/>
      <path d="M49.778,272.765 L46.815,258.634 L46.57,258.685 L49.533,272.817 L49.778,272.765" fill="#0B0B0A"/>
      <path d="M50.01,270.945 L47.507,259.572 L47.381,259.002 L47.137,259.056 L47.263,259.626 L49.766,270.999 L50.01,270.945" fill="#0B0B0A"/>
      <path d="M50.182,269.314 L48.039,259.543 L47.947,259.123 L47.703,259.176 L47.795,259.596 L49.937,269.368 L50.182,269.314" fill="#0B0B0A"/>
      <path d="M50.424,268.436 L48.512,259.118 L48.267,259.169 L48.337,259.51 L50.179,268.486 L50.424,268.436" fill="#0B0B0A"/>
      <path d="M48.767,259.039 L48.838,259.382 L50.48,267.231 L50.724,267.179 L49.083,259.331 L49.011,258.988 L48.767,259.039" fill="#0B0B0A"/>
      <path d="M50.956,265.358 L49.991,261.161 L49.533,259.164 L49.448,258.792 L49.204,258.847 L49.289,259.22 L49.747,261.217 L50.712,265.414 L50.956,265.358" fill="#0B0B0A"/>
      <path d="M51.309,263.16 L50.276,258.779 L50.13,258.158 L49.887,258.215 L50.033,258.836 L51.066,263.217 L51.309,263.16" fill="#0B0B0A"/>
      <path d="M51.478,261.278 L50.627,257.714 L50.384,257.772 L50.548,258.46 L51.235,261.336 L51.478,261.278" fill="#0B0B0A"/>
      <path d="M46.227,279.759 L40.937,259.658" fill="#0B0B0A"/>
      <path d="M46.348,279.727 L41.058,259.626 L40.816,259.69 L46.107,279.791" fill="#0B0B0A"/>
      <path d="M45.778,280.251 L40.714,262.417" fill="#0B0B0A"/>
      <path d="M45.899,280.217 L40.835,262.383 L40.594,262.451 L45.658,280.285" fill="#0B0B0A"/>
    </g>
  </g>
</svg>
