<?xml version="1.0" encoding="UTF-8"?>
<!DOCTYPE svg PUBLIC "-//W3C//DTD SVG 1.1//EN" "http://www.w3.org/Graphics/SVG/1.1/DTD/svg11.dtd">
<svg version="1.1" xmlns="http://www.w3.org/2000/svg" xmlns:xlink="http://www.w3.org/1999/xlink" x="0" y="0" width="24.393" height="29.855" viewBox="0, 0, 24.393, 29.855">
  <g id="Layer_1" transform="translate(-349.711, -146.777)">
    <path d="M359.466,167.151 L359.561,166.766 C361.105,165.179 362.183,165.37 362.183,165.37 L362.231,167.104 L359.466,167.151 z M372.439,167.874 L372.488,167.632 C372.956,167.247 373.237,161.57 373.237,161.57 C373.423,161.185 373.19,158.201 373.19,158.201 C373.751,157.528 373.284,156.758 373.284,156.758 L373.049,155.748 C372.439,154.882 372.626,155.892 372.626,155.892 C372.907,156.182 372.862,157.238 372.862,157.238 C371.972,158.298 371.832,156.709 371.832,156.709 C371.832,154.352 371.176,156.807 371.176,156.807 C371.129,156.565 369.817,156.277 369.817,156.277 C370.003,155.46 370.707,151.368 370.707,151.368 C370.942,147.279 368.131,146.798 368.131,146.798 C365.275,146.462 364.056,150.263 364.056,150.263 C363.307,150.599 363.917,150.936 363.917,150.936 L354.127,171.916 L353.799,172.059 L353.424,173.214 C352.91,173.311 352.44,174.128 352.44,174.128 L350.52,173.839 C349.537,173.887 349.725,174.514 349.725,174.514 L355.439,176.63 C355.766,176.678 356.188,175.669 356.188,175.669 L353.66,174.467 C354.923,173.647 354.737,172.155 354.737,172.155 L364.573,151.225 C364.852,151.176 365.697,148.819 365.697,148.819 C368.083,146.605 369.302,148.965 369.302,148.965 C370.707,150.311 369.067,156.229 369.067,156.229 L368.32,156.229 L368.273,154.545 L367.615,154.545 L367.569,155.026 C367.381,155.026 367.194,156.133 367.194,156.133 L364.15,156.565 C362.042,156.615 362.042,157.959 362.042,157.959 C361.152,162.771 362.137,162.388 362.137,162.388 L362.137,163.735 C360.17,164.793 358.717,166.285 358.717,166.285 C356.891,169.027 362.183,168.114 362.183,168.114 C362.276,168.691 362.7,170.518 362.7,170.518 C362.231,173.502 363.962,171.82 363.962,171.82 C364.619,172.251 366.398,172.443 366.398,172.443 C367.147,175.139 367.522,172.299 367.522,172.299 C369.491,172.443 370.66,171.194 370.66,171.194 C371.598,173.311 373.237,171.82 373.237,171.82 C375.577,167.681 372.439,167.874 372.439,167.874" fill="#000000"/>
  </g>
</svg>
