<?xml version="1.0" encoding="UTF-8"?>
<!DOCTYPE svg PUBLIC "-//W3C//DTD SVG 1.1//EN" "http://www.w3.org/Graphics/SVG/1.1/DTD/svg11.dtd">
<svg version="1.1" xmlns="http://www.w3.org/2000/svg" xmlns:xlink="http://www.w3.org/1999/xlink" x="0" y="0" width="12.309" height="13.866" viewBox="0, 0, 12.309, 13.866">
  <g id="Layer_1" transform="translate(-385.098, -235.715)">
    <path d="M392.18,243.274 C391.283,243.033 390.537,243.602 390.537,243.602 L389.848,243.751 C390.088,243.423 389.998,242.705 389.998,242.705 L389.819,242.555 L389.819,242.377 C390.385,242.466 392.986,241.898 392.986,241.898 C393.016,242.377 392.897,242.884 392.897,242.884 C392.986,243.571 392.18,243.274 392.18,243.274 z M397.109,246.263 C396.93,245.066 396.094,244.467 396.094,244.467 C396.002,242.675 395.347,241.809 395.347,241.809 C395.495,240.375 395.107,240.165 395.107,240.165 C394.899,239.897 393.853,240.047 393.853,240.047 C393.375,239.21 393.792,237.297 393.792,237.297 C394.75,235.564 396.601,236.431 396.601,236.431 L396.75,235.982 C394.182,234.967 393.375,237.177 393.375,237.177 L393.165,237.177 C392.926,237.924 393.016,240.165 393.016,240.165 C392.537,240.135 387.37,241.122 387.37,241.122 C386.742,241.122 386.742,241.929 386.742,241.929 C386.323,243.87 386.891,244.17 386.891,244.17 C386.98,244.318 387.458,244.198 387.458,244.198 L388.474,245.424 C386.084,246.411 385.695,247.786 385.695,247.786 L385.098,248.473 L385.128,249.339 C391.879,250.443 397.378,247.425 397.378,247.425 L397.407,246.47 L397.109,246.263" fill="#000000"/>
  </g>
</svg>
