<?xml version="1.0" encoding="UTF-8"?>
<!DOCTYPE svg PUBLIC "-//W3C//DTD SVG 1.1//EN" "http://www.w3.org/Graphics/SVG/1.1/DTD/svg11.dtd">
<svg version="1.1" xmlns="http://www.w3.org/2000/svg" xmlns:xlink="http://www.w3.org/1999/xlink" x="0" y="0" width="27.516" height="22.278" viewBox="0, 0, 27.516, 22.278">
  <g id="Layer_1" transform="translate(-206.289, -166.715)">
    <path d="M211.96,177.043 C211.96,177.043 211.664,176.903 211.508,176.874 L211.381,177.001 L211.537,177.101 L211.212,177.341 L211.269,177.566 C211.269,177.566 211.706,177.213 211.96,177.043 z M228.962,183.671 C228.905,183.785 227.918,183.559 227.918,183.559 C227.748,183.869 227.297,184.49 227.297,184.49 L226.62,185.252 L226.366,185.111 C225.407,186.297 224.786,185.901 224.786,185.901 C224.56,185.337 225.463,184.49 225.463,184.49 L225.406,184.321 C225.52,184.292 226.337,183.333 226.337,183.333 L224.456,183.062 C222.085,185.583 219.79,186.937 219.79,186.937 C219.038,187.276 218.699,187.087 218.699,187.087 C218.699,186.637 219.639,185.132 219.639,185.132 C219.752,184.868 222.085,182.723 222.085,182.723 L220.542,182.385 C220.279,182.686 218.172,183.137 218.172,183.137 C218.097,183.401 215.163,185.319 215.163,185.319 C214.598,185.695 213.771,185.282 213.771,185.282 L211.476,186.637 C209.293,188.103 207.375,188.254 207.375,188.254 C207.219,188.446 206.345,188.993 206.345,188.993 L206.289,188.951 L207.224,188.142 C207.563,186.505 209.538,184.172 209.538,184.172 C209.368,183.928 210.027,183.626 210.027,183.626 L211.757,181.99 L212.134,181.444 C210.93,182.234 210.027,181.971 210.027,181.971 C210.064,181.501 211.005,180.316 211.005,180.316 C211.156,180.033 213.808,178.02 213.808,178.02 L213.258,177.016 C212.524,177.622 211.819,177.89 211.819,177.89 L211.523,178.116 L211.664,178.412 L211.311,178.638 L211.043,178.454 L210.719,178.68 L210.38,178.68 C210.45,178.822 210.295,178.835 210.295,178.835 C210.253,178.977 210.055,178.906 210.055,178.906 C209.703,179.188 209.9,178.723 209.9,178.723 C209.9,178.582 210.07,178.482 210.07,178.482 C210.14,178.356 210.31,178.497 210.31,178.497 L210.436,178.144 L210.803,177.904 L210.846,177.496 L211.043,177.341 L210.93,177.341 L210.591,177.58 L210.535,177.523 C210.422,177.721 210.042,177.651 210.042,177.651 C210.042,177.763 209.943,177.791 209.943,177.791 C209.9,177.918 209.717,177.876 209.717,177.876 C209.35,178.186 209.562,177.692 209.562,177.692 L209.632,177.467 C209.759,177.326 209.943,177.425 209.943,177.425 C209.971,177.241 210.337,176.973 210.337,176.973 L210.267,176.748 L210.605,176.55 L210.817,176.648 L210.859,176.48 L211.17,176.282 L211.156,176.451 C211.339,176.211 212.439,175.506 212.439,175.506 L211.537,173.828 L211.325,173.94 C211.127,174.053 211.241,173.785 211.241,173.785 L211.424,173.63 L210.817,172.53 L209.195,173.474 C208.955,173.559 208.813,173.333 208.813,173.333 L208.15,173.799 C207.53,174.081 207.234,173.954 207.234,173.954 L207.896,173.29 L209.562,172.29 L209.731,171.753 L209.858,171.711 L210.013,172.05 L211.734,170.963 C211.734,170.399 212.002,170.384 212.002,170.384 L212.143,170.737 L212.369,170.836 C212.68,170.653 212.595,170.808 212.595,170.808 L212.369,171.019 L212.312,171.114 C212.849,171.227 212.369,171.537 212.369,171.537 L212.867,171.825 C213.344,171.556 212.968,171.881 212.968,171.881 L213.413,172.133 C213.877,171.938 213.538,172.227 213.538,172.227 L214.259,172.665 C214.78,172.389 214.344,172.727 214.344,172.727 L219.296,175.689 L220.509,174.927 L218.647,172.781 L219.329,172.273 C219.461,172.104 219.386,172.283 219.386,172.283 L220.133,172.264 C220.289,172.029 220.228,172.302 220.228,172.302 L221.083,172.588 C221.276,172.437 221.145,172.622 221.145,172.622 L223.27,173.336 L223.101,173.544 L223.345,173.657 L223.666,173.412 L226.129,169.198 C225.866,169.198 226.336,168.859 226.336,168.859 C226.845,167.9 227.709,166.922 227.709,166.922 L228.218,166.715 L228.443,166.847 L225.923,172.264 C225.979,172.452 225.377,173.694 225.377,173.694 C227.081,173.899 225.859,176.007 225.847,176.026 L226.75,175.387 L227.484,175.952 L227.748,175.782 L229.779,177.324 C230.155,177.165 229.882,177.419 229.882,177.419 L230.691,178.068 C231.049,177.832 230.776,178.134 230.776,178.134 L230.95,178.68 C231.33,178.582 230.878,178.793 230.878,178.793 C230.357,179.329 230.272,179.202 230.272,179.202 C230.145,179.259 225.433,177.721 225.433,177.721 L224.361,178.624 C224.643,178.793 230.012,181.457 230.012,181.457 C230.425,181.144 230.145,181.516 230.145,181.516 L231.027,181.94 C231.435,181.57 231.152,181.99 231.152,181.99 L231.679,182.272 C232.125,181.889 231.817,182.36 231.817,182.36 L232.337,182.61 L232.601,182.385 C232.695,182.328 232.883,182.479 232.883,182.479 L232.995,182.046 L233.165,182.046 L233.24,182.404 C233.41,182.347 233.485,182.535 233.485,182.535 L233.805,182.441 L233.691,182.61 L233.56,182.686 L233.598,182.799 L233.466,182.893 C233.711,183.137 233.466,183.326 233.466,183.326 C233.354,183.344 233.184,183.156 233.184,183.156 L231.811,184.755 L231.961,185.037 L231.886,185.132 L231.547,185.075 L230.25,186.561 C230.042,186.843 229.572,186.937 229.572,186.937 L229.892,186.147 L230.325,185.639 C229.93,185.734 230.211,185.075 230.211,185.075 L231.077,184.21 C230.983,184.21 231.079,183.982 231.079,183.982 C230.881,183.982 229.272,183.728 229.272,183.728 C228.657,184.456 228.958,183.684 228.962,183.671" fill="#000000"/>
  </g>
</svg>
