<?xml version="1.0" encoding="UTF-8"?>
<!DOCTYPE svg PUBLIC "-//W3C//DTD SVG 1.1//EN" "http://www.w3.org/Graphics/SVG/1.1/DTD/svg11.dtd">
<svg version="1.1" xmlns="http://www.w3.org/2000/svg" xmlns:xlink="http://www.w3.org/1999/xlink" x="0" y="0" width="14.676" height="6.996" viewBox="0, 0, 14.676, 6.996">
  <g id="Layer_1" transform="translate(-294.34, -355.752)">
    <path d="M296.2,358.319 C295.764,358.265 295.365,358.573 295.309,359.009 C295.252,359.445 295.561,359.845 295.996,359.901 C296.434,359.957 296.833,359.648 296.889,359.213 C296.945,358.776 296.637,358.377 296.2,358.319 z M296.888,355.798 C300.279,355.352 301.142,358.315 301.142,358.315 L303.118,358.57 L303.063,359.005 L303.489,359.742 L304.337,359.088 C304.107,359.62 305.222,360.006 305.222,360.006 L305.601,359.252 L306.063,360.033 C306.252,359.496 306.698,359.473 306.698,359.473 C306.701,360.076 307.204,360.222 307.204,360.222 L307.646,359.596 L308.192,360.348 C308.629,359.44 309.016,360.495 309.016,360.495 L308.975,360.811 L307.826,361.628 L302.768,360.975 L302.762,361.336 L300.746,361.075 C300.417,361.757 298.699,362.619 298.699,362.619 C295.875,363.34 294.594,360.805 294.594,360.805 C293.384,356.792 296.888,355.798 296.888,355.798" fill="#000000"/>
  </g>
</svg>
