<?xml version="1.0" encoding="UTF-8"?>
<!DOCTYPE svg PUBLIC "-//W3C//DTD SVG 1.1//EN" "http://www.w3.org/Graphics/SVG/1.1/DTD/svg11.dtd">
<svg version="1.1" xmlns="http://www.w3.org/2000/svg" xmlns:xlink="http://www.w3.org/1999/xlink" x="0" y="0" width="32.306" height="8.546" viewBox="0, 0, 32.306, 8.546">
  <g id="Layer_1" transform="translate(-552.934, -340.895)">
    <path d="M570.892,346.507 C570.892,346.507 552.791,345.934 552.935,342.629 C552.935,342.629 560.693,341.623 570.892,343.204 L571.18,340.904 C571.18,340.904 572.185,340.617 572.904,343.204 C572.904,343.204 573.19,343.777 574.771,343.777 C574.771,343.777 581.81,343.204 584.684,344.639 C584.684,344.639 585.832,347.801 584.828,349.093 C584.828,349.093 582.959,349.668 583.103,348.23 C583.103,348.23 581.091,346.936 580.23,348.087 C580.23,348.087 579.511,348.662 578.937,347.512 C578.937,347.512 576.495,346.652 575.203,347.512 C575.203,347.512 574.484,348.374 574.197,347.226 C574.197,347.226 572.616,345.358 571.898,348.374 C571.898,348.374 572.329,350.674 570.892,348.519 L570.892,346.507" fill="#000000"/>
  </g>
</svg>
