<?xml version="1.0" encoding="UTF-8"?>
<!DOCTYPE svg PUBLIC "-//W3C//DTD SVG 1.1//EN" "http://www.w3.org/Graphics/SVG/1.1/DTD/svg11.dtd">
<svg version="1.1" xmlns="http://www.w3.org/2000/svg" xmlns:xlink="http://www.w3.org/1999/xlink" x="0" y="0" width="11.279" height="12.105" viewBox="0, 0, 11.279, 12.105">
  <g id="Layer_1" transform="translate(-265.207, -391.014)">
    <path d="M273.683,400.732 C273.683,400.732 273.146,400.897 272.857,400.671 L273.539,399.702 C273.539,399.702 273.744,400.013 273.683,400.732 z M271.826,400.238 C271.826,400.238 272.239,399.373 272.26,399.187 C272.26,399.187 272.754,399.6 273.042,399.518 C273.042,399.518 272.301,400.404 272.301,400.528 C272.301,400.528 271.95,400.404 271.826,400.238 z M271.393,399.848 C271.393,399.848 270.795,399.291 270.755,399.023 L271.703,399.085 C271.703,399.085 271.352,399.682 271.393,399.848 z M270.033,397.661 C270.033,397.661 271.456,397.93 271.93,398.176 C271.93,398.176 271.888,398.384 271.93,398.651 L270.425,398.425 L270.033,397.661 z M269.765,397.125 C269.765,397.125 268.012,393.702 265.847,393.806 C265.847,393.806 265.146,392.919 266.301,391.909 C266.301,391.909 266.878,394.816 270.404,395.785 C270.404,395.785 271.387,397.418 272.105,397.647 C271.778,397.558 269.989,397.069 269.765,397.125 z M272.137,397.656 L272.109,397.649 L272.137,397.656 z M268.651,393.311 L270.383,394.961 C270.383,394.961 271.558,395.723 272.239,397.25 C272.239,397.25 271.167,396.054 270.342,395.269 C270.342,395.269 266.981,393.93 266.672,391.496 C266.672,391.496 267.063,391.125 268.651,393.311 z M273.229,399.207 C273.229,399.207 272.301,399.353 272.321,398.279 C272.321,398.279 273.393,398.384 273.229,399.207 z M276.445,401.436 C276.466,401.209 274.528,400.92 274.528,400.92 C274.775,399.807 273.641,399.311 273.641,399.311 C273.827,398.528 272.507,397.456 272.507,397.456 C272.61,397.084 272.178,396.507 272.178,396.507 C271.786,396.054 271.435,395.228 271.435,395.228 C271.352,394.899 268.796,392.796 268.796,392.796 C266.899,390.795 266.795,391.022 266.795,391.022 C264.383,392.775 265.435,394.156 265.435,394.156 C265.125,394.712 265.579,395.269 265.579,395.269 C265.579,395.559 265.682,395.743 265.682,395.743 C266.342,396.981 266.301,401.517 266.301,401.517 C266.548,401.805 266.857,401.517 266.857,401.517 C266.795,400.074 267.311,397.229 267.311,397.229 C268.136,397.909 268.775,400.404 268.775,400.404 C269.208,402.857 269.95,402.795 269.95,402.795 C271.826,403.559 275.435,402.734 275.435,402.734 C276.796,402.342 276.445,401.436 276.445,401.436" fill="#000000"/>
  </g>
</svg>
