<?xml version="1.0" encoding="UTF-8"?>
<!DOCTYPE svg PUBLIC "-//W3C//DTD SVG 1.1//EN" "http://www.w3.org/Graphics/SVG/1.1/DTD/svg11.dtd">
<svg version="1.1" xmlns="http://www.w3.org/2000/svg" xmlns:xlink="http://www.w3.org/1999/xlink" x="0" y="0" width="11.247" height="11.942" viewBox="0, 0, 11.247, 11.942">
  <g id="Layer_1" transform="translate(-61.155, -128.975)">
    <path d="M61.747,138.586 L62.901,138.586 L62.901,135.401 C62.901,135.401 64.275,136.829 63.945,138.586 C63.945,138.586 63.89,139.794 65.263,140.234 C65.263,140.234 71.249,141.771 72.074,140.234 C72.074,140.234 73.144,139.548 71.415,138.696 C71.415,138.696 68.063,137.762 66.472,133.864 C66.472,133.864 64.447,129.811 63.011,128.975 C63.011,128.975 60.32,130.293 61.418,133.588 C61.418,133.588 62.078,137.269 61.747,138.586" fill="#000000"/>
  </g>
</svg>
