<?xml version="1.0" encoding="UTF-8"?>
<!DOCTYPE svg PUBLIC "-//W3C//DTD SVG 1.1//EN" "http://www.w3.org/Graphics/SVG/1.1/DTD/svg11.dtd">
<svg version="1.1" xmlns="http://www.w3.org/2000/svg" xmlns:xlink="http://www.w3.org/1999/xlink" x="0" y="0" width="27.129" height="18.553" viewBox="0, 0, 27.129, 18.553">
  <g id="Layer_1" transform="translate(-0, -0)">
    <path d="M27.004,1.308 L27.004,13.503 L24.393,18.419 L24.251,3.98 L27.004,1.308" fill="#000000"/>
    <path d="M27.004,1.308 L24.251,3.98 L0.125,2.241 L6.41,0.127 L27.004,1.308" fill="#000000"/>
    <path d="M23.737,14.038 C23.824,11.978 23.73,9.899 23.72,7.837 C23.714,7.086 23.929,6.238 23.488,5.568 C23.023,4.861 22.079,4.715 21.297,4.715 C20.236,4.654 19.176,4.593 18.116,4.531 C14.927,4.347 11.734,4.164 8.542,3.981 C6.576,3.869 4.611,3.759 2.645,3.632 C1.082,3.529 0.5,4.772 0.5,6.161 C0.5,7.226 0.5,8.291 0.494,9.357 C0.488,10.405 0.037,13.66 1.681,13.878 C1.681,13.878 12.234,15.27 18.116,16.045 C20.337,16.339 21.895,16.544 21.963,16.552 C23.522,16.758 23.689,15.201 23.737,14.038 z M24.251,3.98 L24.393,18.419 L0.125,15.495 L0.125,2.241 L24.251,3.98" fill="#000000"/>
    <path d="M22.622,13.306 C22.622,12.67 22.107,12.154 21.471,12.154 L21.418,12.158 C20.807,12.186 20.321,12.69 20.321,13.306 C20.321,13.921 20.807,14.426 21.418,14.453 L21.471,14.456 C22.107,14.456 22.622,13.941 22.622,13.306 z M22.622,8.644 L22.619,8.59 C22.592,7.98 22.089,7.495 21.471,7.495 C20.855,7.495 20.351,7.98 20.325,8.59 L20.321,8.644 C20.321,9.279 20.836,9.794 21.471,9.794 C22.107,9.794 22.622,9.279 22.622,8.644 z M23.72,7.837 C23.73,9.899 23.824,11.978 23.737,14.038 C23.689,15.201 23.522,16.758 21.963,16.552 C21.895,16.544 20.337,16.339 18.116,16.045 C17.752,15.369 17.48,14.679 17.284,13.987 C16.477,11.141 16.943,8.293 17.444,6.478 C17.772,5.281 18.116,4.531 18.116,4.531 C19.176,4.593 20.236,4.654 21.297,4.715 C22.079,4.715 23.023,4.861 23.488,5.568 C23.929,6.238 23.714,7.086 23.72,7.837" fill="#000000"/>
    <path d="M22.619,8.59 L22.622,8.644 C22.622,9.279 22.107,9.794 21.471,9.794 C20.836,9.794 20.321,9.279 20.321,8.644 L20.325,8.59 L20.545,8.596 C20.545,8.596 21.703,9.291 22.398,8.596 L22.619,8.59" fill="#000000"/>
    <path d="M22.619,8.59 L22.398,8.596 L20.545,8.596 L20.325,8.59 C20.351,7.98 20.855,7.495 21.471,7.495 C22.089,7.495 22.592,7.98 22.619,8.59" fill="#000000"/>
    <path d="M20.545,8.596 L22.398,8.596 C21.703,9.291 20.545,8.596 20.545,8.596" fill="#000000"/>
    <path d="M21.471,12.154 C22.107,12.154 22.622,12.67 22.622,13.306 C22.622,13.941 22.107,14.456 21.471,14.456 L21.418,14.453 L21.423,14.232 C21.423,14.232 22.118,13.074 21.423,12.38 L21.418,12.158 L21.471,12.154" fill="#000000"/>
    <path d="M21.423,12.38 C22.118,13.074 21.423,14.232 21.423,14.232 L21.423,12.38" fill="#000000"/>
    <path d="M21.423,12.38 L21.423,14.232 L21.418,14.453 C20.807,14.426 20.321,13.921 20.321,13.306 C20.321,12.69 20.807,12.186 21.418,12.158 L21.423,12.38" fill="#000000"/>
    <path d="M18.116,4.531 C18.116,4.531 17.772,5.281 17.444,6.478 L17.441,6.478 L5.228,5.603 C2.739,5.353 2.708,6.285 2.708,6.285 L2.708,11.356 C2.708,12.26 4.108,12.757 4.108,12.757 L17.284,13.987 C17.48,14.679 17.752,15.369 18.116,16.045 C12.234,15.27 1.681,13.878 1.681,13.878 C0.037,13.66 0.488,10.405 0.494,9.357 C0.5,8.291 0.5,7.226 0.5,6.161 C0.5,4.772 1.082,3.529 2.645,3.632 C4.611,3.759 6.576,3.869 8.542,3.981 C11.734,4.164 14.927,4.347 18.116,4.531" fill="#000000"/>
    <path d="M17.441,6.478 L17.444,6.478 C16.943,8.293 16.477,11.141 17.284,13.987 L4.108,12.757 C4.108,12.757 2.708,12.26 2.708,11.356 L2.708,6.285 C2.708,6.285 2.739,5.353 5.228,5.603 L17.441,6.478" fill="#000000"/>
    <path d="M0.125,2.241 L0,2.241 L0,15.606 L24.463,18.553 L27.129,13.534 L27.129,1.19 L6.393,0 L0,2.151 L0,2.241 L0.125,2.241 L0.164,2.359 L6.427,0.253 L26.879,1.426 L26.879,13.472 L24.323,18.285 L0.25,15.384 L0.25,2.241 L0.125,2.241 L0.164,2.359 L0.125,2.241" fill="#FFFFFE"/>
    <path d="M18.116,4.531 L18.123,4.406 C14.934,4.222 11.741,4.039 8.549,3.856 C6.583,3.744 4.618,3.634 2.653,3.507 L2.468,3.501 C1.717,3.498 1.175,3.824 0.843,4.323 C0.511,4.82 0.375,5.477 0.375,6.161 C0.375,7.226 0.375,8.291 0.369,9.356 C0.367,9.72 0.308,10.38 0.308,11.085 C0.308,11.72 0.355,12.393 0.542,12.941 C0.726,13.486 1.076,13.926 1.665,14.002 C1.665,14.002 12.218,15.394 18.099,16.169 C20.322,16.463 21.877,16.668 21.949,16.676 C22.047,16.689 22.142,16.695 22.232,16.695 C22.938,16.701 23.362,16.287 23.574,15.762 C23.792,15.237 23.838,14.594 23.862,14.043 C23.889,13.399 23.898,12.753 23.898,12.107 C23.898,10.681 23.852,9.253 23.845,7.837 L23.845,7.806 C23.845,7.458 23.892,7.078 23.892,6.696 C23.892,6.288 23.837,5.871 23.592,5.499 C23.081,4.73 22.09,4.591 21.297,4.59 L21.297,4.715 L21.305,4.59 C20.243,4.529 19.184,4.468 18.123,4.406 L18.116,4.531 L18.108,4.656 C19.169,4.718 20.229,4.779 21.29,4.839 L21.294,4.84 L21.297,4.84 C22.068,4.838 22.965,4.991 23.383,5.636 C23.589,5.949 23.642,6.309 23.642,6.696 C23.643,7.057 23.595,7.437 23.595,7.806 L23.595,7.838 C23.602,9.259 23.648,10.686 23.648,12.107 C23.648,12.751 23.639,13.393 23.612,14.033 C23.59,14.575 23.539,15.198 23.343,15.666 C23.141,16.134 22.836,16.44 22.232,16.445 L21.98,16.428 C21.914,16.42 20.353,16.215 18.132,15.921 C15.191,15.533 11.083,14.992 7.709,14.547 C6.022,14.325 4.52,14.126 3.438,13.984 C2.357,13.841 1.699,13.754 1.698,13.754 C1.229,13.69 0.955,13.363 0.779,12.86 C0.606,12.36 0.557,11.707 0.558,11.085 C0.558,10.393 0.616,9.742 0.619,9.357 C0.625,8.291 0.625,7.226 0.625,6.161 C0.624,5.51 0.757,4.899 1.051,4.462 C1.346,4.027 1.788,3.753 2.468,3.751 L2.637,3.756 C4.604,3.884 6.569,3.994 8.534,4.106 C11.727,4.289 14.92,4.472 18.109,4.656 L18.116,4.531" fill="#FFFFFE"/>
    <path d="M18.002,4.479 C18,4.483 17.654,5.239 17.323,6.445 C17.016,7.557 16.722,9.055 16.722,10.706 C16.722,11.768 16.844,12.894 17.163,14.022 C17.362,14.721 17.637,15.42 18.006,16.104 L18.226,15.986 C17.866,15.318 17.598,14.637 17.404,13.953 C17.092,12.852 16.972,11.749 16.972,10.706 C16.972,9.084 17.262,7.608 17.564,6.511 C17.727,5.917 17.894,5.434 18.02,5.1 C18.146,4.766 18.229,4.584 18.229,4.583 L18.002,4.479" fill="#FFFFFE"/>
    <path d="M17.295,13.863 L4.12,12.633 L4.108,12.757 L4.15,12.639 C4.15,12.639 4.068,12.61 3.942,12.552 C3.751,12.464 3.465,12.31 3.234,12.103 C3.001,11.895 2.832,11.643 2.833,11.356 L2.833,6.285 L2.708,6.285 L2.832,6.29 L2.812,6.289 L2.832,6.291 L2.832,6.29 L2.812,6.289 L2.832,6.291 C2.836,6.276 2.85,6.138 3.051,5.99 C3.253,5.842 3.657,5.685 4.444,5.685 C4.669,5.685 4.925,5.698 5.216,5.727 L5.218,5.727 L17.432,6.602 L17.45,6.353 L5.237,5.478 L5.228,5.603 L5.241,5.478 C4.943,5.448 4.679,5.435 4.444,5.435 C3.572,5.435 3.107,5.619 2.854,5.826 C2.601,6.033 2.582,6.258 2.583,6.281 L2.583,11.356 C2.586,11.879 2.976,12.253 3.338,12.499 C3.703,12.746 4.06,12.873 4.066,12.875 L4.081,12.88 L17.272,14.112 L17.295,13.863" fill="#FFFFFE"/>
    <path d="M0.116,2.366 L24.297,4.109 L27.092,1.398 L26.917,1.218 L24.204,3.851 L0.134,2.116 L0.116,2.366" fill="#FFFFFE"/>
    <path d="M24.126,3.981 L24.268,18.42 L24.518,18.418 L24.376,3.979" fill="#FFFFFE"/>
    <path d="M22.619,8.59 L22.494,8.597 L22.497,8.651 L22.622,8.644 L22.497,8.644 C22.496,9.21 22.038,9.668 21.471,9.669 C20.906,9.668 20.447,9.21 20.446,8.644 L20.321,8.644 L20.446,8.653 L20.449,8.599 L20.45,8.597 L20.45,8.595 C20.473,8.052 20.922,7.62 21.471,7.62 C22.023,7.62 22.47,8.052 22.494,8.595 L22.619,8.59 L22.744,8.585 C22.714,7.907 22.156,7.37 21.471,7.37 C20.788,7.37 20.229,7.907 20.2,8.585 L20.325,8.59 L20.2,8.581 L20.196,8.635 L20.196,8.644 C20.196,9.349 20.767,9.919 21.471,9.919 C22.176,9.919 22.747,9.348 22.747,8.644 L22.747,8.64 L22.744,8.583 L22.619,8.59" fill="#FFFFFE"/>
    <path d="M20.545,8.596 L20.481,8.703 C20.491,8.707 21.014,9.027 21.609,9.03 C21.905,9.031 22.228,8.944 22.486,8.684 L22.7,8.471 L20.095,8.471 L20.481,8.703 L20.545,8.596 L20.545,8.721 L22.398,8.721 L22.398,8.596 L22.31,8.507 C22.105,8.712 21.861,8.779 21.609,8.78 C21.358,8.78 21.105,8.708 20.917,8.634 C20.823,8.597 20.745,8.56 20.691,8.533 L20.61,8.489 L20.545,8.596 L20.545,8.721 L20.545,8.596" fill="#FFFFFE"/>
    <path d="M21.418,12.158 L21.427,12.283 L21.48,12.279 L21.471,12.154 L21.471,12.279 C22.038,12.281 22.496,12.739 22.497,13.306 C22.496,13.872 22.038,14.33 21.471,14.331 L21.471,14.456 L21.478,14.331 L21.424,14.328 C20.88,14.304 20.446,13.854 20.446,13.306 C20.446,12.757 20.88,12.307 21.423,12.283 L21.427,12.283 L21.418,12.158 L21.412,12.034 C20.735,12.064 20.196,12.622 20.196,13.306 C20.196,13.988 20.735,14.548 21.412,14.578 L21.464,14.581 L21.471,14.581 C22.176,14.581 22.747,14.01 22.747,13.306 C22.747,12.601 22.176,12.03 21.471,12.029 L21.467,12.029 L21.408,12.034 L21.418,12.158 L21.412,12.034 L21.418,12.158" fill="#FFFFFE"/>
    <path d="M21.423,14.232 L21.531,14.296 C21.534,14.286 21.854,13.763 21.857,13.169 C21.858,12.872 21.771,12.55 21.512,12.292 L21.298,12.078 L21.298,14.683 L21.531,14.296 L21.423,14.232 L21.548,14.232 L21.548,12.38 L21.423,12.38 L21.335,12.468 C21.539,12.673 21.606,12.917 21.607,13.169 C21.607,13.42 21.535,13.672 21.461,13.86 C21.425,13.954 21.388,14.032 21.36,14.086 L21.316,14.167 L21.423,14.232 L21.548,14.232 L21.423,14.232" fill="#FFFFFE"/>
  </g>
</svg>
