<?xml version="1.0" encoding="UTF-8"?>
<!DOCTYPE svg PUBLIC "-//W3C//DTD SVG 1.1//EN" "http://www.w3.org/Graphics/SVG/1.1/DTD/svg11.dtd">
<svg version="1.1" xmlns="http://www.w3.org/2000/svg" xmlns:xlink="http://www.w3.org/1999/xlink" x="0" y="0" width="6.634" height="12.985" viewBox="0, 0, 6.634, 12.985">
  <g id="Layer_1" transform="translate(-373.163, -234.55)">
    <path d="M377.312,244.577 C377.081,244.725 376.997,244.978 376.997,244.978 L376.28,244.956 L376.28,243.503 C376.491,243.44 376.342,243.209 376.342,243.209 C376.469,243.209 376.617,243.083 376.617,243.083 L376.721,243.293 C376.849,243.377 376.806,243.588 376.806,243.588 C376.827,243.734 377.271,243.841 377.271,243.841 C377.291,243.967 377.312,244.367 377.312,244.367 C377.186,244.387 377.312,244.577 377.312,244.577 z M378.029,245.083 C377.944,244.936 377.775,244.745 377.775,244.745 C378.049,244.683 377.923,244.514 377.923,244.514 L377.923,244.409 L377.944,243.946 L378.218,243.861 C378.723,244.177 378.619,243.672 378.619,243.672 C378.619,243.166 378.787,243.398 378.787,243.398 C378.934,243.461 379.103,243.377 379.103,243.377 L379.123,243.293 C379.103,243.187 378.723,243.251 378.723,243.251 L378.744,242.998 L379.712,242.219 L379.65,241.986 L376.259,241.649 L374.846,242.43 C374.51,241.292 374.846,240.091 374.846,240.091 C375.058,240.701 375.521,240.28 375.521,240.28 L376.089,240.301 L376.154,240.428 L376.301,240.428 L376.702,240.238 C376.786,240.027 377.228,239.795 377.228,239.795 L377.312,240.048 C377.207,240.259 377.523,240.259 377.523,240.259 L377.207,240.386 C377.166,240.954 377.375,240.827 377.375,240.827 C377.48,241.018 378.049,240.892 378.049,240.892 L378.197,241.713 C378.597,241.882 378.744,241.545 378.744,241.545 L378.554,240.85 L378.661,240.85 L379.017,241.439 L379.292,241.523 L379.501,241.376 L379.544,241.103 L379.187,240.533 L379.187,240.322 C379.376,240.301 379.039,239.88 379.039,239.88 C378.913,239.816 378.197,240.048 378.197,240.048 L378.218,239.795 C378.534,239.795 378.449,239.585 378.449,239.585 L378.47,237.016 C378.344,236.952 378.24,236.804 378.24,236.804 L378.259,234.719 C378.47,234.613 378.197,234.55 378.197,234.55 L377.312,234.55 C377.081,234.55 377.291,234.698 377.291,234.698 L377.249,236.825 L377.166,236.952 L376.764,236.952 C376.259,236.952 376.702,237.058 376.702,237.058 L376.702,237.269 L376.533,237.458 C376.259,237.184 375.458,237.373 375.458,237.373 C374.784,237.458 375.31,237.478 375.31,237.478 C372.299,240.512 374.489,244.24 374.489,244.24 L374.299,244.978 C373.373,244.914 373.163,245.294 373.163,245.294 L373.288,246.136 C375.121,247.211 377.501,247.422 377.501,247.422 C378.029,247.632 378.428,247.485 378.428,247.485 C378.723,247.422 378.597,246.873 378.597,246.873 C378.661,246.432 378.344,246.432 378.344,246.432 C378.242,246.427 378.125,246.418 378,246.401 C377.293,246.311 376.322,246.052 376.322,246.052 C376.533,245.968 377.48,245.988 377.48,245.988 L377.775,246.241 C377.867,246.285 377.945,246.309 378.01,246.315 C378.289,246.342 378.344,246.094 378.344,246.094 L378.829,246.157 C379.566,246.389 379.735,246.115 379.735,246.115 L379.797,245.356 C379.797,245.103 378.029,245.083 378.029,245.083" fill="#000000"/>
  </g>
</svg>
