<?xml version="1.0" encoding="UTF-8"?>
<!DOCTYPE svg PUBLIC "-//W3C//DTD SVG 1.1//EN" "http://www.w3.org/Graphics/SVG/1.1/DTD/svg11.dtd">
<svg version="1.1" xmlns="http://www.w3.org/2000/svg" xmlns:xlink="http://www.w3.org/1999/xlink" x="0" y="0" width="12.265" height="12.66" viewBox="0, 0, 12.265, 12.66">
  <g id="Layer_1" transform="translate(-280.074, -43.615)">
    <g>
      <path d="M283.938,54.279 C284.049,54.102 284.156,53.916 284.236,53.721 L284.272,53.736 C284.109,54.129 283.877,54.621 283.625,54.926 C283.625,54.926 283.286,55.27 283.045,55.491 L283.016,55.482 C283.195,55.313 283.443,55.011 283.556,54.897 C283.727,54.727 283.809,54.482 283.938,54.279" fill="#000000"/>
      <path d="M283.938,54.279 L283.959,54.292 C284.071,54.114 284.178,53.928 284.259,53.731 L284.236,53.721 L284.227,53.744 L284.263,53.759 L284.272,53.736 L284.249,53.726 C284.087,54.119 283.855,54.609 283.605,54.91 L283.625,54.926 L283.607,54.909 C283.606,54.909 283.268,55.252 283.028,55.472 L283.045,55.491 L283.053,55.467 L283.023,55.458 L283.016,55.482 L283.033,55.5 C283.214,55.329 283.462,55.026 283.574,54.915 C283.75,54.739 283.832,54.492 283.959,54.292 L283.938,54.279 L283.916,54.265 C283.786,54.472 283.704,54.715 283.538,54.879 C283.423,54.995 283.176,55.297 282.999,55.464 L282.967,55.493 L283.038,55.515 L283.052,55.519 L283.062,55.509 C283.304,55.287 283.642,54.944 283.642,54.944 L283.643,54.943 L283.644,54.942 C283.9,54.632 284.132,54.14 284.296,53.745 L284.305,53.722 L284.246,53.698 L284.223,53.689 L284.213,53.712 C284.134,53.904 284.028,54.089 283.916,54.265 L283.938,54.279" fill="#000000"/>
      <path d="M281.482,55.706 C281.349,55.574 281.329,55.167 281.329,55.167 C281.206,55.167 281.071,55.033 281.071,55.033 L280.989,55.213 C280.989,55.384 281.482,55.706 281.482,55.706 z M281.358,55.067 C281.358,55.067 281.371,54.944 281.429,54.821 C281.429,54.821 281.329,54.833 281.16,54.974 C281.16,54.974 281.189,55.067 281.358,55.067 z M281.552,54.593 L281.575,54.376 C281.575,54.376 281.231,54.689 280.937,54.704 L281.066,54.91 L281.552,54.593 z M282.199,53.917 C282.199,53.917 282.091,54.066 281.745,54.271 L281.663,54.452 C281.663,54.452 282.096,54.2 282.199,53.917 z M282.776,51.612 L282.764,51.507 L282.5,51.325 L282.372,51.325 C282.372,51.325 281.722,52.379 281.3,52.801 C281.3,52.801 280.287,53.811 280.199,53.955 C280.199,53.955 280.134,54.288 280.785,54.664 C280.785,54.664 281.16,52.947 281.851,52.456 L282.776,51.612 z M283.069,52.502 L283.238,52.034 L282.811,51.723 L281.95,52.49 C281.177,53.093 280.914,54.599 280.914,54.599 C281.252,54.563 281.622,54.247 281.622,54.247 C282.155,53.205 283.069,52.502 283.069,52.502 z M283.572,52.567 C283.572,52.567 283.602,52.392 283.321,52.42 C283.321,52.42 282.694,53.884 281.592,54.658 L281.458,55.091 C281.458,55.091 281.769,55.302 281.909,55.196 C281.909,55.196 283.096,53.176 283.572,52.567 z M283.69,52.403 L283.759,52.273 L283.402,52.039 L283.314,52.25 C283.49,52.215 283.69,52.403 283.69,52.403 z M282.758,55.577 C283.186,54.213 284.322,53.176 284.322,53.176 C284.357,53.006 284.222,52.988 284.222,52.988 C283.912,52.988 283.637,52.696 283.637,52.696 C282.943,53.389 282.079,55.12 282.079,55.12 C281.827,55.501 281.417,55.202 281.417,55.202 C281.417,55.355 281.558,55.688 281.558,55.688 C281.686,55.952 282.184,56.034 282.184,56.034 C282.273,55.885 282.758,55.577 282.758,55.577 z M282.705,55.759 L282.283,56.051 C282.283,56.201 282.491,56.109 282.555,56.078 L282.665,55.99 L282.705,55.759 z M281.834,54.083 C281.88,54.054 282.844,53.445 283.016,52.719 L282.821,52.883 C282.674,53.016 282.533,53.154 282.404,53.304 C282.287,53.435 282.18,53.576 282.074,53.716 L281.933,53.917 L281.834,54.083 z M284.27,53.637 C284.31,53.529 284.345,53.414 284.345,53.299 L284.177,53.421 C283.948,53.625 283.758,53.899 283.573,54.144 C283.365,54.418 283.17,54.71 283.023,55.021 C282.943,55.19 282.846,55.339 282.818,55.525 C282.799,55.655 282.889,55.603 283.016,55.482 L283.045,55.491 C282.944,55.584 282.859,55.655 282.826,55.669 C282.826,55.669 282.834,56.214 282.43,56.249 C282.336,56.257 282.222,56.216 282.134,56.193 C281.901,56.13 281.688,56.024 281.501,55.869 C281.368,55.759 281.248,55.626 281.125,55.505 C281.034,55.417 280.911,55.306 280.896,55.174 L280.989,54.966 C280.989,54.966 280.822,54.751 280.73,54.751 C280.73,54.751 280.497,54.707 280.309,54.417 C280.309,54.417 279.918,54.057 280.203,53.762 C280.203,53.762 281.578,52.467 281.798,51.979 C281.798,51.979 282.232,51.004 282.61,51.254 L282.892,51.47 L283.327,51.008 L283.454,51.062 L284.73,49.322 C284.821,49.375 284.913,49.422 285.007,49.467 L283.713,51.241 L283.823,51.351 L283.498,51.817 L283.52,51.992 L283.84,52.217 L284.073,51.927 L284.253,52.032 L285.863,49.853 L286.104,49.978 L284.47,52.214 L284.606,52.306 L284.281,52.833 C284.281,52.833 284.552,52.994 284.504,53.121 C284.504,53.121 284.416,53.391 284.272,53.736 L284.236,53.721 L284.27,53.637" fill="#000000"/>
      <path d="M288.878,44.109 L288.844,44.262 C288.844,44.262 288.598,44.847 288.141,44.554 C288.043,44.492 287.944,44.434 287.848,44.37 L287.629,44.207 L288.035,43.64 C288.035,43.64 288.621,43.64 288.878,44.109" fill="#000000"/>
      <path d="M288.878,44.109 L288.854,44.103 L288.819,44.256 L288.844,44.262 L288.821,44.252 C288.82,44.253 288.664,44.615 288.39,44.611 L288.154,44.533 C288.056,44.471 287.957,44.413 287.861,44.349 L287.848,44.37 L287.863,44.35 L287.663,44.202 L288.055,43.655 L288.035,43.64 L288.035,43.665 C288.036,43.665 288.609,43.667 288.856,44.121 L288.878,44.109 L288.854,44.103 L288.878,44.109 L288.9,44.097 C288.632,43.613 288.037,43.616 288.035,43.615 L288.022,43.615 L287.609,44.192 L287.594,44.212 L287.833,44.39 L287.833,44.391 L287.834,44.391 C287.931,44.455 288.031,44.514 288.127,44.575 C288.222,44.636 288.31,44.661 288.39,44.661 C288.71,44.657 288.865,44.272 288.867,44.271 L288.868,44.269 L288.902,44.114 L288.904,44.105 L288.9,44.097 L288.878,44.109" fill="#FFFFFE"/>
      <path d="M289.476,44.495 C289.476,44.495 290.322,44.614 291.155,45.723 C290.364,44.933 289.441,45.327 289.441,45.327 C288.375,45.515 287.59,44.262 287.59,44.262 L287.629,44.207 L287.848,44.37 C287.944,44.434 288.043,44.492 288.141,44.554 C288.598,44.847 288.844,44.262 288.844,44.262 C288.844,44.262 289.054,44.262 289.242,44.355 C289.242,44.355 289.465,44.132 289.57,44.286 C289.57,44.286 289.64,44.414 289.476,44.495" fill="#000000"/>
      <path d="M289.476,44.495 L289.473,44.52 C289.473,44.52 289.679,44.548 289.991,44.715 C290.304,44.882 290.72,45.186 291.135,45.738 L291.155,45.723 L291.172,45.705 C290.772,45.305 290.335,45.203 290.001,45.204 C289.666,45.204 289.433,45.303 289.431,45.304 L289.441,45.327 L289.437,45.302 L289.222,45.321 C288.289,45.324 287.613,44.247 287.612,44.248 L287.59,44.262 L287.611,44.276 L287.635,44.242 L287.833,44.39 L287.833,44.391 L287.834,44.391 C287.931,44.455 288.031,44.514 288.127,44.575 C288.222,44.636 288.31,44.661 288.39,44.661 C288.71,44.657 288.865,44.272 288.867,44.271 L288.844,44.262 L288.844,44.287 C288.844,44.286 289.05,44.287 289.231,44.377 L289.247,44.385 L289.259,44.373 L289.472,44.257 L289.549,44.3 L289.57,44.286 L289.548,44.298 L289.56,44.35 L289.465,44.473 L289.393,44.509 L289.473,44.52 L289.476,44.495 L289.487,44.518 C289.582,44.471 289.611,44.402 289.61,44.35 L289.592,44.274 L289.591,44.273 L289.59,44.271 L289.472,44.207 C289.348,44.209 289.227,44.337 289.224,44.337 L289.242,44.355 L289.253,44.333 C289.059,44.236 288.846,44.237 288.844,44.237 L288.827,44.237 L288.821,44.252 C288.82,44.253 288.664,44.615 288.39,44.611 L288.154,44.533 C288.056,44.471 287.957,44.413 287.861,44.349 L287.848,44.37 L287.863,44.35 L287.644,44.187 L287.623,44.172 L287.57,44.247 L287.56,44.261 L287.569,44.275 C287.571,44.276 288.249,45.368 289.222,45.371 L289.445,45.352 L289.448,45.351 L289.451,45.35 C289.451,45.35 289.676,45.253 290.001,45.254 C290.326,45.254 290.747,45.35 291.137,45.74 L291.175,45.708 C290.337,44.593 289.484,44.471 289.48,44.47 L289.476,44.495 L289.487,44.518 L289.476,44.495" fill="#FFFFFE"/>
      <path d="M290.109,48.338 C290.999,48.326 290.753,47.131 290.753,47.131 C290.729,46.194 289.652,45.784 289.652,45.784 C289.02,47.342 290.109,48.338 290.109,48.338 z M287.59,44.262 C287.59,44.262 288.375,45.515 289.441,45.327 C289.441,45.327 290.364,44.933 291.155,45.723 C291.436,46.096 291.714,46.581 291.959,47.213 C291.959,47.213 292.78,49.626 291.924,50.716 C291.924,50.716 291.801,50.959 291.595,51.271 C291.335,51.012 290.761,51.043 290.426,50.935 C290.022,50.804 289.663,50.564 289.345,50.288 C289.005,49.994 288.708,49.653 288.424,49.307 C287.957,48.736 287.612,48.146 287.197,47.54 C286.932,47.152 286.61,46.813 286.25,46.51 C285.89,46.205 285.489,45.922 285.054,45.731 C285.6,45.076 286.405,44.506 287.59,44.262" fill="#000000"/>
      <path d="M290.109,48.338 L290.109,48.363 C290.703,48.355 290.811,47.834 290.809,47.478 C290.809,47.28 290.778,47.127 290.777,47.126 L290.753,47.131 L290.778,47.131 C290.751,46.172 289.662,45.762 289.661,45.76 L289.638,45.752 L289.629,45.774 C289.486,46.128 289.43,46.453 289.43,46.745 C289.43,47.751 290.09,48.355 290.092,48.357 L290.099,48.364 L290.109,48.363 L290.109,48.338 L290.126,48.32 C290.125,48.32 289.965,48.173 289.803,47.902 C289.641,47.631 289.48,47.237 289.48,46.745 C289.48,46.46 289.534,46.141 289.675,45.793 L289.652,45.784 L289.643,45.807 C289.645,45.808 290.708,46.216 290.728,47.132 L290.728,47.136 C290.729,47.137 290.759,47.285 290.759,47.478 C290.757,47.831 290.662,48.306 290.109,48.313 L290.109,48.338 L290.126,48.32 L290.109,48.338 z M287.59,44.262 L287.569,44.275 C287.571,44.276 288.249,45.368 289.222,45.371 L289.445,45.352 L289.448,45.351 L289.451,45.35 C289.451,45.35 289.676,45.253 290.001,45.254 C290.326,45.254 290.746,45.35 291.137,45.74 L291.144,45.748 L291.155,45.748 L291.155,45.723 L291.135,45.738 C291.414,46.109 291.692,46.592 291.936,47.222 L291.959,47.213 L291.936,47.221 C291.937,47.223 292.289,48.261 292.289,49.28 C292.289,49.811 292.193,50.334 291.905,50.7 L291.903,50.702 L291.902,50.705 C291.902,50.705 291.779,50.946 291.574,51.257 L291.595,51.271 L291.613,51.253 C291.338,50.983 290.761,51.019 290.433,50.911 C290.035,50.781 289.678,50.544 289.362,50.269 C289.023,49.977 288.727,49.637 288.443,49.291 C287.978,48.722 287.633,48.132 287.218,47.526 C286.951,47.135 286.627,46.795 286.267,46.491 C285.905,46.185 285.502,45.901 285.064,45.708 L285.054,45.731 L285.073,45.747 C285.616,45.096 286.415,44.53 287.595,44.286 L287.59,44.262 L287.569,44.275 L287.59,44.262 L287.585,44.237 C286.394,44.483 285.584,45.056 285.034,45.715 L285.013,45.741 L285.044,45.754 C285.476,45.944 285.875,46.225 286.234,46.529 C286.592,46.831 286.912,47.168 287.177,47.555 C287.591,48.159 287.936,48.75 288.404,49.322 C288.689,49.669 288.987,50.012 289.329,50.307 C289.648,50.584 290.01,50.826 290.418,50.958 C290.761,51.067 291.333,51.04 291.578,51.288 L291.599,51.31 L291.616,51.284 C291.822,50.972 291.946,50.728 291.947,50.727 L291.924,50.716 L291.944,50.731 C292.243,50.35 292.339,49.816 292.339,49.28 C292.339,48.25 291.983,47.207 291.983,47.205 L291.983,47.204 C291.737,46.57 291.457,46.083 291.175,45.708 L291.168,45.698 L291.155,45.698 L291.155,45.723 L291.172,45.705 C290.772,45.305 290.335,45.203 290.001,45.204 C289.666,45.204 289.433,45.303 289.431,45.304 L289.441,45.327 L289.437,45.302 L289.222,45.321 C288.289,45.324 287.613,44.247 287.612,44.248 L287.602,44.234 L287.585,44.237 L287.59,44.262" fill="#FFFFFE"/>
      <path d="M284.487,47.866 L284.499,47.823 L284.205,47.625 L284.169,47.65 L284.158,47.692 L284.452,47.892 L284.455,47.893 L284.487,47.866 z M284.583,47.576 L284.594,47.534 L284.301,47.334 L284.266,47.36 L284.254,47.402 L284.548,47.602 L284.551,47.604 L284.583,47.576 z M284.715,47.276 L284.726,47.233 L284.432,47.034 L284.397,47.06 L284.386,47.102 L284.679,47.301 L284.683,47.303 L284.715,47.276 z M284.864,46.979 L284.875,46.935 L284.583,46.737 L284.547,46.763 L284.536,46.806 L284.829,47.005 L284.833,47.006 L284.864,46.979 z M285.479,48.517 L285.467,48.459 L284.623,47.886 L284.566,47.897 L284.577,47.955 L285.42,48.527 L285.444,48.535 L285.479,48.517 z M285.584,48.212 L285.574,48.155 L284.73,47.581 L284.672,47.593 L284.683,47.65 L285.527,48.224 L285.55,48.23 L285.584,48.212 z M285.731,47.926 L285.72,47.869 L284.876,47.296 L284.819,47.307 L284.83,47.364 L285.674,47.937 L285.696,47.945 L285.731,47.926 z M285.851,47.671 L285.839,47.615 L284.995,47.041 L284.938,47.052 L284.949,47.11 L285.793,47.684 L285.816,47.691 L285.851,47.671 z M291.595,51.271 C291.201,51.871 290.506,52.725 289.805,52.602 C289.805,52.602 289.183,52.438 288.094,51.384 C287.497,50.837 286.818,50.362 286.104,49.978 L285.863,49.853 L285.824,49.834 C285.554,49.699 285.276,49.594 285.007,49.467 C284.913,49.422 284.821,49.375 284.73,49.322 L284.605,49.246 C284.449,49.145 284.293,49.046 284.136,48.946 L283.901,48.794 C283.901,48.794 283.929,47.081 285.054,45.731 C285.489,45.922 285.89,46.205 286.25,46.51 C286.61,46.813 286.932,47.152 287.197,47.54 C287.612,48.146 287.957,48.736 288.424,49.307 C288.708,49.653 289.005,49.994 289.345,50.288 C289.663,50.564 290.022,50.804 290.426,50.935 C290.761,51.043 291.335,51.012 291.595,51.271 z M284.505,48.208 L284.447,48.22 L284.458,48.278 L285.302,48.851 L285.325,48.858 L285.36,48.839 L285.349,48.782 L284.505,48.208 z M284.406,48.197 L284.417,48.155 L284.124,47.955 L284.088,47.982 L284.077,48.023 L284.371,48.224 L284.374,48.224 L284.406,48.197" fill="#000000"/>
      <path d="M284.487,47.866 L284.511,47.872 L284.523,47.829 L284.527,47.812 L284.219,47.604 L284.204,47.594 L284.155,47.63 L284.148,47.635 L284.134,47.686 L284.129,47.703 L284.438,47.912 L284.439,47.913 L284.442,47.914 L284.457,47.924 L284.503,47.885 L284.509,47.88 L284.511,47.872 L284.487,47.866 L284.471,47.847 L284.438,47.874 L284.455,47.893 L284.467,47.872 L284.466,47.87 L284.187,47.682 L284.191,47.665 L284.205,47.655 L284.47,47.833 L284.463,47.859 L284.487,47.866 L284.471,47.847 L284.487,47.866 z M284.583,47.576 L284.608,47.582 L284.618,47.54 L284.623,47.523 L284.315,47.313 L284.301,47.303 L284.251,47.34 L284.244,47.345 L284.23,47.395 L284.226,47.413 L284.534,47.622 L284.537,47.624 L284.553,47.635 L284.6,47.595 L284.606,47.59 L284.608,47.582 L284.583,47.576 L284.567,47.557 L284.535,47.584 L284.551,47.604 L284.565,47.583 L284.562,47.581 L284.283,47.391 L284.287,47.375 L284.302,47.365 L284.566,47.544 L284.559,47.57 L284.583,47.576 L284.567,47.557 L284.583,47.576 z M284.715,47.276 L284.74,47.282 L284.75,47.239 L284.755,47.222 L284.446,47.013 L284.431,47.004 L284.382,47.04 L284.375,47.045 L284.362,47.096 L284.358,47.113 L284.665,47.322 L284.668,47.324 L284.674,47.326 L284.688,47.331 L284.731,47.296 L284.738,47.29 L284.74,47.282 L284.715,47.276 L284.699,47.257 L284.667,47.283 L284.683,47.303 L284.692,47.279 L284.691,47.279 L284.415,47.091 L284.419,47.075 L284.433,47.065 L284.698,47.244 L284.691,47.27 L284.715,47.276 L284.699,47.257 L284.715,47.276 z M284.864,46.979 L284.888,46.985 L284.9,46.942 L284.904,46.925 L284.597,46.716 L284.583,46.706 L284.532,46.742 L284.525,46.748 L284.512,46.8 L284.508,46.816 L284.815,47.026 L284.819,47.028 L284.827,47.03 L284.84,47.033 L284.881,46.997 L284.886,46.992 L284.888,46.985 L284.864,46.979 L284.848,46.96 L284.817,46.987 L284.833,47.006 L284.839,46.982 L284.835,46.981 L284.829,47.005 L284.843,46.984 L284.565,46.795 L284.569,46.778 L284.583,46.767 L284.847,46.946 L284.84,46.972 L284.864,46.979 L284.848,46.96 L284.864,46.979 z M285.479,48.517 L285.503,48.512 L285.491,48.455 L285.489,48.445 L284.628,47.86 L284.561,47.873 L284.537,47.878 L284.552,47.959 L284.554,47.969 L285.409,48.55 L285.436,48.559 L285.446,48.561 L285.49,48.539 L285.507,48.531 L285.503,48.512 L285.479,48.517 L285.467,48.495 L285.442,48.508 L285.431,48.505 L284.599,47.94 L284.595,47.917 L284.618,47.913 L285.444,48.474 L285.454,48.522 L285.479,48.517 L285.467,48.495 L285.479,48.517 z M285.584,48.212 L285.609,48.207 L285.598,48.151 L285.596,48.14 L284.735,47.554 L284.643,47.573 L284.659,47.655 L284.661,47.665 L285.516,48.247 L285.543,48.254 L285.553,48.257 L285.596,48.234 L285.612,48.225 L285.609,48.207 L285.584,48.212 L285.573,48.19 L285.547,48.203 L285.538,48.201 L284.706,47.635 L284.701,47.612 L284.725,47.608 L285.551,48.17 L285.56,48.216 L285.584,48.212 L285.573,48.19 L285.584,48.212 z M285.731,47.926 L285.756,47.922 L285.745,47.865 L285.743,47.854 L284.882,47.269 L284.814,47.282 L284.789,47.287 L284.806,47.369 L284.807,47.379 L285.662,47.96 L285.688,47.968 L285.698,47.972 L285.743,47.948 L285.759,47.94 L285.756,47.922 L285.731,47.926 L285.719,47.904 L285.694,47.918 L285.685,47.914 L284.853,47.349 L284.848,47.327 L284.871,47.322 L285.698,47.884 L285.706,47.931 L285.731,47.926 L285.719,47.904 L285.731,47.926 z M285.851,47.671 L285.875,47.666 L285.863,47.609 L285.861,47.6 L285,47.014 L284.934,47.028 L284.909,47.033 L284.925,47.114 L284.927,47.125 L285.783,47.707 L285.809,47.715 L285.819,47.718 L285.863,47.693 L285.879,47.684 L285.875,47.666 L285.851,47.671 L285.839,47.65 L285.813,47.664 L285.804,47.661 L284.972,47.095 L284.968,47.072 L284.99,47.068 L285.817,47.63 L285.827,47.677 L285.851,47.671 L285.839,47.65 L285.851,47.671 z M291.595,51.271 L291.574,51.257 C291.208,51.817 290.576,52.592 289.943,52.589 L289.809,52.577 L289.805,52.602 L289.811,52.577 C289.811,52.577 289.66,52.538 289.37,52.366 C289.081,52.195 288.655,51.891 288.111,51.366 L288.111,51.365 C287.512,50.817 286.832,50.341 286.116,49.956 L285.875,49.83 L285.874,49.83 L285.834,49.811 C285.564,49.676 285.286,49.571 285.018,49.444 C284.924,49.399 284.833,49.353 284.743,49.301 L284.618,49.224 C284.462,49.124 284.306,49.025 284.15,48.925 L283.914,48.773 L283.901,48.794 L283.926,48.795 C283.926,48.792 283.955,47.088 285.073,45.747 L285.054,45.731 L285.044,45.754 C285.476,45.944 285.875,46.225 286.234,46.529 C286.592,46.831 286.912,47.168 287.177,47.555 C287.591,48.159 287.936,48.75 288.404,49.322 C288.689,49.669 288.987,50.012 289.329,50.307 C289.648,50.584 290.01,50.826 290.418,50.958 C290.761,51.067 291.333,51.04 291.578,51.288 L291.595,51.271 L291.574,51.257 L291.595,51.271 L291.613,51.253 C291.338,50.983 290.761,51.019 290.433,50.911 C290.035,50.781 289.678,50.544 289.362,50.269 C289.023,49.977 288.727,49.637 288.443,49.291 C287.978,48.722 287.633,48.132 287.218,47.526 C286.951,47.135 286.627,46.795 286.267,46.491 C285.905,46.185 285.502,45.901 285.064,45.708 L285.046,45.701 L285.034,45.715 C283.904,47.073 283.876,48.792 283.876,48.794 L283.876,48.808 L284.123,48.967 C284.28,49.067 284.435,49.166 284.591,49.267 L284.717,49.344 C284.809,49.397 284.902,49.444 284.997,49.489 C285.267,49.617 285.545,49.722 285.813,49.856 L285.852,49.875 L286.092,50 C286.805,50.383 287.481,50.857 288.077,51.402 L288.094,51.384 L288.076,51.402 C289.168,52.458 289.794,52.625 289.798,52.626 L289.8,52.626 L289.943,52.638 C290.616,52.635 291.245,51.846 291.616,51.284 L291.627,51.267 L291.613,51.253 L291.595,51.271 z M284.505,48.208 L284.5,48.184 L284.442,48.196 L284.418,48.201 L284.434,48.283 L284.436,48.293 L285.291,48.873 L285.317,48.882 L285.328,48.886 L285.372,48.861 L285.388,48.852 L285.373,48.777 L285.371,48.767 L284.51,48.182 L284.5,48.184 L284.505,48.208 L284.491,48.229 L285.326,48.797 L285.332,48.826 L285.323,48.831 L285.314,48.828 L284.481,48.263 L284.477,48.24 L284.51,48.233 L284.505,48.208 L284.491,48.229 L284.505,48.208 z M284.406,48.197 L284.43,48.203 L284.441,48.161 L284.445,48.145 L284.138,47.934 L284.123,47.924 L284.073,47.962 L284.066,47.967 L284.053,48.017 L284.048,48.034 L284.357,48.244 L284.361,48.247 L284.37,48.249 L284.382,48.25 L284.422,48.216 L284.428,48.211 L284.43,48.203 L284.406,48.197 L284.39,48.178 L284.358,48.205 L284.374,48.224 L284.378,48.199 L284.374,48.199 L284.371,48.224 L284.385,48.203 L284.106,48.013 L284.11,47.997 L284.125,47.986 L284.388,48.166 L284.382,48.191 L284.406,48.197 L284.39,48.178 L284.406,48.197" fill="#FFFFFE"/>
      <path d="M285.839,47.615 L285.851,47.671 L285.816,47.691 L285.793,47.684 L284.949,47.11 L284.938,47.052 L284.995,47.041 L285.839,47.615" fill="#0B0B0A"/>
      <path d="M285.72,47.869 L285.731,47.926 L285.696,47.945 L285.674,47.937 L284.83,47.364 L284.819,47.307 L284.876,47.296 L285.72,47.869" fill="#0B0B0A"/>
      <path d="M285.574,48.155 L285.584,48.212 L285.55,48.23 L285.527,48.224 L284.683,47.65 L284.672,47.593 L284.73,47.581 L285.574,48.155" fill="#0B0B0A"/>
      <path d="M285.467,48.459 L285.479,48.517 L285.444,48.535 L285.42,48.527 L284.577,47.955 L284.566,47.897 L284.623,47.886 L285.467,48.459" fill="#0B0B0A"/>
      <path d="M285.349,48.782 L285.36,48.839 L285.325,48.858 L285.302,48.851 L284.458,48.278 L284.447,48.22 L284.505,48.208 L285.349,48.782" fill="#0B0B0A"/>
      <path d="M284.875,46.935 L284.864,46.979 L284.833,47.006 L284.829,47.005 L284.536,46.806 L284.547,46.763 L284.583,46.737 L284.875,46.935" fill="#0B0B0A"/>
      <path d="M284.726,47.233 L284.715,47.276 L284.683,47.303 L284.679,47.301 L284.386,47.102 L284.397,47.06 L284.432,47.034 L284.726,47.233" fill="#0B0B0A"/>
      <path d="M284.594,47.534 L284.583,47.576 L284.551,47.604 L284.548,47.602 L284.254,47.402 L284.266,47.36 L284.301,47.334 L284.594,47.534" fill="#0B0B0A"/>
      <path d="M284.499,47.823 L284.487,47.866 L284.455,47.893 L284.452,47.892 L284.158,47.692 L284.169,47.65 L284.205,47.625 L284.499,47.823" fill="#0B0B0A"/>
      <path d="M284.417,48.155 L284.406,48.197 L284.374,48.224 L284.371,48.224 L284.077,48.023 L284.088,47.982 L284.124,47.955 L284.417,48.155" fill="#0B0B0A"/>
      <path d="M291.135,45.738 C291.414,46.109 291.692,46.592 291.936,47.222 L291.959,47.213 L291.936,47.221 C291.937,47.223 292.289,48.261 292.289,49.28 C292.289,49.811 292.193,50.334 291.905,50.7 L291.903,50.702 L291.902,50.705 C291.902,50.705 291.779,50.946 291.574,51.257 C291.208,51.817 290.576,52.592 289.943,52.589 L289.809,52.577 L289.805,52.602 L289.811,52.577 C289.811,52.577 289.66,52.538 289.37,52.366 C289.081,52.195 288.655,51.891 288.111,51.366 L288.111,51.365 C287.512,50.817 286.832,50.341 286.116,49.956 L285.875,49.83 L285.874,49.83 L285.834,49.811 C285.564,49.676 285.286,49.571 285.018,49.444 C284.924,49.399 284.833,49.353 284.743,49.301 L284.618,49.224 C284.462,49.124 284.306,49.025 284.15,48.925 L283.914,48.773 L283.901,48.794 L283.926,48.795 C283.926,48.792 283.955,47.088 285.073,45.747 C285.616,45.096 286.415,44.53 287.595,44.286 L287.605,44.284 L287.649,44.221 L288.055,43.655 L288.035,43.64 L288.035,43.665 C288.036,43.665 288.609,43.667 288.856,44.121 L288.878,44.109 L288.854,44.103 L288.819,44.256 L288.813,44.287 L288.844,44.287 C288.844,44.286 289.05,44.287 289.231,44.377 L289.247,44.385 L289.259,44.373 L289.472,44.257 L289.549,44.3 L289.57,44.286 L289.548,44.298 L289.56,44.35 L289.465,44.473 L289.393,44.509 L289.473,44.52 C289.473,44.52 289.679,44.548 289.991,44.715 C290.304,44.882 290.72,45.186 291.135,45.738 L291.175,45.708 C290.337,44.593 289.484,44.471 289.48,44.47 L289.476,44.495 L289.487,44.518 C289.582,44.471 289.611,44.402 289.61,44.35 L289.592,44.274 L289.591,44.273 L289.59,44.271 L289.472,44.207 C289.348,44.209 289.227,44.337 289.224,44.337 L289.242,44.355 L289.253,44.333 C289.059,44.236 288.846,44.237 288.844,44.237 L288.844,44.262 L288.868,44.267 L288.902,44.114 L288.904,44.105 L288.9,44.097 C288.632,43.613 288.037,43.616 288.035,43.615 L288.022,43.615 L287.609,44.192 L287.57,44.247 L287.59,44.262 L287.585,44.237 C286.394,44.483 285.584,45.056 285.034,45.715 C283.904,47.073 283.876,48.792 283.876,48.794 L283.876,48.808 L284.123,48.967 C284.28,49.067 284.435,49.166 284.591,49.267 L284.717,49.344 C284.809,49.397 284.902,49.444 284.997,49.489 C285.267,49.617 285.545,49.722 285.813,49.856 L285.852,49.875 L286.092,50 C286.805,50.383 287.481,50.857 288.077,51.402 L288.094,51.384 L288.076,51.402 C289.168,52.458 289.794,52.625 289.798,52.626 L289.8,52.626 L289.943,52.638 C290.616,52.635 291.245,51.846 291.616,51.284 C291.822,50.972 291.946,50.728 291.947,50.727 L291.924,50.716 L291.944,50.731 C292.243,50.35 292.339,49.816 292.339,49.28 C292.339,48.25 291.983,47.207 291.983,47.205 L291.983,47.204 C291.737,46.57 291.457,46.083 291.175,45.708 L291.135,45.738" fill="#FFFFFE"/>
      <path d="M289.652,45.784 L289.643,45.807 C289.645,45.808 290.708,46.216 290.728,47.132 L290.728,47.136 C290.729,47.137 290.759,47.285 290.759,47.478 C290.757,47.831 290.662,48.306 290.109,48.313 L290.109,48.338 L290.126,48.32 C290.125,48.32 289.965,48.173 289.803,47.902 C289.641,47.631 289.48,47.237 289.48,46.745 C289.48,46.46 289.534,46.141 289.675,45.793 L289.652,45.784 L289.643,45.807 L289.652,45.784 L289.629,45.774 C289.486,46.128 289.43,46.453 289.43,46.745 C289.43,47.751 290.09,48.355 290.092,48.357 L290.099,48.364 L290.109,48.363 C290.703,48.355 290.811,47.834 290.809,47.478 C290.809,47.28 290.778,47.127 290.777,47.126 L290.753,47.131 L290.778,47.131 C290.751,46.172 289.662,45.762 289.661,45.76 L289.638,45.752 L289.629,45.774 L289.652,45.784" fill="#FFFFFE"/>
      <path d="M287.569,44.275 C287.571,44.276 288.249,45.368 289.222,45.371 L289.445,45.352 L289.448,45.351 L289.451,45.35 C289.451,45.35 289.676,45.253 290.001,45.254 C290.326,45.254 290.746,45.35 291.137,45.74 L291.144,45.748 L291.155,45.748 L291.155,45.698 L291.155,45.723 L291.172,45.705 C290.772,45.305 290.335,45.203 290.001,45.204 C289.666,45.204 289.433,45.303 289.431,45.304 L289.441,45.327 L289.437,45.302 L289.222,45.321 C288.289,45.324 287.613,44.247 287.612,44.248 L287.569,44.275" fill="#FFFFFE"/>
      <path d="M288.821,44.252 C288.82,44.253 288.664,44.615 288.39,44.611 L288.154,44.533 C288.056,44.471 287.957,44.413 287.861,44.349 L287.848,44.37 L287.863,44.35 L287.644,44.187 L287.614,44.227 L287.833,44.39 L287.833,44.391 L287.834,44.391 C287.931,44.455 288.031,44.514 288.127,44.575 C288.222,44.636 288.31,44.661 288.39,44.661 C288.71,44.657 288.865,44.272 288.867,44.271 L288.821,44.252" fill="#FFFFFE"/>
      <path d="M285.044,45.754 C285.476,45.944 285.875,46.225 286.234,46.529 C286.592,46.831 286.912,47.168 287.177,47.555 C287.591,48.159 287.936,48.75 288.404,49.322 C288.689,49.669 288.987,50.012 289.329,50.307 C289.648,50.584 290.01,50.826 290.418,50.958 C290.761,51.067 291.333,51.04 291.578,51.288 L291.613,51.253 C291.338,50.983 290.761,51.019 290.433,50.911 C290.035,50.781 289.678,50.544 289.362,50.269 C289.023,49.977 288.727,49.637 288.443,49.291 C287.978,48.722 287.633,48.132 287.218,47.526 C286.951,47.135 286.627,46.795 286.267,46.491 C285.905,46.185 285.502,45.901 285.064,45.708 L285.044,45.754" fill="#FFFFFE"/>
      <path d="M286.084,49.963 L284.435,52.22 L284.572,52.313 L284.26,52.82 L284.247,52.842 L284.268,52.855 L284.379,52.935 L284.485,53.089 L284.48,53.112 L284.48,53.113 C284.48,53.114 284.392,53.382 284.249,53.726 C284.087,54.119 283.855,54.609 283.605,54.91 L283.625,54.926 L283.607,54.909 C283.606,54.909 283.268,55.252 283.028,55.472 C282.929,55.565 282.841,55.637 282.816,55.646 L282.801,55.652 L282.801,55.671 C282.802,55.711 282.789,56.198 282.428,56.224 L282.404,56.225 L282.141,56.169 C281.91,56.107 281.702,56.002 281.517,55.85 C281.386,55.741 281.266,55.609 281.142,55.487 C281.051,55.399 280.933,55.289 280.92,55.171 L280.896,55.174 L280.918,55.184 L281.012,54.977 L281.018,54.963 L281.009,54.951 C281.004,54.95 280.85,54.734 280.73,54.726 L280.73,54.751 L280.735,54.727 C280.734,54.727 280.513,54.686 280.33,54.403 L280.328,54.401 L280.326,54.399 C280.325,54.398 280.122,54.208 280.124,54.005 L280.221,53.78 L280.203,53.762 L280.22,53.78 C280.221,53.778 281.594,52.488 281.821,51.99 C281.821,51.989 281.905,51.8 282.032,51.61 C282.158,51.42 282.329,51.236 282.48,51.238 L282.597,51.275 L282.61,51.254 L282.595,51.274 L282.876,51.49 L282.894,51.503 L283.333,51.038 L283.444,51.085 L283.463,51.093 L284.75,49.337 L284.71,49.307 L283.446,51.031 L283.336,50.985 L283.32,50.979 L282.889,51.436 L282.626,51.234 L282.624,51.234 L282.48,51.188 C282.107,51.198 281.78,51.969 281.775,51.969 C281.669,52.205 281.271,52.653 280.9,53.036 C280.529,53.421 280.187,53.743 280.186,53.744 L280.185,53.745 L280.074,54.005 C280.076,54.24 280.291,54.433 280.292,54.435 L280.309,54.417 L280.288,54.431 C280.481,54.728 280.721,54.775 280.725,54.776 L280.73,54.776 L280.876,54.876 L280.969,54.982 L280.989,54.966 L280.966,54.956 L280.873,55.164 L280.87,55.17 L280.871,55.177 C280.889,55.323 281.018,55.435 281.107,55.523 C281.229,55.644 281.35,55.776 281.486,55.888 C281.675,56.046 281.891,56.153 282.128,56.217 C282.206,56.238 282.309,56.275 282.404,56.275 L282.432,56.274 C282.848,56.233 282.85,55.711 282.851,55.671 L282.851,55.669 L282.826,55.669 L282.836,55.692 C282.878,55.673 282.959,55.603 283.062,55.509 C283.304,55.287 283.642,54.944 283.642,54.944 L283.643,54.943 L283.644,54.942 C283.9,54.632 284.132,54.14 284.296,53.745 C284.439,53.4 284.528,53.129 284.528,53.129 L284.504,53.121 L284.527,53.13 L284.535,53.089 C284.528,52.941 284.294,52.816 284.294,52.812 L284.281,52.833 L284.303,52.847 L284.627,52.319 L284.64,52.299 L284.506,52.208 L286.124,49.993 L286.084,49.963" fill="#0B0B0A"/>
      <path d="M284.987,49.452 L283.68,51.244 L283.791,51.354 L283.477,51.802 L283.472,51.81 L283.495,51.995 L283.496,52.006 L283.826,52.237 L283.845,52.251 L284.079,51.959 L284.241,52.054 L284.26,52.065 L285.883,49.867 L285.843,49.838 L284.247,51.999 L284.086,51.905 L284.067,51.894 L283.835,52.183 L283.543,51.978 L283.524,51.823 L283.856,51.348 L283.746,51.239 L285.027,49.482 L284.987,49.452" fill="#FFFFFE"/>
      <path d="M283.759,52.273 L283.737,52.262 L283.668,52.391 L283.69,52.403 L283.707,52.385 C283.705,52.384 283.538,52.222 283.359,52.221 L283.31,52.225 L283.314,52.25 L283.338,52.26 L283.414,52.076 L283.746,52.294 L283.759,52.273 L283.737,52.262 L283.759,52.273 L283.773,52.253 L283.416,52.018 L283.391,52.002 L283.291,52.24 L283.273,52.284 L283.319,52.275 L283.359,52.271 C283.507,52.269 283.672,52.421 283.673,52.421 L283.697,52.443 L283.781,52.285 L283.792,52.265 L283.773,52.253 L283.759,52.273" fill="#FFFFFE"/>
      <path d="M284.236,53.721 L284.26,53.73 L284.293,53.646 C284.334,53.537 284.37,53.42 284.37,53.299 L284.37,53.25 L284.162,53.401 L284.161,53.402 L284.16,53.403 C283.928,53.61 283.738,53.885 283.553,54.129 C283.345,54.404 283.148,54.697 283.001,55.01 C282.922,55.178 282.822,55.328 282.793,55.521 L282.79,55.556 L282.844,55.626 L283.033,55.5 C283.214,55.329 283.462,55.026 283.574,54.915 C283.75,54.739 283.832,54.492 283.959,54.292 C284.071,54.114 284.178,53.928 284.259,53.731 L284.236,53.721 L284.213,53.712 C284.134,53.904 284.028,54.089 283.916,54.265 C283.786,54.472 283.704,54.715 283.538,54.879 C283.423,54.995 283.176,55.297 282.999,55.464 L282.844,55.576 L282.84,55.556 L282.843,55.529 C282.869,55.349 282.964,55.203 283.046,55.032 C283.191,54.723 283.386,54.433 283.593,54.159 C283.779,53.914 283.967,53.641 284.193,53.44 L284.177,53.421 L284.191,53.442 L284.359,53.319 L284.345,53.299 L284.32,53.299 C284.32,53.409 284.286,53.521 284.246,53.628 L284.213,53.712 L284.236,53.721" fill="#0B0B0A"/>
      <path d="M284.222,52.988 L284.219,53.013 C284.219,53.015 284.303,53.021 284.303,53.124 L284.298,53.171 L284.322,53.176 L284.305,53.158 C284.304,53.159 283.165,54.197 282.734,55.57 L282.758,55.577 L282.745,55.556 C282.743,55.558 282.261,55.86 282.163,56.021 L282.184,56.034 L282.188,56.01 C282.186,56.01 281.695,55.923 281.58,55.677 L281.558,55.688 L281.581,55.678 C281.58,55.678 281.441,55.344 281.442,55.202 L281.417,55.202 L281.402,55.222 C281.404,55.223 281.559,55.338 281.746,55.339 C281.865,55.339 281.998,55.289 282.099,55.134 L282.1,55.133 L282.101,55.131 C282.102,55.128 282.966,53.401 283.654,52.713 L283.637,52.696 L283.618,52.713 C283.621,52.714 283.896,53.012 284.222,53.013 L284.222,52.988 L284.219,53.013 L284.222,52.988 L284.222,52.963 C283.927,52.965 283.656,52.678 283.655,52.679 L283.637,52.66 L283.619,52.678 C282.92,53.378 282.057,55.108 282.056,55.109 L282.079,55.12 L282.058,55.106 C281.963,55.248 281.852,55.288 281.746,55.289 C281.58,55.289 281.433,55.181 281.432,55.182 L281.392,55.153 L281.392,55.202 C281.393,55.366 281.534,55.696 281.535,55.698 L281.535,55.699 C281.676,55.981 282.178,56.056 282.18,56.059 L282.197,56.062 L282.206,56.047 C282.285,55.91 282.772,55.599 282.772,55.598 L282.779,55.593 L282.782,55.585 C283.207,54.229 284.339,53.198 284.339,53.195 L284.345,53.189 L284.347,53.181 L284.353,53.124 C284.353,52.983 284.228,52.964 284.225,52.964 L284.222,52.963 L284.222,52.988" fill="#0B0B0A"/>
      <path d="M282.705,55.759 L282.691,55.738 L282.269,56.031 L282.258,56.038 L282.258,56.051 L282.291,56.135 L282.367,56.159 L282.565,56.101 L282.568,56.099 L282.681,56.009 L282.688,56.003 L282.73,55.763 L282.74,55.704 L282.691,55.738 L282.705,55.759 L282.68,55.755 L282.642,55.976 L282.539,56.059 L282.555,56.078 L282.544,56.056 L282.367,56.109 L282.308,56.051 L282.283,56.051 L282.297,56.072 L282.719,55.779 L282.705,55.759 L282.68,55.755 L282.705,55.759" fill="#FFFFFE"/>
      <path d="M282.705,55.734 L282.706,55.734 L282.706,55.784 L282.705,55.784 z" fill="#FFFFFE"/>
      <path d="M281.592,54.658 L281.568,54.65 L281.435,55.084 L281.429,55.102 L281.444,55.112 C281.447,55.112 281.643,55.25 281.808,55.251 L281.924,55.216 L281.928,55.213 L281.93,55.209 C281.932,55.206 283.118,53.188 283.591,52.582 L283.595,52.577 L283.596,52.571 L283.598,52.552 L283.561,52.454 C283.529,52.418 283.472,52.392 283.38,52.392 L283.319,52.396 L283.304,52.397 L283.298,52.411 C283.298,52.413 282.672,53.87 281.578,54.637 L281.571,54.642 L281.568,54.65 L281.592,54.658 L281.607,54.678 C282.716,53.898 283.343,52.432 283.344,52.43 L283.321,52.42 L283.324,52.445 L283.38,52.442 C283.545,52.446 283.544,52.522 283.548,52.552 L283.547,52.563 L283.572,52.567 L283.552,52.552 C283.074,53.164 281.888,55.183 281.887,55.184 L281.909,55.196 L281.894,55.176 L281.808,55.201 C281.67,55.202 281.473,55.07 281.473,55.071 L281.458,55.091 L281.482,55.099 L281.616,54.665 L281.592,54.658 L281.607,54.678 L281.592,54.658" fill="#0B0B0A"/>
      <path d="M281.745,54.271 L281.722,54.261 L281.64,54.442 L281.608,54.513 L281.676,54.474 C281.677,54.472 282.112,54.223 282.222,53.925 L282.178,53.902 C282.178,53.902 282.075,54.046 281.732,54.25 L281.726,54.254 L281.722,54.261 L281.745,54.271 L281.758,54.293 C282.106,54.086 282.217,53.934 282.219,53.931 L282.199,53.917 L282.175,53.908 C282.08,54.177 281.65,54.43 281.651,54.43 L281.663,54.452 L281.686,54.462 L281.768,54.282 L281.745,54.271 L281.758,54.293 L281.745,54.271" fill="#0B0B0A"/>
      <path d="M281.834,54.083 L281.848,54.104 C281.894,54.073 282.863,53.466 283.04,52.725 L283.058,52.651 L282.805,52.864 L282.805,52.865 C282.657,52.997 282.515,53.137 282.385,53.287 C282.268,53.42 282.16,53.56 282.054,53.701 L281.912,53.902 L281.912,53.903 L281.813,54.07 L281.848,54.104 L281.834,54.083 L281.856,54.096 L281.954,53.93 L282.095,53.731 L282.074,53.716 L282.094,53.731 C282.2,53.591 282.307,53.451 282.423,53.32 C282.551,53.172 282.692,53.034 282.838,52.902 L282.821,52.883 L282.837,52.902 L283.032,52.738 L283.016,52.719 L282.992,52.713 C282.826,53.423 281.866,54.034 281.821,54.062 L281.834,54.083 L281.856,54.096 L281.834,54.083" fill="#0B0B0A"/>
      <path d="M281.833,54.058 L281.834,54.058 L281.834,54.108 L281.833,54.108 z" fill="#0B0B0A"/>
      <path d="M283.238,52.034 L283.215,52.026 L283.045,52.493 L283.069,52.502 L283.054,52.482 C283.052,52.483 282.136,53.188 281.6,54.236 L281.622,54.247 L281.606,54.229 C281.606,54.229 281.238,54.541 280.911,54.574 L280.914,54.599 L280.938,54.603 C280.937,54.601 281.204,53.101 281.965,52.51 L281.966,52.509 L282.813,51.755 L283.224,52.054 L283.238,52.034 L283.215,52.026 L283.238,52.034 L283.253,52.014 L282.826,51.702 L282.809,51.69 L281.933,52.471 L281.95,52.49 L281.934,52.471 C281.15,53.085 280.89,54.593 280.889,54.595 L280.883,54.627 L280.916,54.624 C281.267,54.586 281.636,54.267 281.638,54.267 L281.642,54.263 L281.644,54.259 C282.174,53.222 283.084,52.524 283.084,52.522 L283.09,52.517 L283.262,52.043 L283.268,52.025 L283.253,52.014 L283.238,52.034" fill="#0B0B0A"/>
      <path d="M280.937,54.704 L280.916,54.717 L281.045,54.923 L281.058,54.945 L281.565,54.614 L281.575,54.607 L281.6,54.379 L281.607,54.314 L281.558,54.358 C281.558,54.359 281.215,54.667 280.936,54.679 L280.893,54.681 L280.916,54.717 L280.937,54.704 L280.938,54.729 C281.248,54.711 281.59,54.396 281.592,54.395 L281.575,54.376 L281.55,54.374 L281.528,54.578 L281.074,54.875 L280.958,54.691 L280.937,54.704 L280.938,54.729 L280.937,54.704" fill="#0B0B0A"/>
      <path d="M280.785,54.664 L280.81,54.669 C280.808,54.667 281.188,52.954 281.865,52.476 L281.866,52.475 L282.802,51.622 L282.789,51.504 L282.788,51.493 L282.514,51.304 L282.508,51.3 L282.358,51.3 L282.351,51.312 C282.35,51.313 281.7,52.366 281.283,52.783 C281.281,52.785 280.272,53.79 280.177,53.941 L280.175,53.945 L280.174,53.95 L280.172,53.981 C280.171,54.075 280.224,54.37 280.773,54.686 L280.802,54.703 L280.81,54.669 L280.785,54.664 L280.798,54.642 C280.259,54.331 280.223,54.056 280.222,53.981 L280.223,53.959 L280.199,53.955 L280.22,53.968 C280.302,53.833 281.317,52.82 281.318,52.818 C281.743,52.392 282.393,51.339 282.393,51.338 L282.372,51.325 L282.372,51.35 L282.492,51.35 L282.741,51.521 L282.75,51.602 L281.834,52.437 L281.851,52.456 L281.836,52.435 C281.131,52.94 280.763,54.657 280.761,54.659 L280.785,54.664 L280.798,54.642 L280.785,54.664" fill="#0B0B0A"/>
    </g>
  </g>
</svg>
