<?xml version="1.0" encoding="UTF-8"?>
<!DOCTYPE svg PUBLIC "-//W3C//DTD SVG 1.1//EN" "http://www.w3.org/Graphics/SVG/1.1/DTD/svg11.dtd">
<svg version="1.1" xmlns="http://www.w3.org/2000/svg" xmlns:xlink="http://www.w3.org/1999/xlink" x="0" y="0" width="29.743" height="16.563" viewBox="0, 0, 29.743, 16.563">
  <g id="Layer_1" transform="translate(-347.939, -331.402)">
    <path d="M350.543,344.739 C350.543,344.739 350.654,344.76 350.62,344.623 C350.62,344.623 350.53,344.554 350.455,344.664 C350.455,344.664 350.393,344.773 350.543,344.739 z M352.313,341.813 L351.132,341.027 C349.12,342.865 350.083,344.352 350.083,344.352 C350.345,344.745 351.045,344.002 351.045,344.002 C350.652,342.427 352.313,341.813 352.313,341.813 z M354.982,345.401 C354.982,345.401 354.851,344.439 353.932,344.877 C353.932,344.877 352.402,345.709 351.307,344.57 C351.307,344.57 350.564,344.789 350.52,345.271 C350.52,345.271 352.665,347.501 354.982,345.401 z M355.039,344.842 C355.039,344.842 355.08,344.636 354.846,344.719 C354.846,344.719 354.901,344.87 355.039,344.842 z M355.42,344.527 C355.42,344.527 355.77,344.176 355.638,343.477 L354.283,343.827 C354.283,343.827 354.5,344.613 355.42,344.527 z M354.938,338.27 L355.901,337.659 L355.463,337.352 L354.938,338.27 z M357.213,344.265 L357.607,344.046 L357.213,343.87 L357.213,344.265 z M358,339.321 L358.919,339.452 L356.294,337.789 L354.72,338.841 C354.72,338.841 357.169,339.934 357.52,340.151 L358.613,340.415 L358.744,340.02 C358.744,340.02 358.044,340.283 358,339.321 z M370.946,345.063 C371.09,345.056 371.139,344.966 371.139,344.966 C370.909,344.918 370.946,345.063 370.946,345.063 z M371.621,342.077 L371.343,341.465 C371.343,341.465 369.724,342.602 370.555,344.745 C370.555,344.745 370.861,344.834 371.167,344.613 L371.036,344.265 C371.036,344.265 370.512,344.352 370.73,343.564 C370.73,343.564 370.512,342.472 371.125,342.472 C371.125,342.472 370.806,341.42 371.621,342.077 z M371.621,335.166 L371.255,334.771 L371.605,334.246 C371.605,334.246 372.042,334.072 371.081,333.809 L370.424,333.503 L370.336,333.809 L370.031,333.722 L370.25,334.334 C370.25,334.334 371.167,333.722 371.037,334.64 L370.512,335.777 L371.621,335.166 z M372.043,336.041 L371.868,335.778 L371.43,336.215 L372.043,336.041 z M372.227,344.794 L372.243,344.836 L372.311,344.936 C372.374,345.009 372.469,345.088 372.571,345.09 L372.673,345.065 L372.777,344.972 L372.702,344.889 C372.638,344.809 372.548,344.757 372.445,344.745 L372.258,344.771 L372.227,344.794 z M374.043,345.012 L374.039,345.002 L373.961,344.979 L373.833,344.962 C373.713,344.953 373.591,344.96 373.48,345.009 L373.324,345.085 L373.295,345.168 L373.398,345.214 C373.524,345.262 373.65,345.255 373.771,345.196 L373.909,345.114 L373.996,345.061 L374.043,345.012 z M373.926,342.641 L374.026,342.625 L374.12,342.602 L374.261,342.528 L374.354,342.373 L374.362,342.34 C374.261,342.172 374.04,342.149 373.866,342.124 L373.805,342.123 L373.824,342.24 C373.852,342.341 373.874,342.445 373.899,342.546 L373.918,342.636 L373.926,342.641 z M374.973,343.477 L374.934,343.221 L374.833,342.977 L374.789,342.922 L374.741,342.968 L374.69,343.017 L374.515,343.231 L374.515,343.406 L374.673,343.475 L374.868,343.485 L374.973,343.477 z M375.455,345.62 C375.455,345.62 375.761,345.357 375.237,344.966 C375.237,344.966 373.443,347.458 371.343,345.008 C371.343,345.008 370.512,345.357 371.387,345.883 C371.387,345.883 373.487,347.458 375.455,345.62 z M375.624,344.978 C375.624,344.978 375.713,344.822 375.418,344.876 C375.418,344.876 375.472,344.978 375.624,344.978 z M375.98,344.745 C376.549,343.433 375.849,342.296 375.849,342.296 C374.624,340.458 373.575,340.896 373.575,340.896 C373.399,341.246 373.706,341.333 373.706,341.333 C376.33,342.472 375.455,344.527 375.455,344.527 C375.717,344.877 375.98,344.745 375.98,344.745 z M369.058,342.192 C368.681,343.088 368.441,343.999 368.447,344.977 C368.458,345.931 368.544,346.098 367.562,346.016 C366.728,345.946 365.868,345.978 365.031,345.946 C363.108,345.877 361.183,345.841 359.261,345.786 C358.978,345.778 358.208,345.908 357.958,345.751 L356.907,345.096 C356.601,346.452 355.113,347.283 355.113,347.283 C353.24,348.473 350.589,348.05 349.236,346.336 C347.976,344.741 347.903,342.443 349.01,340.75 C349.268,340.356 349.578,340.039 349.951,339.758 L350.301,338.358 L351.745,338.27 L352.489,338.884 C352.926,338.796 353.669,338.928 353.669,338.928 L353.189,338.403 C352.795,337.833 353.102,337.747 353.102,337.747 C353.32,337.789 353.844,338.577 353.844,338.577 L354.123,338.358 C353.7,337.395 354.37,338.141 354.37,338.141 L355.113,337.178 L351.439,335.121 C349.689,335.559 348.159,338.841 348.159,338.841 L347.939,338.62 L349.25,336.128 C349.733,335.209 348.507,335.383 348.507,335.383 L348.507,334.859 C349.602,334.859 350.301,334.51 350.301,334.51 C349.165,334.027 348.902,333.152 348.902,333.152 L352.402,333.196 C354.851,333.284 354.895,335.427 354.895,335.427 C355.667,335.253 355.726,335.472 355.726,335.472 C357.958,336.171 360.188,336.128 360.188,336.128 C360.319,334.378 362.594,333.679 362.594,333.679 C364.167,333.196 368.15,335.166 368.15,335.166 L368.543,335.034 C368.15,334.422 368.849,334.378 368.849,334.378 C368.849,333.679 369.2,334.202 369.2,334.202 C370.118,334.597 369.636,333.765 369.636,333.765 C369.549,332.992 369.724,332.978 369.724,332.978 L369.244,332.365 L370.03,331.402 L370.993,332.016 C371.167,331.358 371.605,331.752 371.605,331.752 C373.18,332.147 372.218,332.804 372.218,332.804 L372.48,333.284 L373.092,334.072 C374.449,334.945 375.237,336.652 375.237,336.652 C375.761,338.009 375.324,338.228 375.324,338.228 L374.536,338.183 C374.362,338.49 373.487,339.058 373.487,339.058 C375.149,339.278 375.805,339.89 375.805,339.89 L375.28,339.846 C375.748,339.885 376.603,340.971 376.865,341.323 C377.322,341.936 377.622,342.669 377.673,343.436 C377.879,346.449 374.5,348.694 371.768,347.744 C369.438,346.935 368.537,344.485 369.058,342.192" fill="#000000"/>
  </g>
</svg>
