<?xml version="1.0" encoding="UTF-8"?>
<!DOCTYPE svg PUBLIC "-//W3C//DTD SVG 1.1//EN" "http://www.w3.org/Graphics/SVG/1.1/DTD/svg11.dtd">
<svg version="1.1" xmlns="http://www.w3.org/2000/svg" xmlns:xlink="http://www.w3.org/1999/xlink" x="0" y="0" width="25.24" height="17.9" viewBox="0, 0, 25.24, 17.9">
  <g id="Layer_1" transform="translate(-321.202, -353.056)">
    <path d="M323.176,368.712 C323.503,369.125 323.374,368.624 323.374,368.624 C323.088,368.406 322.958,367.664 322.958,367.664 C322.762,368.101 323.176,368.712 323.176,368.712 z M324.027,366.574 C324.027,366.182 323.765,366.399 323.765,366.399 C323.394,366.618 323.132,366.988 323.132,366.988 C322.98,367.25 323.22,367.206 323.22,367.206 C323.351,366.901 324.027,366.574 324.027,366.574 z M325.051,369.082 C325.051,369.082 325.074,368.864 324.833,368.864 C324.833,368.864 324.616,369.039 324.027,368.995 C324.027,368.995 323.874,369.06 323.895,369.191 C323.895,369.191 324.67,369.465 325.051,369.082 z M325.531,367.01 C325.531,367.01 325.64,366.924 325.465,366.684 C325.465,366.684 325.204,366.684 325.204,366.901 C325.204,366.901 325.248,367.142 325.531,367.01 z M325.64,368.537 C325.64,368.537 325.836,368.385 325.4,368.406 C325.4,368.406 325.378,368.754 325.64,368.537 z M325.356,364.677 C327.711,365.135 327.625,367.927 327.625,367.927 C326.85,371.687 323.449,370.805 323.449,370.805 C320.822,369.877 321.224,367.414 321.224,367.414 C321.813,363.969 325.356,364.677 325.356,364.677" fill="#000000"/>
    <path d="M342.495,369.213 C342.495,369.213 343.368,369.039 343.213,368.712 L342.931,368.537 C342.931,368.537 342.539,368.668 342.364,368.799 C342.364,368.799 341.864,369.431 342.495,369.213 z M343.694,368.362 C343.957,367.73 343.694,367.228 343.694,367.228 C343.171,367.425 343.257,367.686 343.257,367.686 C343.368,367.948 343.257,368.101 343.257,368.101 L343.694,368.362 z M345.985,364.852 C346.463,365.638 346.442,365.899 346.442,365.899 C345.527,365.287 344.261,362.955 344.261,362.955 C344.13,362.584 343.934,362.629 343.934,362.629 C343.694,362.629 343.651,362.519 343.651,362.519 C343.651,362.301 343.476,362.236 343.476,362.236 L341.797,363.172 C341.644,363.02 341.165,363.172 341.165,363.172 C340.577,363.457 341.317,364.11 341.317,364.11 C343.803,363.957 344.13,364.416 344.13,364.416 C343.607,364.416 343.607,364.787 343.607,364.787 C344.218,365.069 345.069,366.071 345.069,366.071 C346.573,368.296 344.676,370.085 344.676,370.085 C343.377,371.382 341.295,370.847 341.295,370.847 C339.705,370.325 339.27,368.962 339.27,368.962 C339.163,368.644 339.003,368.791 339.003,368.791 C338.908,368.888 338.802,368.865 338.802,368.865 C338.62,368.812 338.502,368.865 338.502,368.865 C337.907,369.027 337.204,368.877 337.204,368.877 C337.096,368.77 337.065,368.738 337.065,368.738 C336.565,368.738 336.32,368.345 336.32,368.345 C335.596,368.153 332.23,368.057 332.23,368.057 C331.528,368.153 328.887,367.909 328.887,367.909 L327.625,367.927 C327.625,367.927 327.711,365.135 325.356,364.677 C325.476,364.558 325.422,364.459 325.422,364.459 C324.463,364.022 322.414,364.175 322.414,364.175 C322.021,364.219 322.021,364.067 322.021,364.067 C323.242,363.325 325.03,363.325 325.03,363.325 C324.768,362.977 324.332,362.933 324.332,362.933 C323.831,362.824 323.677,362.955 323.677,362.955 C323.394,363.238 323.374,363.062 323.374,363.062 C324.549,359.793 326.926,358.941 326.926,358.941 C327.581,358.18 328.148,358.07 328.148,358.07 C328.454,358.289 329.019,358.419 329.019,358.419 L329.019,358.311 L328.693,358.135 L328.693,357.874 L327.885,357.699 C327.929,356.763 329.63,355.476 329.63,355.476 L329.804,355.998 L330.131,356.02 L330.331,355.322 C330.439,355.056 330.68,354.811 330.85,354.582 L331.026,354.342 C331.266,353.165 331.875,353.056 331.875,353.056 C331.987,353.863 331.659,354.275 331.659,354.275 C331.898,354.756 331.79,355.018 331.79,355.018 C331.593,355.302 331.004,355.214 331.004,355.214 C330.481,356.02 330.763,356.349 330.763,356.349 C331.353,356.261 331.048,356.719 331.048,356.719 C330.895,356.784 330.808,356.936 330.808,356.936 C331.266,357.11 331.462,357.351 331.462,357.351 C331.528,357.743 331.026,357.547 331.026,357.547 C330.198,359.117 330.262,358.899 330.262,358.899 L329.848,358.703 L329.762,358.811 L330.099,358.966 L330.099,359.171 C330.099,359.276 330.141,359.354 330.226,359.414 C330.341,359.496 330.38,359.561 330.284,359.686 L330.1,359.867 L329.87,360.012 L328.714,361.952 C328.169,363.02 329.673,365.68 329.673,365.68 C330.5,365.68 331.29,365.449 332.055,365.159 C332.391,365.03 332.699,364.86 333.022,364.703 C333.268,364.584 333.476,364.433 333.709,364.295 L333.974,364.186 C334.064,364.088 333.942,363.934 333.903,363.84 C333.846,363.709 333.81,363.569 333.761,363.436 C333.642,363.114 333.536,362.787 333.431,362.461 C333.394,362.345 333.34,362.23 333.313,362.11 C333.289,362.005 333.294,361.895 333.272,361.788 L333.141,361.538 C332.53,361.538 332.878,360.773 332.878,360.773 C333.403,359.705 334.645,359.882 334.645,359.882 C338.396,360.12 341.688,358.986 341.688,358.986 C343.28,358.419 343.171,359.117 343.171,359.117 C344.284,358.528 345.657,359.029 345.657,359.029 C344.516,359.221 343.477,359.635 343.415,359.66 C344.307,359.379 345.46,359.661 345.46,359.661 C345.46,360.054 345.199,360.338 345.199,360.338 C345.569,360.208 345.701,360.84 345.701,360.84 L345.438,361.102 C345.286,361.254 344.676,361.342 344.676,361.342 C344.382,361.636 344.806,361.472 344.806,361.472 C345.036,361.701 345.591,362.714 345.591,362.714 L345.024,362.714 C344.806,362.714 345.024,363.238 345.024,363.238 C345.134,363.675 345.678,364.307 345.678,364.307 L345.985,364.307 L345.985,364.852" fill="#000000"/>
  </g>
</svg>
