<?xml version="1.0" encoding="UTF-8"?>
<!DOCTYPE svg PUBLIC "-//W3C//DTD SVG 1.1//EN" "http://www.w3.org/Graphics/SVG/1.1/DTD/svg11.dtd">
<svg version="1.1" xmlns="http://www.w3.org/2000/svg" xmlns:xlink="http://www.w3.org/1999/xlink" x="0" y="0" width="16.436" height="27.726" viewBox="0, 0, 16.436, 27.726">
  <g id="Layer_1" transform="translate(-418.581, -270.773)">
    <path d="M421.912,283.147 C422.226,282.947 421.706,282.417 421.706,282.417 C421.465,282.243 420.772,280.061 420.772,280.061 L420.044,280.035 C419.83,281.728 421.044,282.649 421.044,282.649 C421.573,283.205 421.912,283.147 421.912,283.147 z M432.993,281.408 C432.993,281.408 433.923,280.406 433.965,278.904 C433.965,278.904 432.617,278.364 431.583,278.707 L432.019,281.264 C432.019,281.264 432.599,281.632 432.993,281.408 z M435.017,278.898 C435.017,278.898 434.454,280.616 434.213,280.839 C434.213,280.839 433.121,282.042 433.136,283.09 C433.136,283.09 434.504,283.398 434.248,284.841 C434.248,284.841 433.907,286.043 431.616,286.353 C431.616,286.353 428.829,287.091 427.958,287.125 L428.368,292.74 C428.368,292.74 433.325,291.486 433.513,291.899 C433.513,291.899 433.717,292.465 433.546,292.74 C433.546,292.74 434.043,293.152 433.923,293.667 C433.923,293.667 433.855,294.046 433.598,293.873 L433.24,293.873 C433.24,293.873 432.949,294.304 432.794,293.891 C432.794,293.891 432.539,293.461 432.76,292.912 L429.803,293.719 C429.803,293.719 433.736,294.44 433.478,295.711 C433.478,295.711 433.461,295.934 433.307,296.141 C433.307,296.141 433.615,297.153 433.393,297.429 C433.393,297.429 433.017,297.893 432.846,297.291 L432.436,297.309 C432.436,297.309 432.299,297.926 432.042,297.377 C432.042,297.377 431.769,296.569 432.299,296.227 L432.333,296.004 L428.025,294.475 C428.025,294.475 426.127,295.454 425,296.69 L424.726,297.119 C424.726,297.119 425.068,298.013 424.504,298.407 C424.504,298.407 423.94,298.768 423.649,298.064 L423.102,297.721 C423.102,297.721 423.29,296.828 423.94,296.861 L423.735,296.381 C423.735,296.381 424.573,295.024 426.06,294.251 L422.02,294.072 C422.02,294.072 422.339,295.263 421.275,295.189 C421.275,295.189 420.475,295.269 420.553,293.909 C420.553,293.909 420.116,292.889 420.992,292.913 L426.161,292.912 C426.161,292.912 425.837,292.054 426.008,291.711 C426.008,291.711 425.546,290.611 426.709,290.988 L426.761,286.953 L425.187,286.506 C425.187,286.506 424.538,286.644 424.178,286.49 C424.178,286.49 423.786,287.382 421.973,286.077 C421.973,286.077 421.581,285.889 421.375,285.063 C421.375,285.063 420.128,282.075 419.461,281.372 C419.461,281.372 418.402,279.74 419.357,279.688 L420.624,279.587 C420.624,279.587 419.973,278.314 420.094,277.353 C420.094,277.353 418.024,273.42 418.726,272.373 C418.726,272.373 419.307,270.776 423.854,270.794 C423.854,270.794 427.598,270.398 428.11,273.061 C428.11,273.061 429.684,277.645 426.213,282.333 C426.213,282.333 431.05,282.436 431.683,282.745 C431.683,282.745 431.803,281.682 431.085,280.478 C431.085,280.478 430.522,279.105 430.573,278.47 C430.573,278.47 434.368,277.852 435.017,278.898" fill="#000000"/>
  </g>
</svg>
