<?xml version="1.0" encoding="UTF-8"?>
<!DOCTYPE svg PUBLIC "-//W3C//DTD SVG 1.1//EN" "http://www.w3.org/Graphics/SVG/1.1/DTD/svg11.dtd">
<svg version="1.1" xmlns="http://www.w3.org/2000/svg" xmlns:xlink="http://www.w3.org/1999/xlink" x="0" y="0" width="15.077" height="27.324" viewBox="0, 0, 15.077, 27.324">
  <g id="Layer_1" transform="translate(-398.044, -270.591)">
    <path d="M407.031,280.776 C406.591,280.715 406.126,280.725 405.684,280.715 C404.793,280.697 403.867,280.729 402.986,280.865 C402.293,280.973 401.61,281.227 400.956,281.474 C400.462,281.66 399.985,281.924 399.599,282.286 C399.37,282.502 399.188,282.77 399.123,283.083 C399.123,283.083 398.424,285.116 405.433,285.391 L405.261,290.955 C405.261,290.955 403.313,290.371 402.39,290.783 L402.219,291.607 C402.219,291.607 401.467,291.677 401.603,292.26 L398.903,293.324 L398.834,294.148 C398.834,294.148 397.98,294.114 398.048,294.974 L398.629,295.385 C398.629,295.385 398.8,295.763 399.382,295.454 C399.382,295.454 399.962,295.145 399.484,294.286 C399.484,294.286 401.876,293.05 405.296,293.427 L405.193,296.176 C405.193,296.176 404.31,296.154 404.407,297.264 L405.175,297.853 C405.175,297.853 405.954,298.207 406.084,297.212 C406.084,297.212 406.188,296.681 405.938,296.544 L405.926,296.291 L406.176,296.2 L406.595,293.686 C406.595,293.686 408.509,292.775 412.219,294.424 C412.219,294.424 411.075,294.836 411.622,295.608 C411.676,295.686 411.735,295.73 411.827,295.765 L412.079,295.814 L412.317,295.843 C412.474,295.896 412.625,295.996 412.79,295.899 C412.888,295.84 412.951,295.741 412.991,295.637 C413.057,295.458 413.103,295.264 413.119,295.074 C413.128,294.955 413.108,294.838 413.051,294.731 C413.004,294.641 412.93,294.559 412.852,294.493 C412.852,294.493 413.456,293.707 412.622,293.334 L410.48,292.534 C410.48,292.534 410.633,292.212 410.237,291.826 L410.493,291.774 L410.428,291.015 C410.428,291.015 409.505,290.346 406.966,291.079 L406.762,285.478 C406.762,285.478 408.466,285.824 410.083,284.498 C410.083,284.498 412.108,283.261 412.032,282.462 C412.032,282.462 412.288,281.304 408.903,280.969 L408.647,279.5 C408.647,279.5 412.006,279.835 412.032,278.006 C412.032,278.006 412.852,271.798 410.774,271.18 C408.833,270.603 406.831,270.273 404.875,271.037 C403.121,271.723 402.872,274.002 402.857,275.652 C402.851,276.363 402.971,277.047 403.057,277.749 C403.057,277.749 403.237,279.217 407.211,279.424 L407.031,280.776" fill="#000000"/>
  </g>
</svg>
