<?xml version="1.0" encoding="UTF-8"?>
<!DOCTYPE svg PUBLIC "-//W3C//DTD SVG 1.1//EN" "http://www.w3.org/Graphics/SVG/1.1/DTD/svg11.dtd">
<svg version="1.1" xmlns="http://www.w3.org/2000/svg" xmlns:xlink="http://www.w3.org/1999/xlink" x="0" y="0" width="38.306" height="48.768" viewBox="0, 0, 38.306, 48.768">
  <g id="Layer_1" transform="translate(-178.639, -348.183)">
    <path d="M196.115,389.053 L195.767,381.811 L195.28,381.811 L195.558,388.983 L196.115,389.053 z M211.781,366.633 L209.971,363.362 C209.343,364.057 203.565,366.354 203.565,366.354 C208.787,366.285 211.781,366.633 211.781,366.633 z M212.478,366.493 C212.478,366.493 217.211,366.144 216.933,367.399 L216.655,373.038 C216.655,373.038 216.446,373.596 215.192,373.874 L215.123,379.444 L210.25,381.184 L209.343,393.649 C209.343,393.649 210.041,394.273 209.205,394.97 C209.205,394.97 209.343,396.712 208.787,396.92 C208.787,396.92 208.021,397.337 208.229,395.11 L207.464,394.763 L206.21,382.717 L203.008,383.761 L197.577,382.368 L197.716,389.471 L199.249,390.307 L199.249,391.49 L196.811,392.533 L195.488,391.977 C195.488,391.977 192.146,393.649 194.792,391.559 L193.539,391.142 C193.539,391.142 189.919,392.673 192.704,390.653 L192.634,389.609 L194.235,388.774 L193.957,381.394 L188.666,379.862 L188.178,385.92 L188.038,386.686 C188.038,386.686 188.736,387.938 187.691,388.009 C187.691,388.009 186.854,388.287 187.063,386.686 L185.184,378.957 L178.987,377.217 L178.639,374.153 C178.639,374.153 181.216,373.665 181.633,372.621 L181.563,369.07 L188.526,368.304 L188.596,367.538 L189.71,366.425 C189.71,366.425 189.431,364.266 191.798,364.614 L208.856,348.183 L216.446,348.601 C216.446,348.601 208.438,354.658 210.945,355.563 C210.945,355.563 216.376,356.677 215.262,358.209 C215.262,358.209 214.844,360.645 210.667,362.943 L212.478,366.493" fill="#000000"/>
  </g>
</svg>
