<?xml version="1.0" encoding="UTF-8"?>
<!DOCTYPE svg PUBLIC "-//W3C//DTD SVG 1.1//EN" "http://www.w3.org/Graphics/SVG/1.1/DTD/svg11.dtd">
<svg version="1.1" xmlns="http://www.w3.org/2000/svg" xmlns:xlink="http://www.w3.org/1999/xlink" x="0" y="0" width="7.747" height="21.808" viewBox="0, 0, 7.747, 21.808">
  <g id="Layer_1" transform="translate(-119.11, -130.168)">
    <path d="M120.97,141.622 C120.97,141.622 120.152,141.919 119.668,143.146 C119.668,143.146 119.408,144.745 119.334,144.968 C119.334,144.968 119.037,146.939 119.259,147.571 C119.259,147.571 119.557,149.245 119.557,149.393 C119.557,149.393 120.114,151.328 121.118,151.662 C121.118,151.662 123.165,152.369 124.948,151.662 C124.948,151.662 126.623,150.881 126.697,148.873 C126.697,148.873 127.031,146.456 126.733,145.861 C126.733,145.861 126.809,144.485 126.548,144.15 C126.548,144.15 126.251,142.886 126.139,142.737 C126.139,142.737 125.581,141.994 125.284,141.845 C125.284,141.845 125.172,141.324 125.581,141.994 C125.581,141.994 125.619,141.808 125.321,141.51 C125.321,141.51 125.395,141.362 125.804,141.696 C125.804,141.696 125.692,141.139 125.023,141.213 L125.692,141.139 C125.692,141.139 124.428,140.99 124.837,140.99 C124.837,140.99 125.023,140.655 125.878,140.692 C125.878,140.692 125.544,140.32 124.726,140.581 C124.726,140.581 125.878,139.763 126.176,140.283 C126.176,140.283 126.213,139.614 124.837,140.134 C124.837,140.134 125.692,139.13 126.362,139.465 C126.362,139.465 126.473,138.832 124.875,139.651 C124.875,139.651 125.506,138.944 125.878,138.796 C125.878,138.796 127.329,138.052 126.139,138.573 C126.139,138.573 125.098,138.832 124.837,139.13 C124.837,139.13 126.176,138.015 126.362,138.015 C126.362,138.015 125.432,138.2 125.098,138.312 C125.098,138.312 126.399,137.233 126.584,137.085 C126.584,137.085 125.172,137.866 124.986,137.978 C124.986,137.978 126.251,136.565 126.288,136.378 C126.288,136.378 124.986,137.271 124.875,137.457 C124.875,137.457 125.023,136.862 126.473,135.3 C126.473,135.3 125.469,135.56 125.135,135.858 L126.659,133.961 C126.659,133.961 125.246,135.003 124.948,135.449 L124.391,135.635 C124.391,135.635 126.288,132.623 126.436,132.548 C126.436,132.548 124.948,133.85 124.354,134.854 C124.354,134.854 125.506,131.582 125.506,131.024 C125.506,131.024 124.168,133.069 124.13,133.255 C124.093,133.441 124.168,133.069 124.168,133.069 L123.945,132.399 L123.796,132.512 C123.796,132.512 123.871,130.317 124.019,130.168 C124.019,130.168 123.126,131.433 122.718,132.846 C122.718,132.846 121.863,130.429 121.528,130.206 C121.528,130.206 121.454,131.842 121.565,132.326 C121.565,132.326 120.71,131.47 120.561,131.47 C120.561,131.47 121.342,132.809 121.416,134.333 C121.416,134.333 119.892,131.693 119.11,131.321 C119.11,131.321 120.97,134.147 120.97,134.445 C120.97,134.445 120.152,133.552 119.408,133.403 C119.408,133.403 120.97,135.3 120.97,135.523 C120.97,135.523 121.082,136.192 121.193,136.453 C121.193,136.453 119.892,135.152 119.222,135.003 C119.222,135.003 121.156,136.974 121.156,137.16 C121.156,137.16 120.226,136.342 119.445,136.342 L121.454,138.461 C121.454,138.461 120.189,137.829 119.743,137.866 C119.743,137.866 120.933,139.167 121.156,139.279 C121.156,139.279 120.003,139.242 119.854,139.391 C119.854,139.391 121.044,139.651 121.267,139.986 C121.267,139.986 119.408,139.54 119.408,139.8 C119.408,139.8 120.561,139.986 120.859,140.171 C120.859,140.171 120.114,140.097 120.003,140.209 C120.003,140.209 120.747,140.432 120.896,140.506 C120.896,140.506 119.854,140.692 119.892,140.99 C119.892,140.99 120.3,140.506 121.304,140.99 C121.304,140.99 120.078,140.877 120.003,141.175 C120.003,141.175 121.044,141.101 121.082,141.213 C121.082,141.213 121.75,141.249 120.97,141.622" fill="#000000"/>
  </g>
</svg>
