<?xml version="1.0" encoding="UTF-8"?>
<!DOCTYPE svg PUBLIC "-//W3C//DTD SVG 1.1//EN" "http://www.w3.org/Graphics/SVG/1.1/DTD/svg11.dtd">
<svg version="1.1" xmlns="http://www.w3.org/2000/svg" xmlns:xlink="http://www.w3.org/1999/xlink" x="0" y="0" width="12.958" height="31.285" viewBox="0, 0, 12.958, 31.285">
  <g id="Layer_1" transform="translate(-389.696, -102.292)">
    <path d="M400.016,125.787 L399.169,123.189 L400.311,125.768 L400.016,125.787 z M399.229,125.67 L398.834,123.072 L399.602,125.747 L399.229,125.67 z M398.559,125.57 L398.5,122.874 L398.893,125.591 L398.559,125.57 z M397.93,125.412 L398.126,122.639 L398.245,125.551 L397.93,125.412 z M397.654,125.393 L397.339,125.255 L397.851,122.481 L397.654,125.393 z M397.083,125.176 L396.69,125.039 L397.517,122.264 L397.083,125.176 z M396.395,124.98 L396.079,124.862 L397.163,122.126 L396.395,124.98 z M395.83,124.835 L395.524,124.682 L396.826,121.998 L395.83,124.835 z M395.14,124.605 L394.755,124.452 L396.443,121.846 L395.14,124.605 z M394.45,124.298 L394.143,124.146 L395.983,121.846 L394.45,124.298 z M401.275,126.905 C401.733,126.599 400.813,125.91 400.813,125.91 C400.124,124.911 398.744,119.007 398.744,119.007 L399.203,102.292 L397.748,102.292 L397.21,119.007 C397.056,120.389 393.835,123.992 393.835,123.992 C393.606,123.916 393.223,124.682 393.223,124.682 L391.229,126.905 C390.922,127.442 389.696,128.438 389.696,128.438 C390.386,128.438 391.536,127.136 391.536,127.136 L393.529,124.835 L393.835,125.065 L392.073,127.596 L390.539,129.359 C390.999,129.359 392.378,127.827 392.378,127.827 L394.297,125.143 L394.68,125.219 L392.916,128.362 L391.536,130.356 C391.998,130.356 393.299,128.592 393.299,128.592 L394.983,125.378 L394.987,125.373 L395.371,125.525 L393.913,129.129 L392.456,131.2 C392.916,131.2 394.22,129.283 394.22,129.283 L395.752,125.602 L396.06,125.756 L394.909,129.589 L393.453,131.813 C394.143,131.736 395.293,129.743 395.293,129.743 L396.443,125.832 L396.75,125.986 L396.136,130.356 L394.909,132.504 C395.524,132.427 396.52,130.432 396.52,130.432 L397.133,126.062 L397.517,126.216 L397.21,130.663 L396.212,132.962 C396.75,132.657 397.593,130.739 397.593,130.739 L397.824,126.216 L398.207,126.293 L398.59,130.969 L397.748,133.348 C398.283,133.269 398.973,131.047 398.973,131.047 L398.667,126.447 L399.127,126.599 L399.894,130.969 L399.51,133.577 C400.047,133.577 400.353,131.047 400.353,131.047 L399.51,126.675 L399.894,126.753 L401.043,130.817 L400.813,133.194 C401.351,133.04 401.581,130.817 401.581,130.817 L400.353,126.753 L400.737,126.829 L402.194,130.969 L401.963,133.04 C402.654,133.269 402.654,131.047 402.654,131.047 C402.654,129.896 401.275,126.905 401.275,126.905" fill="#000000"/>
  </g>
</svg>
