<?xml version="1.0" encoding="UTF-8"?>
<!DOCTYPE svg PUBLIC "-//W3C//DTD SVG 1.1//EN" "http://www.w3.org/Graphics/SVG/1.1/DTD/svg11.dtd">
<svg version="1.1" xmlns="http://www.w3.org/2000/svg" xmlns:xlink="http://www.w3.org/1999/xlink" x="0" y="0" width="29.996" height="8.465" viewBox="0, 0, 29.996, 8.465">
  <g id="Layer_1" transform="translate(-483.428, -383.388)">
    <path d="M507.828,388.686 L507.828,391.353 L489.271,391.353 L489.131,388.42 C489.141,388.611 486.313,388.966 486.074,388.976 C485.334,389.01 484.337,389.154 484.003,388.263 C483.511,386.95 485.555,386.43 486.452,386.372 C486.662,386.359 489.271,386.458 489.271,386.287 L489.271,383.888 L507.69,383.888 L507.828,386.554 C509.128,386.387 510.841,385.811 512.112,386.348 C512.528,386.522 512.929,386.858 512.924,387.351 C512.907,389.682 507.828,388.054 507.828,388.686" fill="#000000"/>
    <path d="M507.828,388.686 L507.328,388.686 L507.328,390.852 L489.748,390.852 L489.631,388.396 L488.631,388.42 L488.631,388.421 L489.102,388.421 L488.742,388.116 C488.701,388.163 488.632,388.268 488.631,388.421 L489.102,388.421 L488.742,388.116 L488.998,388.333 L488.855,388.023 C488.853,388.028 488.829,388.023 488.742,388.116 L488.998,388.333 L488.855,388.023 C488.855,388.024 488.788,388.048 488.698,388.07 C488.372,388.154 487.733,388.259 487.172,388.338 C486.89,388.378 486.625,388.412 486.419,388.437 C486.22,388.461 486.057,388.477 486.053,388.476 C485.821,388.487 485.59,388.505 485.378,388.505 C485.124,388.506 484.905,388.475 484.766,388.412 C484.628,388.345 484.552,388.285 484.472,388.087 L484.428,387.875 C484.43,387.762 484.464,387.677 484.574,387.556 C484.735,387.378 485.08,387.193 485.455,387.075 C485.828,386.953 486.229,386.887 486.484,386.871 L486.478,386.799 L486.48,386.871 L486.482,386.871 L486.478,386.799 L486.48,386.871 L486.52,386.871 C486.73,386.871 487.4,386.889 488.024,386.889 C488.353,386.889 488.671,386.884 488.923,386.868 C489.051,386.859 489.159,386.849 489.266,386.828 L489.458,386.767 L489.621,386.652 C489.687,386.589 489.773,386.452 489.771,386.287 L489.771,384.388 L507.215,384.388 L507.356,387.118 L507.891,387.05 C508.851,386.922 509.934,386.62 510.851,386.624 C511.252,386.624 511.612,386.679 511.917,386.808 C512.073,386.873 512.218,386.969 512.304,387.064 C512.391,387.163 512.422,387.238 512.424,387.342 L512.425,387.371 L512.924,387.351 L512.424,387.347 C512.421,387.533 512.38,387.636 512.322,387.722 C512.236,387.848 512.057,387.966 511.757,388.047 C511.461,388.127 511.07,388.16 510.657,388.16 C509.818,388.161 508.915,388.03 508.304,388.028 C508.133,388.03 507.985,388.034 507.812,388.083 C507.726,388.11 507.624,388.149 507.517,388.248 C507.408,388.343 507.322,388.528 507.328,388.686 L508.328,388.686 L507.932,388.686 L508.204,388.974 C508.27,388.921 508.333,388.785 508.328,388.686 L507.932,388.686 L508.204,388.974 L507.998,388.757 L508.108,389.038 L508.204,388.974 L507.998,388.757 L508.108,389.038 L508.067,388.932 L508.099,389.041 L508.108,389.038 L508.067,388.932 L508.099,389.041 L508.154,389.033 L508.304,389.028 C508.781,389.025 509.732,389.158 510.657,389.16 C511.275,389.157 511.894,389.107 512.435,388.864 C512.703,388.741 512.957,388.558 513.14,388.297 C513.325,388.036 513.423,387.707 513.424,387.354 L513.424,387.331 L513.037,387.346 L513.424,387.346 L513.424,387.331 L513.037,387.346 L513.424,387.346 L513.424,387.342 C513.426,386.957 513.258,386.622 513.042,386.39 C512.825,386.154 512.564,385.996 512.305,385.887 C511.837,385.689 511.341,385.624 510.851,385.624 C509.738,385.628 508.613,385.953 507.764,386.058 L507.828,386.554 L508.327,386.528 L508.165,383.388 L488.771,383.388 L488.771,386.287 L489.249,386.287 L488.907,385.952 C488.851,386.005 488.769,386.133 488.771,386.287 L489.249,386.287 L488.907,385.952 L489.185,386.224 L489.069,385.848 C489.056,385.857 489.018,385.849 488.907,385.952 L489.185,386.224 L489.069,385.848 L489.083,385.894 L489.072,385.847 L489.069,385.848 L489.083,385.894 L489.072,385.847 C489.046,385.854 488.886,385.872 488.698,385.878 C488.505,385.886 488.268,385.889 488.024,385.889 C487.414,385.889 486.764,385.871 486.52,385.871 L486.421,385.873 C485.957,385.905 485.293,386.027 484.682,386.302 C484.378,386.441 484.085,386.618 483.845,386.871 C483.607,387.12 483.426,387.473 483.428,387.875 C483.428,388.061 483.465,388.252 483.535,388.438 C483.69,388.87 484.016,389.181 484.363,389.327 C484.71,389.478 485.06,389.504 485.378,389.505 C485.644,389.505 485.892,389.484 486.097,389.475 C486.204,389.47 486.406,389.446 486.715,389.408 C487.168,389.351 487.792,389.263 488.315,389.17 C488.577,389.123 488.811,389.076 489,389.025 C489.096,388.999 489.178,388.974 489.267,388.934 L489.429,388.836 L489.546,388.707 C489.588,388.644 489.632,388.543 489.631,388.421 L489.631,388.42 L489.131,388.42 L488.632,388.444 L488.794,391.853 L508.328,391.853 L508.328,388.686 L507.828,388.686" fill="#000000"/>
  </g>
</svg>
