<?xml version="1.0" encoding="UTF-8"?>
<!DOCTYPE svg PUBLIC "-//W3C//DTD SVG 1.1//EN" "http://www.w3.org/Graphics/SVG/1.1/DTD/svg11.dtd">
<svg version="1.1" xmlns="http://www.w3.org/2000/svg" xmlns:xlink="http://www.w3.org/1999/xlink" x="0" y="0" width="16.163" height="16.048" viewBox="0, 0, 16.163, 16.048">
  <g id="Layer_1" transform="translate(-344.322, -27.233)">
    <g>
      <path d="M347.724,32.328 C346.934,33.04 347.479,33.811 347.479,33.811 L347.916,33.236 L347.726,33.17 C347.726,33.17 347.543,33.148 347.59,33.035 C347.59,33.035 347.711,32.677 347.895,32.658 L348.136,32.622 L348.526,32.232 C348.526,32.232 348.275,32.128 348.385,31.985 L348.564,31.806 L348.882,31.806 L349.251,31.385 C349.251,31.385 349.139,31.213 349.251,31.06 C349.251,31.06 349.369,30.913 349.559,30.913 L350.045,30.445 C350.045,30.445 349.879,30.344 350.045,30.178 C350.045,30.178 350.21,29.961 350.51,29.961 L350.803,29.665 C350.803,29.665 350.705,29.541 350.964,29.281 C350.964,29.281 351.056,29.189 351.381,29.16 L351.664,28.938 C351.664,28.938 351.392,28.853 351.788,28.604 C351.788,28.604 352.033,28.469 352.365,28.491 L352.519,28.388 C352.519,28.388 352.103,28.344 352.468,28.118 C352.468,28.118 352.776,27.957 353.071,27.957 C353.071,27.957 353.129,27.818 353.24,27.759 C352.712,27.828 351.675,28.542 351.675,28.542 C351.547,28.66 350.63,29.303 350.63,29.303 C350.104,29.566 349.285,30.582 349.285,30.582 C349.177,30.879 347.724,32.328 347.724,32.328" fill="#000000"/>
      <path d="M348.454,33.425 L348.29,34.149 C348.29,34.149 349.44,34.315 350.308,33.095 C350.308,33.095 351.052,31.644 351.734,31.382 C351.734,31.382 352.94,30.59 353.161,29.955 C353.161,29.955 354.083,29.121 354.654,28.968 C354.654,28.968 355.489,28.485 354.917,27.893 L354.72,27.958 L354.706,27.968 C354.778,28.085 354.826,28.206 354.813,28.308 C354.813,28.308 354.733,28.553 354.484,28.253 C354.484,28.253 354.25,27.861 354.092,27.861 L353.617,28.191 C353.617,28.191 354.059,28.553 353.975,28.831 C353.975,28.831 353.84,28.919 353.617,28.732 L353.273,28.473 L352.793,28.726 C352.793,28.726 353.423,29.087 353.167,29.376 C353.167,29.376 353.042,29.497 352.86,29.274 C352.86,29.274 352.581,28.967 352.373,29.003 L351.89,29.384 C351.89,29.384 352.504,29.757 352.339,30.053 C352.339,30.053 352.149,30.262 351.882,29.951 L351.532,29.731 L351.031,30.178 C351.031,30.178 351.645,30.661 351.501,30.873 C351.501,30.873 351.272,31.001 351.128,30.803 C351.128,30.803 350.767,30.558 350.675,30.558 L350.181,31.14 C350.181,31.14 350.873,31.466 350.694,31.806 C350.694,31.806 350.642,32.029 349.932,31.477 L349.45,32.051 C349.45,32.051 350.218,32.365 350.031,32.688 C350.031,32.688 349.911,32.86 349.394,32.505 L349.165,32.384 L348.696,32.852 C348.696,32.852 349.566,33.397 349.38,33.621 C349.38,33.621 349.302,33.723 349.159,33.723 L348.5,33.344 L348.454,33.425" fill="#000000"/>
      <path d="M360.075,32.515 C359.349,36.316 356.236,38.772 353.079,40.317 C352.333,40.681 351.587,40.995 350.868,41.263 C348.006,42.333 345.593,42.689 345.57,42.693 C346.004,42.966 346.859,43.25 348.508,43.127 C348.508,43.127 356.564,42.995 359.374,36.081 C359.62,35.477 359.866,34.886 360.031,34.251 C360.348,33.029 360.481,31.668 360.225,30.417 C360.235,30.678 360.235,30.934 360.225,31.185 C360.208,31.646 360.156,32.088 360.075,32.515" fill="#000000"/>
      <path d="M344.753,36.996 C344.559,37.893 344.448,38.875 344.448,39.944 C344.448,39.944 344.39,41.677 345.149,42.271 C345.149,42.271 345.23,42.479 345.57,42.693 C345.593,42.689 348.006,42.333 350.868,41.263 C350.868,41.263 349.314,37.733 346.431,36.738 C346.431,36.738 345.43,36.318 344.753,36.996" fill="#000000"/>
      <path d="M345.392,34.911 C346.129,34.174 347.534,34.771 347.534,34.771 C351.051,36.113 353.079,40.317 353.079,40.317 C356.236,38.772 359.349,36.316 360.075,32.515 C360.06,32.485 358.18,28.711 354.795,27.397 C354.616,27.412 354.436,27.432 354.257,27.458 C354.257,27.458 354.542,27.705 354.706,27.968 L354.72,27.958 L354.917,27.893 C355.489,28.485 354.654,28.968 354.654,28.968 C354.083,29.121 353.161,29.955 353.161,29.955 C352.94,30.59 351.734,31.382 351.734,31.382 C351.052,31.644 350.308,33.095 350.308,33.095 C349.44,34.315 348.29,34.149 348.29,34.149 L348.454,33.425 L347.916,33.236 L347.479,33.811 C347.479,33.811 346.934,33.04 347.724,32.328 C347.724,32.328 349.177,30.879 349.285,30.582 C349.285,30.582 350.104,29.566 350.63,29.303 C350.63,29.303 351.547,28.66 351.675,28.542 C351.675,28.542 352.712,27.828 353.24,27.759 L353.079,27.728 C352.554,27.902 352.043,28.126 351.547,28.375 C351.099,28.601 350.683,28.883 350.243,29.121 C350.242,29.121 347.035,30.859 345.392,34.911" fill="#000000"/>
      <path d="M347.59,33.035 C347.543,33.148 347.726,33.17 347.726,33.17 L347.916,33.236 L348.454,33.425 L348.5,33.344 L349.159,33.723 C349.302,33.723 349.38,33.621 349.38,33.621 C349.566,33.397 348.696,32.852 348.696,32.852 L349.165,32.384 L349.394,32.505 C349.911,32.86 350.031,32.688 350.031,32.688 C350.218,32.365 349.45,32.051 349.45,32.051 L349.932,31.477 C350.642,32.029 350.694,31.806 350.694,31.806 C350.873,31.466 350.181,31.14 350.181,31.14 L350.675,30.558 C350.767,30.558 351.128,30.803 351.128,30.803 C351.272,31.001 351.501,30.873 351.501,30.873 C351.645,30.661 351.031,30.178 351.031,30.178 L351.532,29.731 L351.882,29.951 C352.149,30.262 352.339,30.053 352.339,30.053 C352.504,29.757 351.89,29.384 351.89,29.384 L352.373,29.003 C352.581,28.967 352.86,29.274 352.86,29.274 C353.042,29.497 353.167,29.376 353.167,29.376 C353.423,29.087 352.793,28.726 352.793,28.726 L353.273,28.473 L353.617,28.732 C353.84,28.919 353.975,28.831 353.975,28.831 C354.059,28.553 353.617,28.191 353.617,28.191 L354.092,27.861 C354.25,27.861 354.484,28.253 354.484,28.253 C354.733,28.553 354.813,28.308 354.813,28.308 C354.826,28.206 354.778,28.085 354.706,27.968 C354.542,27.705 354.257,27.458 354.257,27.458 C353.857,27.515 353.461,27.601 353.079,27.728 L353.24,27.759 C353.129,27.818 353.071,27.957 353.071,27.957 C352.776,27.957 352.468,28.118 352.468,28.118 C352.103,28.344 352.519,28.388 352.519,28.388 L352.365,28.491 C352.033,28.469 351.788,28.604 351.788,28.604 C351.392,28.853 351.664,28.938 351.664,28.938 L351.381,29.16 C351.056,29.189 350.964,29.281 350.964,29.281 C350.705,29.541 350.803,29.665 350.803,29.665 L350.51,29.961 C350.21,29.961 350.045,30.178 350.045,30.178 C349.879,30.344 350.045,30.445 350.045,30.445 L349.559,30.913 C349.369,30.913 349.251,31.06 349.251,31.06 C349.139,31.213 349.251,31.385 349.251,31.385 L348.882,31.806 L348.564,31.806 L348.385,31.985 C348.275,32.128 348.526,32.232 348.526,32.232 L348.136,32.622 L347.895,32.658 C347.711,32.677 347.59,33.035 347.59,33.035" fill="#FFFFFE"/>
      <path d="M355.686,27.359 C355.39,27.361 355.092,27.373 354.795,27.397 C358.18,28.711 360.06,32.485 360.075,32.515 C360.156,32.088 360.208,31.646 360.225,31.185 C360.21,31.156 358.778,28.374 356.405,27.368 C356.163,27.358 355.922,27.357 355.686,27.359" fill="#FFFFFE"/>
      <path d="M345.392,34.911 C345.134,35.549 344.915,36.242 344.753,36.996 C345.43,36.318 346.431,36.738 346.431,36.738 C349.314,37.733 350.868,41.263 350.868,41.263 C351.587,40.995 352.333,40.681 353.079,40.317 C353.079,40.317 351.051,36.113 347.534,34.771 C347.534,34.771 346.129,34.174 345.392,34.911" fill="#FFFFFE"/>
      <path d="M344.753,36.996 L344.631,36.97 C344.435,37.876 344.323,38.866 344.323,39.944 L344.448,39.944 L344.323,39.94 L344.322,40.028 C344.33,40.392 344.344,41.779 345.072,42.369 L345.149,42.271 L345.032,42.316 C345.04,42.337 345.139,42.57 345.503,42.799 C345.891,43.042 346.572,43.281 347.755,43.281 C347.989,43.281 348.242,43.272 348.518,43.252 L348.508,43.127 L348.51,43.252 C348.52,43.249 356.635,43.127 359.489,36.128 C359.735,35.524 359.984,34.928 360.152,34.283 C360.356,33.497 360.485,32.653 360.485,31.815 C360.485,31.335 360.442,30.857 360.348,30.392 L360.293,30.148 L360.293,30.145 C360.195,29.753 360.049,29.373 359.854,29.018 C359.487,28.344 359.099,27.872 358.341,27.584 C357.726,27.348 357.061,27.267 356.409,27.243 C356.227,27.235 356.045,27.233 355.867,27.233 L355.685,27.234 C355.386,27.236 355.086,27.248 354.785,27.272 C354.603,27.287 354.421,27.307 354.239,27.334 C353.833,27.392 353.431,27.48 353.039,27.609 C352.507,27.786 351.991,28.013 351.491,28.263 C351.033,28.495 350.616,28.778 350.183,29.012 L350.243,29.121 L350.243,28.997 L350.195,29.006 L350.184,29.011 C350.139,29.036 346.931,30.788 345.276,34.864 C345.016,35.508 344.794,36.209 344.631,36.97 L344.634,36.956 L344.631,36.97 L344.753,36.996 L344.876,37.022 C345.035,36.276 345.253,35.589 345.508,34.958 C346.321,32.953 347.521,31.52 348.518,30.588 C349.017,30.122 349.464,29.782 349.787,29.559 C349.948,29.448 350.077,29.365 350.166,29.311 L350.268,29.25 L350.294,29.236 L350.3,29.233 L350.301,29.232 L350.268,29.171 L350.3,29.232 L350.301,29.232 L350.268,29.171 L350.3,29.232 L350.246,29.128 L350.299,29.233 L350.3,29.232 L350.246,29.128 L350.299,29.233 L350.244,29.124 L350.296,29.235 L350.299,29.233 L350.244,29.124 L350.296,29.235 L350.29,29.237 L350.243,29.122 L350.243,29.247 L350.29,29.237 L350.243,29.122 L350.243,29.247 L350.274,29.247 L350.302,29.232 C350.75,28.989 351.165,28.708 351.604,28.487 C352.096,28.24 352.601,28.018 353.118,27.846 C353.492,27.723 353.881,27.638 354.275,27.582 C354.451,27.556 354.628,27.536 354.806,27.522 C355.099,27.498 355.394,27.486 355.687,27.484 L355.867,27.483 C356.043,27.483 356.221,27.485 356.4,27.492 C357.038,27.516 357.675,27.596 358.252,27.817 C358.948,28.087 359.272,28.481 359.635,29.138 C359.819,29.474 359.958,29.833 360.05,30.205 L360.171,30.175 L360.049,30.202 L360.103,30.444 L360.225,30.417 L360.103,30.442 C360.194,30.888 360.235,31.35 360.235,31.815 C360.235,32.628 360.109,33.451 359.91,34.22 C359.748,34.843 359.504,35.429 359.258,36.034 C357.869,39.45 355.188,41.189 352.843,42.08 C351.671,42.525 350.585,42.755 349.792,42.875 C349,42.994 348.507,43.001 348.506,43.002 L348.499,43.002 C348.229,43.022 347.982,43.031 347.755,43.031 C346.605,43.031 345.974,42.799 345.636,42.587 C345.478,42.487 345.384,42.392 345.33,42.323 L345.276,42.245 L345.266,42.227 L345.265,42.225 L345.253,42.193 L345.226,42.172 C344.636,41.731 344.563,40.37 344.572,40.028 L344.573,39.948 L344.573,39.944 C344.573,38.884 344.683,37.911 344.876,37.023 L344.876,37.022 L344.753,36.996" fill="#0B0B0A"/>
      <path d="M348.332,33.397 L348.168,34.121 L348.138,34.253 L348.272,34.273 C348.277,34.273 348.335,34.281 348.434,34.281 C348.793,34.284 349.701,34.167 350.41,33.168 L350.415,33.16 L350.419,33.152 C350.42,33.151 350.602,32.796 350.868,32.408 C351.131,32.019 351.491,31.604 351.779,31.499 L351.791,31.494 L351.802,31.486 C351.805,31.485 352.11,31.285 352.445,31.002 C352.78,30.717 353.148,30.361 353.279,29.996 L353.161,29.955 L353.244,30.048 C353.245,30.047 353.471,29.843 353.769,29.619 C354.064,29.395 354.436,29.154 354.686,29.088 L354.702,29.084 L354.716,29.076 C354.721,29.065 355.226,28.805 355.242,28.318 C355.243,28.152 355.17,27.973 355.007,27.806 L354.953,27.749 L354.681,27.84 L354.76,28.077 L354.957,28.011 L354.917,27.893 L354.827,27.979 C354.956,28.114 354.992,28.223 354.992,28.318 C354.994,28.456 354.903,28.594 354.798,28.697 L354.654,28.818 L354.591,28.859 L354.654,28.968 L354.621,28.847 C353.993,29.023 353.087,29.858 353.077,29.862 L353.053,29.884 L353.043,29.914 C352.952,30.184 352.607,30.542 352.284,30.811 C351.961,31.083 351.666,31.276 351.665,31.277 L351.734,31.382 L351.689,31.265 C351.295,31.422 350.942,31.864 350.662,32.266 C350.386,32.669 350.198,33.035 350.197,33.038 L350.308,33.095 L350.206,33.023 C349.551,33.941 348.747,34.03 348.434,34.031 L348.307,34.025 L348.29,34.149 L348.411,34.177 L348.576,33.452 L348.332,33.397" fill="#0B0B0A"/>
      <path d="M347.816,33.161 L347.379,33.735 L347.479,33.811 L347.581,33.739 L347.559,33.703 C347.513,33.625 347.42,33.43 347.421,33.195 C347.422,32.968 347.5,32.7 347.808,32.42 L347.81,32.418 L347.812,32.416 C347.813,32.416 348.177,32.053 348.555,31.652 C348.744,31.451 348.937,31.241 349.091,31.061 C349.245,30.876 349.357,30.74 349.402,30.624 L349.285,30.582 L349.382,30.66 C349.382,30.66 349.584,30.41 349.851,30.127 C350.116,29.844 350.453,29.529 350.686,29.415 L350.695,29.411 L350.702,29.406 C350.702,29.405 350.932,29.244 351.178,29.068 C351.426,28.89 351.68,28.706 351.76,28.634 L351.675,28.542 L351.746,28.645 C351.747,28.645 352.002,28.469 352.322,28.285 C352.64,28.1 353.032,27.91 353.256,27.883 L353.224,27.635 C352.631,27.72 351.615,28.436 351.604,28.439 L351.597,28.444 L351.591,28.45 C351.542,28.495 351.274,28.692 351.032,28.865 C350.787,29.04 350.559,29.201 350.559,29.201 L350.63,29.303 L350.574,29.191 C349.999,29.486 349.196,30.498 349.187,30.503 L349.174,30.519 L349.167,30.539 C349.159,30.572 349.048,30.728 348.9,30.899 C348.452,31.425 347.637,32.238 347.636,32.239 L347.724,32.328 L347.64,32.235 C347.284,32.554 347.169,32.906 347.171,33.195 C347.172,33.595 347.37,33.872 347.377,33.883 L347.475,34.022 L348.015,33.312 L347.816,33.161" fill="#0B0B0A"/>
      <path d="M354.175,27.552 C354.176,27.553 354.242,27.61 354.331,27.701 C354.419,27.792 354.526,27.915 354.599,28.034 L354.596,28.028 L354.599,28.033 C354.658,28.128 354.691,28.219 354.69,28.274 L354.689,28.293 L354.813,28.308 L354.694,28.269 L354.686,28.282 L354.699,28.296 L354.699,28.277 L354.686,28.282 L354.699,28.296 L354.699,28.277 L354.676,28.266 L354.58,28.174 L354.484,28.253 L354.591,28.189 C354.589,28.187 354.529,28.085 354.445,27.979 L354.3,27.827 C354.245,27.783 354.185,27.739 354.092,27.736 L354.053,27.736 L353.545,28.088 L353.409,28.183 L353.537,28.288 L353.589,28.333 C353.689,28.419 353.871,28.643 353.861,28.757 L353.855,28.795 L353.975,28.831 L353.907,28.726 L353.943,28.782 L353.913,28.722 L353.907,28.726 L353.943,28.782 L353.913,28.722 L353.885,28.727 C353.856,28.726 353.795,28.718 353.697,28.636 L353.695,28.635 L353.348,28.373 L353.285,28.325 L352.735,28.615 L352.534,28.721 L352.731,28.834 L352.792,28.872 L353,29.043 L353.103,29.225 L353.073,29.293 L353.167,29.376 L353.079,29.287 L353.096,29.304 L353.084,29.282 L353.079,29.287 L353.096,29.304 L353.084,29.282 L353.075,29.284 L352.957,29.195 L352.954,29.192 L352.952,29.19 C352.949,29.187 352.884,29.114 352.787,29.038 C352.689,28.965 352.565,28.879 352.408,28.875 L352.351,28.88 L352.32,28.885 L351.813,29.286 L351.671,29.397 L351.825,29.491 L351.893,29.536 L352.125,29.733 L352.242,29.945 L352.23,29.992 L352.339,30.053 L352.247,29.969 L352.173,29.997 C352.139,29.996 352.077,29.984 351.977,29.87 L351.965,29.855 L351.598,29.625 L351.519,29.576 L350.948,30.084 L350.836,30.184 L350.953,30.276 C350.954,30.276 351.071,30.368 351.188,30.488 C351.307,30.602 351.409,30.764 351.398,30.798 L351.398,30.803 L351.501,30.873 L351.441,30.764 L351.436,30.766 L351.339,30.789 L351.23,30.73 L351.217,30.712 L351.199,30.7 C351.197,30.699 351.106,30.637 351.001,30.574 L350.84,30.484 L350.675,30.433 L350.617,30.433 L350.086,31.059 L349.98,31.183 L350.128,31.253 L350.205,31.293 L350.467,31.478 L350.598,31.69 L350.583,31.748 L350.576,31.762 L350.572,31.778 L350.649,31.796 L350.594,31.737 L350.572,31.778 L350.649,31.796 L350.594,31.737 L350.628,31.773 L350.611,31.726 L350.594,31.737 L350.628,31.773 L350.611,31.726 L350.609,31.726 C350.577,31.73 350.391,31.679 350.009,31.378 L349.914,31.304 L349.354,31.971 L349.244,32.102 L349.402,32.167 C349.403,32.167 349.546,32.226 349.688,32.317 C349.835,32.404 349.947,32.537 349.935,32.583 L349.923,32.625 L350.031,32.688 L349.928,32.616 L349.969,32.644 L349.944,32.599 L349.928,32.616 L349.969,32.644 L349.944,32.599 L349.91,32.604 C349.856,32.605 349.715,32.575 349.465,32.402 L349.459,32.398 L349.223,32.273 L349.141,32.23 L348.607,32.764 L348.496,32.875 L348.629,32.958 C348.63,32.959 348.802,33.067 348.973,33.204 L349.201,33.415 L349.281,33.548 L349.293,33.548 L349.284,33.541 L349.281,33.548 L349.293,33.548 L349.284,33.541 L349.282,33.544 L349.281,33.545 L349.305,33.563 L349.282,33.543 L349.281,33.545 L349.305,33.563 L349.282,33.543 L349.159,33.598 L349.159,33.723 L349.221,33.615 L348.563,33.235 L348.455,33.173 L348.397,33.273 L347.957,33.118 L347.767,33.052 L347.754,33.048 L347.741,33.046 L347.73,33.044 L347.692,33.031 L347.683,33.047 L347.697,33.037 L347.692,33.031 L347.683,33.047 L347.697,33.037 L347.651,33.07 L347.708,33.07 L347.697,33.037 L347.651,33.07 L347.708,33.07 L347.674,33.07 L347.706,33.083 L347.708,33.07 L347.674,33.07 L347.706,33.083 L347.707,33.079 L347.709,33.075 L347.782,32.916 L347.908,32.783 L347.911,32.782 L348.155,32.745 L348.196,32.739 L348.614,32.32 L348.747,32.188 L348.574,32.116 L348.557,32.108 L348.496,32.067 L348.481,32.051 L348.468,32.058 L348.482,32.058 L348.481,32.051 L348.468,32.058 L348.482,32.058 L348.459,32.058 L348.481,32.066 L348.482,32.058 L348.459,32.058 L348.481,32.066 L348.484,32.062 L348.385,31.985 L348.474,32.074 L348.616,31.931 L348.939,31.931 L349.345,31.467 L349.408,31.396 L349.356,31.316 L349.354,31.312 L349.327,31.212 L349.352,31.133 L349.251,31.06 L349.349,31.138 L349.36,31.126 C349.391,31.095 349.467,31.037 349.559,31.038 L349.609,31.038 L350.132,30.535 L350.249,30.422 L350.11,30.338 L350.106,30.344 L350.111,30.338 L350.11,30.338 L350.106,30.344 L350.111,30.338 L350.099,30.326 L350.097,30.321 L350.134,30.266 L350.14,30.26 L350.145,30.253 L350.148,30.25 C350.173,30.221 350.304,30.085 350.51,30.086 L350.562,30.086 L350.892,29.753 L350.97,29.675 L350.901,29.588 L350.856,29.624 L350.91,29.602 L350.901,29.588 L350.856,29.624 L350.91,29.602 L350.91,29.595 C350.91,29.578 350.918,29.504 351.053,29.37 L351.051,29.367 L351.053,29.371 L351.053,29.37 L351.051,29.367 L351.053,29.371 C351.073,29.357 351.164,29.305 351.393,29.285 L351.43,29.281 L351.927,28.889 L351.701,28.818 L351.7,28.818 L351.688,28.811 L351.663,28.837 L351.698,28.837 L351.688,28.811 L351.663,28.837 L351.698,28.837 L351.682,28.837 L351.697,28.844 L351.698,28.837 L351.682,28.837 L351.697,28.844 C351.699,28.836 351.738,28.781 351.854,28.71 L351.788,28.604 L351.848,28.714 L351.876,28.701 C351.938,28.673 352.096,28.614 352.291,28.614 L352.356,28.616 L352.399,28.619 L352.588,28.492 L352.875,28.3 L352.532,28.264 L352.458,28.247 L352.426,28.234 L352.405,28.261 L352.434,28.243 L352.426,28.234 L352.405,28.261 L352.434,28.243 L352.377,28.278 L352.443,28.278 L352.434,28.243 L352.377,28.278 L352.443,28.278 L352.394,28.278 L352.439,28.299 L352.443,28.278 L352.394,28.278 L352.439,28.299 L352.456,28.28 L352.534,28.224 L352.468,28.118 L352.526,28.228 C352.526,28.228 352.595,28.192 352.701,28.155 C352.806,28.117 352.946,28.081 353.071,28.081 L353.154,28.081 L353.186,28.005 L353.193,27.992 L353.298,27.87 L353.609,27.705 L353.103,27.605 L353.054,27.85 L353.216,27.882 L353.24,27.759 L353.181,27.649 C353.018,27.741 352.963,27.899 352.956,27.908 L353.071,27.957 L353.071,27.831 C352.732,27.834 352.419,28.004 352.41,28.007 L352.406,28.009 L352.402,28.011 C352.284,28.09 352.203,28.15 352.193,28.278 L352.273,28.432 C352.382,28.508 352.496,28.508 352.506,28.512 L352.519,28.388 L352.45,28.284 L352.295,28.387 L352.365,28.491 L352.373,28.366 L352.291,28.364 C351.964,28.365 351.738,28.49 351.727,28.495 L351.721,28.499 C351.546,28.612 351.455,28.701 351.448,28.837 C351.448,28.931 351.508,28.99 351.546,29.016 L351.626,29.057 L351.664,28.938 L351.586,28.839 L351.304,29.062 L351.381,29.16 L351.37,29.036 C351.025,29.066 350.9,29.168 350.876,29.193 C350.715,29.353 350.66,29.488 350.66,29.595 L350.705,29.743 L350.803,29.665 L350.714,29.578 L350.421,29.873 L350.51,29.961 L350.51,29.836 C350.145,29.839 349.956,30.091 349.946,30.102 L350.045,30.178 L349.957,30.089 L349.847,30.321 C349.855,30.485 349.972,30.543 349.981,30.552 L350.045,30.445 L349.959,30.355 L349.472,30.823 L349.559,30.913 L349.559,30.788 C349.3,30.792 349.164,30.972 349.154,30.981 L349.152,30.984 L349.151,30.986 L349.077,31.212 C349.078,31.352 349.141,31.443 349.147,31.453 L349.251,31.385 L349.157,31.302 L348.826,31.681 L348.512,31.681 L348.297,31.897 L348.291,31.903 L348.287,31.909 L348.232,32.058 C348.237,32.183 348.317,32.246 348.368,32.285 L348.478,32.347 L348.526,32.232 L348.437,32.143 L348.077,32.504 L347.876,32.535 L347.895,32.658 L347.882,32.534 C347.71,32.56 347.628,32.691 347.566,32.791 C347.505,32.895 347.474,32.991 347.472,32.995 L347.59,33.035 L347.475,32.987 L347.458,33.07 L347.517,33.21 C347.611,33.293 347.701,33.289 347.711,33.294 L347.726,33.17 L347.685,33.288 L347.874,33.354 L348.412,33.543 L348.51,33.577 L348.546,33.514 L349.096,33.831 L349.125,33.848 L349.159,33.848 C349.367,33.845 349.47,33.708 349.48,33.696 L349.38,33.621 L349.477,33.7 L349.531,33.548 C349.527,33.426 349.462,33.339 349.39,33.252 C349.167,32.997 348.767,32.751 348.762,32.747 L348.696,32.852 L348.784,32.941 L349.188,32.537 L349.336,32.615 L349.394,32.505 L349.323,32.608 C349.597,32.795 349.776,32.853 349.91,32.854 C350.041,32.857 350.119,32.785 350.133,32.759 L350.136,32.755 L350.139,32.75 L350.185,32.583 C350.173,32.347 349.98,32.214 349.822,32.106 C349.658,32.001 349.501,31.937 349.497,31.935 L349.45,32.051 L349.545,32.132 L350.028,31.557 L349.932,31.477 L349.855,31.575 C350.259,31.885 350.456,31.971 350.609,31.975 L350.765,31.92 L350.816,31.834 L350.694,31.806 L350.805,31.864 L350.848,31.69 C350.84,31.462 350.669,31.315 350.527,31.204 C350.38,31.095 350.239,31.029 350.234,31.027 L350.181,31.14 L350.276,31.221 L350.771,30.639 L350.675,30.558 L350.675,30.683 L350.675,30.647 L350.667,30.682 L350.675,30.683 L350.675,30.647 L350.667,30.682 L350.89,30.799 C350.981,30.854 351.058,30.907 351.058,30.907 L351.128,30.803 L351.027,30.877 C351.112,30.997 351.242,31.041 351.339,31.039 C351.466,31.037 351.552,30.987 351.562,30.982 L351.588,30.968 L351.605,30.943 L351.648,30.798 C351.638,30.599 351.493,30.451 351.366,30.313 C351.237,30.181 351.11,30.081 351.108,30.079 L351.031,30.178 L351.114,30.271 L351.545,29.887 L351.816,30.057 L351.882,29.951 L351.787,30.033 C351.915,30.183 352.053,30.247 352.173,30.247 C352.335,30.244 352.421,30.148 352.432,30.138 L352.441,30.127 L352.449,30.114 L352.492,29.945 C352.485,29.735 352.338,29.586 352.212,29.469 C352.083,29.354 351.959,29.279 351.955,29.277 L351.89,29.384 L351.968,29.482 L352.45,29.101 L352.373,29.003 L352.394,29.126 L352.408,29.125 L352.633,29.235 L352.767,29.358 L352.86,29.274 L352.763,29.353 C352.863,29.478 352.975,29.535 353.075,29.534 C353.183,29.533 353.242,29.477 353.254,29.466 L353.257,29.463 L353.26,29.459 L353.353,29.225 C353.346,29.026 353.208,28.891 353.092,28.787 C352.973,28.685 352.86,28.62 352.856,28.617 L352.793,28.726 L352.852,28.836 L353.261,28.62 L353.541,28.832 L353.617,28.732 L353.537,28.828 C353.668,28.939 353.791,28.977 353.885,28.977 L354.043,28.936 L354.082,28.911 L354.095,28.867 L354.111,28.757 C354.107,28.566 353.995,28.413 353.896,28.294 C353.796,28.176 353.699,28.097 353.696,28.094 L353.617,28.191 L353.688,28.294 L354.163,27.964 L354.092,27.861 L354.092,27.986 L354.092,27.975 L354.089,27.986 L354.092,27.986 L354.092,27.975 L354.089,27.986 L354.263,28.152 L354.377,28.318 L354.382,28.326 L354.388,28.333 C354.492,28.458 354.586,28.525 354.699,28.527 C354.792,28.528 354.857,28.472 354.886,28.431 L354.932,28.347 L354.936,28.335 L354.937,28.323 L354.94,28.274 C354.939,28.14 354.882,28.018 354.812,27.902 C354.633,27.616 354.343,27.368 354.339,27.364 L354.175,27.552" fill="#0B0B0A"/>
      <path d="M360.1,30.422 C360.105,30.551 360.107,30.678 360.107,30.805 C360.107,30.931 360.105,31.056 360.1,31.18 L360.1,31.191 L360.1,31.18 C360.084,31.634 360.032,32.071 359.952,32.492 C359.239,36.234 356.166,38.667 353.024,40.205 C352.283,40.566 351.54,40.879 350.824,41.146 C347.974,42.211 345.572,42.566 345.549,42.57 L345.57,42.693 L345.694,42.676 C345.693,42.674 345.565,41.752 345.565,40.607 C345.56,39.245 345.76,37.574 346.52,36.826 L346.343,36.649 C345.487,37.517 345.319,39.222 345.315,40.607 C345.315,41.77 345.446,42.706 345.446,42.71 L345.464,42.837 L345.59,42.816 C345.614,42.812 348.038,42.455 350.911,41.38 C351.634,41.11 352.384,40.795 353.133,40.429 C356.306,38.877 359.459,36.399 360.197,32.539 C360.28,32.106 360.333,31.657 360.35,31.19 L360.35,31.179 L360.35,31.19 C360.355,31.063 360.357,30.934 360.357,30.805 C360.357,30.675 360.355,30.544 360.35,30.412 L360.1,30.422" fill="#0B0B0A"/>
      <path d="M353.191,40.263 C353.183,40.254 351.159,36.028 347.578,34.655 L347.534,34.771 L347.583,34.656 C347.574,34.654 347.028,34.419 346.412,34.418 C346.033,34.418 345.617,34.51 345.304,34.823 L345.48,35 C345.729,34.75 346.07,34.668 346.412,34.668 C346.688,34.668 346.959,34.722 347.159,34.778 C347.359,34.833 347.484,34.887 347.485,34.887 L347.487,34.888 L347.489,34.888 C349.215,35.546 350.588,36.915 351.527,38.124 C351.996,38.728 352.356,39.291 352.599,39.703 C352.842,40.114 352.965,40.371 352.966,40.371 L353.191,40.263" fill="#0B0B0A"/>
      <path d="M350.982,41.212 C350.973,41.204 349.425,37.648 346.472,36.62 L346.431,36.738 L346.479,36.622 C346.471,36.619 346.152,36.485 345.736,36.484 C345.402,36.483 344.996,36.576 344.665,36.908 L344.842,37.084 C345.116,36.811 345.444,36.735 345.736,36.734 C345.917,36.734 346.081,36.764 346.198,36.795 C346.316,36.825 346.382,36.854 346.383,36.853 L346.387,36.855 L346.39,36.856 C347.795,37.34 348.89,38.452 349.63,39.448 C350,39.946 350.282,40.413 350.47,40.756 C350.659,41.098 350.753,41.313 350.753,41.313 L350.982,41.212" fill="#0B0B0A"/>
      <path d="M360.076,32.39 L360.075,32.39 L360.075,32.515 L360.187,32.461 C360.163,32.419 358.285,28.624 354.841,27.28 L354.819,27.272 L354.794,27.272 L354.794,27.522 L354.795,27.522 L354.795,27.397 L354.75,27.513 C358.076,28.799 359.957,32.551 359.962,32.57 L359.996,32.64 L360.076,32.64 L360.076,32.39" fill="#0B0B0A"/>
    </g>
  </g>
</svg>
