<?xml version="1.0" encoding="UTF-8"?>
<!DOCTYPE svg PUBLIC "-//W3C//DTD SVG 1.1//EN" "http://www.w3.org/Graphics/SVG/1.1/DTD/svg11.dtd">
<svg version="1.1" xmlns="http://www.w3.org/2000/svg" xmlns:xlink="http://www.w3.org/1999/xlink" x="0" y="0" width="12.499" height="25.26" viewBox="0, 0, 12.499, 25.26">
  <g id="Layer_1" transform="translate(-582.452, -0.436)">
    <path d="M583.471,14.747 C583.192,15 582.913,15.283 582.594,14.942 C582.21,14.531 582.705,13.415 582.909,13.022 C583.27,12.328 585.632,9.017 585.458,11.513 C586.388,12.467 587.101,13.729 587.668,14.926 C587.986,15.595 588.251,16.285 588.465,16.995 C588.687,17.74 588.662,18.656 588.932,19.362 C588.932,19.362 589.601,21.098 589.601,21.537 C589.601,21.537 590.572,22.037 590.165,23.007 C590.165,23.007 590.916,23.728 590.885,22.507 C590.885,22.507 591.134,21.474 590.508,21.474 C590.508,21.474 589.915,21.724 589.288,17.466 L589.038,17.466 L588.287,14.494 L588.505,14.369 L588.254,12.772 L588.412,12.678 C588.412,12.678 587.927,12.505 587.833,11.457 C587.833,11.457 587.003,9.751 587.644,9.783 C587.644,9.783 586.863,8.327 587.317,7.544 C587.317,7.544 587.003,6.73 587.238,6.605 C587.238,6.605 586.299,3.709 586.987,3.569 L586.784,2.662 C586.784,2.662 586.142,2.505 586.377,1.925 C586.377,1.925 586.456,0.345 588.85,0.595 C588.85,0.595 590.399,0.784 590.101,1.144 C590.101,1.144 591.526,1.128 593.154,0.564 C593.154,0.564 594.891,0.221 594.938,0.658 C594.938,0.658 595.094,0.892 594.312,1.097 C594.312,1.097 592.903,1.848 592.387,1.395 C592.387,1.395 590.305,1.911 589.554,1.675 C589.554,1.675 587.55,0.862 587.488,1.801 L588.427,4.79 L588.552,4.743 L588.865,5.729 C588.865,5.729 589.116,6.183 588.74,6.199 C588.74,6.199 589.381,7.231 588.913,7.293 C588.913,7.293 589.428,7.279 589.414,8.107 L589.805,9.767 C589.805,9.767 590.258,10.111 590.071,10.377 C590.071,10.377 589.726,10.455 589.977,11.097 L591.276,15.432 C591.276,15.432 591.824,15.448 592.027,17.169 C592.027,17.169 591.824,16.997 591.98,17.607 C591.98,17.607 592.742,19.993 592.867,21.14 C592.867,21.14 593.931,20.597 593.953,21.891 C593.953,21.891 594.036,22.601 594.161,22.914 C594.161,22.914 594.39,23.539 593.285,23.456 C593.285,23.456 592.554,25.646 590.488,25.689 C590.488,25.689 587.42,26.065 587.065,21.307 C587.065,21.307 586.669,16.468 584.187,14.547 C583.932,14.351 583.702,14.539 583.471,14.747 z M593.805,21.454 C593.805,21.454 593.536,21.077 593.012,21.391 L593.012,21.578 C593.012,21.578 593.285,21.37 593.305,21.661 L593.43,22.225 L593.889,22.162 C593.889,22.162 593.827,21.682 593.805,21.454 z M593.953,22.392 L593.451,22.434 C593.451,22.434 593.597,23.06 593.285,23.06 L593.242,23.352 L593.931,23.268 C593.931,23.268 594.139,23.038 593.994,22.851 L593.953,22.392" fill="#000000"/>
  </g>
</svg>
