<?xml version="1.0" encoding="UTF-8"?>
<!DOCTYPE svg PUBLIC "-//W3C//DTD SVG 1.1//EN" "http://www.w3.org/Graphics/SVG/1.1/DTD/svg11.dtd">
<svg version="1.1" xmlns="http://www.w3.org/2000/svg" xmlns:xlink="http://www.w3.org/1999/xlink" x="0" y="0" width="45.519" height="34.236" viewBox="0, 0, 45.519, 34.236">
  <g id="Layer_1" transform="translate(-320.498, -176.342)">
    <path d="M338.27,181.337 C337.877,180.962 337.463,180.556 337.151,180.221 L346.593,188.889 L346.897,188.895 L346.889,189.303 L347.34,189.554 C347.309,189.682 347.22,189.827 347.135,189.941 C347.042,190.064 346.957,190.149 346.955,190.15 L346.941,190.165 L346.941,190.184 L346.935,190.433 C346.935,190.588 346.941,190.722 346.954,190.834 L346.768,190.849 C346.672,189.846 346.27,189.591 346.255,189.584 L346.246,189.577 L341.249,189.368 L341.081,189.335 L341.103,189.233 C341.103,189.233 341.153,189.003 341.204,188.624 C341.254,188.245 341.304,187.717 341.304,187.118 C341.304,186.37 341.227,185.51 340.968,184.694 C340.712,183.879 340.277,183.107 339.562,182.535 C339.563,182.535 338.944,181.978 338.27,181.337" fill="#0B0B0A"/>
    <path d="M345.728,180.774 C345.507,181.182 345.317,181.324 345.181,181.324 L345.166,181.324 C344.948,181.324 344.733,180.928 344.605,180.512 C344.548,180.34 344.505,180.168 344.472,180.024 C344.44,179.881 344.42,179.767 344.41,179.711 L344.483,179.702 L344.495,179.702 C344.705,179.702 345.096,179.797 345.433,179.893 C345.774,179.988 346.06,180.083 346.062,180.083 L346.135,180.108 L345.877,176.932 L346.079,176.898 C346.103,177.509 346.434,180.192 346.434,180.194 L346.438,180.227 L348.568,180.986 C348.583,181.071 348.65,181.216 348.753,181.41 C348.856,181.608 348.998,181.855 349.166,182.145 C350.103,183.745 351.861,186.47 352.286,187.125 L352.25,187.15 C351.975,186.774 351.735,186.437 351.529,186.141 C351.319,185.841 351.145,185.584 351.004,185.377 C350.726,184.957 350.588,184.731 350.588,184.729 L350.584,184.724 L350.58,184.721 C350.533,184.674 350.34,184.43 350.08,184.093 C349.818,183.753 349.487,183.323 349.164,182.899 C348.517,182.048 347.896,181.225 347.895,181.223 L347.847,181.162 L347.81,181.23 L347.652,181.383 L347.429,181.426 L347.425,181.426 C347.228,181.426 347,181.349 346.821,181.269 C346.641,181.188 346.509,181.109 346.509,181.109 L346.42,181.055 L346.434,181.159 L346.312,181.172 L346.282,180.893 C346.265,180.707 346.166,180.614 346.058,180.614 L346.052,180.614 C345.892,180.619 345.745,180.758 345.739,180.759 L345.733,180.765 L345.728,180.774" fill="#0B0B0A"/>
    <path d="M346.444,182.528 L346.312,181.172 L346.434,181.159 L346.742,183.83 L346.767,183.838 C346.803,183.866 346.975,184.043 347.245,184.334 C347.514,184.623 347.883,185.024 348.312,185.494 C348.969,186.209 349.773,187.095 350.611,188.021 C351.448,188.945 352.319,189.909 353.108,190.785 C353.651,191.387 354.156,191.945 354.583,192.419 L354.526,192.472 L350.201,187.739 L349.993,187.843 C349.584,187.49 349.14,187.279 348.799,187.153 C348.458,187.027 348.221,186.991 348.217,186.991 C348.149,186.979 348.038,186.941 347.91,186.892 C347.783,186.843 347.64,186.781 347.507,186.72 C347.242,186.6 347.014,186.487 347.014,186.487 L346.941,186.451 L346.941,186.531 L346.897,188.895 L346.593,188.889 L346.434,186.275 L346.333,186.27 C346.215,186.932 346.007,187.105 345.814,187.105 L345.807,187.105 C345.644,187.105 345.449,186.972 345.302,186.833 C345.155,186.694 345.053,186.553 345.053,186.553 L345.022,186.511 L344.979,186.543 C344.868,186.635 344.769,186.67 344.688,186.67 L344.679,186.67 C344.445,186.67 344.247,186.347 344.125,186.001 C344.076,185.859 344.036,185.719 344.007,185.602 C343.978,185.485 343.96,185.39 343.952,185.342 L344.131,185.321 L344.144,185.321 C344.307,185.321 344.536,185.345 344.784,185.382 C345.032,185.42 345.302,185.469 345.554,185.52 C346.052,185.618 346.47,185.717 346.471,185.717 L346.493,185.724 L346.509,185.713 C346.569,185.668 346.573,185.605 346.588,185.505 C346.601,185.406 346.606,185.274 346.606,185.116 C346.606,184.482 346.524,183.426 346.444,182.528" fill="#0B0B0A"/>
    <path d="M323.905,204.407 L323.978,204.443 C324.075,204.49 324.24,204.519 324.455,204.537 C324.668,204.555 324.928,204.561 325.211,204.562 C326.208,204.562 327.463,204.474 327.75,204.452 L327.547,206.628 L328.697,206.686 L328.523,206.279 C328.544,206.232 328.55,206.17 328.56,206.077 C328.571,205.964 328.575,205.812 328.575,205.626 C328.575,203.156 327.806,194.6 327.806,194.599 L327.803,194.564 L327.77,194.554 C327.716,194.54 327.584,194.462 327.399,194.339 C327.211,194.216 326.969,194.049 326.7,193.853 C326.289,193.561 325.803,193.201 325.305,192.828 C324.806,192.453 324.296,192.063 323.837,191.712 C323.494,191.45 323.18,191.207 322.919,191.007 C322.662,190.808 322.457,190.648 322.334,190.552 C322.633,190.54 322.975,190.386 323.319,190.16 C323.663,189.933 324.01,189.637 324.326,189.341 C324.645,189.04 324.928,188.74 325.133,188.515 C325.335,188.289 325.459,188.138 325.46,188.138 C326.278,187.164 326.752,186.155 327.021,185.247 C327.291,184.337 327.355,183.531 327.355,182.965 C327.355,182.432 327.299,182.111 327.298,182.107 L327.052,180.392 L327.223,180.392 L327.269,180.551 C327.355,180.948 327.469,181.908 327.587,183.123 C327.707,184.341 327.833,185.814 327.948,187.237 C328.005,187.948 328.06,188.647 328.11,189.296 C328.16,189.943 328.205,190.541 328.243,191.049 C328.281,191.559 328.311,191.977 328.333,192.269 C328.354,192.562 328.365,192.727 328.365,192.727 L328.524,192.889 C328.634,192.93 328.787,192.952 328.921,192.965 C328.797,193.042 328.686,193.16 328.59,193.275 C328.51,193.372 328.443,193.47 328.395,193.542 L328.32,193.665 L328.302,193.842 C328.302,195.337 329.533,206.583 329.533,206.586 L329.536,206.609 L329.555,206.623 C329.648,206.686 329.804,206.734 330.011,206.772 C330.22,206.811 330.479,206.841 330.777,206.864 C331.077,206.888 331.413,206.902 331.774,206.911 C332.135,206.921 332.52,206.925 332.915,206.925 C335.205,206.925 337.806,206.783 337.808,206.783 L337.865,206.78 L337.442,204.383 C337.56,204.331 337.642,204.29 337.698,204.256 L337.798,204.14 L337.732,204.068 L337.65,204.06 C337.524,204.06 337.342,204.094 337.339,204.095 L337.29,204.103 L337.329,204.32 C337.252,204.344 337.152,204.361 337.032,204.373 C336.911,204.386 336.77,204.391 336.615,204.391 C336.242,204.391 335.783,204.36 335.307,204.313 C334.83,204.266 334.333,204.203 333.885,204.142 C333.541,204.094 333.222,204.045 332.964,204.004 C332.705,203.963 332.502,203.93 332.387,203.909 C332.569,203.729 332.706,203.422 332.811,203.037 C332.918,202.653 332.994,202.192 333.051,201.709 C333.111,201.19 333.148,200.643 333.168,200.136 C333.188,199.63 333.195,199.165 333.195,198.806 C333.195,198.592 333.193,198.415 333.19,198.292 C333.188,198.172 333.186,198.102 333.186,198.102 C333.196,198.005 333.201,197.894 333.201,197.781 C333.198,195.222 330.809,190.519 330.336,189.612 L334.786,192.158 L334.846,192.078 L331.7,189.032 C331.91,188.914 332.181,188.634 332.475,188.276 C332.769,187.919 333.086,187.484 333.386,187.056 C333.701,186.606 333.992,186.164 334.204,185.835 C334.416,185.507 334.548,185.29 334.548,185.29 C334.578,185.252 334.627,185.155 334.692,185.012 C334.758,184.869 334.838,184.678 334.932,184.455 C335.489,183.118 336.431,180.663 336.431,180.663 L336.435,180.651 L336.283,179.37 L335.983,176.342 L336.135,176.373 L336.587,179.682 L336.792,184.117 L341.081,189.335 L341.249,189.368 L341.378,189.466 C341.396,189.479 341.495,189.581 341.645,189.749 C341.795,189.916 342.001,190.149 342.241,190.42 C342.601,190.828 343.042,191.331 343.499,191.855 C343.957,192.379 344.429,192.925 344.859,193.418 C345.717,194.408 346.394,195.192 346.394,195.194 L346.408,195.208 L346.89,195.27 L346.839,192.358 L346.835,192.349 C346.773,192.203 346.675,192.125 346.566,192.125 L346.563,192.125 C346.451,192.128 346.339,192.192 346.236,192.286 C346.13,192.379 346.032,192.504 345.94,192.623 C345.833,192.766 345.745,192.909 345.689,193.001 C345.644,192.94 345.568,192.877 345.474,192.796 C345.271,192.633 344.976,192.43 344.717,192.263 C344.459,192.094 344.241,191.959 344.187,191.927 L344.137,191.744 L344.137,191.743 C344.137,191.608 344.23,191.499 344.329,191.419 C344.426,191.341 344.524,191.301 344.524,191.299 L344.65,191.249 L344.521,191.204 C344.41,191.167 344.321,191.127 344.249,191.088 L344.086,190.978 L344.039,190.935 L344.049,190.935 C344.299,190.935 344.967,191.039 345.574,191.144 C346.182,191.249 346.726,191.354 346.729,191.354 L346.79,191.365 L346.79,191.302 C346.79,191.137 346.782,190.985 346.768,190.849 L346.954,190.834 L346.978,191.017 C347.004,191.164 347.04,191.265 347.079,191.337 C347.152,191.478 347.248,191.506 347.288,191.506 L347.292,191.506 L350.687,192.216 C350.83,192.256 350.93,192.293 350.989,192.322 L351.042,192.353 L350.942,192.381 C350.742,192.419 350.393,192.419 350.393,192.419 L350.387,192.47 L350.35,192.499 C350.514,192.724 350.573,192.875 350.573,192.957 L350.573,192.96 L350.521,193.06 L350.362,193.094 L350.348,193.094 C350.21,193.094 350.036,193.053 349.897,193.012 C349.755,192.971 349.65,192.93 349.65,192.93 L349.607,193.023 C349.68,193.061 349.803,193.175 349.961,193.349 L349.998,193.386 C349.66,193.054 349.269,192.77 348.835,192.625 L347.189,192.306 L347.452,195.097 L347.484,195.107 C347.486,195.107 348.295,195.362 349.182,195.624 C350.067,195.886 351.031,196.151 351.341,196.176 C351.327,196.228 351.305,196.308 351.273,196.403 C351.243,196.498 351.207,196.612 351.163,196.729 C351.044,197.055 350.876,197.423 350.715,197.558 L350.677,197.59 L351.21,198.27 L350.626,198.354 C350.606,198.308 350.571,198.222 350.527,198.111 C350.483,198.001 350.43,197.865 350.377,197.72 C350.246,197.358 350.115,196.937 350.115,196.716 L350.115,196.713 L350.134,196.604 L350.165,196.541 L347.595,196.167 L347.806,198.961 L352.105,199.609 C352.028,199.683 351.902,199.801 351.777,199.934 C351.639,200.083 351.501,200.24 351.421,200.387 L351.284,199.599 L351.213,199.698 L351.158,199.77 L351.005,199.93 C350.881,200.044 350.71,200.154 350.541,200.154 L350.54,200.154 C350.348,200.154 350.13,200.025 349.931,199.557 L349.885,199.445 L349.838,199.557 L349.798,199.63 C349.755,199.698 349.68,199.801 349.561,199.885 C349.441,199.971 349.28,200.037 349.064,200.039 C348.75,200.039 348.317,199.894 347.733,199.435 L347.64,199.361 L348.317,206.232 L348.369,206.226 C348.37,206.226 349.966,206.036 351.625,205.835 C353.287,205.632 355.011,205.416 355.269,205.362 C355.289,205.362 355.354,205.364 355.458,205.364 C355.56,205.365 355.698,205.365 355.86,205.365 C356.083,205.365 356.349,205.364 356.63,205.36 C356.912,205.354 357.207,205.345 357.488,205.331 C358.047,205.301 358.536,205.252 358.738,205.154 L365.172,202.823 L365.175,202.823 C365.351,202.784 365.498,202.756 365.619,202.737 C365.74,202.719 365.833,202.709 365.901,202.709 L366.008,202.724 L366.017,202.727 L365.954,202.806 C365.771,202.981 365.245,203.283 364.561,203.633 C363.877,203.984 363.036,204.386 362.219,204.762 C360.587,205.515 359.053,206.178 359.05,206.178 L359.043,206.182 L359.038,206.186 C356.447,208.422 355.629,209.798 355.626,209.803 L355.621,209.813 L355.621,209.826 C355.603,210.149 355.48,210.336 355.316,210.442 C355.153,210.549 354.948,210.576 354.77,210.578 C354.668,210.578 354.582,210.57 354.517,210.56 L354.414,210.54 L354.407,210.539 L354.403,210.539 C354.377,210.539 353.352,210.533 351.83,210.523 C350.307,210.514 348.287,210.501 346.268,210.488 C345.259,210.483 344.252,210.476 343.307,210.47 C342.362,210.464 341.482,210.458 340.726,210.454 C339.971,210.45 339.343,210.445 338.903,210.442 C338.463,210.439 338.213,210.438 338.211,210.438 C338.022,210.456 337.739,210.469 337.383,210.478 C337.027,210.485 336.598,210.489 336.112,210.489 C335.017,210.489 333.64,210.47 332.191,210.442 C330.741,210.413 329.217,210.375 327.832,210.337 C325.352,210.268 323.313,210.199 322.908,210.186 L323.137,209.636 L323.137,209.626 L323.043,209.437 L322.824,209.245 C322.581,209.063 322.231,208.866 321.921,208.704 C321.611,208.541 321.341,208.414 321.257,208.374 C321.246,208.272 321.194,208.152 321.123,208.03 C321.05,207.906 320.959,207.779 320.87,207.659 C320.797,207.566 320.727,207.48 320.666,207.408 L320.52,207.245 C320.578,207.179 320.586,207.078 320.589,206.971 C320.588,206.728 320.511,206.427 320.498,206.372 L320.543,205.598 C321.125,205.892 322.515,206.122 322.519,206.124 L322.584,206.134 L322.473,205.013 L322.434,205.007 C322.125,204.96 321.945,204.851 321.842,204.719 C321.739,204.585 321.712,204.43 321.71,204.29 L321.712,204.234 C321.75,204.123 321.753,204.098 321.753,204.073 L321.748,204.018 L321.753,203.991 C321.879,203.99 321.999,203.988 322.112,203.988 C322.53,203.988 322.861,204.001 323.121,204.022 C323.38,204.045 323.569,204.075 323.704,204.108 C323.967,204.176 324.011,204.25 324.011,204.279 L324.011,204.284 L323.992,204.333 L323.968,204.357 L323.905,204.407 z M341.543,194.885 C341.543,192.491 340.822,188.475 336.877,184.466 L336.778,184.367 L337.352,191.045 L337.767,191.09 L337.616,191.317 C337.55,191.358 337.279,191.566 337.096,192.253 L337.094,192.264 L338.317,206.631 L338.365,206.631 C338.365,206.631 345.263,206.633 347.355,206.274 L347.448,206.26 L346.508,205.262 L346.489,205.26 C346.487,205.26 346.049,205.226 345.386,205.171 C344.724,205.117 343.84,205.042 342.943,204.961 C342.493,204.923 342.042,204.883 341.613,204.843 C341.185,204.802 340.784,204.764 340.43,204.726 C340.124,204.693 339.851,204.664 339.637,204.637 C339.422,204.608 339.266,204.585 339.191,204.568 C339.273,204.336 339.619,203.35 339.941,202.071 C340.267,200.792 340.571,199.222 340.571,197.822 C340.571,197.382 340.542,196.957 340.47,196.564 C340.402,196.172 340.292,195.81 340.135,195.494 C340.132,195.491 339.993,195.264 339.781,194.917 C339.567,194.57 339.283,194.103 338.991,193.619 C338.744,193.209 338.493,192.785 338.278,192.414 C338.781,193.193 339.097,193.684 339.412,194.178 C339.637,194.53 339.863,194.885 340.073,195.217 C340.284,195.553 340.48,195.866 340.65,196.139 C340.818,196.412 340.96,196.644 341.058,196.814 L341.171,197.016 L341.201,197.075 L341.206,197.091 L341.207,197.107 L341.26,197.262 L341.306,197.103 C341.306,197.101 341.365,196.89 341.426,196.508 C341.485,196.124 341.543,195.571 341.543,194.885 z M344.53,198.556 C344.979,198.556 347.186,198.815 347.189,198.815 L347.256,198.822 L346.933,196.878 L346.882,196.887 L341.629,197.762 L341.67,197.828 C342.131,198.544 347.661,206.102 347.661,206.103 L347.764,206.245 L347.334,199.44 L347.25,199.603 L347.16,199.639 L347.157,199.639 C347.056,199.639 346.908,199.587 346.783,199.535 C346.66,199.482 346.56,199.43 346.56,199.43 L346.487,199.391 L346.483,199.473 C346.481,199.619 346.467,199.738 346.451,199.838 C346.43,199.937 346.405,200.015 346.374,200.072 C346.313,200.185 346.245,200.221 346.157,200.223 L346.151,200.223 C345.921,200.223 345.555,199.898 345.27,199.562 C344.977,199.224 344.75,198.888 344.75,198.888 L344.74,198.874 L344.723,198.867 C344.624,198.835 344.569,198.778 344.539,198.72 L344.501,198.559 L344.501,198.556 L344.53,198.556" fill="#000000"/>
    <path d="M353.034,203.946 C353.04,203.865 353.05,203.689 353.058,203.441 C353.066,203.192 353.074,202.872 353.074,202.498 C353.072,201.481 353.019,200.085 352.784,198.759 C352.548,197.432 352.129,196.175 351.398,195.434 C351.363,195.36 351.13,194.856 350.741,194.288 C350.999,194.617 351.277,194.986 351.557,195.365 C351.919,195.853 352.283,196.359 352.608,196.814 C353.259,197.723 353.75,198.436 353.751,198.437 L353.797,198.503 L353.836,198.436 L353.856,198.341 C353.851,197.759 352.672,194.692 352.672,194.686 L352.668,194.676 L350.926,192.934 C351.252,193.217 351.687,193.619 352.168,194.077 C352.747,194.629 353.393,195.258 353.997,195.853 C355.205,197.041 356.241,198.087 356.244,198.088 L356.318,198.165 L356.33,198.059 L356.332,198.038 C356.33,197.917 356.218,197.515 356.05,196.978 C355.885,196.441 355.663,195.768 355.44,195.102 C354.995,193.776 354.552,192.505 354.552,192.504 L354.547,192.495 L354.526,192.472 L354.583,192.419 C354.777,192.636 354.955,192.836 355.115,193.012 C355.625,193.578 355.937,193.925 355.938,193.925 L356.018,193.863 C355.969,193.792 355.872,193.606 355.753,193.369 C355.633,193.13 355.495,192.841 355.361,192.562 C355.228,192.285 355.101,192.015 355.007,191.815 C354.916,191.615 354.854,191.487 354.853,191.485 C354.749,191.251 354.103,190.173 353.48,189.151 C352.859,188.129 352.263,187.168 352.261,187.166 L352.25,187.15 L352.286,187.125 C352.346,187.219 352.379,187.27 352.379,187.27 L352.384,187.276 L352.39,187.282 C352.548,187.414 353.307,188.346 354.357,189.666 C355.407,190.986 356.745,192.696 358.06,194.386 C358.717,195.232 359.372,196.072 359.981,196.858 C360.591,197.644 361.157,198.375 361.64,199 C362.606,200.252 363.243,201.077 363.245,201.079 L364.488,202.225 L363.705,201.657 L363.687,201.657 L360.002,201.815 L361.786,203.291 L357.67,203.643 L358.068,204.389" fill="#0B0B0A"/>
    <path d="M365.326,202.79 L365.175,202.823 L365.172,202.823 L365.147,202.829 L364.488,202.225 L365.232,202.721 L365.326,202.79" fill="#1B1A19"/>
    <path d="M350.35,192.499 L350.393,192.419 L350.926,192.934 L350.744,192.777 C350.651,192.7 350.567,192.636 350.504,192.592" fill="#1B1A19"/>
    <path d="M349.998,193.386 C350.285,193.669 350.535,193.987 350.741,194.288 C350.665,194.191 350.592,194.098 350.52,194.008 C350.357,193.805 350.207,193.625 349.998,193.386" fill="#1B1A19"/>
    <path d="M341.249,189.368 L346.246,189.577 L346.255,189.584 C346.27,189.591 346.672,189.846 346.768,190.849 C346.782,190.985 346.79,191.137 346.79,191.302 L346.79,191.365 L346.729,191.354 C346.726,191.354 346.182,191.249 345.574,191.144 C344.967,191.039 344.299,190.935 344.049,190.935 L344.039,190.935 L344.086,190.978 L344.249,191.088 C344.321,191.127 344.41,191.167 344.521,191.204 L344.65,191.249 L344.524,191.299 C344.524,191.301 344.426,191.341 344.329,191.419 C344.23,191.499 344.137,191.608 344.137,191.743 L344.137,191.744 L344.187,191.927 C344.241,191.959 344.459,192.094 344.717,192.263 C344.976,192.43 345.271,192.633 345.474,192.796 C345.568,192.877 345.644,192.94 345.689,193.001 C345.745,192.909 345.833,192.766 345.94,192.623 C346.032,192.504 346.13,192.379 346.236,192.286 C346.339,192.192 346.451,192.128 346.563,192.125 L346.566,192.125 C346.675,192.125 346.773,192.203 346.835,192.349 L346.839,192.358 L346.89,195.27 L346.408,195.208 L346.394,195.194 C346.394,195.192 345.717,194.408 344.859,193.418 C344.429,192.925 343.957,192.379 343.499,191.855 C343.042,191.331 342.601,190.828 342.241,190.42 C342.001,190.149 341.795,189.916 341.645,189.749 C341.495,189.581 341.396,189.479 341.378,189.466 L341.249,189.368 z M344.036,192.316 C344.615,192.981 345.187,193.641 345.631,194.156 C346.077,194.67 346.392,195.036 346.458,195.113 L346.788,195.153 L346.739,192.381 C346.681,192.258 346.625,192.227 346.563,192.226 L346.556,192.226 C346.417,192.226 346.191,192.45 346.021,192.683 C345.948,192.782 345.884,192.878 345.833,192.96 L345.727,193.136 L345.708,193.167 L345.627,193.105 L345.629,193.103 L345.622,193.083 L345.579,193.029 L345.411,192.877 C345.269,192.762 345.079,192.625 344.887,192.497 C344.695,192.366 344.505,192.247 344.363,192.154 L344.206,192.058 L344.123,192.008 L344.11,191.999 L344.105,191.987 L344.037,191.744 C344.04,191.62 344.092,191.519 344.161,191.437 L344.379,191.26 C344.19,191.186 344.072,191.103 344,191.038 L343.9,190.92 L343.881,190.881 L343.918,190.856 L344.046,190.834 C344.283,190.834 344.854,190.919 345.411,191.013 C345.966,191.106 346.508,191.207 346.687,191.243 C346.679,190.672 346.583,190.3 346.478,190.061 C346.374,189.821 346.26,189.718 346.22,189.684 L346.213,189.678 L341.538,189.48 C341.68,189.634 341.956,189.943 342.317,190.353 C342.558,190.624 342.833,190.939 343.126,191.273 C343.402,191.588 343.691,191.92 343.981,192.253 L344.036,192.316" fill="#1B1A19"/>
    <path d="M337.656,191.257 L337.7,191.336 C337.756,191.491 337.984,191.904 338.278,192.414 L338.174,192.253 C337.837,191.729 337.611,191.381 337.611,191.381 L337.566,191.354 L337.631,191.295" fill="#1B1A19"/>
    <path d="M337.151,180.221 C337.463,180.556 337.877,180.962 338.27,181.337 C338.944,181.978 339.563,182.535 339.562,182.535 C340.277,183.107 340.712,183.879 340.968,184.694 C341.227,185.51 341.304,186.37 341.304,187.118 C341.304,187.717 341.254,188.245 341.204,188.624 C341.153,189.003 341.103,189.233 341.103,189.233 L341.081,189.335 L336.792,184.117 L336.587,179.682 L336.59,179.705 L337.151,180.221 z M336.89,184.077 L341.025,189.107 C341.074,188.836 341.204,188.068 341.204,187.118 L341.204,187.111 C341.204,185.628 340.887,183.722 339.497,182.61 C339.497,182.61 338.951,182.122 338.328,181.532 C337.706,180.942 337.004,180.253 336.696,179.852 L336.89,184.077" fill="#1B1A19"/>
    <path d="M336.683,179.657 C336.763,179.789 336.932,179.988 337.151,180.221 L336.59,179.705 L336.587,179.682 L336.579,179.487 L336.68,179.654 L336.683,179.657" fill="#1B1A19"/>
    <path d="M326.892,194.103 L326.889,194.115 L326.866,194.098 L326.892,194.103" fill="#1B1A19"/>
    <path d="M321.748,204.018 L321.753,204.073 C321.753,204.098 321.75,204.123 321.712,204.234 C321.722,204.13 321.729,204.084 321.748,204.018" fill="#1B1A19"/>
    <path d="M322.334,190.552 C322.334,190.552 325.351,200.413 321.748,204.018 C321.748,204.018 326.128,202.076 322.334,190.552" fill="#1B1A19"/>
  </g>
</svg>
