<?xml version="1.0" encoding="UTF-8"?>
<!DOCTYPE svg PUBLIC "-//W3C//DTD SVG 1.1//EN" "http://www.w3.org/Graphics/SVG/1.1/DTD/svg11.dtd">
<svg version="1.1" xmlns="http://www.w3.org/2000/svg" xmlns:xlink="http://www.w3.org/1999/xlink" x="0" y="0" width="9.516" height="20.472" viewBox="0, 0, 9.516, 20.472">
  <g id="Layer_1" transform="translate(-532.376, -242.457)">
    <path d="M534.473,261.027 C535.87,260.655 534.904,258.15 533.736,258.783 C532.661,259.366 533.206,261.363 534.473,261.027 z M540.65,261.115 C540.65,261.115 541.122,258.728 539.65,257.617 C539.65,257.617 538.679,257.09 538.484,258.006 C538.696,259.048 538.938,260.153 538.922,261.219 C538.916,261.652 539.279,262.017 539.714,262.017 C540.209,262.018 540.482,261.514 540.65,261.115 z M541.399,259.339 C541.399,259.339 542.122,261.198 541.816,261.337 L541.399,261.281 C541.399,261.281 541.094,262.864 539.956,262.92 C539.956,262.92 538.4,263.197 538.012,260.754 C538.012,260.754 537.43,258.394 537.958,257.2 L538.429,255.618 L537.846,255.091 L537.624,255.34 C537.624,255.34 534.819,257.506 535.459,258.866 C535.459,258.866 535.486,259.449 535.986,260.172 C535.986,260.172 536.125,260.477 535.597,260.727 C535.597,260.727 535.208,262.698 533.875,262.448 C533.875,262.448 532.348,262.642 532.376,260.172 C532.376,260.172 532.571,257.756 534.514,258.144 C534.514,258.144 535.18,256.312 536.819,254.617 L536.985,253.368 L535.375,247.261 C535.375,247.261 534.098,243.68 535.486,242.791 L537.542,249.177 C537.542,249.177 538.207,242.847 538.706,242.457 C538.706,242.457 539.956,246.622 538.874,253.702 C538.874,253.702 539.539,255.701 539.457,255.895 L539.095,256.757 C539.095,256.757 541.01,256.868 541.399,259.339" fill="#000000"/>
  </g>
</svg>
