<?xml version="1.0" encoding="UTF-8"?>
<!DOCTYPE svg PUBLIC "-//W3C//DTD SVG 1.1//EN" "http://www.w3.org/Graphics/SVG/1.1/DTD/svg11.dtd">
<svg version="1.1" xmlns="http://www.w3.org/2000/svg" xmlns:xlink="http://www.w3.org/1999/xlink" x="0" y="0" width="9.386" height="24.328" viewBox="0, 0, 9.386, 24.328">
  <g id="Layer_1" transform="translate(-586.32, -371.804)">
    <path d="M587.36,376.752 C587.36,376.64 587.262,376.55 587.142,376.55 C587.022,376.55 586.923,376.64 586.923,376.752 C586.923,376.864 587.022,376.955 587.142,376.955 C587.262,376.955 587.36,376.864 587.36,376.752 z M587.367,375.918 C587.367,375.806 587.268,375.715 587.148,375.715 C587.028,375.715 586.931,375.806 586.931,375.918 C586.931,376.029 587.028,376.12 587.148,376.12 C587.268,376.12 587.367,376.029 587.367,375.918 z M587.824,375.229 C587.824,375.116 587.726,375.026 587.606,375.026 C587.485,375.026 587.388,375.116 587.388,375.229 C587.388,375.341 587.485,375.433 587.606,375.433 C587.726,375.433 587.824,375.341 587.824,375.229 z M588.023,375.918 C588.023,375.806 587.927,375.715 587.806,375.715 C587.686,375.715 587.589,375.806 587.589,375.918 C587.589,376.029 587.686,376.12 587.806,376.12 C587.927,376.12 588.023,376.029 588.023,375.918 z M588.034,376.752 C588.034,376.64 587.937,376.55 587.817,376.55 C587.696,376.55 587.599,376.64 587.599,376.752 C587.599,376.864 587.696,376.955 587.817,376.955 C587.937,376.955 588.034,376.864 588.034,376.752 z M588.172,378.212 C588.172,378.1 588.076,378.009 587.955,378.009 C587.834,378.009 587.738,378.1 587.738,378.212 C587.738,378.324 587.834,378.416 587.955,378.416 C588.076,378.416 588.172,378.324 588.172,378.212 z M588.46,375.229 C588.46,375.116 588.364,375.026 588.244,375.026 C588.124,375.026 588.026,375.116 588.026,375.229 C588.026,375.341 588.124,375.433 588.244,375.433 C588.364,375.433 588.46,375.341 588.46,375.229 z M588.689,375.918 C588.689,375.806 588.591,375.715 588.471,375.715 C588.351,375.715 588.253,375.806 588.253,375.918 C588.253,376.029 588.351,376.12 588.471,376.12 C588.591,376.12 588.689,376.029 588.689,375.918 z M588.709,377.478 C588.709,377.366 588.613,377.274 588.492,377.274 C588.372,377.274 588.275,377.366 588.275,377.478 C588.275,377.59 588.372,377.681 588.492,377.681 C588.613,377.681 588.709,377.59 588.709,377.478 z M588.709,376.752 C588.709,376.64 588.613,376.55 588.492,376.55 C588.372,376.55 588.275,376.64 588.275,376.752 C588.275,376.864 588.372,376.955 588.492,376.955 C588.613,376.955 588.709,376.864 588.709,376.752 z M588.786,373.509 C588.786,373.397 588.688,373.307 588.568,373.307 C588.448,373.307 588.35,373.397 588.35,373.509 C588.35,373.62 588.448,373.712 588.568,373.712 C588.688,373.712 588.786,373.62 588.786,373.509 z M588.834,378.212 C588.834,378.1 588.736,378.009 588.616,378.009 C588.497,378.009 588.398,378.1 588.398,378.212 C588.398,378.324 588.497,378.416 588.616,378.416 C588.736,378.416 588.834,378.324 588.834,378.212 z M589.067,378.938 C589.067,378.827 588.968,378.736 588.849,378.736 C588.729,378.736 588.63,378.827 588.63,378.938 C588.63,379.052 588.729,379.143 588.849,379.143 C588.968,379.143 589.067,379.052 589.067,378.938 z M589.099,375.229 C589.099,375.116 589.001,375.026 588.881,375.026 C588.76,375.026 588.663,375.116 588.663,375.229 C588.663,375.341 588.76,375.433 588.881,375.433 C589.001,375.433 589.099,375.341 589.099,375.229 z M589.354,375.918 C589.354,375.806 589.256,375.715 589.135,375.715 C589.015,375.715 588.917,375.806 588.917,375.918 C588.917,376.029 589.015,376.12 589.135,376.12 C589.256,376.12 589.354,376.029 589.354,375.918 z M589.384,377.478 C589.384,377.366 589.288,377.274 589.167,377.274 C589.046,377.274 588.95,377.366 588.95,377.478 C588.95,377.59 589.046,377.681 589.167,377.681 C589.288,377.681 589.384,377.59 589.384,377.478 z M589.384,376.752 C589.384,376.64 589.288,376.55 589.167,376.55 C589.046,376.55 588.95,376.64 588.95,376.752 C588.95,376.864 589.046,376.955 589.167,376.955 C589.288,376.955 589.384,376.864 589.384,376.752 z M589.496,378.212 C589.496,378.1 589.398,378.009 589.278,378.009 C589.157,378.009 589.06,378.1 589.06,378.212 C589.06,378.324 589.157,378.416 589.278,378.416 C589.398,378.416 589.496,378.324 589.496,378.212 z M589.717,378.938 C589.717,378.827 589.62,378.736 589.499,378.736 C589.379,378.736 589.283,378.827 589.283,378.938 C589.283,379.052 589.379,379.143 589.499,379.143 C589.62,379.143 589.717,379.052 589.717,378.938 z M589.736,375.229 C589.736,375.116 589.639,375.026 589.519,375.026 C589.398,375.026 589.301,375.116 589.301,375.229 C589.301,375.341 589.398,375.433 589.519,375.433 C589.639,375.433 589.736,375.341 589.736,375.229 z M589.848,379.668 C589.848,379.556 589.752,379.465 589.63,379.465 C589.51,379.465 589.414,379.556 589.414,379.668 C589.414,379.781 589.51,379.871 589.63,379.871 C589.752,379.871 589.848,379.781 589.848,379.668 z M590.018,375.918 C590.018,375.806 589.92,375.715 589.799,375.715 C589.68,375.715 589.583,375.806 589.583,375.918 C589.583,376.029 589.68,376.12 589.799,376.12 C589.92,376.12 590.018,376.029 590.018,375.918 z M590.06,377.478 C590.06,377.366 589.963,377.274 589.842,377.274 C589.721,377.274 589.625,377.366 589.625,377.478 C589.625,377.59 589.721,377.681 589.842,377.681 C589.963,377.681 590.06,377.59 590.06,377.478 z M590.06,376.752 C590.06,376.64 589.963,376.55 589.842,376.55 C589.721,376.55 589.625,376.64 589.625,376.752 C589.625,376.864 589.721,376.955 589.842,376.955 C589.963,376.955 590.06,376.864 590.06,376.752 z M590.158,378.212 C590.158,378.1 590.059,378.009 589.939,378.009 C589.82,378.009 589.721,378.1 589.721,378.212 C589.721,378.324 589.82,378.416 589.939,378.416 C590.059,378.416 590.158,378.324 590.158,378.212 z M590.369,378.938 C590.369,378.827 590.27,378.736 590.15,378.736 C590.03,378.736 589.931,378.827 589.931,378.938 C589.931,379.052 590.03,379.143 590.15,379.143 C590.27,379.143 590.369,379.052 590.369,378.938 z M590.374,375.229 C590.374,375.116 590.277,375.026 590.157,375.026 C590.036,375.026 589.938,375.116 589.938,375.229 C589.938,375.341 590.036,375.433 590.157,375.433 C590.277,375.433 590.374,375.341 590.374,375.229 z M590.484,379.668 C590.484,379.556 590.386,379.465 590.265,379.465 C590.146,379.465 590.048,379.556 590.048,379.668 C590.048,379.781 590.146,379.871 590.265,379.871 C590.386,379.871 590.484,379.781 590.484,379.668 z M590.682,375.918 C590.682,375.806 590.584,375.715 590.464,375.715 C590.344,375.715 590.248,375.806 590.248,375.918 C590.248,376.029 590.344,376.12 590.464,376.12 C590.584,376.12 590.682,376.029 590.682,375.918 z M590.735,377.478 C590.735,377.366 590.637,377.274 590.517,377.274 C590.397,377.274 590.299,377.366 590.299,377.478 C590.299,377.59 590.397,377.681 590.517,377.681 C590.637,377.681 590.735,377.59 590.735,377.478 z M590.735,376.752 C590.735,376.64 590.637,376.55 590.517,376.55 C590.397,376.55 590.299,376.64 590.299,376.752 C590.299,376.864 590.397,376.955 590.517,376.955 C590.637,376.955 590.735,376.864 590.735,376.752 z M590.819,378.212 C590.819,378.1 590.721,378.009 590.6,378.009 C590.48,378.009 590.382,378.1 590.382,378.212 C590.382,378.324 590.48,378.416 590.6,378.416 C590.721,378.416 590.819,378.324 590.819,378.212 z M591.012,375.229 C591.012,375.116 590.914,375.026 590.794,375.026 C590.674,375.026 590.576,375.116 590.576,375.229 C590.576,375.341 590.674,375.433 590.794,375.433 C590.914,375.433 591.012,375.341 591.012,375.229 z M591.018,378.938 C591.018,378.827 590.921,378.736 590.801,378.736 C590.68,378.736 590.583,378.827 590.583,378.938 C590.583,379.052 590.68,379.143 590.801,379.143 C590.921,379.143 591.018,379.052 591.018,378.938 z M591.119,379.668 C591.119,379.556 591.022,379.465 590.901,379.465 C590.781,379.465 590.683,379.556 590.683,379.668 C590.683,379.781 590.781,379.871 590.901,379.871 C591.022,379.871 591.119,379.781 591.119,379.668 z M591.347,375.918 C591.347,375.806 591.249,375.715 591.128,375.715 C591.009,375.715 590.912,375.806 590.912,375.918 C590.912,376.029 591.009,376.12 591.128,376.12 C591.249,376.12 591.347,376.029 591.347,375.918 z M591.41,377.478 C591.41,377.366 591.313,377.274 591.193,377.274 C591.072,377.274 590.975,377.366 590.975,377.478 C590.975,377.59 591.072,377.681 591.193,377.681 C591.313,377.681 591.41,377.59 591.41,377.478 z M591.41,376.752 C591.41,376.64 591.313,376.55 591.193,376.55 C591.072,376.55 590.975,376.64 590.975,376.752 C590.975,376.864 591.072,376.955 591.193,376.955 C591.313,376.955 591.41,376.864 591.41,376.752 z M591.479,378.212 C591.479,378.1 591.382,378.009 591.262,378.009 C591.141,378.009 591.043,378.1 591.043,378.212 C591.043,378.324 591.141,378.416 591.262,378.416 C591.382,378.416 591.479,378.324 591.479,378.212 z M591.649,375.229 C591.649,375.116 591.551,375.026 591.431,375.026 C591.311,375.026 591.212,375.116 591.212,375.229 C591.212,375.341 591.311,375.433 591.431,375.433 C591.551,375.433 591.649,375.341 591.649,375.229 z M591.669,378.938 C591.669,378.827 591.571,378.736 591.451,378.736 C591.331,378.736 591.233,378.827 591.233,378.938 C591.233,379.052 591.331,379.143 591.451,379.143 C591.571,379.143 591.669,379.052 591.669,378.938 z M592.011,375.918 C592.011,375.806 591.915,375.715 591.793,375.715 C591.673,375.715 591.576,375.806 591.576,375.918 C591.576,376.029 591.673,376.12 591.793,376.12 C591.915,376.12 592.011,376.029 592.011,375.918 z M592.086,377.478 C592.086,377.366 591.988,377.274 591.868,377.274 C591.749,377.274 591.65,377.366 591.65,377.478 C591.65,377.59 591.749,377.681 591.868,377.681 C591.988,377.681 592.086,377.59 592.086,377.478 z M592.086,376.752 C592.086,376.64 591.988,376.55 591.868,376.55 C591.749,376.55 591.65,376.64 591.65,376.752 C591.65,376.864 591.749,376.955 591.868,376.955 C591.988,376.955 592.086,376.864 592.086,376.752 z M592.142,378.212 C592.142,378.1 592.043,378.009 591.923,378.009 C591.802,378.009 591.706,378.1 591.706,378.212 C591.706,378.324 591.802,378.416 591.923,378.416 C592.043,378.416 592.142,378.324 592.142,378.212 z M592.287,375.229 C592.287,375.116 592.189,375.026 592.069,375.026 C591.949,375.026 591.851,375.116 591.851,375.229 C591.851,375.341 591.949,375.433 592.069,375.433 C592.189,375.433 592.287,375.341 592.287,375.229 z M592.319,378.938 C592.319,378.827 592.222,378.736 592.103,378.736 C591.981,378.736 591.884,378.827 591.884,378.938 C591.884,379.052 591.981,379.143 592.103,379.143 C592.222,379.143 592.319,379.052 592.319,378.938 z M592.676,375.918 C592.676,375.806 592.58,375.715 592.458,375.715 C592.338,375.715 592.24,375.806 592.24,375.918 C592.24,376.029 592.338,376.12 592.458,376.12 C592.58,376.12 592.676,376.029 592.676,375.918 z M592.761,377.478 C592.761,377.366 592.664,377.274 592.542,377.274 C592.423,377.274 592.325,377.366 592.325,377.478 C592.325,377.59 592.423,377.681 592.542,377.681 C592.664,377.681 592.761,377.59 592.761,377.478 z M592.761,376.752 C592.761,376.64 592.664,376.55 592.542,376.55 C592.423,376.55 592.325,376.64 592.325,376.752 C592.325,376.864 592.423,376.955 592.542,376.955 C592.664,376.955 592.761,376.864 592.761,376.752 z M592.802,378.212 C592.802,378.1 592.704,378.009 592.583,378.009 C592.463,378.009 592.366,378.1 592.366,378.212 C592.366,378.324 592.463,378.416 592.583,378.416 C592.704,378.416 592.802,378.324 592.802,378.212 z M592.916,379.668 C592.916,379.556 592.818,379.465 592.698,379.465 C592.578,379.465 592.48,379.556 592.48,379.668 C592.48,379.781 592.578,379.871 592.698,379.871 C592.818,379.871 592.916,379.781 592.916,379.668 z M592.925,375.229 C592.925,375.116 592.827,375.026 592.707,375.026 C592.587,375.026 592.488,375.116 592.488,375.229 C592.488,375.341 592.587,375.433 592.707,375.433 C592.827,375.433 592.925,375.341 592.925,375.229 z M592.97,378.938 C592.97,378.827 592.873,378.736 592.751,378.736 C592.632,378.736 592.535,378.827 592.535,378.938 C592.535,379.052 592.632,379.143 592.751,379.143 C592.873,379.143 592.97,379.052 592.97,378.938 z M593.34,375.918 C593.34,375.806 593.244,375.715 593.123,375.715 C593.002,375.715 592.905,375.806 592.905,375.918 C592.905,376.029 593.002,376.12 593.123,376.12 C593.244,376.12 593.34,376.029 593.34,375.918 z M593.436,377.478 C593.436,377.366 593.339,377.274 593.219,377.274 C593.097,377.274 593,377.366 593,377.478 C593,377.59 593.097,377.681 593.219,377.681 C593.339,377.681 593.436,377.59 593.436,377.478 z M593.436,376.752 C593.436,376.64 593.339,376.55 593.219,376.55 C593.097,376.55 593,376.64 593,376.752 C593,376.864 593.097,376.955 593.219,376.955 C593.339,376.955 593.436,376.864 593.436,376.752 z M593.437,373.509 C593.437,373.397 593.339,373.307 593.219,373.307 C593.099,373.307 593,373.397 593,373.509 C593,373.62 593.099,373.712 593.219,373.712 C593.339,373.712 593.437,373.62 593.437,373.509 z M593.463,378.212 C593.463,378.1 593.367,378.009 593.247,378.009 C593.125,378.009 593.029,378.1 593.029,378.212 C593.029,378.324 593.125,378.416 593.247,378.416 C593.367,378.416 593.463,378.324 593.463,378.212 z M593.562,375.229 C593.562,375.116 593.463,375.026 593.344,375.026 C593.223,375.026 593.125,375.116 593.125,375.229 C593.125,375.341 593.223,375.433 593.344,375.433 C593.463,375.433 593.562,375.341 593.562,375.229 z M593.621,378.938 C593.621,378.827 593.523,378.736 593.403,378.736 C593.283,378.736 593.185,378.827 593.185,378.938 C593.185,379.052 593.283,379.143 593.403,379.143 C593.523,379.143 593.621,379.052 593.621,378.938 z M594.006,375.918 C594.006,375.806 593.909,375.715 593.789,375.715 C593.668,375.715 593.57,375.806 593.57,375.918 C593.57,376.029 593.668,376.12 593.789,376.12 C593.909,376.12 594.006,376.029 594.006,375.918 z M594.111,377.478 C594.111,377.366 594.013,377.274 593.894,377.274 C593.774,377.274 593.675,377.366 593.675,377.478 C593.675,377.59 593.774,377.681 593.894,377.681 C594.013,377.681 594.111,377.59 594.111,377.478 z M594.111,376.752 C594.111,376.64 594.013,376.55 593.894,376.55 C593.774,376.55 593.675,376.64 593.675,376.752 C593.675,376.864 593.774,376.955 593.894,376.955 C594.013,376.955 594.111,376.864 594.111,376.752 z M594.125,378.212 C594.125,378.1 594.027,378.009 593.907,378.009 C593.787,378.009 593.69,378.1 593.69,378.212 C593.69,378.324 593.787,378.416 593.907,378.416 C594.027,378.416 594.125,378.324 594.125,378.212 z M594.2,375.229 C594.2,375.116 594.102,375.026 593.981,375.026 C593.862,375.026 593.764,375.116 593.764,375.229 C593.764,375.341 593.862,375.433 593.981,375.433 C594.102,375.433 594.2,375.341 594.2,375.229 z M594.67,375.918 C594.67,375.806 594.573,375.715 594.453,375.715 C594.333,375.715 594.235,375.806 594.235,375.918 C594.235,376.029 594.333,376.12 594.453,376.12 C594.573,376.12 594.67,376.029 594.67,375.918 z M594.786,377.478 C594.786,377.366 594.69,377.274 594.569,377.274 C594.449,377.274 594.35,377.366 594.35,377.478 C594.35,377.59 594.449,377.681 594.569,377.681 C594.69,377.681 594.786,377.59 594.786,377.478 z M595.334,375.918 C595.334,375.806 595.237,375.715 595.118,375.715 C594.997,375.715 594.899,375.806 594.899,375.918 C594.899,376.029 594.997,376.12 595.118,376.12 C595.237,376.12 595.334,376.029 595.334,375.918 z M593.174,372.494 C594.863,373.488 596.202,374.975 595.529,377.061 C595.293,377.788 594.511,379.381 593.719,379.702 C592.095,380.361 591.656,381.766 591.656,381.766 C591.305,383.348 592.007,392.746 592.007,392.746 C592.535,396.786 590.954,396.085 590.954,396.085 C588.933,396.085 589.812,392.746 589.812,392.746 C590.601,390.902 590.426,381.766 590.426,381.766 C590.426,380.8 588.933,379.702 588.933,379.702 C583.75,377.023 587.878,372.894 587.878,372.894 C589.572,371.603 591.396,371.444 593.174,372.494 z M588.568,374.311 C588.688,374.311 588.786,374.221 588.786,374.108 C588.786,373.996 588.688,373.904 588.568,373.904 C588.448,373.904 588.35,373.996 588.35,374.108 C588.35,374.221 588.448,374.311 588.568,374.311 z M588.786,374.647 C588.786,374.536 588.688,374.444 588.568,374.444 C588.448,374.444 588.35,374.536 588.35,374.647 C588.35,374.76 588.448,374.851 588.568,374.851 C588.688,374.851 588.786,374.76 588.786,374.647 z M588.21,374.108 C588.21,373.996 588.113,373.904 587.993,373.904 C587.873,373.904 587.775,373.996 587.775,374.108 C587.775,374.221 587.873,374.311 587.993,374.311 C588.113,374.311 588.21,374.221 588.21,374.108 z M588.21,374.647 C588.21,374.536 588.113,374.444 587.993,374.444 C587.873,374.444 587.775,374.536 587.775,374.647 C587.775,374.76 587.873,374.851 587.993,374.851 C588.113,374.851 588.21,374.76 588.21,374.647 z M587.599,377.478 C587.599,377.59 587.696,377.681 587.817,377.681 C587.937,377.681 588.034,377.59 588.034,377.478 C588.034,377.366 587.937,377.274 587.817,377.274 C587.696,377.274 587.599,377.366 587.599,377.478 z M587.636,374.647 C587.636,374.536 587.539,374.444 587.418,374.444 C587.297,374.444 587.201,374.536 587.201,374.647 C587.201,374.76 587.297,374.851 587.418,374.851 C587.539,374.851 587.636,374.76 587.636,374.647 z M587.433,377.466 C587.433,377.353 587.336,377.263 587.215,377.263 C587.095,377.263 586.999,377.353 586.999,377.466 C586.999,377.578 587.095,377.669 587.215,377.669 C587.336,377.669 587.433,377.578 587.433,377.466 z M589.905,372.662 C590.026,372.662 590.124,372.571 590.124,372.459 C590.124,372.348 590.026,372.255 589.905,372.255 C589.786,372.255 589.688,372.348 589.688,372.459 C589.688,372.571 589.786,372.662 589.905,372.662 z M589.905,373.186 C590.026,373.186 590.124,373.097 590.124,372.984 C590.124,372.871 590.026,372.781 589.905,372.781 C589.786,372.781 589.688,372.871 589.688,372.984 C589.688,373.097 589.786,373.186 589.905,373.186 z M589.905,374.311 C590.026,374.311 590.124,374.221 590.124,374.108 C590.124,373.996 590.026,373.904 589.905,373.904 C589.786,373.904 589.688,373.996 589.688,374.108 C589.688,374.221 589.786,374.311 589.905,374.311 z M590.124,373.509 C590.124,373.397 590.026,373.307 589.905,373.307 C589.786,373.307 589.688,373.397 589.688,373.509 C589.688,373.62 589.786,373.712 589.905,373.712 C590.026,373.712 590.124,373.62 590.124,373.509 z M589.905,374.444 C589.786,374.444 589.688,374.536 589.688,374.647 C589.688,374.76 589.786,374.851 589.905,374.851 C590.026,374.851 590.124,374.76 590.124,374.647 C590.124,374.536 590.026,374.444 589.905,374.444 z M589.205,373.186 C589.326,373.186 589.423,373.097 589.423,372.984 C589.423,372.871 589.326,372.781 589.205,372.781 C589.085,372.781 588.988,372.871 588.988,372.984 C588.988,373.097 589.085,373.186 589.205,373.186 z M589.205,374.311 C589.326,374.311 589.423,374.221 589.423,374.108 C589.423,373.996 589.326,373.904 589.205,373.904 C589.085,373.904 588.988,373.996 588.988,374.108 C588.988,374.221 589.085,374.311 589.205,374.311 z M589.423,373.509 C589.423,373.397 589.326,373.307 589.205,373.307 C589.085,373.307 588.988,373.397 588.988,373.509 C588.988,373.62 589.085,373.712 589.205,373.712 C589.326,373.712 589.423,373.62 589.423,373.509 z M589.423,374.647 C589.423,374.536 589.326,374.444 589.205,374.444 C589.085,374.444 588.988,374.536 588.988,374.647 C588.988,374.76 589.085,374.851 589.205,374.851 C589.326,374.851 589.423,374.76 589.423,374.647 z M591.524,372.984 C591.524,372.871 591.426,372.781 591.306,372.781 C591.186,372.781 591.088,372.871 591.088,372.984 C591.088,373.097 591.186,373.186 591.306,373.186 C591.426,373.186 591.524,373.097 591.524,372.984 z M591.524,373.509 C591.524,373.397 591.426,373.307 591.306,373.307 C591.186,373.307 591.088,373.397 591.088,373.509 C591.088,373.62 591.186,373.712 591.306,373.712 C591.426,373.712 591.524,373.62 591.524,373.509 z M591.524,374.647 C591.524,374.536 591.426,374.444 591.306,374.444 C591.186,374.444 591.088,374.536 591.088,374.647 C591.088,374.76 591.186,374.851 591.306,374.851 C591.426,374.851 591.524,374.76 591.524,374.647 z M591.306,374.311 C591.426,374.311 591.524,374.221 591.524,374.108 C591.524,373.996 591.426,373.904 591.306,373.904 C591.186,373.904 591.088,373.996 591.088,374.108 C591.088,374.221 591.186,374.311 591.306,374.311 z M590.606,372.662 C590.727,372.662 590.824,372.571 590.824,372.459 C590.824,372.348 590.727,372.255 590.606,372.255 C590.486,372.255 590.389,372.348 590.389,372.459 C590.389,372.571 590.486,372.662 590.606,372.662 z M590.606,373.186 C590.727,373.186 590.824,373.097 590.824,372.984 C590.824,372.871 590.727,372.781 590.606,372.781 C590.486,372.781 590.389,372.871 590.389,372.984 C590.389,373.097 590.486,373.186 590.606,373.186 z M590.606,374.311 C590.727,374.311 590.824,374.221 590.824,374.108 C590.824,373.996 590.727,373.904 590.606,373.904 C590.486,373.904 590.389,373.996 590.389,374.108 C590.389,374.221 590.486,374.311 590.606,374.311 z M590.824,373.509 C590.824,373.397 590.727,373.307 590.606,373.307 C590.486,373.307 590.389,373.397 590.389,373.509 C590.389,373.62 590.486,373.712 590.606,373.712 C590.727,373.712 590.824,373.62 590.824,373.509 z M590.824,374.647 C590.824,374.536 590.727,374.444 590.606,374.444 C590.486,374.444 590.389,374.536 590.389,374.647 C590.389,374.76 590.486,374.851 590.606,374.851 C590.727,374.851 590.824,374.76 590.824,374.647 z M591.881,372.662 C592.001,372.662 592.099,372.571 592.099,372.459 C592.099,372.348 592.001,372.255 591.881,372.255 C591.761,372.255 591.664,372.348 591.664,372.459 C591.664,372.571 591.761,372.662 591.881,372.662 z M591.881,373.186 C592.001,373.186 592.099,373.097 592.099,372.984 C592.099,372.871 592.001,372.781 591.881,372.781 C591.761,372.781 591.664,372.871 591.664,372.984 C591.664,373.097 591.761,373.186 591.881,373.186 z M591.881,374.311 C592.001,374.311 592.099,374.221 592.099,374.108 C592.099,373.996 592.001,373.904 591.881,373.904 C591.761,373.904 591.664,373.996 591.664,374.108 C591.664,374.221 591.761,374.311 591.881,374.311 z M592.063,379.465 C591.943,379.465 591.844,379.556 591.844,379.668 C591.844,379.781 591.943,379.871 592.063,379.871 C592.183,379.871 592.281,379.781 592.281,379.668 C592.281,379.556 592.183,379.465 592.063,379.465 z M592.099,373.509 C592.099,373.397 592.001,373.307 591.881,373.307 C591.761,373.307 591.664,373.397 591.664,373.509 C591.664,373.62 591.761,373.712 591.881,373.712 C592.001,373.712 592.099,373.62 592.099,373.509 z M592.099,374.647 C592.099,374.536 592.001,374.444 591.881,374.444 C591.761,374.444 591.664,374.536 591.664,374.647 C591.664,374.76 591.761,374.851 591.881,374.851 C592.001,374.851 592.099,374.76 592.099,374.647 z M591.754,379.668 C591.754,379.556 591.658,379.465 591.536,379.465 C591.416,379.465 591.319,379.556 591.319,379.668 C591.319,379.781 591.416,379.871 591.536,379.871 C591.658,379.871 591.754,379.781 591.754,379.668 z M591.524,372.459 C591.524,372.348 591.426,372.255 591.306,372.255 C591.186,372.255 591.088,372.348 591.088,372.459 C591.088,372.571 591.186,372.662 591.306,372.662 C591.426,372.662 591.524,372.571 591.524,372.459 z M593.857,374.311 C593.977,374.311 594.074,374.221 594.074,374.108 C594.074,373.996 593.977,373.904 593.857,373.904 C593.736,373.904 593.639,373.996 593.639,374.108 C593.639,374.221 593.736,374.311 593.857,374.311 z M593.857,374.444 C593.736,374.444 593.639,374.536 593.639,374.647 C593.639,374.76 593.736,374.851 593.857,374.851 C593.977,374.851 594.074,374.76 594.074,374.647 C594.074,374.536 593.977,374.444 593.857,374.444 z M593.219,374.311 C593.339,374.311 593.437,374.221 593.437,374.108 C593.437,373.996 593.339,373.904 593.219,373.904 C593.099,373.904 593,373.996 593,374.108 C593,374.221 593.099,374.311 593.219,374.311 z M593.437,374.647 C593.437,374.536 593.339,374.444 593.219,374.444 C593.099,374.444 593,374.536 593,374.647 C593,374.76 593.099,374.851 593.219,374.851 C593.339,374.851 593.437,374.76 593.437,374.647 z M592.581,373.186 C592.701,373.186 592.798,373.097 592.798,372.984 C592.798,372.871 592.701,372.781 592.581,372.781 C592.461,372.781 592.363,372.871 592.363,372.984 C592.363,373.097 592.461,373.186 592.581,373.186 z M592.581,374.311 C592.701,374.311 592.798,374.221 592.798,374.108 C592.798,373.996 592.701,373.904 592.581,373.904 C592.461,373.904 592.363,373.996 592.363,374.108 C592.363,374.221 592.461,374.311 592.581,374.311 z M592.798,373.509 C592.798,373.397 592.701,373.307 592.581,373.307 C592.461,373.307 592.363,373.397 592.363,373.509 C592.363,373.62 592.461,373.712 592.581,373.712 C592.701,373.712 592.798,373.62 592.798,373.509 z M592.798,374.647 C592.798,374.536 592.701,374.444 592.581,374.444 C592.461,374.444 592.363,374.536 592.363,374.647 C592.363,374.76 592.461,374.851 592.581,374.851 C592.701,374.851 592.798,374.76 592.798,374.647 z M594.944,376.752 C594.944,376.864 595.042,376.955 595.163,376.955 C595.282,376.955 595.38,376.864 595.38,376.752 C595.38,376.64 595.282,376.55 595.163,376.55 C595.042,376.55 594.944,376.64 594.944,376.752 z M594.786,376.752 C594.786,376.64 594.69,376.55 594.569,376.55 C594.449,376.55 594.35,376.64 594.35,376.752 C594.35,376.864 594.449,376.955 594.569,376.955 C594.69,376.955 594.786,376.864 594.786,376.752 z M594.622,374.851 C594.741,374.851 594.838,374.76 594.838,374.647 C594.838,374.536 594.741,374.444 594.622,374.444 C594.5,374.444 594.403,374.536 594.403,374.647 C594.403,374.76 594.5,374.851 594.622,374.851 z M594.837,375.229 C594.837,375.116 594.739,375.026 594.62,375.026 C594.5,375.026 594.401,375.116 594.401,375.229 C594.401,375.341 594.5,375.433 594.62,375.433 C594.739,375.433 594.837,375.341 594.837,375.229" fill="#000000"/>
  </g>
</svg>
