<?xml version="1.0" encoding="UTF-8"?>
<!DOCTYPE svg PUBLIC "-//W3C//DTD SVG 1.1//EN" "http://www.w3.org/Graphics/SVG/1.1/DTD/svg11.dtd">
<svg version="1.1" xmlns="http://www.w3.org/2000/svg" xmlns:xlink="http://www.w3.org/1999/xlink" x="0" y="0" width="8.057" height="12.402" viewBox="0, 0, 8.057, 12.402">
  <g id="Layer_1" transform="translate(-538.325, -395.151)">
    <path d="M540.677,395.827 L542.152,395.744 C542.152,395.744 541.967,395.437 542.316,395.151 C542.316,395.151 542.561,395.54 542.459,395.765 L543.995,395.765 L543.955,396.032 L546.31,400.744 C546.31,400.744 546.495,400.989 546.269,401.071 C546.269,401.071 544.671,401.44 542.623,401.44 C542.623,401.44 543.176,405.004 542.91,405.476 C542.91,405.476 542.683,405.784 542.705,405.988 C542.705,405.988 543.155,405.968 543.503,406.479 C543.503,406.479 544.671,406.664 544.077,407.3 C544.077,407.3 542.09,407.811 541.066,407.381 C541.066,407.381 540.348,406.685 541.516,406.582 C541.516,406.582 541.824,406.009 542.295,405.988 C542.295,405.988 542.233,405.64 542.069,405.496 C542.069,405.496 541.824,403.489 542.171,401.461 C542.171,401.461 538.71,401.398 538.443,401.215 C538.443,401.215 538.177,400.989 538.443,400.784 L540.635,396.154 L540.677,395.827" fill="#000000"/>
  </g>
</svg>
