<?xml version="1.0" encoding="UTF-8"?>
<!DOCTYPE svg PUBLIC "-//W3C//DTD SVG 1.1//EN" "http://www.w3.org/Graphics/SVG/1.1/DTD/svg11.dtd">
<svg version="1.1" xmlns="http://www.w3.org/2000/svg" xmlns:xlink="http://www.w3.org/1999/xlink" x="0" y="0" width="43.202" height="33.239" viewBox="0, 0, 43.202, 33.239">
  <g id="Layer_1" transform="translate(-3.472, -295.036)">
    <g>
      <path d="M22.513,310.668 L22.881,310.208 L22.183,310.295 L22.174,310.299 L21.599,310.633 L22.513,310.668 z M26.487,314.503 L26.519,314.48 L26.526,314.454 L26.525,314.44 L26.509,314.378 L26.505,314.365 L26.472,314.229 L26.399,314.213 L26.337,314.256 C26.098,314.194 25.595,314.16 25.019,314.138 C24.441,314.12 23.789,314.113 23.25,314.113 C22.619,314.113 22.147,314.122 22.147,314.122 L22.108,314.122 L22.098,314.16 L21.81,315.312 L26.438,315.732 M26.781,311.014 L26.781,310.434 L23.264,310.151 L23.259,310.202 L23.188,310.982 L23.257,310.967 C23.368,310.94 23.657,310.929 24.018,310.929 L24.061,310.929 C25.11,310.927 26.724,311.01 26.727,311.01 L26.781,311.014 z M29.378,314.656 L29.384,314.602 L27.185,314.48 L27.175,314.524 L26.942,315.723 L28.991,315.934 L29.003,315.931 C29.091,315.895 29.128,315.799 29.174,315.679 C29.302,315.312 29.378,314.659 29.378,314.656 z M30.123,311.356 L30.208,310.846 L27.43,310.491 L27.43,311.073 L30.123,311.356 z M31.501,306.387 L31.499,306.37 C31.483,306.277 31.402,306.219 31.293,306.159 C30.529,305.764 27.764,305.507 27.759,305.506 L27.712,305.501 L27.704,305.547 L27.557,306.354 L31.269,306.773 L31.501,306.387 z M35.123,324.745 L35.123,322.668 L33.531,322.668 L33.398,323.066 C32.913,322.919 28.863,321.695 26.734,321.437 L26.684,321.432 L26.677,321.482 L26.536,322.692 L29.63,323.243 C29.671,323.387 29.846,323.99 30.044,324.191 L30.055,324.204 L30.072,324.207 C30.073,324.207 31.132,324.346 32.276,324.481 C33.42,324.621 34.649,324.761 34.993,324.761 L35.083,324.753 L35.123,324.745 z M35.533,313.265 L35.533,312.823 L33.704,312.75 L33.723,312.819 L33.87,313.338 L35.533,313.265 z M35.301,305.61 L35.725,305.016 L35.614,305.025 C35.61,305.027 33.434,305.229 33.069,305.371 L33.085,305.471 L35.301,305.61 z M37.311,317.372 L37.311,316.586 L36.234,316.496 L36.23,316.549 L36.18,317.296 L37.311,317.372 z M38.063,313.476 L38.063,313.03 L36.269,312.888 L36.255,312.922 L36.091,313.33 L38.063,313.476 z M41.485,324.284 L41.477,324.27 C41.458,324.24 40.893,323.148 35.828,322.737 L35.777,322.732 L35.773,322.785 L35.632,324.678 L35.679,324.686 C35.681,324.686 36.163,324.763 36.851,324.84 C37.539,324.918 38.43,324.997 39.246,324.997 C39.529,324.997 39.801,324.985 40.055,324.965 C40.307,324.941 40.541,324.908 40.741,324.858 C41.141,324.756 41.429,324.587 41.482,324.303 L41.485,324.284 z M18.114,321.096 L18.216,321.187 C18.305,321.262 18.487,321.339 18.738,321.414 C18.99,321.492 19.312,321.569 19.684,321.651 C21.91,322.135 25.834,322.634 25.834,322.635 L25.879,322.641 L26.164,321.495 L26.164,321.489 L26.115,321.42 C26.043,321.381 25.874,321.352 25.627,321.326 C25.381,321.3 25.056,321.278 24.674,321.256 C22.401,321.132 18.25,321.097 18.25,321.097 L18.114,321.096 z M25.531,328.146 C24.417,328.167 23.362,328.187 22.406,328.201 C21.452,328.217 20.594,328.231 19.876,328.241 C19.27,328.252 18.763,328.26 18.38,328.266 C17.997,328.271 17.739,328.273 17.626,328.275 C17.656,328.098 17.669,327.92 17.669,327.741 C17.665,325.615 15.829,323.444 15.827,323.438 L15.807,323.415 L15.556,323.479 L15.426,323.312 L15.223,323.217 L15.023,323.166 L14.91,323.148 C14.791,323.118 14.676,323.022 14.595,322.934 C14.513,322.843 14.466,322.763 14.464,322.763 C14.37,322.573 14.247,322.453 14.139,322.378 C14.031,322.303 13.937,322.273 13.9,322.263 C13.81,322.171 13.753,322.08 13.717,321.994 L13.669,321.751 C13.669,321.645 13.697,321.551 13.725,321.482 L13.778,321.382 L13.825,321.318 L13.746,321.302 C13.714,321.296 13.521,321.22 13.215,321.092 C12.909,320.964 12.489,320.783 12,320.57 C11.262,320.251 10.358,319.855 9.415,319.442 C8.474,319.027 7.496,318.596 6.609,318.204 C5.01,317.495 3.716,316.918 3.472,316.811 L3.583,316.428 L5.239,317.023 L5.248,317.027 L9.043,318.492 L9.04,318.493 L9.135,318.528 L9.162,318.539 L13.642,320.144 L13.637,320.148 L13.709,320.166 L13.75,320.181 L13.753,320.178 L17.81,321.209 L18.383,318.63 L18.315,318.634 L15.105,318.831 L15.372,318.559 C16.187,317.725 17.018,316.85 17.135,316.586 L17.168,316.507 L17.083,316.515 L11.38,317.052 L15.944,313.994 L15.792,313.984 L11.584,313.721 C15.62,311.555 20.101,309.122 20.102,309.121 L20.117,309.113 L20.125,309.099 C20.415,308.435 20.576,307.816 20.664,307.314 C20.753,306.812 20.767,306.423 20.767,306.21 L20.766,306.089 L27.058,306.293 L26.982,305.303 L26.937,305.3 C26.937,305.3 26.509,305.274 25.881,305.25 C25.253,305.226 24.423,305.199 23.624,305.199 C22.54,305.199 21.515,305.244 21.08,305.402 L21.065,305.406 L21.047,305.432 L21.008,305.406 C21.136,305.245 21.271,304.937 21.407,304.564 C21.549,304.167 21.692,303.691 21.819,303.231 C22.074,302.312 22.266,301.465 22.266,301.465 L22.277,301.408 L21.593,301.34 L21.64,301.104 L22.249,301.24 L22.251,301.232 L27.054,301.508 L27.054,301.015 L27.029,300.999 C26.974,300.969 26.873,300.951 26.736,300.94 C26.599,300.93 26.425,300.928 26.216,300.927 C24.984,300.927 22.741,301.089 22.292,301.123 L23.384,298.188 L22.611,298.188 L22.621,297.952 L27.324,297.879 L27.529,295.152 L27.907,295.207 L27.771,298.011 L31.954,298.424 L31.999,298.606 L31.465,298.673 L31.465,298.718 C31.468,299.328 32.126,301.227 32.31,301.747 C32.245,301.719 32.165,301.689 32.073,301.661 C31.906,301.61 31.695,301.562 31.454,301.512 C30.017,301.222 27.555,300.993 27.554,300.993 L27.498,300.986 L27.498,301.653 L27.562,301.64 C27.7,301.607 27.881,301.593 28.092,301.593 C28.46,301.593 28.913,301.638 29.385,301.705 C29.859,301.773 30.35,301.866 30.795,301.958 C31.576,302.118 32.215,302.277 32.362,302.315 L32.432,302.668 L32.475,302.667 C34.184,302.6 35.69,302.53 35.69,302.53 L35.737,302.529 L35.804,300.572 L36.183,300.735 L36.183,302.462 L39.679,302.395 L39.731,302.712 L39.384,302.78 L40.129,305.424 C39.926,305.392 39.354,305.303 38.705,305.21 C37.894,305.098 36.962,304.984 36.474,304.984 C36.31,304.986 36.203,304.99 36.134,305.036 L36.119,305.049 L36.114,305.068 L36.035,305.468 L36.095,305.471 C36.095,305.471 36.614,305.5 37.284,305.527 C37.956,305.558 38.779,305.586 39.385,305.586 C39.782,305.585 40.078,305.576 40.204,305.539 L40.618,305.6 L40.568,305.848 L40.138,305.848 L40.568,308.074 L41.206,307.995 L41.341,306.302 L41.586,306.352 L41.655,308.07 L44.114,308.003 L44.114,308.309 L43.821,308.309 L44.436,310.151 L41.639,310.018 L41.628,310.12 L44.6,310.593 L45.01,313.192 L45.492,313.261 L45.537,313.437 L45.017,313.437 C44.927,313.286 44.429,312.755 41.704,312.755 L41.67,312.755 L41.656,312.785 L41.495,313.19 L44.946,313.536 L45.595,316.332 L45.476,316.3 C44.652,316.107 41.777,315.898 41.777,315.898 L41.706,315.893 L41.723,315.963 L41.868,316.543 L41.903,316.549 C42.317,316.604 42.784,316.626 43.247,316.626 C44.377,316.626 45.475,316.504 45.652,316.484 L45.908,316.738 L45.598,316.802 L45.624,316.859 C45.689,317.005 45.739,317.242 45.777,317.513 C45.817,317.783 45.842,318.088 45.859,318.373 C45.894,318.942 45.894,319.437 45.894,319.437 L45.894,319.471 L46.362,319.671 L46.315,319.861 L45.519,319.796 L44.993,320.17 L45.706,322.021 L46.393,321.954 C46.497,322.167 46.567,322.368 46.611,322.555 C46.655,322.742 46.674,322.913 46.674,323.071 C46.674,323.262 46.647,323.432 46.608,323.579 C46.567,323.727 46.514,323.851 46.461,323.95 C46.354,324.152 46.25,324.255 46.25,324.257 L46.236,324.27 L46.235,324.289 C46.221,324.495 46.083,324.763 45.883,325.044 C45.684,325.326 45.423,325.624 45.164,325.89 C44.645,326.426 44.134,326.85 44.133,326.854 L44.112,326.869 L44.114,326.896 L44.123,327.023 C44.122,327.143 44.102,327.229 44.073,327.298 L43.964,327.445 L43.859,327.51 L43.817,327.524 L43.811,327.524 L43.809,327.526 C43.656,327.574 43.127,327.626 42.32,327.674 C41.514,327.724 40.431,327.77 39.172,327.814 L25.531,328.146 z M33.801,316.392 L34.066,316.724 L34.138,317.161 L35.316,317.234 L35.548,316.38 L33.73,316.306 L33.801,316.392 z M33.311,308.57 L33.383,309.437 L35.667,309.437 L35.742,308.303 L33.306,308.52 L33.311,308.57 z M36.183,308.431 L36.255,309.506 L38.874,309.506 L39.024,308.759 L39.012,308.743 L38.826,308.647 C38.223,308.481 36.239,308.378 36.236,308.378 L36.179,308.374 L36.183,308.431" fill="#000000"/>
      <path d="M45.715,316.403 L45.76,316.471 L45.677,316.479 L45.652,316.484 L45.624,316.454 L45.595,316.332 C45.691,316.379 45.704,316.389 45.713,316.4 L45.715,316.403" fill="#1B1A19"/>
      <path d="M45.056,313.539 L45.058,313.548 L45.053,313.548 L45.051,313.539 L45.056,313.539" fill="#1B1A19"/>
      <path d="M45.056,313.539 L45.051,313.539 L45.053,313.548 L44.946,313.536 L44.922,313.437 L45.017,313.437 L45.036,313.476 L45.056,313.539" fill="#1B1A19"/>
      <path d="M44.714,310.583 L44.726,310.613 L44.707,310.61 L44.703,310.587 L44.714,310.583" fill="#1B1A19"/>
      <path d="M44.703,310.587 L44.707,310.61 L44.6,310.593 L44.587,310.51 L44.676,310.486 L44.714,310.583 L44.703,310.587" fill="#1B1A19"/>
      <path d="M44.6,310.593 L44.707,310.61 L45.101,313.102 L45.575,313.169 L45.668,313.539 L45.056,313.539 L45.036,313.476 L45.017,313.437 L45.537,313.437 L45.492,313.261 L45.01,313.192 L44.6,310.593" fill="#1B1A19"/>
      <path d="M44.544,310.157 L44.584,310.258 L44.473,310.258 L44.473,310.256 L44.471,310.256 L44.436,310.151 L44.544,310.157" fill="#1B1A19"/>
      <path d="M44.471,310.256 L44.473,310.256 L44.473,310.258 L44.471,310.258 z" fill="#1B1A19"/>
      <path d="M41.686,306.266 L41.754,307.967 L44.217,307.897 L44.217,308.411 L43.964,308.411 L44.545,310.155 L44.544,310.157 L44.436,310.151 L43.821,308.309 L44.114,308.309 L44.114,308.003 L41.655,308.07 L41.586,306.352 L41.341,306.302 L41.206,307.995 L40.568,308.074 L40.138,305.848 L40.568,305.848 L40.618,305.6 L40.204,305.539 L40.216,305.537 L40.209,305.437 L40.237,305.428 L40.241,305.441 L40.739,305.513 L40.653,305.949 L40.262,305.949 L40.652,307.962 L41.11,307.904 L41.248,306.18 L41.686,306.266" fill="#1B1A19"/>
      <path d="M40.209,305.437 L40.216,305.537 L40.204,305.539 L40.159,305.533 L40.129,305.424 L40.209,305.437" fill="#1B1A19"/>
      <path d="M32.515,302.563 C34.03,302.501 35.372,302.443 35.637,302.43 L35.708,300.42 L36.285,300.667 L36.285,302.358 L39.765,302.29 L39.849,302.792 L39.512,302.861 L40.237,305.428 L40.209,305.437 L40.129,305.424 L39.384,302.78 L39.731,302.712 L39.679,302.395 L36.183,302.462 L36.183,300.735 L35.804,300.572 L35.737,302.529 L35.69,302.53 C35.69,302.53 34.184,302.6 32.475,302.667 L32.432,302.668 L32.362,302.315 L32.392,302.322 L32.456,302.341 L32.456,302.326 L32.466,302.326 L32.515,302.563" fill="#1B1A19"/>
      <path d="M32.392,302.322 L32.362,302.315 L32.342,302.222 L32.456,302.222 L32.456,302.341 L32.392,302.322" fill="#1B1A19"/>
      <path d="M32.438,301.825 L32.44,301.826 L32.456,301.84 L32.456,301.932 L32.365,301.905 L32.357,301.881 L32.31,301.747 L32.438,301.825" fill="#1B1A19"/>
      <path d="M22.611,298.188 L23.384,298.188 L22.292,301.123 L22.211,301.13 L22.183,301.12 L23.236,298.29 L22.504,298.29 L22.523,297.853 L27.229,297.778 L27.435,295.036 L28.013,295.117 L27.877,297.92 L32.035,298.329 L32.126,298.693 L31.568,298.764 C31.585,299.111 31.797,299.865 32.009,300.531 C32.107,300.842 32.205,301.135 32.284,301.362 C32.363,301.593 32.423,301.761 32.444,301.822 L32.44,301.826 L32.438,301.825 L32.31,301.747 C32.126,301.227 31.468,299.328 31.465,298.718 L31.465,298.673 L31.999,298.606 L31.954,298.424 L27.771,298.011 L27.907,295.207 L27.529,295.152 L27.324,297.879 L22.621,297.952 L22.611,298.188" fill="#1B1A19"/>
      <path d="M14.996,318.941 C14.306,319.633 14.286,319.651 14.267,319.669 C14.071,319.863 13.92,320.014 13.839,320.095 L13.837,320.095 L14.99,318.941 L14.996,318.941" fill="#1B1A19"/>
      <path d="M13.737,320.048 L14.945,318.84 L14.95,318.84 C14.378,319.422 13.877,319.912 13.737,320.048" fill="#1B1A19"/>
      <path d="M13.753,320.178 L13.75,320.181 L13.709,320.166 L13.753,320.178" fill="#1B1A19"/>
      <path d="M14.99,318.941 L13.837,320.095 L13.839,320.095 L13.773,320.159 L13.753,320.178 L13.709,320.166 L13.642,320.144 L13.722,320.062 L13.737,320.048 C13.877,319.912 14.378,319.422 14.95,318.84 L15.105,318.831 L14.996,318.941 L14.99,318.941" fill="#1B1A19"/>
      <path d="M13.642,320.144 L13.709,320.166 L13.637,320.148 L13.642,320.144" fill="#1B1A19"/>
      <path d="M10.983,314.045 C11.182,313.937 11.383,313.828 11.584,313.721 L15.792,313.984 L15.944,313.994 L11.38,317.052 L11.258,317.062 L9.151,318.423 L15.634,314.076 L11.423,313.814 L10.983,314.045" fill="#1B1A19"/>
      <path d="M11.293,317.163 L9.27,318.467 L11.38,317.052 L17.083,316.515 L17.168,316.507 L17.135,316.586 C17.018,316.85 16.187,317.725 15.372,318.559 L15.105,318.831 L14.95,318.84 C15.064,318.726 15.181,318.607 15.298,318.487 C15.665,318.115 16.038,317.727 16.344,317.393 C16.651,317.06 16.892,316.779 16.995,316.626" fill="#1B1A19"/>
      <path d="M9.135,318.528 L9.162,318.539 L9.135,318.528" fill="#1B1A19"/>
      <path d="M9.149,318.423 L9.043,318.492 L5.248,317.027 L5.258,317.027 C5.278,317.025 5.303,317.018 5.401,316.976 L9.149,318.423" fill="#1B1A19"/>
      <path d="M11.38,317.052 L9.27,318.467 L9.162,318.539 L9.135,318.528 L9.043,318.492 L9.149,318.423 L9.151,318.423 L11.258,317.062 L11.38,317.052" fill="#1B1A19"/>
      <path d="M9.043,318.492 L9.135,318.528 L9.04,318.493 L9.043,318.492" fill="#1B1A19"/>
      <path d="M10.983,314.045 C8.441,315.406 6.183,316.604 5.491,316.934 L5.401,316.976 L5.383,316.969 L10.983,314.045" fill="#1B1A19"/>
      <path d="M6.703,316.201 C7.135,315.976 7.646,315.706 8.209,315.406 C8.775,315.108 9.393,314.777 10.043,314.43 C10.354,314.266 10.673,314.092 10.996,313.921 L11.036,313.899 L11.401,313.709 L11.584,313.721 C11.383,313.828 11.182,313.937 10.983,314.045 L5.383,316.969 L5.401,316.976 C5.303,317.018 5.278,317.025 5.258,317.027 L5.248,317.027 L5.239,317.023 L5.133,316.982 L5.254,316.92 L5.26,316.923 L5.281,316.916 L5.366,316.881 C5.437,316.847 5.539,316.797 5.664,316.735 C5.79,316.673 5.942,316.596 6.115,316.506 C6.291,316.417 6.487,316.314 6.703,316.201" fill="#1B1A19"/>
      <path d="M5.254,316.92 L10.996,313.921 C10.673,314.092 10.354,314.266 10.043,314.43 C9.393,314.777 8.775,315.108 8.209,315.406 C7.646,315.706 7.135,315.976 6.703,316.201 C6.487,316.314 6.291,316.417 6.115,316.506 C5.942,316.596 5.79,316.673 5.664,316.735 C5.539,316.797 5.437,316.847 5.366,316.881 L5.281,316.916 L5.26,316.923 L5.254,316.92" fill="#1B1A19"/>
    </g>
  </g>
</svg>
