<?xml version="1.0" encoding="UTF-8"?>
<!DOCTYPE svg PUBLIC "-//W3C//DTD SVG 1.1//EN" "http://www.w3.org/Graphics/SVG/1.1/DTD/svg11.dtd">
<svg version="1.1" xmlns="http://www.w3.org/2000/svg" xmlns:xlink="http://www.w3.org/1999/xlink" x="0" y="0" width="25.655" height="17.147" viewBox="0, 0, 25.655, 17.147">
  <g id="Layer_1" transform="translate(-566.002, -128.042)">
    <g>
      <path d="M577.968,135.449 L577.968,130.523 C577.968,130.149 577.665,129.847 577.292,129.847 L577.179,129.847 C576.806,129.847 576.501,130.149 576.501,130.523 L576.501,135.449 C576.501,135.824 576.806,136.126 577.179,136.126 L577.292,136.126 C577.665,136.126 577.968,135.824 577.968,135.449 z M581.766,133.757 L581.766,130.674 C581.766,130.3 581.463,129.997 581.09,129.997 L579.51,129.997 C579.136,129.997 578.834,130.3 578.834,130.674 L578.834,133.757 C578.834,134.131 579.136,134.434 579.51,134.434 L581.09,134.434 C581.463,134.434 581.766,134.131 581.766,133.757 z M591.657,140.301 L591.05,142.261 L590.332,142.275 C590.063,140.766 588.386,140.54 588.386,140.54 C586.101,140.427 585.791,142.543 585.791,142.543 C584.733,142.316 584.451,141.612 584.451,141.612 L583.831,141.767 L583.929,142.204 C583.662,141.965 582.83,141.88 582.83,141.88 C582.293,142.247 580.404,142.458 580.404,142.458 L580.375,142.642 C580.277,142.585 580.038,142.726 580.038,142.726 C579.938,142.839 579.784,142.782 579.784,142.782 L579.741,141.09 C579.557,141.077 579.784,140.526 579.784,140.526 L578.71,137.452 L575.158,137.325 L575.185,137.917 L574.665,138.101 C571.9,139.469 572.563,142.163 572.563,142.163 C572.196,141.612 572.239,143.699 572.239,143.699 C572.239,143.883 572.083,143.967 572.083,143.967 C571.815,143.967 571.674,144.475 571.674,144.475 C571.434,144.659 571.096,144.461 571.096,144.461 L571.096,143.939 L569.616,143.84 L566.005,143.318 C565.977,143.177 566.189,143.079 566.189,143.079 L571.096,143.501 L571.139,142.937 L570.038,142.811 C569.799,142.726 567.387,142.374 567.387,142.374 L567.613,142.261 L571.181,142.599 L571.35,140.564 C571.424,136.991 572.816,137.593 572.816,137.593 L573.982,128.042 L574.922,128.154 L575.412,128.831 C575.412,129.433 575.148,129.433 575.148,129.433 L574.922,131.238 C575.487,131.689 574.885,131.952 574.885,131.952 L574.283,137.555 C574.283,138.872 574.735,137.217 574.735,137.217 C574.17,136.916 574.749,136.634 574.749,136.634 C574.735,135.662 576.329,129.696 576.329,129.696 L576.468,129.245 L582.209,129.386 C582.857,129.371 582.631,129.484 582.631,129.484 C582.576,129.738 582.673,130.034 582.673,130.034 L582.97,130.048 L583.042,129.499 L583.336,129.526 L583.351,130.316 C583.125,130.316 583.167,130.499 583.167,130.499 L582.857,130.909 L583.859,135.252 C583.943,135.421 583.916,135.534 583.916,135.534 L584.718,135.647 C584.86,134.293 585.607,134.533 585.607,134.533 C586.185,134.603 586.171,135.365 586.171,135.365 C586.073,135.478 585.819,135.393 585.819,135.393 C585.862,135.153 585.635,134.9 585.635,134.9 C585.184,134.702 585.085,135.506 585.085,135.506 L585.227,135.534 L585.227,135.703 L586.185,135.858 C586.369,135.858 586.2,135.774 586.2,135.774 L586.231,135.369 L586.34,133.969 C586.467,133.983 586.425,133.913 586.425,133.913 C586.51,132.022 587.822,131.698 587.822,131.698 C587.864,132.009 587.582,132.333 587.582,132.333 C586.736,132.897 586.975,134.067 586.975,134.067 L586.875,135.83 C586.679,135.83 586.778,135.915 586.778,135.915 L590.317,136.353 L590.938,136.676 L591.037,139.919 L591.657,140.301" fill="#000000"/>
      <path d="M572.554,141.392 C572.554,139.46 574.119,137.894 576.05,137.894 C577.982,137.894 579.547,139.46 579.547,141.392 C579.547,143.323 577.982,144.888 576.05,144.888 C574.119,144.888 572.554,143.323 572.554,141.392" fill="#000000"/>
      <path d="M585.809,142.896 C585.809,141.628 586.836,140.602 588.103,140.602 C589.371,140.602 590.397,141.628 590.397,142.896 C590.397,144.162 589.371,145.189 588.103,145.189 C586.836,145.189 585.809,144.162 585.809,142.896" fill="#000000"/>
    </g>
  </g>
</svg>
