<?xml version="1.0" encoding="UTF-8"?>
<!DOCTYPE svg PUBLIC "-//W3C//DTD SVG 1.1//EN" "http://www.w3.org/Graphics/SVG/1.1/DTD/svg11.dtd">
<svg version="1.1" xmlns="http://www.w3.org/2000/svg" xmlns:xlink="http://www.w3.org/1999/xlink" x="0" y="0" width="5.418" height="12.166" viewBox="0, 0, 5.418, 12.166">
  <g id="Layer_1" transform="translate(-209.392, -149.241)">
    <path d="M209.433,149.773 C209.433,149.773 209.192,149.196 211.884,149.244 C211.884,149.244 215.298,149.196 214.625,149.797 C214.625,149.797 212.942,150.566 213.351,152.827 C213.351,152.827 213.711,154.077 213.976,154.364 C213.976,154.364 215.177,156.359 214.697,157.466 C214.697,157.466 214.529,158.859 213.687,159.485 C213.687,159.485 214.697,160.471 213.278,161.167 C213.278,161.167 212.052,161.793 210.778,161.023 C210.778,161.023 209.697,160.278 210.562,159.485 C210.562,159.485 209.528,158.547 209.433,157.417 C209.433,157.417 209.12,156.263 210.226,154.34 C210.226,154.34 210.802,153.354 210.827,152.778 C210.827,152.778 211.331,150.59 209.433,149.773" fill="#000000"/>
  </g>
</svg>
