<?xml version="1.0" encoding="UTF-8"?>
<!DOCTYPE svg PUBLIC "-//W3C//DTD SVG 1.1//EN" "http://www.w3.org/Graphics/SVG/1.1/DTD/svg11.dtd">
<svg version="1.1" xmlns="http://www.w3.org/2000/svg" xmlns:xlink="http://www.w3.org/1999/xlink" x="0" y="0" width="51.901" height="25.423" viewBox="0, 0, 51.901, 25.423">
  <g id="Layer_1" transform="translate(-407.266, -236.293)">
    <path d="M424.565,250.144 L424.162,249.381 C424.162,249.381 421.353,247.238 421.057,247.017 C421.057,247.017 418.834,247.307 418.654,247.679 C418.654,247.679 423.333,248.27 423.604,250.438 C423.604,250.438 424.171,250.144 424.565,250.144 z M428.606,251.227 C428.606,251.227 428.333,251.03 428.038,251.128 C428.038,251.128 426.068,251.251 425.945,251.227 L426.709,252.68 C426.709,252.68 427.964,252.976 428.606,251.227 z M438.384,259.307 C438.533,258.371 438.311,250.34 438.311,250.34 C433.902,250.512 429.812,251.079 429.812,251.079 L436.463,260.611 C438.113,260.907 438.384,259.307 438.384,259.307 z M440.676,248.933 C440.736,248.946 441.391,249.103 441.595,248.978 C441.595,248.978 452.056,242.975 454.272,241.891 C454.272,241.891 455.11,241.595 455.998,241.645 L456.122,241.495 L458.806,241.447 C458.806,241.447 459.619,242.087 458.806,242.555 L458.191,242.63 C458.191,242.63 458.042,242.728 457.968,242.58 C457.968,242.58 457.525,242.555 457.525,242.654 C457.525,242.654 457.402,242.777 457.279,242.604 C457.279,242.604 456.934,242.58 456.909,242.679 C456.909,242.679 456.787,242.827 456.663,242.604 L456.343,242.63 C456.343,242.63 456.072,242.703 456.072,242.604 C456.072,242.604 455.258,242.63 455.037,242.604 C455.037,242.604 442.523,249.75 442.4,249.798 C442.4,249.798 441.932,250.169 439.345,250.241 C439.345,250.241 439.421,259.135 439.273,259.135 C439.273,259.135 439.163,261.648 437.426,261.685 C437.426,261.685 436.132,262.203 434.174,259.025 L429.187,251.969 C429.187,251.969 426.932,256.032 425.16,251.302 L424.264,251.444 C424.767,251.364 424.336,255.556 424.27,255.794 C423.02,260.269 417.333,262.796 413.218,260.719 C412.489,260.352 411.89,259.867 411.412,259.203 C411.175,258.873 410.506,256.751 410.295,256.691 C410.295,256.691 408.227,256.1 407.414,254.547 C407.414,254.547 406.822,253.587 408.005,252.625 C408.005,252.625 410,251.739 411.479,251.666 C411.479,251.666 413.917,248.413 416.874,247.822 C416.874,247.822 418.647,246.196 419.831,246.123 C419.831,246.123 418.426,245.014 418.056,244.497 L415.026,239.545 C415.026,239.545 413.917,237.993 412.883,237.624 C412.883,237.624 412.144,236.663 413.547,236.293 C413.547,236.293 436.016,237.993 439.046,239.545 C439.046,239.545 442.816,236.884 443.703,236.811 L445.624,236.736 C445.624,236.736 446.437,237.18 445.698,237.697 L443.111,237.845 L440.007,239.915 C440.007,239.915 452.054,244.792 446.363,245.457 C446.363,245.457 441.287,249.061 440.676,248.933 z M410.276,255.365 C409.984,255.261 410.77,252.902 410.77,252.902 C410.278,252.804 408.405,253.789 408.405,253.789 C408.8,254.934 410.232,255.352 410.276,255.365" fill="#000000"/>
  </g>
</svg>
