<?xml version="1.0" encoding="UTF-8"?>
<!DOCTYPE svg PUBLIC "-//W3C//DTD SVG 1.1//EN" "http://www.w3.org/Graphics/SVG/1.1/DTD/svg11.dtd">
<svg version="1.1" xmlns="http://www.w3.org/2000/svg" xmlns:xlink="http://www.w3.org/1999/xlink" x="0" y="0" width="18.046" height="18.044" viewBox="0, 0, 18.046, 18.044">
  <g id="Layer_1" transform="translate(-494.334, -299.505)">
    <g>
      <path d="M496.724,307.804 L502.939,307.804 L502.939,301.589 L496.724,301.589 z M496.724,315.004 L502.939,315.004 L502.939,308.788 L496.724,308.788 z M503.775,307.804 L509.989,307.804 L509.989,301.589 L503.775,301.589 z M503.775,315.004 L509.989,315.004 L509.989,308.788 L503.775,308.788 z M494.459,299.63 L512.255,299.63 L512.255,317.424 L494.459,317.424 z" fill="#000000"/>
      <path d="M502.939,307.804 L503.064,307.804 L503.064,301.464 L496.599,301.464 L496.599,307.929 L503.064,307.929 L503.064,307.804 L502.939,307.804 L502.939,307.679 L496.849,307.679 L496.849,301.714 L502.814,301.714 L502.814,307.804 L502.939,307.804 L502.939,307.679 L502.939,307.804 z M502.939,315.004 L503.064,315.004 L503.064,308.663 L496.599,308.663 L496.599,315.129 L503.064,315.129 L503.064,315.004 L502.939,315.004 L502.939,314.879 L496.849,314.879 L496.849,308.913 L502.814,308.913 L502.814,315.004 L502.939,315.004 L502.939,314.879 L502.939,315.004 z M509.989,307.804 L510.114,307.804 L510.114,301.464 L503.65,301.464 L503.65,307.929 L510.114,307.929 L510.114,307.804 L509.989,307.804 L509.989,307.679 L503.9,307.679 L503.9,301.714 L509.864,301.714 L509.864,307.804 L509.989,307.804 L509.989,307.679 L509.989,307.804 z M509.989,315.004 L510.114,315.004 L510.114,308.663 L503.65,308.663 L503.65,315.129 L510.114,315.129 L510.114,315.004 L509.989,315.004 L509.989,314.879 L503.9,314.879 L503.9,308.913 L509.864,308.913 L509.864,315.004 L509.989,315.004 L509.989,314.879 L509.989,315.004 z M512.255,299.63 L512.13,299.63 L512.13,317.299 L494.584,317.299 L494.584,299.755 L512.255,299.755 L512.255,299.63 L512.13,299.63 L512.255,299.63 L512.255,299.505 L494.334,299.505 L494.334,317.549 L512.38,317.549 L512.38,299.505 L512.255,299.505 L512.255,299.63" fill="#FFFFFE"/>
    </g>
  </g>
</svg>
