<?xml version="1.0" encoding="UTF-8"?>
<!DOCTYPE svg PUBLIC "-//W3C//DTD SVG 1.1//EN" "http://www.w3.org/Graphics/SVG/1.1/DTD/svg11.dtd">
<svg version="1.1" xmlns="http://www.w3.org/2000/svg" xmlns:xlink="http://www.w3.org/1999/xlink" x="0" y="0" width="6.196" height="16.941" viewBox="0, 0, 6.196, 16.941">
  <g id="Layer_1" transform="translate(-394.095, -212.55)">
    <path d="M394.896,212.835 C394.896,212.835 396.616,212.193 399.599,212.835 C399.599,212.835 400.511,216.937 400.242,218.429 C400.242,218.429 399.972,220.749 397.569,222.013 C397.569,222.013 397.238,225.058 397.403,228.248 C397.403,228.248 399.391,228.269 399.764,228.829 C399.764,228.829 400.303,229.491 397.092,229.491 C397.092,229.491 394.399,229.512 394.295,228.829 C394.295,228.829 394.295,228.248 396.637,228.248 C396.637,228.248 396.968,227.398 396.76,222.013 C396.76,222.013 394.565,220.853 394.11,218.429 C394.11,218.429 393.922,216.668 394.896,212.835" fill="#000000"/>
  </g>
</svg>
